<?xml version="1.0" encoding="UTF-8"?>
<svg width="23px" height="14px" viewBox="0 0 23 14" version="1.1" xmlns="http://www.w3.org/2000/svg" xmlns:xlink="http://www.w3.org/1999/xlink">
    <title>6D43A441-BD2F-4DD4-9EF3-FE07131A72B7</title>
    <g id="Page-1" stroke="none" stroke-width="1" fill="none" fill-rule="evenodd">
        <g id="01_Home_Web" transform="translate(-767.000000, -1579.000000)" fill="#FFFFFF" fill-rule="nonzero" stroke="#000000" stroke-width="0.5">
            <g id="Group-19" transform="translate(100.000000, 974.000000)">
                <g id="Group-18" transform="translate(0.000000, 186.000000)">
                    <g id="Group-16-Copy-2" transform="translate(636.000000, 0.000000)">
                        <g id="Group-14" transform="translate(32.000000, 305.000000)">
                            <g id="right-arrow-(1)-copy" transform="translate(10.500000, 121.000000) scale(1, -1) translate(-10.500000, -121.000000) translate(0.000000, 115.000000)">
                                <path d="M20.713562,5.31498354 L15.6099512,0.281803294 C15.227676,-0.0951807889 14.6093658,-0.0937775623 14.2288484,0.285093618 C13.8483798,0.663916412 13.8498447,1.27664256 14.2321199,1.65367503 L17.6580947,5.03225758 L0.976562015,5.03225758 C0.437206814,5.03225758 0,5.46551588 0,6 C0,6.53448423 0.437206814,6.96774254 0.976562015,6.96774254 L17.6580459,6.96774254 L14.2321687,10.3463251 C13.8498935,10.7233575 13.8484286,11.3360837 14.2288972,11.7149065 C14.6094146,12.0938261 15.2277737,12.0951325 15.61,11.7181968 L20.7127319,6.68593593 C21.0960813,6.30672603 21.0948606,5.69201601 20.713562,5.31498354 Z" id="Path"></path>
                            </g>
                        </g>
                    </g>
                </g>
            </g>
        </g>
    </g>
</svg>