<svg width="20" height="20" viewBox="0 0 20 20" fill="none" xmlns="http://www.w3.org/2000/svg">
<g clip-path="url(#clip0_0_566)">
<path d="M1.1313 7.11636V15.8719C1.1313 17.5289 2.47138 18.869 4.12821 18.869H15.8718C17.5288 18.869 18.8688 17.5289 18.8688 15.8719V7.147C16.3341 7.80965 13.3076 8.19461 10.0581 8.19461C6.75783 8.19461 3.68902 7.79773 1.1313 7.11636ZM0.00270893 3.44971C0.000915996 3.49638 1.28569e-05 3.54308 0 3.58978L0 16.4105C0 18.3891 1.61097 20.0002 3.58997 20.0002H16.4102C18.3891 20.0002 20 18.3891 20 16.4105V3.58978C20 3.56565 19.9998 3.54137 19.9993 3.51733V6.82291C19.8485 6.87009 19.6957 6.91634 19.5408 6.96146V16.116C19.5408 18.0042 18.0039 19.5411 16.1157 19.5411H3.88421C1.99613 19.5411 0.459138 18.0042 0.459138 16.116V6.92733C0.304188 6.88133 0.151306 6.83424 0.000689545 6.78617V3.56964C0.000738798 3.52955 0.00137909 3.4895 0.00270893 3.44971Z" fill="#3C514A"/>
<path d="M1.13114 4.12372C1.13114 2.47113 2.47122 1.12691 4.12805 1.12691H15.8717C17.5286 1.12691 18.8686 2.47113 18.8686 4.12372V15.8716C18.8686 17.5287 17.5286 18.8688 15.8717 18.8688H4.128C2.47117 18.8688 1.13109 17.5287 1.13109 15.8716L1.13114 4.12372ZM0.458984 3.88395V16.1157C0.458984 18.0039 1.99598 19.5409 3.88405 19.5409H16.1156C18.0038 19.5409 19.5407 18.0039 19.5407 16.1157V3.88395C19.5407 1.99598 18.0038 0.458984 16.1156 0.458984H3.88405C1.99598 0.458984 0.458984 1.99598 0.458984 3.88395Z" fill="#3C514A"/>
<path d="M16.5744 0H3.388C3.29935 0 3.21178 0.00448204 3.12474 0.0111312C1.40404 0.235529 0.0612455 1.68293 0.00292969 3.4496C0.0767602 1.53547 1.65808 0 3.59014 0H16.4104C18.3652 0 19.9608 1.57177 19.9995 3.51722V3.51028C19.9706 1.74726 18.664 0.288279 16.9671 0.023149C16.8382 0.00837304 16.7073 0 16.5744 0" fill="#3C514A"/>
<path d="M15.872 1.12701H4.12839C2.47157 1.12701 1.13149 2.47123 1.13149 4.12382V7.1162C3.6892 7.79757 6.75797 8.19445 10.0582 8.19445C13.3077 8.19445 16.3342 7.80949 18.8689 7.14684V4.12387C18.8689 2.47128 17.5289 1.12701 15.872 1.12701ZM16.4104 0H3.59016C1.6581 0 0.0767772 1.53547 0.00294669 3.4496C0.00166611 3.48939 0.000976562 3.52943 0.000976562 3.56953V6.78601C0.153296 6.83466 0.306121 6.88171 0.459425 6.92717V3.88411C0.459425 1.99613 1.99642 0.459138 3.88449 0.459138H16.1161C18.0042 0.459138 19.5411 1.99613 19.5411 3.88411V6.96135C19.6944 6.91672 19.8472 6.87053 19.9996 6.8228V3.51722C19.9608 1.57177 18.3652 0 16.4104 0Z" fill="#3C514A"/>
<path d="M16.1156 0.458984H3.88405C1.99598 0.458984 0.458984 1.99598 0.458984 3.88395V6.92701C0.682122 6.99318 0.906181 7.05619 1.13109 7.11605V4.12372C1.13109 2.47113 2.47117 1.12691 4.128 1.12691H15.8716C17.5286 1.12691 18.8686 2.47113 18.8686 4.12372V7.14678C19.0935 7.08805 19.3175 7.0262 19.5407 6.96124V3.88395C19.5407 1.99598 18.0038 0.458984 16.1156 0.458984Z" fill="#3C514A"/>
<path fill-rule="evenodd" clip-rule="evenodd" d="M11.7876 7.27015H14.8401V6.39604H11.7876V7.27015ZM13.2922 9.0257C12.6113 9.0257 12.0942 9.44754 12.0444 10.227H14.4873C14.3217 9.30193 13.9108 9.0257 13.2922 9.0257ZM13.3876 12.6411C14.0164 12.6411 14.4777 12.2439 14.5719 11.9093H15.8941C15.5162 13.1194 14.7357 13.799 13.3342 13.799C11.5459 13.799 10.5422 12.5271 10.5422 10.8392C10.5422 6.86444 16.2775 6.72194 15.9895 11.2104H12.0444C12.0828 12.1218 12.4589 12.6411 13.3876 12.6411ZM7.43757 12.4662C8.15928 12.4662 8.66442 12.1886 8.66442 11.4395C8.66442 10.6625 8.21808 10.3254 7.46877 10.3254H5.66059V12.4662H7.43757ZM7.34218 9.15693C7.94271 9.15693 8.35726 8.8774 8.35726 8.22804C8.35726 7.544 7.87492 7.33284 7.2156 7.33284H5.66059V9.15693H7.34218ZM7.55396 6C8.97638 6 9.96506 6.47016 9.96506 7.93306C9.96506 8.65739 9.67409 9.19717 8.93919 9.56089C9.87987 9.84033 10.325 10.5741 10.325 11.5382C10.325 13.0686 9.11136 13.799 7.65954 13.799H4V6H7.55396Z" fill="white"/>
</g>
<defs>
<clipPath id="clip0_0_566">
<rect width="20" height="20" rx="5" fill="white"/>
</clipPath>
</defs>
</svg>
