<svg width="60" height="60" viewBox="0 0 60 60" fill="none" xmlns="http://www.w3.org/2000/svg">
<g clip-path="url(#clip0_146_986)">
<path d="M31.4989 59.9314H28.5469C28.4384 59.9094 28.3308 59.8804 28.2212 59.8664C26.8734 59.6943 25.5083 59.6084 24.1802 59.3398C17.6367 58.0162 12.0656 54.9034 7.68651 49.866C0.895318 42.0537 -1.39004 32.9898 0.970353 22.9271C4.04848 9.80471 15.6179 0.492838 29.041 0.063913C29.3344 0.0545767 29.627 0.0218307 29.92 0H30.1946C30.2921 0.0181236 30.3896 0.0518993 30.4871 0.0520366C32.3692 0.0542334 34.232 0.262929 36.0694 0.650801C42.6891 2.04803 48.2748 5.26943 52.6723 10.4034C58.3248 17.0027 60.6657 24.6865 59.7869 33.3353C59.4369 36.7794 58.473 40.0567 56.9322 43.1541C53.8791 49.2912 49.2667 53.8807 43.1226 56.9151C39.8517 58.5305 36.3864 59.4797 32.7503 59.7994C32.3325 59.8361 31.916 59.887 31.4989 59.9314ZM13.4429 29.498C14.0771 28.8533 14.3299 28.4002 14.345 27.7985C14.3611 27.1583 14.3672 26.5167 14.3442 25.8768C14.3031 24.7325 13.6175 23.8947 12.4836 23.7602C11.5807 23.6531 10.6584 23.6826 9.74552 23.6994C9.32882 23.7071 9.03877 24.0879 9.03823 24.5329C9.03397 27.9766 9.03314 31.4203 9.03919 34.864C9.04008 35.3574 9.39555 35.6929 9.8971 35.6984C10.6521 35.7065 11.4076 35.715 12.1623 35.697C13.6284 35.6619 14.6776 34.5808 14.6823 33.1212C14.6839 32.6292 14.6814 32.1372 14.6828 31.6453C14.6855 30.7021 14.3469 29.9527 13.4429 29.498ZM30.4034 28.6846C30.4034 28.5385 30.4033 28.415 30.4033 28.2915C30.4033 27.0443 30.4039 25.7973 30.4032 24.5501C30.4028 23.9053 30.0812 23.5477 29.501 23.5442C28.9112 23.5405 28.5765 23.8911 28.5761 24.5294C28.5742 27.9734 28.5741 31.4173 28.5762 34.8612C28.5766 35.4947 28.9175 35.8445 29.5099 35.838C30.0746 35.8317 30.4024 35.4736 30.403 34.8571C30.4041 33.507 30.4032 32.157 30.4033 30.8068V30.4362H32.4194V30.8623C32.4195 32.201 32.4167 33.5397 32.4209 34.8783C32.4227 35.4901 32.7607 35.8372 33.3371 35.8381C33.9173 35.8389 34.2462 35.4951 34.2472 34.8796C34.2489 33.7354 34.2477 32.5913 34.2477 31.4471C34.2476 29.1245 34.2484 26.8018 34.247 24.4792C34.2467 24.002 34.0204 23.6792 33.62 23.5698C32.9784 23.3944 32.4272 23.7935 32.4224 24.4582C32.4134 25.7281 32.4196 26.9982 32.4194 28.2682V28.6846C31.7335 28.6846 31.0961 28.6846 30.4034 28.6846ZM23.7963 33.0277C23.8893 33.0435 23.967 33.0584 24.0452 33.0701C25.6191 33.3066 26.8131 32.4922 27.0126 31.0037C27.0789 30.5089 27.0289 29.999 27.0409 29.4962C27.0528 28.9979 27.0156 28.5154 26.6408 28.1021C26.7882 28.083 26.8994 28.0741 27.0084 28.0534C27.5686 27.9468 27.7919 27.634 27.7087 27.0778C27.6379 26.6051 27.3912 26.4439 26.8098 26.4918C26.7416 26.4974 26.6739 26.5098 26.6057 26.5172C25.812 26.6021 25.0199 26.7157 24.2239 26.7643C23.1233 26.8315 22.2818 27.5096 22.0963 28.5991C22.0203 29.0455 22.0458 29.5089 22.022 29.9644C21.9739 30.8887 22.055 31.776 22.774 32.4805C22.3158 32.8118 22.0295 33.2061 21.9879 33.748C21.9456 34.2993 22.128 34.7528 22.6212 35.0738C22.5163 35.1462 22.4609 35.1844 22.4054 35.2226C21.7645 35.6638 21.5197 36.2828 21.6253 37.0373C21.7281 37.773 22.1865 38.2297 22.8724 38.4399C23.905 38.7564 24.9585 38.7977 25.9601 38.3656C26.3931 38.1788 26.8301 37.8695 27.1174 37.5008C28.2199 36.0851 27.4203 34.0714 25.6961 33.8633C25.2222 33.8061 24.7366 33.8506 24.2565 33.8401C23.7049 33.8279 23.5483 33.5662 23.7963 33.0277ZM49.0704 27.4167C48.8973 27.2724 48.7848 27.1551 48.6512 27.0713C48.0316 26.6828 47.3754 26.65 46.7229 26.9569C46.1176 27.2416 45.8856 27.7902 45.8809 28.42C45.8665 30.3408 45.8593 32.2621 45.8823 34.1828C45.895 35.2512 46.66 35.9363 47.7292 35.9059C48.3084 35.8895 48.7373 35.5927 49.0965 35.1157C49.2162 35.4956 49.4084 35.7649 49.7893 35.8294C50.4152 35.9356 50.8264 35.5854 50.8281 34.9298C50.833 32.9631 50.83 30.9963 50.83 29.0296C50.83 27.5088 50.828 25.988 50.8313 24.4673C50.8321 24.125 50.745 23.8316 50.4309 23.6512C49.7967 23.2869 49.075 23.6953 49.0716 24.4231C49.067 25.4042 49.0704 26.3854 49.0704 27.4167ZM19.0365 35.1072C19.0687 35.205 19.0805 35.249 19.0974 35.2911C19.2752 35.7343 19.6202 35.9164 20.1156 35.8295C20.5037 35.7614 20.7174 35.471 20.7235 35.0018C20.7249 34.8874 20.7237 34.773 20.7237 34.6586C20.7237 32.3485 20.7253 30.0382 20.7226 27.7281C20.722 27.1497 20.4003 26.8355 19.8311 26.8394C19.2765 26.8431 18.9668 27.1641 18.9657 27.7591C18.9621 29.7262 18.9656 31.6934 18.961 33.6603C18.9607 33.7913 18.9594 33.9638 18.8826 34.0453C18.6552 34.2865 18.3534 34.3488 18.0317 34.2562C17.7496 34.1749 17.6425 33.959 17.626 33.6855C17.6156 33.5146 17.6046 33.3433 17.6044 33.1721C17.6028 31.3766 17.6053 29.581 17.6023 27.7855C17.6013 27.163 17.2978 26.841 16.7284 26.8394C16.1503 26.8377 15.8448 27.1563 15.8445 27.7707C15.8431 29.8635 15.8391 31.9565 15.8458 34.0492C15.8499 35.299 16.5574 35.9712 17.7838 35.9046C18.3252 35.8753 18.7354 35.6145 19.0365 35.1072ZM37.4816 31.8564C38.2843 31.8564 39.0487 31.8586 39.8131 31.8555C40.3038 31.8537 40.5474 31.6131 40.5517 31.1167C40.5577 30.4306 40.5674 29.744 40.55 29.0583C40.5165 27.7374 39.6347 26.8147 38.3858 26.7711C36.8094 26.7161 35.8302 27.4377 35.7596 28.8748C35.6782 30.5287 35.6913 32.1903 35.742 33.8462C35.7747 34.9114 36.3955 35.6071 37.3405 35.8195C37.6379 35.8863 37.9519 35.9028 38.2583 35.9028C39.6638 35.9027 40.5493 34.9821 40.5071 33.5816C40.4914 33.0651 40.2046 32.7821 39.6888 32.7746C39.1424 32.7666 38.8607 33.034 38.8417 33.5791C38.8393 33.6476 38.8407 33.7166 38.834 33.7847C38.7907 34.2208 38.5597 34.4488 38.1585 34.4537C37.7661 34.4585 37.5027 34.2235 37.4874 33.7872C37.465 33.1606 37.4816 32.5326 37.4816 31.8564ZM43.4718 27.6789C43.4023 27.3082 43.2881 27.0161 42.9185 26.9248C42.2744 26.7657 41.8292 27.1056 41.8262 27.7692C41.821 28.889 41.8246 30.0088 41.8246 31.1285C41.8246 32.3854 41.8227 33.6423 41.8257 34.8992C41.8269 35.4065 42.035 35.7127 42.4333 35.8166C43.0756 35.984 43.5822 35.6006 43.5832 34.9363C43.586 32.9596 43.584 30.9828 43.5845 29.0061C43.5846 28.6212 43.6926 28.5274 44.0785 28.574C44.2592 28.5958 44.4399 28.6394 44.6204 28.6378C45.0713 28.6337 45.3508 28.3087 45.3688 27.7933C45.3896 27.2049 45.1558 26.8855 44.6718 26.841C44.041 26.7831 43.7944 26.9483 43.4718 27.6789ZM10.8518 34.1036V30.3844C11.2601 30.3844 11.6594 30.3472 12.0486 30.3942C12.4982 30.4484 12.7945 30.7404 12.8199 31.1861C12.8593 31.8796 12.8606 32.5784 12.8213 33.2719C12.7958 33.7209 12.4895 33.9816 12.0419 34.0558C11.8845 34.082 11.7242 34.0963 11.5647 34.1017C11.3382 34.1093 11.1113 34.1036 10.8518 34.1036ZM10.8544 28.7614V25.261C11.2328 25.2873 11.5952 25.2912 11.9503 25.344C12.2323 25.3858 12.4584 25.5844 12.4711 25.8655C12.5041 26.6029 12.5175 27.3441 12.4779 28.0806C12.4585 28.4397 12.1765 28.667 11.8078 28.7105C11.5047 28.7462 11.1973 28.7445 10.8544 28.7614ZM23.7449 29.937C23.7446 29.6167 23.7283 29.2955 23.7484 28.9765C23.7783 28.4995 24.0668 28.2238 24.5085 28.2159C24.9746 28.2075 25.2905 28.4764 25.3102 28.9663C25.3361 29.6057 25.3345 30.2476 25.3117 30.8873C25.2942 31.3755 24.978 31.6551 24.519 31.6501C24.0774 31.6455 23.781 31.3694 23.7493 30.8975C23.7279 30.5787 23.7452 30.2573 23.7449 29.937ZM24.5114 37.2589C24.3531 37.2391 24.1921 37.2316 24.037 37.1975C23.3682 37.0503 23.1233 36.3821 23.4844 35.7037C23.6266 35.4365 23.7998 35.2473 24.1523 35.2948C24.4554 35.3357 24.7676 35.3051 25.0731 35.3344C25.4404 35.3696 25.7212 35.5376 25.8239 35.9245C25.9273 36.3144 25.8152 36.7488 25.4712 36.9527C25.1868 37.1212 24.8492 37.1999 24.5352 37.3183C24.5273 37.2984 24.5194 37.2787 24.5114 37.2589ZM49.0704 31.3384C49.0704 32.1383 49.0707 32.9384 49.0702 33.7383C49.07 34.1338 48.9044 34.3114 48.4801 34.3744C48.0894 34.4325 47.7979 34.2763 47.6952 33.9364C47.6563 33.8075 47.6374 33.6677 47.637 33.5328C47.6331 32.0585 47.6302 30.5842 47.6365 29.11C47.6393 28.4411 48.112 28.1219 48.7122 28.3677C48.9515 28.4657 49.0877 28.6039 49.0786 28.9043C49.0544 29.715 49.0704 30.527 49.0704 31.3384ZM38.7909 30.4464H37.4955C37.4955 29.8854 37.469 29.3412 37.5048 28.801C37.5289 28.4363 37.8123 28.2347 38.1636 28.2416C38.5102 28.2485 38.7575 28.4301 38.7817 28.7968C38.8174 29.3364 38.7909 29.8801 38.7909 30.4464Z" fill="#E9E9E9"/>
<path d="M53.2121 33.696C53.8447 33.6916 54.2728 34.1072 54.2794 34.7324C54.2863 35.3774 53.8532 35.8251 53.2238 35.824C52.6079 35.823 52.1772 35.3871 52.1737 34.761C52.1702 34.1282 52.5873 33.7004 53.2121 33.696Z" fill="#6DB6D1"/>
</g>
<defs>
<clipPath id="clip0_146_986">
<rect width="60" height="60" fill="white"/>
</clipPath>
</defs>
</svg>
