<svg width="60" height="60" viewBox="0 0 60 60" fill="none" xmlns="http://www.w3.org/2000/svg">
<g clip-path="url(#clip0_146_976)">
<path d="M55.25 2.5H28.75C28.7498 5.66106 29.9969 8.69451 32.2204 10.9414C34.4439 13.1883 37.4641 14.4671 40.625 14.5H45.5V19.125C45.5 22.3076 46.7643 25.3598 49.0147 27.6103C51.2652 29.8607 54.3174 31.125 57.5 31.125V4.75C57.5 4.15326 57.2629 3.58097 56.841 3.15901C56.419 2.73705 55.8467 2.5 55.25 2.5Z" fill="#E9E9E9"/>
<path d="M42.125 15.75H15.625C15.6575 18.8894 16.9191 21.8909 19.1391 24.1109C21.3591 26.3309 24.3606 27.5925 27.5 27.625H32.5V32.375C32.4833 33.9391 32.779 35.4908 33.3699 36.9391C33.9607 38.3874 34.8348 39.7031 35.9408 40.8092C37.0469 41.9152 38.3626 42.7893 39.8109 43.3801C41.2592 43.971 42.8109 44.2667 44.375 44.25V18C44.375 17.4033 44.1379 16.831 43.716 16.409C43.294 15.9871 42.7217 15.75 42.125 15.75Z" fill="#E9E9E9"/>
<path d="M29 28.875H2.5C2.5 32.0576 3.76428 35.1098 6.01472 37.3603C8.26515 39.6107 11.3174 40.875 14.5 40.875H19.375V45.5C19.3748 48.6611 20.6219 51.6945 22.8454 53.9414C25.0689 56.1883 28.0891 57.4671 31.25 57.5V31.125C31.25 30.5283 31.0129 29.956 30.591 29.534C30.169 29.1121 29.5967 28.875 29 28.875Z" fill="#E9E9E9"/>
</g>
<defs>
<clipPath id="clip0_146_976">
<rect width="60" height="60" fill="white"/>
</clipPath>
</defs>
</svg>
