<svg width="60" height="60" viewBox="0 0 60 60" fill="none" xmlns="http://www.w3.org/2000/svg">
<path d="M43.94 24.6725H16.06L30 51.955L43.94 24.6725ZM14.045 23.1125L14.745 10.03L5 23.1125H14.045ZM30 8.54L16.5675 23.1125H43.4325L30 8.54ZM14.3075 24.6725H5.1075L27.8225 51.1225L14.3075 24.6725ZM16.365 8.955L15.68 21.77L28.835 7.5L28.45 7.54L16.36 8.82C16.365 8.8625 16.3675 8.9075 16.365 8.955ZM45.6925 24.6725L32.1775 51.1225L54.8925 24.6725H45.6925ZM44.32 21.77L43.635 8.955C43.6329 8.90994 43.6346 8.86478 43.64 8.82L33.7475 7.775L31.165 7.5L44.32 21.77ZM45.955 23.1125H55L49.4475 15.6575L45.255 10.03L45.955 23.1125Z" fill="#E9E9E9"/>
</svg>
