<svg width="60" height="60" viewBox="0 0 60 60" fill="none" xmlns="http://www.w3.org/2000/svg">
<g clip-path="url(#clip0_146_1039)">
<path fill-rule="evenodd" clip-rule="evenodd" d="M44.574 46.2026C39.78 46.2026 38.22 42.4703 39.453 38.2793L41.232 31.9204C42.066 29.2054 41.145 26.6909 38.268 26.6909C35.733 26.6909 34.062 28.0824 33.201 31.5864L29.751 45H23.715L24.798 41.0757C23.025 43.9917 20.559 46.0107 17.52 46.0107C12.84 46.0107 11.382 42.7264 12.453 38.1694L15.201 27H10.944L12.237 21H22.479L18.435 37.6436C17.958 39.4526 17.565 41.6668 19.353 42.0688C19.833 42.1768 23.664 42.1833 25.749 37.5483L28.404 27H24.093L25.386 21H34.602L33.417 27.0234C35.034 24.0054 38.268 21.4409 41.448 21.4409C46.626 21.4409 48.798 26.7683 47.055 32.6543L45.33 38.8887C44.262 43.1697 47.364 43.7396 49.317 38.3306L51.69 39.249C50.286 44.154 47.754 46.2026 44.574 46.2026ZM20.052 11.6543C22.047 11.6543 23.718 13.2177 23.718 15.2637C23.718 17.3127 22.047 18.876 20.052 18.876C18.057 18.876 16.389 17.3127 16.389 15.2637C16.389 13.2177 18.057 11.6543 20.052 11.6543ZM54.561 0H5.43896C2.43596 0 0 2.43296 0 5.43896V54.561C0 57.564 2.43596 60 5.43896 60H54.561C57.564 60 60 57.564 60 54.561V5.43896C60 2.43296 57.564 0 54.561 0Z" fill="#E9E9E9"/>
</g>
<defs>
<clipPath id="clip0_146_1039">
<rect width="60" height="60" fill="white"/>
</clipPath>
</defs>
</svg>
