<svg width="60" height="60" viewBox="0 0 60 60" fill="none" xmlns="http://www.w3.org/2000/svg">
<g clip-path="url(#clip0_146_1045)">
<path d="M49.9609 0.0585938H10.0391C4.5498 0.0585938 0.0585938 4.5498 0.0585938 10.0391V49.961C0.0585938 55.4503 4.5498 59.9415 10.0391 59.9415H49.961C55.4503 59.9415 59.9415 55.4503 59.9415 49.961V10.0391C59.9414 4.5498 55.4502 0.0585938 49.9609 0.0585938ZM30.8279 44.2957H13.8599V15.7043H19.0774V39.9264H30.8279V44.2957ZM46.1402 28.2183C45.7158 28.1334 45.2494 28.0487 44.6129 28.0487C42.1102 28.0487 40.4132 29.6607 39.9464 31.9937C39.8616 32.4605 39.7768 33.0117 39.7768 33.6057V44.2958H34.5595V30.2967C34.5595 27.497 34.5166 25.5034 34.39 23.637H38.9289L39.0984 27.5818H39.268C40.2861 24.655 42.7036 23.1701 44.9099 23.1701C45.4192 23.1701 45.7159 23.2125 46.1404 23.2977L46.1402 28.2183Z" fill="#E9E9E9"/>
</g>
<defs>
<clipPath id="clip0_146_1045">
<rect width="60" height="60" fill="white"/>
</clipPath>
</defs>
</svg>
