<svg width="60" height="60" viewBox="0 0 60 60" fill="none" xmlns="http://www.w3.org/2000/svg">
<g clip-path="url(#clip0_146_1018)">
<path d="M47.5 12.5V47.5H12.5V12.5H47.5ZM47.5 7.5H12.5C11.1739 7.5 9.90215 8.02678 8.96447 8.96447C8.02678 9.90215 7.5 11.1739 7.5 12.5V47.5C7.5 48.8261 8.02678 50.0979 8.96447 51.0355C9.90215 51.9732 11.1739 52.5 12.5 52.5H47.5C48.8261 52.5 50.0979 51.9732 51.0355 51.0355C51.9732 50.0979 52.5 48.8261 52.5 47.5V12.5C52.5 11.1739 51.9732 9.90215 51.0355 8.96447C50.0979 8.02678 48.8261 7.5 47.5 7.5Z" fill="#E9E9E9"/>
<path d="M30.75 40.45L29.325 35.775H22.15L20.725 40.45H16.25L23.175 20.725H28.175L35.125 40.45H30.75ZM28.25 32.275C26.925 28.05 26.2 25.65 26.025 25.1C25.85 24.55 25.75 24.1 25.675 23.775C25.375 24.925 24.525 27.775 23.175 32.275H28.25Z" fill="#E9E9E9"/>
<path d="M37.2 21.55C37.2 20.225 37.95 19.55 39.425 19.55C40.9 19.55 41.65 20.225 41.65 21.55C41.6691 21.8209 41.6298 22.0927 41.535 22.3471C41.4401 22.6016 41.2918 22.8327 41.1 23.025C40.8722 23.2247 40.6064 23.3764 40.3186 23.4709C40.0308 23.5654 39.7269 23.6008 39.425 23.575C37.95 23.575 37.2 22.9 37.2 21.55ZM41.475 40.45H37.5V25.45H41.6L41.475 40.45Z" fill="#E9E9E9"/>
</g>
<defs>
<clipPath id="clip0_146_1018">
<rect width="60" height="60" fill="white"/>
</clipPath>
</defs>
</svg>
