<svg width="60" height="60" viewBox="0 0 60 60" fill="none" xmlns="http://www.w3.org/2000/svg">
<g clip-path="url(#clip0_146_1008)">
<path d="M32.5 40.3H27.75L23.175 32.8L18.625 40.3H14.15L20.675 30.3L14.575 20.675H19.175L23.4 27.75L27.5 20.675H31.975L25.825 30.425L32.5 40.3Z" fill="#E9E9E9"/>
<path d="M36.625 40.575C35.8214 40.602 35.0236 40.4288 34.3036 40.0709C33.5835 39.7131 32.9637 39.1818 32.5 38.525C31.4099 36.8314 30.8848 34.8358 31 32.825C30.8779 30.7943 31.4126 28.7782 32.525 27.075C33.0048 26.4089 33.6412 25.8711 34.378 25.5092C35.1149 25.1473 35.9295 24.9724 36.75 25C37.5984 24.9694 38.4406 25.1553 39.1973 25.5402C39.9539 25.9251 40.6001 26.4963 41.075 27.2H41.2C41.0131 26.2106 40.9128 25.2068 40.9 24.2V19.425H45V40.3H41.85L41.075 38.375H40.9C40.4515 39.0926 39.8175 39.6758 39.0651 40.063C38.3126 40.4502 37.4696 40.6271 36.625 40.575ZM38.075 37.325C38.504 37.3616 38.9356 37.297 39.3351 37.1364C39.7346 36.9757 40.0908 36.7235 40.375 36.4C40.9504 35.4719 41.2294 34.3906 41.175 33.3V32.85C41.272 31.6511 41.011 30.4504 40.425 29.4C40.1329 29.0257 39.7497 28.7327 39.312 28.5488C38.8743 28.365 38.3967 28.2965 37.925 28.35C37.5025 28.3465 37.0859 28.4501 36.7143 28.6512C36.3427 28.8523 36.0281 29.1443 35.8 29.5C35.2356 30.5404 34.9756 31.7187 35.05 32.9C34.9694 34.0499 35.2303 35.1979 35.8 36.2C36.0443 36.5735 36.3841 36.8748 36.7841 37.0726C37.1842 37.2705 37.6299 37.3576 38.075 37.325Z" fill="#E9E9E9"/>
<path d="M47.5 12.5V47.5H12.5V12.5H47.5ZM47.5 7.5H12.5C11.1739 7.5 9.90215 8.02678 8.96447 8.96447C8.02678 9.90215 7.5 11.1739 7.5 12.5V47.5C7.5 48.8261 8.02678 50.0979 8.96447 51.0355C9.90215 51.9732 11.1739 52.5 12.5 52.5H47.5C48.8261 52.5 50.0979 51.9732 51.0355 51.0355C51.9732 50.0979 52.5 48.8261 52.5 47.5V12.5C52.5 11.1739 51.9732 9.90215 51.0355 8.96447C50.0979 8.02678 48.8261 7.5 47.5 7.5Z" fill="#E9E9E9"/>
</g>
<defs>
<clipPath id="clip0_146_1008">
<rect width="60" height="60" fill="white"/>
</clipPath>
</defs>
</svg>
