<svg width="60" height="60" viewBox="0 0 60 60" fill="none" xmlns="http://www.w3.org/2000/svg">
<g clip-path="url(#clip0_146_1025)">
<path d="M47.5 12.5V47.5H12.5V12.5H47.5ZM47.5 7.5H12.5C11.1739 7.5 9.90215 8.02678 8.96447 8.96447C8.02678 9.90215 7.5 11.1739 7.5 12.5V47.5C7.5 48.8261 8.02678 50.0979 8.96447 51.0355C9.90215 51.9732 11.1739 52.5 12.5 52.5H47.5C48.8261 52.5 50.0979 51.9732 51.0355 51.0355C51.9732 50.0979 52.5 48.8261 52.5 47.5V12.5C52.5 11.1739 51.9732 9.90215 51.0355 8.96447C50.0979 8.02678 48.8261 7.5 47.5 7.5Z" fill="#E9E9E9"/>
<path d="M19.6 40.3V20.675H23.75V40.3H19.6Z" fill="#E9E9E9"/>
<path d="M32.025 40.575C31.2172 40.6062 30.4144 40.435 29.6897 40.077C28.9649 39.719 28.3411 39.1855 27.875 38.525C26.7849 36.8314 26.2598 34.8358 26.375 32.825C26.2529 30.7943 26.7876 28.7782 27.9 27.075C28.3849 26.4099 29.0266 25.8747 29.768 25.5171C30.5094 25.1595 31.3276 24.9905 32.15 25.025C32.9984 24.9944 33.8406 25.1803 34.5973 25.5652C35.3539 25.9501 36.0002 26.5213 36.475 27.225H36.6C36.4131 26.2356 36.3128 25.2318 36.3 24.225V19.425H40.4V40.3H37.25L36.475 38.375H36.3C35.8515 39.0926 35.2175 39.6758 34.4651 40.063C33.7127 40.4502 32.8696 40.6271 32.025 40.575ZM33.475 37.325C33.904 37.3616 34.3357 37.297 34.7351 37.1364C35.1346 36.9757 35.4908 36.7235 35.775 36.4C36.346 35.4701 36.6247 34.3901 36.575 33.3V32.85C36.6721 31.6511 36.411 30.4504 35.825 29.4C35.5329 29.0257 35.1497 28.7327 34.712 28.5488C34.2743 28.365 33.7967 28.2965 33.325 28.35C32.9025 28.3465 32.486 28.4501 32.1143 28.6512C31.7427 28.8523 31.4282 29.1443 31.2 29.5C30.6376 30.5321 30.3777 31.7018 30.45 32.875C30.3674 34.033 30.6283 35.1896 31.2 36.2C31.4443 36.5735 31.7841 36.8748 32.1841 37.0726C32.5842 37.2705 33.0299 37.3576 33.475 37.325Z" fill="#E9E9E9"/>
</g>
<defs>
<clipPath id="clip0_146_1025">
<rect width="60" height="60" fill="white"/>
</clipPath>
</defs>
</svg>
