<svg width="60" height="60" viewBox="0 0 60 60" fill="none" xmlns="http://www.w3.org/2000/svg">
<g clip-path="url(#clip0_146_1032)">
<path d="M47.5 12.5V47.5H12.5V12.5H47.5ZM47.5 7.5H12.5C11.1739 7.5 9.90215 8.02678 8.96447 8.96447C8.02678 9.90215 7.5 11.1739 7.5 12.5V47.5C7.5 48.8261 8.02678 50.0979 8.96447 51.0355C9.90215 51.9732 11.1739 52.5 12.5 52.5H47.5C48.8261 52.5 50.0979 51.9732 51.0355 51.0355C51.9732 50.0979 52.5 48.8261 52.5 47.5V12.5C52.5 11.1739 51.9732 9.90215 51.0355 8.96447C50.0979 8.02678 48.8261 7.5 47.5 7.5Z" fill="#E9E9E9"/>
<path d="M31.175 26.3C31.2301 27.2047 31.0813 28.1103 30.7394 28.9497C30.3976 29.7892 29.8715 30.5412 29.2 31.15C27.5777 32.3662 25.5731 32.9605 23.55 32.825H21.775V39.825H17.5V20.175H23.875C25.8088 20.0423 27.7281 20.5907 29.3 21.725C29.9433 22.292 30.4472 22.9998 30.7724 23.7933C31.0976 24.5868 31.2354 25.4446 31.175 26.3ZM21.775 29.425H23.15C24.1646 29.4961 25.1745 29.2327 26.025 28.675C26.344 28.4023 26.5957 28.0596 26.7605 27.6737C26.9252 27.2878 26.9987 26.869 26.975 26.45C27.0077 26.0549 26.953 25.6574 26.8147 25.2858C26.6764 24.9142 26.458 24.5776 26.175 24.3C25.4526 23.7744 24.5653 23.526 23.675 23.6H21.775V29.425Z" fill="#E9E9E9"/>
<path d="M41 24.525C41.4648 24.4662 41.9352 24.4662 42.4 24.525L42.075 28.35C41.681 28.2632 41.2784 28.2213 40.875 28.225C39.7677 28.1548 38.6758 28.5128 37.825 29.225C37.4526 29.5915 37.162 30.0328 36.9724 30.5197C36.7828 31.0066 36.6985 31.5282 36.725 32.05V39.7H32.625V24.7H35.725L36.325 27.2H36.525C36.9738 26.373 37.6282 25.6755 38.425 25.175C39.2002 24.7085 40.0963 24.4823 41 24.525Z" fill="#E9E9E9"/>
</g>
<defs>
<clipPath id="clip0_146_1032">
<rect width="60" height="60" fill="white"/>
</clipPath>
</defs>
</svg>
