<svg width="60" height="60" viewBox="0 0 60 60" fill="none" xmlns="http://www.w3.org/2000/svg">
<path d="M56.9772 12.2766C56.8824 12.312 54.6732 13.3812 52.0722 14.64L47.3214 16.944L45.468 16.3032C39.7668 14.3436 33.2466 13.4052 27.7002 13.7256C21.12 14.1174 15.1812 15.5904 10.0026 18.132C5.48944 20.3412 2.69824 22.752 1.33264 25.6386C-0.626963 29.7714 1.41604 34.5582 6.61804 38.0142C10.4664 40.5678 14.9796 42.1596 21.4998 43.2522L21.939 43.3236V45.2598C21.939 46.9938 21.963 47.2314 22.1646 47.481L22.3902 47.766H30.0036C37.1418 47.766 37.617 47.754 37.8186 47.5524C37.9968 47.3742 38.0442 47.0532 38.0916 45.3078L38.151 43.2648L39.6948 43.0032C41.88 42.6234 43.5786 42.2076 45.5976 41.5662L47.3436 41.0196L51.5364 43.0146C53.8404 44.1192 56.0496 45.1644 56.4534 45.3546C57.0828 45.6516 57.2256 45.675 57.546 45.5562C57.7596 45.4848 57.9852 45.3306 58.0446 45.2118C58.116 45.0696 58.1634 42.7176 58.1634 39.1068C58.1634 33.501 58.1754 33.2154 58.389 32.8356C58.5198 32.6214 58.7928 31.9332 59.0064 31.3152C59.3526 30.318 59.4 30.033 59.4 28.881C59.4 27.408 59.2338 26.6718 58.5684 25.3536L58.1646 24.546V18.6786C58.1646 13.2624 58.1526 12.7992 57.9624 12.5736C57.7374 12.3006 57.2622 12.1578 56.9772 12.2766ZM56.3832 18.4884C56.3832 20.5788 56.3592 22.2888 56.3118 22.2888C56.2758 22.2888 55.884 21.9678 55.4328 21.576C54.2928 20.6022 52.677 19.545 50.9904 18.654L49.554 17.9064L50.6826 17.3718C51.3 17.0868 52.797 16.362 54.0084 15.7686C55.2198 15.1866 56.241 14.6994 56.301 14.688C56.3472 14.6874 56.3832 16.398 56.3832 18.4884ZM34.7664 15.816C45.7644 17.1462 55.3374 21.8616 57.2022 26.862C57.4872 27.6222 57.5112 27.8004 57.309 27.717C52.677 25.6386 48.6978 24.2844 44.2794 23.2986C30.7278 20.2818 17.3184 21.339 4.66924 26.3988C3.62464 26.814 2.75764 27.147 2.73424 27.123C2.71024 27.099 2.91244 26.6358 3.18544 26.1018C3.76744 24.9258 5.25184 23.3106 6.73684 22.218C11.3454 18.8448 18.8394 16.3626 26.5716 15.6378C28.2108 15.4836 32.9022 15.5904 34.7664 15.816ZM33.4602 23.5956C41.5368 24.1536 49.5654 26.1492 56.0622 29.2014C56.763 29.5338 57.333 29.8428 57.333 29.8902C57.333 30.009 54.0072 31.3272 52.725 31.719C49.0074 32.8836 45.0522 33.537 40.23 33.81C36.9042 34.0002 27.2244 33.9648 24.849 33.7506C19.8366 33.3114 15.1452 32.4324 10.359 31.0188C8.34004 30.4248 5.50144 29.451 4.36084 28.9644L3.85024 28.7508L5.20444 28.1928C11.6178 25.5798 18.3288 24.0594 25.74 23.5608C27.0822 23.4648 31.9044 23.4888 33.4602 23.5956ZM4.02904 30.8526C8.36404 32.5746 13.6854 34.0356 18.7326 34.8672C23.2224 35.6034 26.2152 35.829 31.9164 35.829C40.5984 35.829 45.2898 35.4492 49.9698 34.392C51.5496 34.0236 54.7206 33.0618 55.7304 32.622C56.3952 32.337 56.514 32.4912 56.0748 33.0732C52.7136 37.527 45.219 40.6506 35.361 41.7318C33.0684 41.9814 27.225 42.0048 24.9684 41.7792C16.191 40.9122 9.36184 38.442 5.46604 34.7124C4.86064 34.1304 4.10044 33.2634 3.77944 32.7882C3.11404 31.8144 2.50864 30.3654 2.75764 30.3654C2.78164 30.3654 3.36364 30.5796 4.02904 30.8526ZM56.3832 39.4518C56.3832 41.5068 56.3592 43.1934 56.3118 43.1934C56.2758 43.1934 55.2306 42.7062 53.9718 42.1128C52.713 41.5068 51.24 40.818 50.6934 40.557L49.6836 40.0938L51.0258 39.381C52.629 38.538 54.5178 37.2666 55.4916 36.3762C55.8834 36.0198 56.2398 35.7228 56.2992 35.7108C56.3472 35.7102 56.3832 37.3968 56.3832 39.4518ZM29.838 43.7274C31.9284 43.7274 34.2444 43.68 34.9806 43.6326L36.3108 43.5258V44.7252V45.9246H30.0162H23.721V44.7372V43.5498L24.885 43.6332C25.5144 43.692 27.7476 43.7274 29.838 43.7274Z" fill="#E9E9E9"/>
</svg>
