<svg width="60" height="60" viewBox="0 0 60 60" fill="none" xmlns="http://www.w3.org/2000/svg">
<path d="M22.5 37.5H30M22.5 37.5C18.3579 37.5 15 40.8577 15 45C15 49.1423 18.3579 52.5 22.5 52.5C26.6423 52.5 30 49.1423 30 45V37.5M22.5 37.5C18.3579 37.5 15 34.1423 15 30C15 25.8577 18.3579 22.5 22.5 22.5M30 37.5V30M22.5 22.5H30M22.5 22.5C18.3579 22.5 15 19.1421 15 15C15 10.8579 18.3579 7.5 22.5 7.5H30M30 30V22.5M30 30C30 34.1423 33.3577 37.5 37.5 37.5C41.6423 37.5 45 34.1423 45 30C45 25.8577 41.6423 22.5 37.5 22.5M30 30C30 25.8577 33.3577 22.5 37.5 22.5M30 22.5V7.5M30 22.5H37.5M30 7.5H37.5C41.6423 7.5 45 10.8579 45 15C45 19.1421 41.6423 22.5 37.5 22.5" stroke="#E9E9E9" stroke-width="2" stroke-linecap="round" stroke-linejoin="round"/>
</svg>
