<svg width="60" height="60" viewBox="0 0 60 60" fill="none" xmlns="http://www.w3.org/2000/svg">
<path d="M50.3441 22.6389C53.2338 22.6389 55.5766 20.2962 55.5766 17.4063C55.5766 14.5165 53.2338 12.1738 50.3441 12.1738C47.4541 12.1738 45.1116 14.5165 45.1116 17.4063C45.1116 20.2962 47.4541 22.6389 50.3441 22.6389Z" fill="#E9E9E9"/>
<path d="M47.5538 46.993C47.8903 47.0355 48.2331 47.0572 48.5813 47.0572H48.6196C53.1041 47.0572 56.7393 43.422 56.7393 38.9375V27.1735C56.7393 25.9535 55.7503 24.9643 54.5301 24.9643H48.2348C48.5911 25.6385 48.7873 26.409 48.7741 27.224V40.59C48.8228 42.86 48.3841 45.0277 47.5538 46.993Z" fill="#E9E9E9"/>
<path d="M43.0241 44.8587C41.4463 43.3777 40.4606 41.2735 40.4603 38.9387V27.4642H43.7741V40.647L43.7748 40.676C43.8093 42.1535 43.5401 43.5677 43.0241 44.8587Z" fill="#E9E9E9"/>
<path d="M34.8203 22.579C38.6398 22.1998 41.6228 18.9773 41.6228 15.0582C41.6228 10.8839 38.2388 7.5 34.0646 7.5C29.8903 7.5 26.5063 10.8839 26.5063 15.0582C26.5063 15.2023 26.5106 15.3455 26.5183 15.4877H30.1888C32.7468 15.4877 34.8203 17.5612 34.8203 20.119V22.579Z" fill="#E9E9E9"/>
<path d="M29.8203 21.313V20.4877H28.8065C29.1195 20.7908 29.4588 21.0672 29.8203 21.313Z" fill="#E9E9E9"/>
<path d="M20.6899 41.069C20.6884 40.9192 20.6893 40.7687 20.6928 40.6177V37.9397H21.8751V26.6897H26.2501V24.9643H29.8204V41.069H20.6899Z" fill="#E9E9E9"/>
<path d="M21.7375 46.069H30.1888C32.7468 46.069 34.8203 43.9955 34.8203 41.4377V24.9643H44.1428C45.3483 24.9941 46.302 25.9947 46.274 27.2002V40.6177C46.4425 47.853 40.7183 53.857 33.4836 54.034C28.1828 53.9042 23.6931 50.647 21.7375 46.069Z" fill="#E9E9E9"/>
<path fill-rule="evenodd" clip-rule="evenodd" d="M30.1893 17.9877H8.87063C7.69353 17.9877 6.73926 18.9419 6.73926 20.119V41.4377C6.73926 42.6147 7.69351 43.569 8.87063 43.569H30.1893C31.3663 43.569 32.3206 42.6147 32.3206 41.4377V20.119C32.3206 18.9419 31.3663 17.9877 30.1893 17.9877ZM13.7501 26.6897H18.1251V37.9397H20.6251V26.6897H25.0001V24.1897H13.7501V26.6897Z" fill="#E9E9E9"/>
</svg>
