<svg width="863" height="77" viewBox="0 0 863 77" fill="none" xmlns="http://www.w3.org/2000/svg">
<path d="M574 0V25C574 25 574.143 35.6141 597.111 35.6141C620.078 35.6141 843.392 35.6141 850.196 35.6141C857 35.6141 857 37.8554 857 49C857 60.1446 857 77 857 77" stroke="white"/>
<path d="M574.083 0V25C574.083 25 573.939 35.6141 550.972 35.6141C528.004 35.6141 304.691 35.6141 297.887 35.6141C291.083 35.6141 291.083 37.8554 291.083 49C291.083 60.1446 291.083 77 291.083 77" stroke="white"/>
<path d="M574.083 0V25C574.083 25 572.105 32.4747 564.856 34.237C556.658 36.23 542.407 35.6141 524.595 35.6141C474.251 35.6141 33.3956 35.6141 19.7392 35.6141C6.08282 35.6141 6.08282 37.8554 6.08282 49C6.08282 60.1446 6.08282 77 6.08282 77" stroke="white"/>
<path d="M574 0V77" stroke="white"/>
<circle cx="6" cy="69" r="5.5" stroke="white"/>
<circle cx="6" cy="69" r="4" fill="white"/>
<circle cx="574" cy="8" r="5.5" stroke="white"/>
<circle cx="574" cy="8" r="4" fill="white"/>
<circle cx="574" cy="67" r="5.5" stroke="white"/>
<circle cx="574" cy="67" r="4" fill="white"/>
<circle cx="291" cy="67" r="5.5" stroke="white"/>
<circle cx="291" cy="67" r="4" fill="white"/>
<circle cx="857" cy="67" r="5.5" stroke="white"/>
<circle cx="857" cy="67" r="4" fill="white"/>
</svg>
