<svg width="24" height="24" viewBox="0 0 24 24" fill="none" xmlns="http://www.w3.org/2000/svg">
<g filter="url(#filter0_bi_239_4682)">
<circle cx="12" cy="12" r="12" fill="#0DB760"/>
</g>
<path fill-rule="evenodd" clip-rule="evenodd" d="M5.09304 11.7907C5.09304 7.86049 8.27911 4.67442 12.2093 4.67442C16.1395 4.67442 19.3256 7.86049 19.3256 11.7907C19.3256 15.7209 16.1395 18.907 12.2093 18.907C10.8093 18.907 9.50618 18.5036 8.40668 17.807C8.20206 17.6774 7.95132 17.6427 7.71922 17.7119L5.30876 18.4314L6.21633 16.3077C6.3236 16.0567 6.30178 15.7692 6.15785 15.5373C5.48291 14.4497 5.09304 13.167 5.09304 11.7907ZM12.2093 3C7.35435 3 3.41862 6.93573 3.41862 11.7907C3.41862 13.3296 3.81474 14.7781 4.51087 16.0376L3.06737 19.4152C2.93976 19.7138 2.99633 20.0592 3.2125 20.3015C3.42868 20.5439 3.76548 20.6393 4.07664 20.5464L7.8436 19.4223C9.13042 20.1599 10.6217 20.5814 12.2093 20.5814C17.0643 20.5814 21 16.6457 21 11.7907C21 6.93573 17.0643 3 12.2093 3ZM14.1286 13.6178L13.0283 14.3928C12.513 14.0993 11.9433 13.6896 11.3718 13.1181C10.7778 12.524 10.3373 11.9107 10.0126 11.3481L10.7118 10.7546C11.0118 10.4999 11.094 10.0705 10.9091 9.72302L10.0182 8.04861C9.89822 7.82314 9.6819 7.66476 9.43073 7.6185C9.17955 7.57224 8.921 7.64316 8.72858 7.8111L8.46443 8.04163C7.82922 8.59602 7.45354 9.50704 7.7649 10.4295C8.08771 11.3857 8.7766 12.8908 10.1879 14.3021C11.7062 15.8204 13.2485 16.4184 14.1505 16.6506C14.8772 16.8376 15.5648 16.5869 16.0494 16.1921L16.5446 15.7885C16.7564 15.616 16.8707 15.3508 16.8508 15.0783C16.8308 14.8058 16.6791 14.5602 16.4443 14.4203L15.0392 13.5831C14.7554 13.414 14.3988 13.4276 14.1286 13.6178Z" fill="white"/>
<defs>
<filter id="filter0_bi_239_4682" x="-42" y="-42" width="108" height="108" filterUnits="userSpaceOnUse" color-interpolation-filters="sRGB">
<feFlood flood-opacity="0" result="BackgroundImageFix"/>
<feGaussianBlur in="BackgroundImageFix" stdDeviation="21"/>
<feComposite in2="SourceAlpha" operator="in" result="effect1_backgroundBlur_239_4682"/>
<feBlend mode="normal" in="SourceGraphic" in2="effect1_backgroundBlur_239_4682" result="shape"/>
<feColorMatrix in="SourceAlpha" type="matrix" values="0 0 0 0 0 0 0 0 0 0 0 0 0 0 0 0 0 0 127 0" result="hardAlpha"/>
<feOffset dx="-5" dy="-5"/>
<feGaussianBlur stdDeviation="125"/>
<feComposite in2="hardAlpha" operator="arithmetic" k2="-1" k3="1"/>
<feColorMatrix type="matrix" values="0 0 0 0 1 0 0 0 0 1 0 0 0 0 1 0 0 0 0.02 0"/>
<feBlend mode="normal" in2="shape" result="effect2_innerShadow_239_4682"/>
</filter>
</defs>
</svg>
