<svg width="48" height="48" viewBox="0 0 48 48" fill="none" xmlns="http://www.w3.org/2000/svg">
<path d="M2.7784 0.116489C1.71058 0.458607 0.767171 1.29835 0.279914 2.33506L0 2.92599V20.2392V37.5523L0.300648 38.1744C0.88121 39.3355 1.94903 40.1545 3.21382 40.4033C3.65961 40.4863 7.01857 40.507 15.2086 40.4863L26.5918 40.4552L26.8717 40.1649C27.2553 39.7813 27.2864 39.0763 26.9235 38.7238L26.6851 38.4854L15.0946 38.4336L3.5041 38.3817L3.00648 38.0707C2.67473 37.8634 2.42592 37.6042 2.26004 37.3035L2.0216 36.8474V23.6396V10.4422H24H45.9784V23.6396V36.8474L45.74 37.3035C45.5741 37.6042 45.3253 37.8634 44.9935 38.0707L44.4959 38.3817L41.9145 38.4128L39.3434 38.4543L39.0842 38.7653C38.6592 39.2733 38.794 40.0716 39.3538 40.3618C39.7166 40.5485 44.0086 40.5692 44.8587 40.3929C46.0821 40.1338 47.1395 39.3044 47.6994 38.1744L48 37.5523V20.2392V2.92599L47.6683 2.24176C47.2639 1.41238 46.5175 0.686684 45.6881 0.303097L45.0972 0.0231857L24.1555 0.00244904C7.03931 -0.0079155 3.13089 0.0128174 2.7784 0.116489ZM17.4687 5.20677V8.36876H9.74514H2.0216V6.03614C2.0216 4.15969 2.0527 3.62059 2.17711 3.30958C2.39482 2.80159 2.7162 2.46984 3.21382 2.24176C3.60778 2.06552 4.0432 2.04478 10.5538 2.04478H17.4687V5.20677ZM44.7862 2.24176C45.2838 2.46984 45.6052 2.80159 45.8229 3.30958C45.9473 3.62059 45.9784 4.15969 45.9784 6.03614V8.36876H32.7603H19.5421V5.20677V2.04478H31.962C43.8013 2.04478 44.3922 2.05515 44.7862 2.24176Z" fill="#232334"/>
<path d="M5.13181 4.25287C4.72749 4.44984 4.48905 5.03041 4.62382 5.49693C4.76896 6.02565 5.04888 6.19153 5.80568 6.19153C6.56248 6.19153 6.8424 6.02565 6.98754 5.49693C7.08084 5.18591 7.06011 5.04077 6.91497 4.74012C6.70762 4.3047 6.36551 4.11809 5.80568 4.11809C5.5776 4.11809 5.27695 4.1803 5.13181 4.25287Z" fill="#232334"/>
<path d="M9.1749 4.19066C8.59434 4.39801 8.31443 5.11334 8.59434 5.65244C8.82242 6.08786 9.0505 6.19153 9.7762 6.19153C10.3049 6.19153 10.4293 6.15006 10.6678 5.92198C10.9581 5.62133 11.041 5.02004 10.8336 4.62609C10.6159 4.22177 9.72436 3.99369 9.1749 4.19066Z" fill="#232334"/>
<path d="M12.9175 4.26323C12.3266 4.59498 12.2125 5.41399 12.6894 5.89088C12.9693 6.16043 13.0627 6.19153 13.6639 6.19153C14.2963 6.19153 14.3585 6.17079 14.6074 5.87015C15.0428 5.35179 14.9184 4.56388 14.3482 4.26323C13.9853 4.08699 13.2493 4.07663 12.9175 4.26323Z" fill="#232334"/>
<path d="M23.6683 4.28397C23.0981 4.58462 22.9944 5.34142 23.4402 5.87015L23.7098 6.19153H32.7292H41.7486L42.0493 5.89088C42.5365 5.40362 42.3914 4.52241 41.7797 4.2425C41.5828 4.1492 39.3227 4.11809 32.7292 4.11809C25.1819 4.12846 23.9067 4.1492 23.6683 4.28397Z" fill="#232334"/>
<path d="M5.422 12.4119C4.89328 12.5778 4.44749 12.9199 4.19868 13.3657C3.96023 13.7804 3.9395 13.9255 3.9084 15.5635C3.86693 17.4918 3.94986 18.062 4.37492 18.6218C4.87254 19.2646 5.24576 19.3579 7.45397 19.3579C9.73475 19.3579 10.108 19.2542 10.6056 18.4974L10.8855 18.0724V15.8227V13.573L10.5641 13.1687C9.95246 12.4119 9.77621 12.3601 7.61984 12.3393C6.56239 12.329 5.57751 12.3601 5.422 12.4119ZM8.8639 15.8849V17.2845H7.46434H6.06477V15.8849V14.4853H7.46434H8.8639V15.8849Z" fill="#D4AE5E"/>
<path d="M31.9827 12.3704C31.8376 12.3912 31.4022 12.4637 30.9979 12.5259C27.67 13.065 24.6739 15.3354 23.1188 18.4767C21.543 21.6594 21.543 25.1635 23.1188 28.3255C24.2696 30.6478 26.2912 32.5864 28.5201 33.5091C28.9141 33.675 29.2458 33.8097 29.2665 33.8201C29.2769 33.8305 29.2147 36.0076 29.1214 38.6512C29.0281 41.2948 28.9763 43.7933 28.997 44.1977C29.0903 45.5869 29.9404 46.8413 31.2467 47.484C31.8894 47.7951 31.9931 47.8158 33.0195 47.8158C33.9318 47.8054 34.1909 47.7743 34.6264 47.5774C35.7357 47.0694 36.5858 46.0845 36.9071 44.9234C37.073 44.3532 37.073 44.0007 36.9175 39.4288C36.8242 36.7437 36.7516 34.3799 36.7516 34.183C36.7516 33.8305 36.7827 33.8097 37.467 33.5298C39.1361 32.856 41.1162 31.1972 42.2048 29.5592C45.1179 25.1843 44.5685 19.3475 40.8985 15.6361C39.3227 14.0499 37.4566 13.0339 35.2484 12.557C34.5227 12.4015 32.47 12.2875 31.9827 12.3704ZM35.0722 14.7031C36.7724 15.0866 38.2134 15.9367 39.5197 17.3156C40.432 18.2797 41.0747 19.3579 41.5309 20.6849C41.873 21.6698 41.8834 21.732 41.8834 23.4011C41.8834 25.0702 41.873 25.1428 41.5413 26.0966C41.0022 27.6516 40.4735 28.4914 39.2916 29.6732C38.1097 30.8551 37.2596 31.3942 35.7149 31.9126C34.8441 32.2132 34.5642 32.2547 33.3305 32.2961C32.1693 32.3272 31.7754 32.3065 31.029 32.1199C28.4164 31.4979 26.1875 29.7251 24.9538 27.2888C23.7927 24.9873 23.7616 22.1156 24.8709 19.7208C26.6851 15.7916 30.8631 13.7285 35.0722 14.7031ZM34.6782 35.3234C34.6886 35.8106 34.7508 37.9462 34.8233 40.0819C34.9166 42.6529 34.927 44.094 34.8648 44.3324C34.7197 44.8715 34.3361 45.3277 33.8177 45.5765C32.8017 46.0637 31.6614 45.6076 31.2052 44.519C31.0601 44.1666 31.0601 43.7104 31.2052 39.5946C31.2881 37.1065 31.3607 34.919 31.3607 34.7532V34.4421H33.0195H34.6782V35.3234Z" fill="#D4AE5E"/>
<path d="M37.1663 19.9489C37.0834 19.98 35.7149 21.2862 34.1391 22.8621L31.2674 25.7234L30.1374 24.6141C29.0384 23.5359 28.997 23.5048 28.5408 23.5048C27.8877 23.5048 27.5248 23.8677 27.5248 24.5208C27.5248 24.977 27.5456 25.0081 28.7896 26.2625C30.2203 27.7139 30.5935 27.9316 31.4747 27.8279C31.765 27.7865 32.1486 27.6724 32.3248 27.5584C32.5115 27.4443 33.9732 26.024 35.5905 24.4068L38.514 21.4729V21.0063C38.514 20.2495 37.8298 19.7104 37.1663 19.9489Z" fill="#D4AE5E"/>
<path d="M13.7469 13.5938C13.156 13.9256 13.042 14.7446 13.5188 15.2214L13.8195 15.5221H17.6657C21.4912 15.5221 21.5016 15.5221 21.7711 15.2836C21.9577 15.1281 22.0614 14.9104 22.1029 14.6202C22.1547 14.2158 22.1236 14.1433 21.7918 13.8115L21.429 13.4487H17.7072C14.8251 13.459 13.9439 13.4901 13.7469 13.5938Z" fill="#232334"/>
<path d="M13.5603 17.5333C13.3115 17.751 13.27 17.865 13.27 18.3212C13.27 18.7773 13.3115 18.8914 13.5603 19.1091L13.8506 19.3579H17.1059H20.3612L20.6514 19.1091C20.9003 18.8914 20.9417 18.7773 20.9417 18.3212C20.9417 17.865 20.9003 17.751 20.6514 17.5333L20.3612 17.2845H17.1059H13.8506L13.5603 17.5333Z" fill="#232334"/>
<path d="M5.07988 21.0892C4.54079 21.3692 4.19868 21.7735 4.04317 22.3022C3.85656 22.9242 3.82546 25.827 4.0017 26.4594C4.15721 26.9985 4.85181 27.6931 5.3909 27.8486C6.0233 28.0249 8.92611 27.9938 9.54814 27.8072C10.0976 27.6517 10.4915 27.2992 10.7715 26.7394C10.927 26.4491 10.9477 26.0966 10.9166 24.2927C10.8855 22.2089 10.8855 22.1882 10.6056 21.7735C10.0976 21.0063 9.73474 20.913 7.40213 20.913C5.77449 20.9234 5.3287 20.9545 5.07988 21.0892ZM8.8639 24.386V25.7856H7.46433H6.06477V24.386V22.9864H7.46433H8.8639V24.386Z" fill="#D4AE5E"/>
<path d="M13.5188 22.354C13.0316 22.8412 13.1767 23.7225 13.7884 24.0024C14.1409 24.1682 19.1171 24.1786 19.4696 24.0127C19.7599 23.878 20.0605 23.4114 20.0605 23.0901C20.0605 22.7894 19.791 22.2918 19.5525 22.157C19.4281 22.0948 18.2774 22.0533 16.5875 22.0533H13.8195L13.5188 22.354Z" fill="#232334"/>
<path d="M13.8816 25.8892C13.2077 26.1691 13.0211 27.0192 13.5187 27.5686L13.8194 27.9108H16.8466H19.8738L20.1745 27.5686C20.5788 27.1125 20.5788 26.6356 20.1745 26.1794L19.8738 25.8373L16.9814 25.8166C15.3952 25.8062 13.9956 25.8373 13.8816 25.8892Z" fill="#232334"/>
<path d="M5.422 29.5177C4.89328 29.6836 4.44749 30.0257 4.19868 30.4715C3.96023 30.8862 3.9395 31.0313 3.9084 32.6694C3.86693 34.5977 3.94986 35.1678 4.37492 35.7277C4.87254 36.3704 5.24576 36.4637 7.45397 36.4637C9.73475 36.4637 10.108 36.3601 10.6056 35.6033L10.8855 35.1782V32.9285V30.6789L10.5641 30.2745C9.95246 29.5177 9.77621 29.4659 7.61984 29.4452C6.56239 29.4348 5.57751 29.4659 5.422 29.5177ZM8.8639 32.9389V34.3903H7.46434H6.06477V32.9907V31.6015L6.97708 31.5601C7.4747 31.5497 8.09673 31.5186 8.37665 31.5082L8.8639 31.4875V32.9389Z" fill="#D4AE5E"/>
<path d="M13.7469 30.6995C13.156 31.0313 13.042 31.8503 13.5188 32.3272L13.8195 32.6278H17.6657C21.4912 32.6278 21.5016 32.6278 21.7711 32.3894C21.9577 32.2339 22.0614 32.0161 22.1029 31.7259C22.1547 31.3215 22.1236 31.249 21.7918 30.9172L21.429 30.5544H17.7072C14.8251 30.5647 13.9439 30.5958 13.7469 30.6995Z" fill="#232334"/>
<path d="M13.5603 34.6391C13.3115 34.8568 13.27 34.9709 13.27 35.427C13.27 35.8832 13.3115 35.9972 13.5603 36.2149L13.8506 36.4637H19.5422H25.2337L25.524 36.2149C25.7728 35.9972 25.8143 35.8832 25.8143 35.427C25.8143 34.9709 25.7728 34.8568 25.524 34.6391L25.2337 34.3903H19.5422H13.8506L13.5603 34.6391Z" fill="#232334"/>
</svg>
