<svg width="48" height="57" viewBox="0 0 48 57" fill="none" xmlns="http://www.w3.org/2000/svg">
<path d="M27.2941 0.941135V1.87055L33.6235 1.90584C39.6941 1.94113 39.9529 1.9529 40.3412 2.17643C40.8588 2.48231 41.1647 2.90584 41.2941 3.48231C41.3529 3.72937 41.4117 7.29408 41.4117 11.3764V18.8235H42.3529H43.2941V10.8823C43.2941 3.12937 43.2941 2.92937 43.047 2.29408C42.7176 1.42349 41.8706 0.576429 41 0.247017C40.3647 0.0117226 40.1412 -4.19617e-05 33.8235 -4.19617e-05H27.2941V0.941135Z" fill="#232334"/>
<path d="M7.76471 4.00005C7.54118 4.22358 7.52941 4.38828 7.52941 9.64711V15.0589H4C0.623529 15.0589 0.458824 15.0706 0.235294 15.2942C0.0117647 15.5177 0 15.6824 0 19.7648C0 23.8471 0.0117647 24.0118 0.235294 24.2353C0.458824 24.4589 0.623529 24.4706 4 24.4706H7.52941V38.353C7.52941 52.0824 7.52941 52.2353 7.76471 52.4706C8 52.7059 8.15294 52.7059 23.5294 52.7059C38.9059 52.7059 39.0588 52.7059 39.2941 52.4706C39.5059 52.2589 39.5294 52.0824 39.5294 50.5883V48.9412H43.5294C47.3765 48.9412 47.5412 48.9295 47.7647 48.7059C48 48.4706 48 48.3177 48 40.4706C48 32.6236 48 32.4706 47.7647 32.2353C47.5412 32.0118 47.3765 32 43.5294 32H39.5294V18.1177C39.5294 4.38828 39.5294 4.23534 39.2941 4.00005C39.0588 3.76476 38.9059 3.76476 23.5294 3.76476C8.15294 3.76476 8 3.76476 7.76471 4.00005ZM37.6471 8.47064V11.2942H23.5294H9.41177V8.47064V5.64711H23.5294H37.6471V8.47064ZM37.6471 22.5883V32H33.6471C29.8 32 29.6353 32.0118 29.4118 32.2353C29.1882 32.4589 29.1765 32.6236 29.1765 37.8824V43.2942H19.2941H9.41177V33.8824V24.4706H16.7059C23.8471 24.4706 24 24.4706 24.2353 24.2353C24.4588 24.0118 24.4706 23.8471 24.4706 19.7648C24.4706 15.6824 24.4588 15.5177 24.2353 15.2942C24 15.0589 23.8471 15.0589 16.7059 15.0589H9.41177V14.1177V13.1765H23.5294H37.6471V22.5883ZM22.5882 19.7648V22.5883H12.2353H1.88235V19.7648V16.9412H12.2353H22.5882V19.7648ZM46.1176 40.4706V47.0589H38.5882H31.0588V40.4706V33.8824H38.5882H46.1176V40.4706ZM29.1765 46.8236C29.1765 48.3177 29.2 48.4942 29.4118 48.7059C29.6353 48.9295 29.8 48.9412 33.6471 48.9412H37.6471V49.8824V50.8236H23.5294H9.41177V48.0001V45.1765H19.2941H29.1765V46.8236Z" fill="#232334"/>
<path d="M20.7059 8.47057V9.41174H21.647H22.5882V8.47057V7.52939H21.647H20.7059V8.47057Z" fill="#D4AE5E"/>
<path d="M24.4706 8.47057V9.41174H25.4118H26.353V8.47057V7.52939H25.4118H24.4706V8.47057Z" fill="#D4AE5E"/>
<path d="M30.3765 15.0824C29.5882 15.2 28.9294 15.5412 28.353 16.1177C27.6353 16.8353 27.3765 17.4353 27.3177 18.553C27.2588 19.6236 27.4353 20.3294 27.9412 21.0589L28.2353 21.4824L27.6706 22.0706C27.353 22.4 26.9412 22.9765 26.753 23.3647L26.4118 24.0589L26.3765 26.8471C26.3412 29.5294 26.3412 29.6353 26.5765 29.8706C26.8118 30.1059 26.9412 30.1177 31.0588 30.1177C35.1765 30.1177 35.3059 30.1059 35.5412 29.8706C35.7765 29.6353 35.7765 29.5294 35.7412 26.8471L35.7059 24.0589L35.3647 23.3647C35.1765 22.9765 34.7647 22.4 34.4471 22.0706L33.8824 21.4824L34.1882 21.0236C34.6353 20.3412 34.8235 19.7059 34.8235 18.8353C34.8235 17.8471 34.6706 17.3294 34.2 16.6353C33.3647 15.4236 31.9294 14.8353 30.3765 15.0824ZM31.9765 17.2941C33.5059 18.2236 32.8471 20.5883 31.0588 20.5883C30.0588 20.5883 29.2941 19.8236 29.2941 18.8236C29.2941 17.8236 30.0588 17.0589 31.0588 17.0589C31.3765 17.0589 31.7412 17.153 31.9765 17.2941ZM32.2118 22.9294C32.8235 23.2353 33.2824 23.7294 33.5647 24.353C33.7647 24.7765 33.8118 25.2 33.8588 26.553L33.9177 28.2353H31.0588H28.2L28.2588 26.553C28.3059 25.2 28.353 24.7765 28.553 24.353C28.8235 23.7412 29.2941 23.2471 29.8824 22.9294C30.4471 22.6353 31.6235 22.6353 32.2118 22.9294Z" fill="#D4AE5E"/>
<path d="M11.5294 27.5294C11.3059 27.7529 11.2941 27.9176 11.2941 30.1176C11.2941 32.3176 11.3059 32.4823 11.5294 32.7059C11.7529 32.9294 11.9176 32.9412 14.1176 32.9412C16.3176 32.9412 16.4823 32.9294 16.7059 32.7059C16.9294 32.4823 16.9412 32.3176 16.9412 30.1176C16.9412 27.9176 16.9294 27.7529 16.7059 27.5294C16.4823 27.3059 16.3176 27.2941 14.1176 27.2941C11.9176 27.2941 11.7529 27.3059 11.5294 27.5294ZM15.0588 30.1176V31.0588H14.1176H13.1765V30.1176V29.1765H14.1176H15.0588V30.1176Z" fill="#D4AE5E"/>
<path d="M19.0588 27.5294C18.8353 27.7529 18.8235 27.9176 18.8235 30.1176C18.8235 32.3176 18.8353 32.4823 19.0588 32.7059C19.2824 32.9294 19.4471 32.9412 21.6471 32.9412C23.8471 32.9412 24.0118 32.9294 24.2353 32.7059C24.4588 32.4823 24.4706 32.3176 24.4706 30.1176C24.4706 27.9176 24.4588 27.7529 24.2353 27.5294C24.0118 27.3059 23.8471 27.2941 21.6471 27.2941C19.4471 27.2941 19.2824 27.3059 19.0588 27.5294ZM22.5882 30.1176V31.0588H21.6471H20.7059V30.1176V29.1765H21.6471H22.5882V30.1176Z" fill="#D4AE5E"/>
<path d="M11.2941 35.7646V36.7058H12.2353H13.1765V35.7646V34.8235H12.2353H11.2941V35.7646Z" fill="#D4AE5E"/>
<path d="M15.0588 35.7646V36.7058H19.7647H24.4706V35.7646V34.8235H19.7647H15.0588V35.7646Z" fill="#232334"/>
<path d="M11.2941 39.5294V40.4706H17.8823H24.4706V39.5294V38.5882H17.8823H11.2941V39.5294Z" fill="#D4AE5E"/>
<path d="M3.76469 19.7646V20.7058H4.70586H5.64704V19.7646V18.8235H4.70586H3.76469V19.7646Z" fill="#D4AE5E"/>
<path d="M7.52942 19.7646V20.7058H8.4706H9.41177V19.7646V18.8235H8.4706H7.52942V19.7646Z" fill="#D4AE5E"/>
<path d="M11.2941 19.7646V20.7058H12.2353H13.1765V19.7646V18.8235H12.2353H11.2941V19.7646Z" fill="#D4AE5E"/>
<path d="M15.0588 19.7646V20.7058H16H16.9412V19.7646V18.8235H16H15.0588V19.7646Z" fill="#D4AE5E"/>
<path d="M18.8235 19.7646V20.7058H19.7647H20.7059V19.7646V18.8235H19.7647H18.8235V19.7646Z" fill="#D4AE5E"/>
<path d="M32.9412 36.7059V37.6471H33.8824H34.8235V36.7059V35.7647H33.8824H32.9412V36.7059Z" fill="#232334"/>
<path d="M36.7059 36.7059V37.6471H40.4706H44.2353V36.7059V35.7647H40.4706H36.7059V36.7059Z" fill="#232334"/>
<path d="M32.9412 40.4706V41.4117H38.5882H44.2353V40.4706V39.5294H38.5882H32.9412V40.4706Z" fill="#D4AE5E"/>
<path d="M32.9412 44.2353V45.1765H38.5882H44.2353V44.2353V43.2942H38.5882H32.9412V44.2353Z" fill="#232334"/>
<path d="M22.5882 48V48.9412H23.5294H24.4706V48V47.0588H23.5294H22.5882V48Z" fill="#D4AE5E"/>
<path d="M41.4117 21.6471V22.5883H42.3529H43.2941V21.6471V20.7059H42.3529H41.4117V21.6471Z" fill="#D4AE5E"/>
<path d="M3.76469 34.8235V42.3529H4.70586H5.64704V34.8235V27.2941H4.70586H3.76469V34.8235Z" fill="#232334"/>
<path d="M17.8823 55.5294V56.4706H27.2941H36.7059V55.5294V54.5882H27.2941H17.8823V55.5294Z" fill="#232334"/>
</svg>
