<svg width="51" height="58" viewBox="0 0 51 58" fill="none" xmlns="http://www.w3.org/2000/svg">
<path d="M42.0667 8.46667V4.73333C42.0667 3.74319 41.6733 2.7936 40.9732 2.09347C40.2731 1.39333 39.3235 1 38.3333 1H4.73333C3.74319 1 2.7936 1.39333 2.09347 2.09347C1.39333 2.7936 1 3.74319 1 4.73333V53.2667C1 54.2568 1.39333 55.2064 2.09347 55.9065C2.7936 56.6067 3.74319 57 4.73333 57H38.3333C39.3235 57 40.2731 56.6067 40.9732 55.9065C41.6733 55.2064 42.0667 54.2568 42.0667 53.2667V34.6" stroke="#232334" stroke-width="2" stroke-linecap="round" stroke-linejoin="round"/>
<path d="M17.8 49.5333H25.2667" stroke="black" stroke-width="2" stroke-linecap="round" stroke-linejoin="round"/>
<path d="M34.1333 35.0667L27.1333 36.4667L28.5333 29.4667L43.9333 14.0667L49.5333 19.6667L34.1333 35.0667Z" stroke="#D4AE5E" stroke-width="2" stroke-linecap="round" stroke-linejoin="round"/>
<path d="M21.5333 36.4667H8.46666" stroke="#232334" stroke-width="2" stroke-linecap="round" stroke-linejoin="round"/>
<path d="M8.46666 29H23.4" stroke="#232334" stroke-width="2" stroke-linecap="round" stroke-linejoin="round"/>
<path d="M8.46666 21.5333H27.1333" stroke="#232334" stroke-width="2" stroke-linecap="round" stroke-linejoin="round"/>
</svg>
