<svg width="48" height="51" viewBox="0 0 48 51" fill="none" xmlns="http://www.w3.org/2000/svg">
<path d="M11.1914 0.177662C10.0968 0.577639 9.29681 1.30391 8.76 2.39858C8.49686 2.93539 8.47581 3.08275 8.44423 4.63003C8.40213 6.17731 8.41265 6.28256 8.62317 6.49308C8.90736 6.77727 9.60206 6.79832 9.88625 6.51413C10.0441 6.35624 10.0862 6.10363 10.1283 5.01948C10.1915 3.56694 10.3283 3.09328 10.8757 2.52489C11.0651 2.3249 11.402 2.07229 11.6335 1.94598L12.0545 1.71441H21.7908C32.527 1.71441 31.9902 1.68284 32.7691 2.38806C33.4322 2.9775 33.6006 3.49326 33.6638 5.01948C33.7059 6.10363 33.748 6.35624 33.9059 6.51413C34.1901 6.79832 34.8848 6.77727 35.169 6.49308C35.3795 6.28256 35.39 6.17731 35.3479 4.63003C35.3163 3.05118 35.3058 2.94592 35.0111 2.34596C34.6111 1.53548 33.8111 0.735524 33.0007 0.335548L32.3691 0.0303025L22.054 0.00925112C12.2019 -0.0118003 11.7177 -0.0118003 11.1914 0.177662Z" fill="#232334"/>
<path d="M18.7384 3.55643C18.6016 3.69327 18.5279 3.90378 18.5279 4.18797C18.5279 4.47217 18.6016 4.68268 18.7384 4.81952C18.9384 5.0195 19.0858 5.03003 21.8961 5.03003C24.7065 5.03003 24.8538 5.0195 25.0538 4.81952C25.1907 4.68268 25.2643 4.47217 25.2643 4.18797C25.2643 3.90378 25.1907 3.69327 25.0538 3.55643C24.8538 3.35644 24.7065 3.34592 21.8961 3.34592C19.0858 3.34592 18.9384 3.35644 18.7384 3.55643Z" fill="#232334"/>
<path d="M9.3705 8.60873C4.70762 9.60868 1.14993 13.1664 0.213145 17.7661C-0.0710484 19.1765 -0.0710484 21.1975 0.213145 22.6079C1.16046 27.2287 4.72867 30.7969 9.42313 31.7758C10.7388 32.0495 12.8334 32.0495 14.2123 31.7653C18.8331 30.8179 22.4013 27.2497 23.3802 22.5553C23.6539 21.2606 23.6539 19.1134 23.3802 17.8187C22.4013 13.1243 18.8331 9.55605 14.2123 8.60873C12.8545 8.33507 10.6546 8.33507 9.3705 8.60873ZM13.5176 10.3034C17.17 10.8928 20.2962 13.7032 21.4435 17.4187C21.7066 18.2713 21.7277 18.4818 21.7277 20.187C21.7277 21.9027 21.7066 22.0921 21.4329 22.9763C21.1066 24.0289 20.4962 25.2709 19.9067 26.0603L19.5173 26.5971L19.3173 26.2287C18.8436 25.3446 17.5279 24.2815 16.3701 23.8394C15.7701 23.6184 15.5807 23.6078 12.0124 23.5763C8.42318 23.5447 8.2653 23.5552 7.50745 23.7763C6.22331 24.1657 4.80235 25.2393 4.26554 26.2287L4.06555 26.5971L3.6761 26.0603C3.07613 25.2604 2.46564 24.0183 2.14987 22.9763C1.81305 21.8185 1.68674 19.787 1.89726 18.545C2.47617 14.9242 5.21285 11.7664 8.73896 10.6297C10.3178 10.1244 11.7493 10.0297 13.5176 10.3034ZM14.7807 25.3341C16.1175 25.513 17.3279 26.334 17.9489 27.4918L18.1594 27.8813L17.8647 28.1339C17.0858 28.8181 15.328 29.618 13.9492 29.9338C12.8019 30.1969 10.7809 30.1969 9.63364 29.9338C8.25477 29.618 6.49698 28.8181 5.71808 28.1339L5.42336 27.8813L5.63388 27.4918C6.22331 26.3761 7.4864 25.5025 8.70738 25.3446C9.58101 25.2288 13.9176 25.2288 14.7807 25.3341Z" fill="#D4AE5E"/>
<path d="M10.3494 13.6505C9.24419 14.061 8.45476 14.7768 7.91795 15.8715C7.65481 16.3978 7.63376 16.5556 7.63376 17.6608C7.63376 18.7871 7.65481 18.9134 7.939 19.5028C8.33898 20.3133 9.13893 21.1133 9.94941 21.5132C10.5388 21.7974 10.6652 21.8185 11.7914 21.8185C12.9177 21.8185 13.044 21.7974 13.6334 21.5132C14.4439 21.1133 15.2438 20.3133 15.6438 19.5028C15.928 18.9134 15.9491 18.7871 15.9491 17.6608C15.9491 16.5346 15.928 16.4083 15.6438 15.8188C15.2438 15.0084 14.4439 14.2084 13.6334 13.819C13.0861 13.5453 12.865 13.5032 11.9493 13.4716C11.1178 13.4506 10.7809 13.4927 10.3494 13.6505ZM12.7177 15.4083C13.6124 15.7767 14.2123 16.6714 14.2123 17.6608C14.2123 19.0186 13.1492 20.0817 11.7914 20.0817C10.4336 20.0817 9.3705 19.0186 9.3705 17.6608C9.3705 16.7135 9.90731 15.882 10.7915 15.4189C11.202 15.1978 12.2124 15.1978 12.7177 15.4083Z" fill="#D4AE5E"/>
<path d="M28.9694 8.6192C27.7484 9.09286 26.9485 10.3349 26.9485 11.7664C26.9485 13.1347 27.6221 14.2504 28.7905 14.8188L29.3167 15.082L35.2217 15.1136C41.0213 15.1346 41.1476 15.1346 41.7265 14.9136C44.4737 13.8926 44.4737 9.6402 41.7371 8.6192C41.1687 8.40869 40.9792 8.39816 35.3374 8.40869C29.7588 8.40869 29.5062 8.41922 28.9694 8.6192ZM41.1581 10.3559C42.2844 11.0191 42.2844 12.5137 41.1581 13.1768C40.8003 13.3873 40.6529 13.3979 35.369 13.3979C30.0851 13.3979 29.9378 13.3873 29.5799 13.1768C28.2536 12.4085 28.5378 10.5454 30.0325 10.177C30.2114 10.1349 32.7165 10.1033 35.5795 10.1139C40.6319 10.1349 40.8003 10.1454 41.1581 10.3559Z" fill="#D4AE5E"/>
<path d="M33.9375 16.9661C33.7375 17.1135 33.7375 17.4187 33.6849 31.9442C33.6323 46.7012 33.6323 46.7644 33.4112 47.238C33.1481 47.8064 32.4955 48.4274 31.9376 48.6169C31.3272 48.8379 12.4651 48.8379 11.8546 48.6169C11.2968 48.4274 10.6442 47.8064 10.381 47.238C10.1705 46.7749 10.16 46.5749 10.1074 40.3648C10.0547 34.1756 10.0442 33.9546 9.85474 33.8072C9.53897 33.5862 8.88637 33.6178 8.63376 33.8704C8.42324 34.0809 8.41272 34.1756 8.44429 40.7963L8.47587 47.5012L8.78112 48.1327C9.18109 48.9432 9.98105 49.7431 10.7915 50.1431L11.4231 50.4484H21.8961H32.3692L33.0007 50.1431C33.8112 49.7431 34.6112 48.9432 35.0111 48.1327C35.3164 47.5117 35.3164 47.4801 35.348 45.4276C35.3795 43.3856 35.3901 43.3646 35.5901 43.5646C35.7585 43.733 35.9479 43.7645 36.9268 43.7645C38.3478 43.7645 38.3583 43.754 38.6951 42.2173C38.832 41.6068 38.9583 41.091 38.9793 41.0805C38.9899 41.07 39.3898 40.9121 39.8635 40.7226L40.7371 40.3753L41.6634 40.9647C43.0528 41.8383 43.1265 41.8278 44.5053 40.47C45.1053 39.8806 45.6737 39.249 45.7474 39.0596C45.9263 38.6385 45.8526 38.407 45.1369 37.3228L44.6106 36.5018L44.9579 35.6387C45.1474 35.1545 45.3158 34.7546 45.3263 34.7335C45.3368 34.7125 45.8631 34.5861 46.4947 34.4388C48.0525 34.0914 47.9999 34.1862 47.9999 31.9231C47.9999 30.2917 47.9788 30.0917 47.8104 29.9338C47.6946 29.8391 47.1052 29.6496 46.4736 29.5022C45.8526 29.3654 45.3368 29.2391 45.3263 29.218C45.3158 29.197 45.1474 28.797 44.9579 28.3234L44.6106 27.4603L45.179 26.534C45.5053 26.0288 45.7895 25.5235 45.821 25.4183C45.9473 25.0604 45.6105 24.5552 44.5053 23.471C43.1265 22.1237 43.0528 22.1132 41.6634 22.9868L40.7266 23.5763L39.8635 23.2289C39.3898 23.0395 38.9899 22.871 38.9793 22.871C38.9583 22.8605 38.832 22.3448 38.6951 21.7343C38.3583 20.1975 38.3478 20.187 36.9268 20.187C35.9269 20.187 35.769 20.208 35.5795 20.3975L35.369 20.608V18.9239C35.369 17.3766 35.348 17.2188 35.1585 17.0293C34.9059 16.7767 34.2428 16.7451 33.9375 16.9661ZM36.3479 21.8711H36.9058L37.1058 22.8816C37.211 23.4394 37.39 24.0078 37.4952 24.1341C37.6005 24.2815 37.9794 24.471 38.3794 24.6078C38.7688 24.7341 39.4109 24.9972 39.8003 25.1972C40.2003 25.3972 40.6319 25.5551 40.7687 25.5551C40.9055 25.5551 41.2424 25.4077 41.5371 25.2288C41.8213 25.0393 42.2212 24.7867 42.4318 24.6499L42.8107 24.4078L43.2949 24.9025L43.7685 25.3972L43.2001 26.2814C42.8844 26.7761 42.6317 27.2813 42.6317 27.4181C42.6317 27.555 42.7896 27.9865 42.9896 28.376C43.1791 28.7654 43.4422 29.3865 43.5685 29.7654C43.6948 30.1443 43.8317 30.5022 43.8738 30.5653C44.0001 30.7653 44.3369 30.8916 45.2947 31.0811L46.2105 31.2706V31.9758V32.681L45.2947 32.8705C44.3369 33.0599 44.0001 33.1862 43.8738 33.3862C43.8317 33.4494 43.6948 33.8072 43.5685 34.1862C43.4422 34.5651 43.1791 35.1861 42.9896 35.5756C42.7896 35.965 42.6317 36.3966 42.6317 36.5334C42.6317 36.6702 42.8844 37.1755 43.2001 37.6702L43.7685 38.5543L43.2949 39.049L42.8107 39.5437L42.4318 39.3017C42.2212 39.1648 41.8213 38.9122 41.5371 38.7227C41.2424 38.5438 40.9055 38.3964 40.7687 38.3964C40.6319 38.3964 40.2003 38.5543 39.8003 38.7543C39.4109 38.9543 38.7688 39.2175 38.3794 39.3438C37.9794 39.4806 37.6005 39.6701 37.4952 39.8174C37.39 39.9437 37.211 40.5121 37.1058 41.07L36.9058 42.0804H36.3479C35.9269 42.0804 35.7374 42.1331 35.5795 42.291L35.369 42.5015L35.3901 35.6387L35.4216 28.7654L36.3163 28.776C37.3478 28.776 37.8426 28.976 38.5267 29.6601C39.2425 30.3759 39.4214 30.8285 39.4214 31.9758C39.4214 32.7547 39.3793 33.0599 39.2214 33.3441C38.8636 34.0178 38.4004 34.5125 37.8426 34.8282C37.2321 35.1756 37.0005 35.5545 37.1163 36.0176C37.19 36.3439 37.6215 36.7123 37.9268 36.7123C38.5478 36.7123 39.9161 35.6703 40.5056 34.7335C41.4739 33.2283 41.5371 30.9653 40.6529 29.4496C39.7267 27.8392 38.1268 26.9234 36.2532 26.9234H35.369V24.1868V21.4501L35.5795 21.6606C35.7374 21.8185 35.9269 21.8711 36.3479 21.8711Z" fill="#232334"/>
<path d="M3.64458 35.3545C3.41301 35.5334 3.37091 35.6597 3.37091 36.0702C3.37091 36.6176 3.53932 36.8596 4.0235 36.9754C4.58137 37.1123 5.0445 36.6807 5.05502 36.0071C5.05502 35.6597 5.00239 35.5229 4.78135 35.3545C4.62347 35.2282 4.37085 35.1334 4.21297 35.1334C4.05508 35.1334 3.80246 35.2282 3.64458 35.3545Z" fill="#232334"/>
<path d="M13.6861 35.5545C13.5493 35.6913 13.4756 35.9018 13.4756 36.186C13.4756 36.4702 13.5493 36.6807 13.6861 36.8176C13.8966 37.0281 14.0334 37.0281 21.8961 37.0281C29.7588 37.0281 29.8957 37.0281 30.1062 36.8176C30.243 36.6807 30.3167 36.4702 30.3167 36.186C30.3167 35.9018 30.243 35.6913 30.1062 35.5545C29.8957 35.344 29.7588 35.344 21.8961 35.344C14.0334 35.344 13.8966 35.344 13.6861 35.5545Z" fill="#232334"/>
<path d="M3.64458 38.7228C3.41301 38.9017 3.37091 39.028 3.37091 39.4385C3.37091 39.9858 3.53932 40.2279 4.0235 40.3437C4.58137 40.4805 5.0445 40.049 5.05502 39.3753C5.05502 39.028 5.00239 38.8912 4.78135 38.7228C4.62347 38.5964 4.37085 38.5017 4.21297 38.5017C4.05508 38.5017 3.80246 38.5964 3.64458 38.7228Z" fill="#D4AE5E"/>
<path d="M13.6861 38.9228C13.5493 39.0596 13.4756 39.2701 13.4756 39.5543C13.4756 39.8385 13.5493 40.049 13.6861 40.1858C13.8861 40.3858 14.0334 40.3964 17.6859 40.3964C21.3383 40.3964 21.4856 40.3858 21.6856 40.1858C21.8225 40.049 21.8961 39.8385 21.8961 39.5543C21.8961 39.2701 21.8225 39.0596 21.6856 38.9228C21.4856 38.7228 21.3383 38.7123 17.6859 38.7123C14.0334 38.7123 13.8861 38.7228 13.6861 38.9228Z" fill="#D4AE5E"/>
<path d="M3.64458 42.0909C3.41301 42.2699 3.37091 42.3962 3.37091 42.8067C3.37091 43.354 3.53932 43.5961 4.0235 43.7119C4.58137 43.8487 5.0445 43.4172 5.05502 42.7435C5.05502 42.3962 5.00239 42.2593 4.78135 42.0909C4.62347 41.9646 4.37085 41.8699 4.21297 41.8699C4.05508 41.8699 3.80246 41.9646 3.64458 42.0909Z" fill="#232334"/>
<path d="M13.6861 42.2909C13.5493 42.4278 13.4756 42.6383 13.4756 42.9225C13.4756 43.2067 13.5493 43.4172 13.6861 43.554C13.8966 43.7645 14.0334 43.7645 20.212 43.7645C26.3906 43.7645 26.5274 43.7645 26.738 43.554C26.8748 43.4172 26.9485 43.2067 26.9485 42.9225C26.9485 42.6383 26.8748 42.4278 26.738 42.2909C26.5274 42.0804 26.3906 42.0804 20.212 42.0804C14.0334 42.0804 13.8966 42.0804 13.6861 42.2909Z" fill="#232334"/>
</svg>
