<svg width="49" height="48" viewBox="0 0 49 48" fill="none" xmlns="http://www.w3.org/2000/svg">
<path d="M1.01777 0.215639C0.792768 0.337515 0.483393 0.618765 0.324018 0.834389L0.0427674 1.23751L0.0146424 15.5344C-0.0134826 31.6125 -0.0791076 30.1875 0.699018 30.1875C1.46777 30.1875 1.40214 31.2282 1.40214 18.675V7.50002H23.9959H46.5897V11.1844C46.5897 14.7844 46.5897 14.8782 46.7772 15.0469C47.0303 15.2719 47.5553 15.2719 47.8084 15.0469C47.9959 14.8782 47.9959 14.85 47.9772 8.05315L47.9491 1.23751L47.6678 0.834389C47.5178 0.618765 47.1991 0.337515 46.9741 0.215639L46.5616 1.33514e-05H30.6803C14.9303 1.33514e-05 14.8084 1.33514e-05 14.6209 0.187513C14.5084 0.300014 14.4334 0.496889 14.4334 0.70314C14.4334 0.909389 14.5084 1.10626 14.6209 1.21877C14.8084 1.40627 14.9303 1.40627 30.3147 1.40627C41.0397 1.40627 45.9053 1.43439 46.0928 1.50939C46.2334 1.55626 46.3834 1.65939 46.4209 1.71564C46.4584 1.78127 46.4959 2.76564 46.4959 3.90939V6.00002H23.949H1.40214V4.08752C1.40214 1.95002 1.45839 1.65939 1.88964 1.50939C2.08652 1.44377 3.87715 1.40627 7.22402 1.40627H12.2678L12.4553 1.16252C12.7084 0.843765 12.7084 0.562513 12.4553 0.243765L12.2678 1.33514e-05H6.84902H1.43027L1.01777 0.215639Z" fill="#232334"/>
<path d="M3.57711 3.2156C3.28648 3.5156 3.30523 3.97497 3.61461 4.28435C3.81148 4.48122 3.91461 4.50935 4.19586 4.47185C4.61773 4.39685 4.76773 4.24685 4.84273 3.82497C4.88023 3.54372 4.85211 3.4406 4.65523 3.24372C4.33648 2.92497 3.85836 2.9156 3.57711 3.2156Z" fill="#232334"/>
<path d="M6.79277 3.23437C6.30526 3.7125 6.68964 4.5 7.41152 4.5C7.71152 4.5 8.05839 4.0875 8.05839 3.72187C8.05839 3.06562 7.26152 2.75625 6.79277 3.23437Z" fill="#232334"/>
<path d="M10.0272 3.1875C9.73654 3.47812 9.77404 4.05937 10.0834 4.30312C10.224 4.41562 10.4209 4.5 10.5334 4.5C10.8053 4.5 11.1428 4.24687 11.2459 3.975C11.349 3.70312 11.199 3.21562 10.9647 3.09375C10.674 2.94375 10.224 2.99062 10.0272 3.1875Z" fill="#232334"/>
<path d="M3.48341 9.32812C3.02403 9.71249 2.97716 9.93749 3.01466 11.8406C3.04278 13.5469 3.04278 13.5844 3.27716 13.8281C3.60528 14.1844 3.96153 14.3437 4.40216 14.3437C4.72091 14.3437 4.85216 14.4 5.05841 14.625C5.24591 14.8219 5.40528 14.9062 5.62091 14.9062C5.83653 14.9062 5.99591 14.8219 6.18341 14.625C6.39903 14.4 6.52091 14.3437 6.83966 14.3437C7.35528 14.3437 7.91779 14.025 8.10529 13.6312C8.18029 13.4719 8.24591 13.1156 8.24591 12.8531C8.24591 12.4969 8.28341 12.375 8.37716 12.375C8.58341 12.375 8.80841 12 8.80841 11.6531C8.80841 11.3531 8.54591 10.9687 8.33966 10.9687C8.29279 10.9687 8.24591 10.7531 8.24591 10.5C8.24591 9.95624 8.07716 9.57187 7.72091 9.29062C7.48654 9.10312 7.35528 9.09374 5.61153 9.09374C3.77403 9.09374 3.75528 9.09374 3.48341 9.32812ZM6.74591 11.6719V12.8437H5.62091H4.49591V11.6719V10.5H5.62091H6.74591V11.6719Z" fill="#232334"/>
<path d="M40.271 9.29062C39.9147 9.57187 39.746 9.95624 39.746 10.5C39.746 10.7531 39.7085 10.9687 39.6522 10.9687C39.446 10.9687 39.1835 11.3531 39.1835 11.6531C39.1835 12 39.4085 12.375 39.6147 12.375C39.7085 12.375 39.746 12.4969 39.746 12.8531C39.746 13.1156 39.8116 13.4719 39.8866 13.6312C40.0741 14.025 40.6366 14.3437 41.1522 14.3437C41.471 14.3437 41.5928 14.4 41.8085 14.625C41.996 14.8219 42.1553 14.9062 42.371 14.9062C42.5866 14.9062 42.746 14.8219 42.9335 14.625C43.1397 14.4 43.271 14.3437 43.5897 14.3437C44.0304 14.3437 44.3866 14.1844 44.7147 13.8281C44.9491 13.5844 44.9491 13.5469 44.9772 11.8406C45.0147 9.93749 44.9679 9.71249 44.5085 9.32812C44.2366 9.09374 44.2179 9.09374 42.3803 9.09374C40.6366 9.09374 40.5053 9.10312 40.271 9.29062ZM43.496 11.6719V12.8437H42.371H41.246V11.6719V10.5H42.371H43.496V11.6719Z" fill="#232334"/>
<path d="M10.5053 11.2125C10.2803 11.4937 10.2615 11.7 10.4115 12.0375C10.5709 12.3843 10.9459 12.4968 11.8178 12.45C12.474 12.4218 12.5959 12.3937 12.7553 12.1968C12.999 11.8968 12.9896 11.4281 12.7178 11.175C12.5209 10.9968 12.399 10.9687 11.6021 10.9687C10.7396 10.9687 10.6928 10.9781 10.5053 11.2125Z" fill="#232334"/>
<path d="M14.6303 11.2125C14.4053 11.4937 14.3865 11.7 14.5365 12.0375C14.6959 12.3843 15.0709 12.4968 15.9428 12.45C16.599 12.4218 16.7209 12.3937 16.8803 12.1968C17.124 11.8968 17.1146 11.4281 16.8428 11.175C16.6459 10.9968 16.524 10.9687 15.7271 10.9687C14.8646 10.9687 14.8178 10.9781 14.6303 11.2125Z" fill="#232334"/>
<path d="M18.7552 11.2124C18.4365 11.6156 18.5584 12.1687 18.999 12.3656C19.3271 12.5156 20.4896 12.4968 20.799 12.3281C21.2302 12.1031 21.3146 11.6343 20.9865 11.2124C20.799 10.9781 20.7615 10.9687 19.8709 10.9687C18.9802 10.9687 18.9427 10.9781 18.7552 11.2124Z" fill="#232334"/>
<path d="M22.8803 11.2125C22.6834 11.4656 22.6365 11.7656 22.7396 12.0469C22.8428 12.3187 23.3021 12.4688 23.9959 12.4688C24.6896 12.4688 25.149 12.3187 25.2521 12.0469C25.3553 11.7656 25.3084 11.4656 25.1115 11.2125C24.924 10.9781 24.8865 10.9687 23.9959 10.9687C23.1053 10.9687 23.0678 10.9781 22.8803 11.2125Z" fill="#232334"/>
<path d="M27.0146 11.1843C26.6678 11.5499 26.7521 12.1031 27.1928 12.3281C27.5021 12.4968 28.6646 12.5156 28.9928 12.3656C29.4334 12.1687 29.5553 11.6156 29.2365 11.2124C29.049 10.9781 29.0021 10.9687 28.1303 10.9687C27.2959 10.9687 27.2021 10.9874 27.0146 11.1843Z" fill="#232334"/>
<path d="M31.1397 11.1843C30.8865 11.4562 30.8772 11.9062 31.1115 12.1968C31.2709 12.3937 31.3928 12.4218 32.049 12.45C32.9209 12.4968 33.2959 12.3843 33.4553 12.0375C33.6053 11.7 33.5865 11.4937 33.3615 11.2125C33.174 10.9781 33.1272 10.9687 32.2553 10.9687C31.4209 10.9687 31.3272 10.9875 31.1397 11.1843Z" fill="#232334"/>
<path d="M35.2647 11.1843C35.0116 11.4562 35.0022 11.9062 35.2366 12.1968C35.396 12.3937 35.5178 12.4218 36.1741 12.45C37.046 12.4968 37.421 12.3843 37.5803 12.0375C37.7303 11.7 37.7116 11.4937 37.4866 11.2125C37.2991 10.9781 37.2522 10.9687 36.3803 10.9687C35.546 10.9687 35.4522 10.9875 35.2647 11.1843Z" fill="#232334"/>
<path d="M8.74277 15.4781C8.3584 15.675 8.33027 15.9187 8.3584 19.3031L8.38652 22.5187L8.64902 22.7437C8.90215 22.9594 8.97715 22.9688 10.1584 22.9688C11.6396 22.9688 12.2115 22.8281 12.7553 22.3406C13.3178 21.825 13.5334 21.3562 13.5334 20.5781C13.5428 20.0156 13.5053 19.8469 13.2615 19.4156C13.1115 19.1344 12.9147 18.8719 12.8303 18.8156C12.699 18.7312 12.699 18.6937 12.8209 18.4406C13.3084 17.4562 12.8678 16.1625 11.874 15.6281C11.5365 15.45 11.3115 15.4219 10.2146 15.4031C9.42715 15.3844 8.87402 15.4219 8.74277 15.4781ZM11.2928 17.1094C11.424 17.2312 11.5271 17.4187 11.5271 17.5312C11.5271 17.6344 11.424 17.8312 11.2928 17.9531C11.0959 18.1594 10.9834 18.1875 10.449 18.1875H9.83965V17.5312V16.875H10.449C10.9834 16.875 11.0959 16.9031 11.2928 17.1094ZM11.6115 19.8281C12.1365 20.0906 12.2022 20.775 11.7428 21.2062C11.5459 21.3937 11.3959 21.4219 10.674 21.45L9.83965 21.4875V20.5875V19.6875H10.5896C11.0678 19.6875 11.4428 19.7344 11.6115 19.8281Z" fill="#D4AE5E"/>
<path d="M14.7428 15.5999L14.4803 15.8249V19.1718V22.5187L14.7428 22.7437C15.0616 23.0156 15.3616 23.0343 15.6897 22.7718C15.9241 22.5843 15.9335 22.5468 15.9335 21.5343L15.9428 20.4843L16.5616 21.1874C18.2116 23.0343 18.446 23.1843 18.971 22.7718C19.1585 22.6218 19.2147 22.4999 19.2147 22.2187C19.2147 21.8906 19.1304 21.7499 18.4179 20.9531C17.9772 20.4656 17.621 20.0249 17.621 19.9781C17.621 19.9312 17.7147 19.8749 17.8366 19.8374C18.2022 19.7437 18.7647 19.1999 18.9897 18.7124C19.4116 17.7937 19.2522 16.8093 18.5491 16.1062C17.9678 15.5249 17.4522 15.3749 16.0647 15.3749C15.0803 15.3749 14.9866 15.3937 14.7428 15.5999ZM17.3116 17.0624C17.8647 17.3999 17.8272 18.1031 17.246 18.3937C17.0585 18.4874 16.7022 18.5624 16.4303 18.5624H15.9335V17.7187V16.8749H16.4772C16.8428 16.8749 17.1053 16.9312 17.3116 17.0624Z" fill="#D4AE5E"/>
<path d="M22.9085 15.4875C22.6553 15.6094 22.7116 15.4781 21.3147 19.0219C20.6772 20.6437 20.1522 22.0875 20.1522 22.2375C20.1522 22.5562 20.5178 22.9688 20.7991 22.9688C21.2303 22.9688 21.4553 22.7625 21.7178 22.1062L21.9803 21.4687L23.2741 21.4875L24.5679 21.5156L24.821 22.125C24.9897 22.5094 25.1679 22.7812 25.3179 22.8656C25.7304 23.0906 26.2741 22.8375 26.396 22.3594C26.4429 22.1625 25.8804 20.6156 24.2866 16.6406C23.7991 15.4406 23.5085 15.1969 22.9085 15.4875ZM23.6116 19.0594C23.771 19.4625 23.9022 19.8281 23.9022 19.875C23.9022 19.9312 23.6116 19.9687 23.246 19.9687C22.8897 19.9687 22.5897 19.9594 22.5897 19.9406C22.5897 19.9219 22.7022 19.6406 22.8335 19.3031C22.9741 18.975 23.1147 18.6 23.1616 18.4781C23.2085 18.3562 23.2647 18.2719 23.2835 18.2906C23.3116 18.3094 23.4522 18.6562 23.6116 19.0594Z" fill="#D4AE5E"/>
<path d="M27.6147 15.5719L27.3709 15.7594V19.1719V22.5844L27.6147 22.7719C27.9428 23.0344 28.2428 23.0157 28.5615 22.7438L28.824 22.5188L28.8709 20.5969L28.9178 18.6844L30.3709 20.7563C31.4022 22.2094 31.9084 22.8563 32.0772 22.9125C32.3959 23.025 32.8459 22.8469 32.9865 22.5375C33.0522 22.3782 33.0897 21.3 33.0897 19.1625C33.0897 16.5938 33.0615 15.975 32.949 15.7594C32.7428 15.3563 32.2272 15.2531 31.8615 15.5531C31.6365 15.7313 31.6365 15.7688 31.5897 17.7469L31.5428 19.7625L30.1365 17.7469C29.3678 16.6406 28.6272 15.6563 28.5053 15.5531C28.2147 15.3188 27.924 15.3281 27.6147 15.5719Z" fill="#D4AE5E"/>
<path d="M34.3459 15.4874C33.9615 15.6749 33.9334 15.8999 33.9334 19.2281V22.425L34.2147 22.7062L34.5053 22.9968L35.7897 22.9406C37.4115 22.8843 37.824 22.7531 38.5365 22.0406C40.1115 20.4656 39.924 17.1281 38.2084 15.9374C37.6084 15.5249 36.8865 15.3749 35.6209 15.3843C35.0303 15.3843 34.449 15.4312 34.3459 15.4874ZM37.0928 17.0531C37.8334 17.3999 38.2553 18.5718 38.049 19.7531C37.8522 20.8781 37.1584 21.4593 36.024 21.4687H35.4334V19.1718V16.8749H36.0709C36.4834 16.8749 36.8303 16.9406 37.0928 17.0531Z" fill="#D4AE5E"/>
<path d="M5.18966 16.2C4.96466 16.3406 4.87091 16.7062 4.87091 17.3906C4.87091 18.0187 4.89904 18.1312 5.10529 18.3281C5.42404 18.6562 5.91154 18.6469 6.17404 18.3187C6.33341 18.1125 6.37091 17.9344 6.37091 17.3062C6.37091 16.6594 6.34279 16.5 6.18341 16.3312C5.98654 16.125 5.41466 16.05 5.18966 16.2Z" fill="#232334"/>
<path d="M41.8085 16.3312C41.6491 16.5 41.621 16.6594 41.621 17.3062C41.621 17.9344 41.6585 18.1125 41.8178 18.3187C42.0803 18.6469 42.5678 18.6562 42.8866 18.3281C43.0928 18.1312 43.121 18.0187 43.121 17.3906C43.121 16.3781 42.971 16.125 42.3522 16.125C42.1085 16.125 41.9397 16.1906 41.8085 16.3312Z" fill="#232334"/>
<path d="M46.8521 17.1656C46.7584 17.2125 46.6459 17.4093 46.5896 17.6062C46.5334 17.8312 46.4959 21.3375 46.4959 27.9C46.4959 36.3281 46.4771 37.8656 46.3646 38.025C46.2427 38.1844 46.0834 38.2031 44.4896 38.2312C43.1959 38.25 42.7459 38.2312 42.7459 38.1469C42.7459 38.0906 42.399 37.6875 41.9771 37.2562C41.4427 36.7031 41.1052 36.4312 40.8521 36.3562L40.4959 36.2531V34.6125C40.4959 33.0281 40.4865 32.9625 40.2521 32.5312C40.1209 32.2875 39.8865 31.9969 39.7271 31.875C39.5771 31.7625 37.4021 30.8906 34.8896 29.9344C30.549 28.2844 30.2959 28.2 29.7896 28.2375C29.1709 28.2844 28.6833 28.6031 28.3927 29.1562C28.0271 29.8219 28.1021 30.1125 29.7052 34.3125L31.1865 38.2031L16.6177 38.2312C5.08645 38.25 1.98333 38.2219 1.79583 38.1375C1.66458 38.0719 1.52395 37.9125 1.48645 37.7812C1.44895 37.65 1.42083 36.3844 1.41145 34.9594C1.40208 32.0344 1.41145 32.0625 0.6802 32.0625C-0.0229256 32.0625 -0.0135506 32.0156 0.0145745 35.4094L0.0426995 38.4094L0.295825 38.7937C0.43645 39 0.7552 39.3 0.99895 39.4406L1.44895 39.7031L16.7115 39.7312C26.3958 39.7406 31.9646 39.7875 31.9646 39.8437C31.9646 39.8906 32.1896 40.0594 32.4615 40.2187L32.949 40.5H34.599H36.249L36.3521 40.8562C36.4271 41.1094 36.699 41.4469 37.2427 41.9719C37.8709 42.5906 38.0959 42.75 38.3865 42.7969C38.5927 42.8344 38.8084 42.8719 38.8646 42.8906C38.9209 42.9094 39.5677 44.0062 40.299 45.3469C41.0302 46.6781 41.7052 47.8219 41.7896 47.8781C41.8646 47.9437 42.099 48 42.2865 48C42.6802 48 43.0271 47.6719 43.0271 47.3062C43.0271 47.2031 42.3896 45.975 41.6209 44.5781L40.2146 42.0469L41.124 41.1375C41.6209 40.6406 42.0521 40.2375 42.0802 40.2562C42.1084 40.275 43.2521 40.9031 44.6209 41.6531C45.9896 42.4125 47.199 43.0312 47.3021 43.0312C47.4146 43.0312 47.6115 42.9469 47.7521 42.8344C48.0521 42.6 48.099 42 47.8271 41.7375C47.7334 41.6531 46.9365 41.175 46.0459 40.6875L44.424 39.7969L45.5021 39.7406C46.4396 39.6844 46.6365 39.6469 47.0115 39.4312C47.2459 39.2906 47.5552 39 47.6959 38.7937L47.949 38.4L47.9771 27.9187C47.9959 17.5218 47.9959 17.4375 47.8084 17.25C47.6021 17.0437 47.124 17.0062 46.8521 17.1656ZM35.3396 31.7344C38.6396 32.9906 38.8177 33.0562 38.9209 33.225C38.9584 33.2812 38.9959 34.1719 38.9959 35.2031V37.0781L38.0396 38.0344L37.074 39H35.1896C33.4646 39 33.2959 38.9812 33.1459 38.8219C33.0615 38.7281 32.4052 37.1156 31.6927 35.2406C30.9709 33.3656 30.3427 31.6969 30.2865 31.5469C30.2021 31.35 30.5959 31.6781 31.6271 32.7094C32.949 34.0312 33.0709 34.1719 32.9865 34.3781C32.7052 35.1375 33.0521 36.4031 33.6896 36.8906C34.674 37.6406 35.8365 37.575 36.699 36.7031C37.5709 35.8406 37.6365 34.6781 36.8865 33.6937C36.399 33.0562 35.1334 32.7094 34.374 32.9906C34.1677 33.075 34.0271 32.9531 32.7052 31.6312C31.2615 30.1781 31.2615 30.1781 31.7302 30.3562C31.9927 30.4594 33.6146 31.0781 35.3396 31.7344ZM35.6115 34.5656C35.7146 34.6594 35.8365 34.8656 35.8646 35.0344C35.9115 35.2875 35.874 35.3812 35.6302 35.6344C35.3771 35.8781 35.2834 35.9156 35.0302 35.8687C34.4302 35.7562 34.1959 35.0625 34.6084 34.6219C34.8521 34.3594 35.3302 34.3312 35.6115 34.5656ZM40.8709 38.2969L41.2927 38.7187L39.999 40.0125L38.7146 41.2969L38.274 40.8469L37.824 40.4062L39.0896 39.1406C39.7834 38.4469 40.374 37.875 40.4021 37.875C40.4302 37.875 40.6459 38.0625 40.8709 38.2969Z" fill="#232334"/>
<path d="M5.06779 20.025C4.90841 20.2312 4.87091 20.4094 4.87091 21C4.87091 21.9187 5.05841 22.2188 5.62091 22.2188C6.21154 22.2188 6.37091 21.975 6.37091 21.0375C6.37091 20.0812 6.19279 19.7812 5.62091 19.7812C5.33966 19.7812 5.21779 19.8375 5.06779 20.025Z" fill="#232334"/>
<path d="M41.8178 20.025C41.6585 20.2312 41.621 20.4094 41.621 21.0375C41.621 21.975 41.7803 22.2188 42.371 22.2188C42.9335 22.2188 43.121 21.9187 43.121 21C43.121 20.0812 42.9335 19.7812 42.371 19.7812C42.0897 19.7812 41.9678 19.8375 41.8178 20.025Z" fill="#232334"/>
<path d="M5.05838 23.7187C4.84275 23.9437 4.72088 24 4.40213 24C3.8865 24 3.324 24.3187 3.1365 24.7125C2.93025 25.1531 2.93025 28.2 3.1365 28.6031C3.44587 29.1844 3.68962 29.25 5.67713 29.25C7.35525 29.25 7.4865 29.2406 7.72088 29.0531C8.06775 28.7812 8.24588 28.3875 8.24588 27.8906C8.24588 27.525 8.29275 27.4219 8.52713 27.2156C8.73338 27.0469 8.80838 26.8969 8.80838 26.6812C8.80838 26.3437 8.58338 25.9687 8.37713 25.9687C8.28338 25.9687 8.24588 25.8469 8.24588 25.4719C8.24588 24.5625 7.7115 24 6.85838 24C6.52088 24 6.399 23.9437 6.18338 23.7187C5.99588 23.5219 5.8365 23.4375 5.62088 23.4375C5.40525 23.4375 5.24588 23.5219 5.05838 23.7187ZM6.74588 26.6719V27.8437H5.62088H4.49588V26.6719V25.5H5.62088H6.74588V26.6719Z" fill="#232334"/>
<path d="M41.8085 23.7187C41.5928 23.9437 41.471 24 41.1335 24C40.2803 24 39.746 24.5625 39.746 25.4719C39.746 25.8469 39.7085 25.9687 39.6147 25.9687C39.4085 25.9687 39.1835 26.3437 39.1835 26.6906C39.1835 26.9906 39.446 27.375 39.6522 27.375C39.7085 27.375 39.746 27.5906 39.746 27.8437C39.746 28.3875 39.9147 28.7719 40.271 29.0531C40.5053 29.2406 40.6366 29.25 42.3147 29.25C44.3022 29.25 44.546 29.1844 44.8554 28.6031C45.0616 28.2 45.0616 25.1531 44.8554 24.7125C44.6679 24.3187 44.1054 24 43.5897 24C43.271 24 43.1491 23.9437 42.9335 23.7187C42.746 23.5219 42.5866 23.4375 42.371 23.4375C42.1553 23.4375 41.996 23.5219 41.8085 23.7187ZM43.496 26.6719V27.8437H42.371H41.246V26.6719V25.5H42.371H43.496V26.6719Z" fill="#232334"/>
<path d="M10.7209 25.978C10.2803 26.203 10.1959 26.7936 10.5428 27.1405C10.749 27.3561 10.8428 27.3749 11.649 27.3749C12.4459 27.3749 12.549 27.3561 12.7272 27.1593C12.9803 26.8874 12.9897 26.4374 12.7553 26.1468C12.5959 25.9405 12.4928 25.9218 11.7428 25.903C11.2928 25.8843 10.824 25.9218 10.7209 25.978Z" fill="#232334"/>
<path d="M14.846 25.978C14.6303 26.0905 14.4335 26.4374 14.4335 26.7093C14.4335 26.803 14.5178 26.9905 14.6303 27.1311C14.8178 27.3655 14.8647 27.3749 15.7366 27.3749C16.571 27.3749 16.6647 27.3561 16.8522 27.1593C17.1053 26.8874 17.1147 26.4374 16.8803 26.1468C16.721 25.9405 16.6178 25.9218 15.8678 25.903C15.4178 25.8843 14.9491 25.9218 14.846 25.978Z" fill="#232334"/>
<path d="M18.9803 25.978C18.521 26.2405 18.4272 26.7093 18.7553 27.1311C18.9428 27.3655 18.9803 27.3749 19.871 27.3749C20.7616 27.3749 20.7991 27.3655 20.9866 27.1311C21.2303 26.8218 21.2397 26.428 21.0053 26.1468C20.846 25.9405 20.7335 25.9218 19.9928 25.8936C19.496 25.8843 19.0928 25.9124 18.9803 25.978Z" fill="#232334"/>
<path d="M23.1053 25.9874C22.6459 26.2311 22.5521 26.7093 22.8803 27.1311C23.0678 27.3655 23.1053 27.3749 23.9959 27.3749C24.8865 27.3749 24.924 27.3655 25.1115 27.1311C25.4397 26.7093 25.3553 26.2405 24.924 26.0155C24.6147 25.8468 23.3865 25.828 23.1053 25.9874Z" fill="#232334"/>
<path d="M27.2115 25.9687C26.7896 26.1375 26.6865 26.7187 27.0053 27.1312C27.2021 27.375 27.2209 27.3844 28.1397 27.3562C29.0397 27.3281 29.0959 27.3187 29.274 27.075C29.5365 26.7281 29.4334 26.2125 29.0584 26.0156C28.7584 25.8562 27.5584 25.8281 27.2115 25.9687Z" fill="#232334"/>
<path d="M31.3366 25.9686C30.8959 26.1468 30.7928 26.8311 31.1491 27.1686C31.3459 27.3468 31.4678 27.3749 32.2647 27.3749C33.1272 27.3749 33.1741 27.3655 33.3616 27.1311C33.6803 26.728 33.5584 26.1749 33.1178 25.978C32.8553 25.8561 31.6366 25.8468 31.3366 25.9686Z" fill="#232334"/>
<path d="M35.4615 25.9686C35.0209 26.1468 34.9178 26.8311 35.274 27.1686C35.4615 27.3468 35.6021 27.3749 36.3615 27.3749C37.149 27.3749 37.2428 27.3561 37.449 27.1405C37.8146 26.7843 37.7021 26.1843 37.2428 25.978C36.9803 25.8561 35.7615 25.8468 35.4615 25.9686Z" fill="#232334"/>
</svg>
