<svg width="348" height="167" viewBox="0 0 348 167" fill="none" xmlns="http://www.w3.org/2000/svg">
<rect width="348" height="167" rx="4" fill="#EDF0FC"/>
<path d="M137.866 88.8276L132.855 88.9028C131.173 88.9279 129.477 88.9404 127.786 88.9429H127.67V88.8276V86.0237V85.8984H127.798L132.837 85.916L135.358 85.9385L137.879 85.9686H137.934V86.0212L137.866 88.8276ZM137.866 88.8276L137.811 86.0237L137.866 86.0789L135.345 86.1089L132.825 86.1315L127.786 86.149L127.908 86.0237V88.8276L127.793 88.7124C129.462 88.7124 131.126 88.7274 132.805 88.7525L137.866 88.8276Z" fill="#EBEBEB"/>
<path d="M132.241 89.5591H122.16V92.363H132.241V89.5591Z" fill="#EBEBEB"/>
<path d="M186.673 99.6624H176.592V102.466H186.673V99.6624Z" fill="#EBEBEB"/>
<path d="M226.59 65.9553H216.509V68.7592H226.59V65.9553Z" fill="#EBEBEB"/>
<path d="M177.768 47.0593H167.687V49.8632H177.768V47.0593Z" fill="#EBEBEB"/>
<path d="M223.51 58.5732H206.574V79.1178H223.51V58.5732Z" fill="#EBEBEB"/>
<path d="M221.576 60.4502H208.508V77.2437H221.576V60.4502Z" fill="white"/>
<path d="M209.017 60.4502H208.508V77.2437H209.017V60.4502Z" fill="#C7C7C7"/>
<path d="M224.019 58.5732H223.51V79.1178H224.019V58.5732Z" fill="#C7C7C7"/>
<path d="M215.97 64.3337H212.888V73.5123H215.97V64.3337Z" fill="#EBEBEB"/>
<path d="M219.884 67.3885H211.417V62.6401H219.884V67.3885ZM211.668 67.1379H219.634V62.8907H211.668V67.1379Z" fill="#EBEBEB"/>
<path d="M223.51 33.3528H206.574V53.8974H223.51V33.3528Z" fill="#EBEBEB"/>
<path d="M221.576 35.2271H208.508V52.0205H221.576V35.2271Z" fill="white"/>
<path d="M209.017 35.2271H208.508V52.0205H209.017V35.2271Z" fill="#C7C7C7"/>
<path d="M224.019 33.3528H223.51V53.8974H224.019V33.3528Z" fill="#C7C7C7"/>
<path d="M216.414 39.5671H213.775V46.2399H216.414V39.5671Z" fill="#EBEBEB"/>
<path d="M219.32 48.3494H211.979V43.4983H219.32V48.3494ZM212.229 48.0988H219.07V43.7489H212.229V48.0988Z" fill="#DBDBDB"/>
<path d="M131.226 81.3081C135.373 85.3799 136.07 91.6442 135.195 97.1569C135.173 97.2822 134.98 97.2471 134.98 97.1318C134.98 95.8789 135.017 94.6261 135.012 93.4008C134.99 93.3431 134.972 93.2905 134.95 93.2329C133.867 92.4461 132.87 91.5565 132.253 90.3387C131.562 88.9756 131.289 87.4396 130.75 86.0163C130.7 85.881 130.845 85.9211 130.94 85.9913C133.464 87.8505 134.268 89.8526 134.992 92.5288C134.976 91.1298 134.83 89.7356 134.554 88.3642C134.007 85.8234 132.93 83.3076 131.106 81.4233C131.098 81.4153 131.092 81.406 131.088 81.3958C131.084 81.3857 131.082 81.3747 131.083 81.3639C131.083 81.3529 131.085 81.3421 131.09 81.3321C131.094 81.3221 131.1 81.3131 131.108 81.3055C131.116 81.298 131.125 81.292 131.136 81.288C131.146 81.284 131.157 81.2822 131.168 81.2825C131.179 81.2825 131.189 81.285 131.199 81.2893C131.209 81.2938 131.218 81.3 131.226 81.3081Z" fill="#263238"/>
<path d="M130.447 81.7818C129.733 81.8069 129.284 82.947 128.728 83.2852C128.669 83.3324 128.602 83.3667 128.529 83.3862C128.457 83.4055 128.381 83.4093 128.307 83.3975C128.232 83.3857 128.161 83.3584 128.099 83.3176C128.036 83.2767 127.982 83.2229 127.941 83.16C127.39 82.3907 128.146 81.4435 128.858 80.9048C128.357 81.1128 127.928 81.4811 127.38 81.5839C127.31 81.6072 127.235 81.6152 127.162 81.6074C127.088 81.5994 127.017 81.5758 126.954 81.538C126.89 81.5002 126.836 81.449 126.794 81.3882C126.752 81.3273 126.723 81.2581 126.711 81.1854C126.46 80.138 127.786 79.682 128.688 79.6494C128.249 79.3437 126.996 78.5168 127.663 78.1109C128.329 77.705 129.808 78.8852 130.289 79.2736C130.993 79.8474 131.835 80.7018 131.868 81.5964C131.908 82.6438 130.996 82.0023 130.447 81.7818Z" fill="#FFC727"/>
<path opacity="0.1" d="M130.447 81.7818C129.733 81.8069 129.284 82.947 128.728 83.2852C128.669 83.3324 128.602 83.3667 128.529 83.3862C128.457 83.4055 128.381 83.4093 128.307 83.3975C128.232 83.3857 128.161 83.3584 128.099 83.3176C128.036 83.2767 127.982 83.2229 127.941 83.16C127.39 82.3907 128.146 81.4435 128.858 80.9048C128.357 81.1128 127.928 81.4811 127.38 81.5839C127.31 81.6072 127.235 81.6152 127.162 81.6074C127.088 81.5994 127.017 81.5758 126.954 81.538C126.89 81.5002 126.836 81.449 126.794 81.3882C126.752 81.3273 126.723 81.2581 126.711 81.1854C126.46 80.138 127.786 79.682 128.688 79.6494C128.249 79.3437 126.996 78.5168 127.663 78.1109C128.329 77.705 129.808 78.8852 130.289 79.2736C130.993 79.8474 131.835 80.7018 131.868 81.5964C131.908 82.6438 130.996 82.0023 130.447 81.7818Z" fill="black"/>
<path d="M130.652 81.9567C129.74 81.5433 127.989 82.1396 127.838 81.7938C127.538 81.0922 128.936 80.6086 129.693 80.5159C128.996 80.328 127.663 80.0273 127.703 79.3557C127.753 78.5364 129.75 79.2405 130.76 80.0148C132.033 80.992 132.013 81.9342 131.812 82.1221C131.527 82.3727 130.803 82.0269 130.652 81.9567Z" fill="#FFC727"/>
<path d="M140.67 80.9069C136.37 84.8058 135.436 91.0551 136.1 96.5878C136.12 96.7131 136.313 96.6855 136.318 96.5703C136.365 95.3174 136.375 94.0645 136.425 92.8392C136.45 92.7841 136.471 92.7315 136.496 92.6763C137.608 91.9246 138.635 91.0802 139.3 89.8849C140.051 88.5494 140.372 87.0259 140.956 85.6252C141.011 85.4899 140.863 85.525 140.765 85.5901C138.174 87.3441 137.295 89.3237 136.471 91.9697C136.538 90.5715 136.738 89.1831 137.067 87.8227C137.708 85.317 138.881 82.8338 140.775 81.0196C140.846 80.952 140.745 80.8367 140.67 80.9069Z" fill="#263238"/>
<path d="M141.432 81.4084C142.144 81.461 142.547 82.6162 143.088 82.972C143.145 83.0218 143.211 83.0592 143.283 83.0817C143.355 83.104 143.431 83.111 143.505 83.102C143.58 83.093 143.652 83.0682 143.717 83.0294C143.781 82.9905 143.837 82.9386 143.88 82.8768C144.461 82.125 143.742 81.1528 143.051 80.5965C143.552 80.8246 143.958 81.2079 144.501 81.3307C144.571 81.3568 144.645 81.3678 144.718 81.3625C144.792 81.3575 144.864 81.3365 144.929 81.3011C144.994 81.2656 145.051 81.2165 145.095 81.1573C145.139 81.0979 145.17 81.0298 145.185 80.9574C145.466 79.92 144.183 79.4038 143.269 79.3462C143.717 79.0605 145.003 78.2812 144.351 77.8427C143.7 77.4042 142.179 78.5343 141.682 78.9052C140.956 79.4489 140.084 80.2708 140.019 81.1603C139.936 82.2152 140.873 81.6063 141.432 81.4084Z" fill="#FFC727"/>
<path opacity="0.1" d="M141.432 81.4084C142.144 81.461 142.547 82.6162 143.088 82.972C143.145 83.0218 143.211 83.0592 143.283 83.0817C143.355 83.104 143.431 83.111 143.505 83.102C143.58 83.093 143.652 83.0682 143.717 83.0294C143.781 82.9905 143.837 82.9386 143.88 82.8768C144.461 82.125 143.742 81.1528 143.051 80.5965C143.552 80.8246 143.958 81.2079 144.501 81.3307C144.571 81.3568 144.645 81.3678 144.718 81.3625C144.792 81.3575 144.864 81.3365 144.929 81.3011C144.994 81.2656 145.051 81.2165 145.095 81.1573C145.139 81.0979 145.17 81.0298 145.185 80.9574C145.466 79.92 144.183 79.4038 143.269 79.3462C143.717 79.0605 145.003 78.2812 144.351 77.8427C143.7 77.4042 142.179 78.5343 141.682 78.9052C140.956 79.4489 140.084 80.2708 140.019 81.1603C139.936 82.2152 140.873 81.6063 141.432 81.4084Z" fill="black"/>
<path d="M141.219 81.5762C142.146 81.1978 143.873 81.8594 144.035 81.5211C144.364 80.8295 142.983 80.2958 142.231 80.173C142.935 80.0126 144.278 79.7621 144.263 79.0905C144.243 78.2686 142.224 78.8976 141.184 79.6318C139.876 80.5589 139.848 81.5008 140.051 81.6962C140.329 81.9669 141.064 81.6389 141.219 81.5762Z" fill="#FFC727"/>
<path d="M136.288 91.2058C135.996 93.2916 135.55 95.3528 134.952 97.3724C134.944 97.4123 134.92 97.4474 134.886 97.4697C134.852 97.492 134.81 97.4997 134.77 97.4915C134.731 97.4832 134.696 97.4594 134.673 97.4253C134.651 97.3912 134.643 97.3496 134.651 97.3098C134.935 95.4104 135.448 93.5512 135.731 91.6443C136.039 89.7219 136.15 87.7732 136.062 85.8285C135.879 82.6286 135.01 79.2208 132.922 76.7176C132.875 76.6575 132.973 76.5723 133.02 76.6274C137.202 81.5061 136.528 87.4848 136.528 88.021C137.122 86.0014 137.731 83.6886 139.971 81.6314C140.069 81.5437 140.144 81.5863 140.126 81.7366C139.726 85.4802 138.686 87.4372 136.513 89.4393C136.446 90.0306 136.368 90.622 136.288 91.2058Z" fill="#263238"/>
<path d="M132.87 77.2762C132.118 76.9429 131.081 77.9001 130.337 77.9678C129.943 78.0028 129.65 77.8475 129.585 77.4415C129.399 76.3666 130.662 75.7627 131.667 75.5698C131.033 75.5297 130.414 75.7001 129.79 75.5322C129.705 75.5222 129.623 75.4936 129.55 75.4487C129.477 75.4036 129.414 75.3435 129.366 75.2721C129.319 75.2007 129.287 75.1195 129.274 75.0348C129.26 74.9498 129.266 74.8631 129.289 74.7805C129.565 73.5727 131.166 73.7506 132.113 74.1816C131.812 73.6453 130.928 72.1569 131.822 72.0692C132.717 71.9815 133.659 73.9536 133.962 74.6C134.406 75.5472 134.847 76.8552 134.431 77.8024C133.955 78.9074 133.331 77.7798 132.87 77.2762Z" fill="#FFC727"/>
<path opacity="0.1" d="M132.87 77.2762C132.118 76.9429 131.081 77.9001 130.337 77.9678C129.943 78.0028 129.65 77.8475 129.585 77.4415C129.399 76.3666 130.662 75.7627 131.667 75.5698C131.033 75.5297 130.414 75.7001 129.79 75.5322C129.705 75.5222 129.623 75.4936 129.55 75.4487C129.477 75.4036 129.414 75.3435 129.366 75.2721C129.319 75.2007 129.287 75.1195 129.274 75.0348C129.26 74.9498 129.266 74.8631 129.289 74.7805C129.565 73.5727 131.166 73.7506 132.113 74.1816C131.812 73.6453 130.928 72.1569 131.822 72.0692C132.717 71.9815 133.659 73.9536 133.962 74.6C134.406 75.5472 134.847 76.8552 134.431 77.8024C133.955 78.9074 133.331 77.7798 132.87 77.2762Z" fill="black"/>
<path d="M132.998 77.5645C132.246 76.675 130.141 76.4119 130.159 75.9784C130.199 75.0964 131.895 75.3018 132.727 75.585C132.101 75.0387 130.868 74.0565 131.246 73.3799C131.712 72.5555 133.429 74.292 134.085 75.6025C134.914 77.2563 134.433 78.2285 134.12 78.3188C133.689 78.4415 133.118 77.7099 132.998 77.5645Z" fill="#FFC727"/>
<path d="M139.026 92.3332L140.871 106.428H129.645C129.875 105.175 131.965 92.3157 131.965 92.3157L139.026 92.3332Z" fill="#FFC727"/>
<path d="M157.837 48.525C157.595 47.6848 157.22 46.8888 156.727 46.1671C156.215 45.4532 155.618 44.8037 154.95 44.2327C152.287 41.9149 148.616 41.0178 145.145 41.2559C143.56 41.3516 142.006 41.7382 140.56 42.396C139.855 42.7245 139.202 43.1532 138.62 43.6689C138.082 44.1475 137.475 44.7363 137.225 45.4229C137.217 45.4475 137.217 45.4743 137.225 45.4988C137.234 45.5234 137.25 45.5447 137.271 45.5592C137.293 45.574 137.318 45.5813 137.344 45.58C137.37 45.579 137.395 45.5695 137.415 45.5532C137.733 45.3026 138.002 44.9869 138.305 44.7113C138.611 44.4379 138.935 44.1868 139.277 43.9596C139.948 43.518 140.661 43.1454 141.407 42.847C144.386 41.6443 147.922 41.6743 150.929 42.7618C152.387 43.294 153.733 44.0936 154.898 45.1197C155.447 45.6048 155.95 46.1391 156.401 46.7159C156.885 47.3015 157.331 47.9176 157.737 48.5601C157.782 48.5952 157.86 48.5801 157.837 48.525Z" fill="#263238"/>
<path d="M155.639 43.7841C155.338 43.3035 154.96 42.876 154.519 42.5187C154.058 42.1799 153.57 41.8782 153.061 41.6166C151.196 40.6106 149.154 39.9741 147.047 39.7423C146.031 39.6306 145.003 39.6812 144.003 39.8927C143.529 39.9989 143.061 40.132 142.602 40.2911C142.135 40.4291 141.691 40.6361 141.284 40.905C141.275 40.9143 141.268 40.926 141.266 40.9388C141.263 40.9518 141.265 40.9651 141.27 40.9771C141.276 40.9889 141.285 40.9987 141.296 41.0052C141.308 41.0117 141.321 41.0142 141.334 41.0127C141.87 40.9025 142.384 40.7045 142.923 40.6018C143.462 40.4991 143.965 40.479 144.491 40.4289C150.648 39.8576 155.101 43.6638 155.537 43.8918C155.552 43.9026 155.57 43.9074 155.588 43.9056C155.606 43.9041 155.622 43.8958 155.635 43.8828C155.648 43.8695 155.655 43.8525 155.656 43.8342C155.657 43.8162 155.651 43.7984 155.639 43.7841Z" fill="#263238"/>
<path d="M134.338 63.2719C135.591 64.0813 137.074 63.4899 138.057 62.5402C139.079 61.553 139.776 60.26 140.312 58.9595C140.813 57.7718 141.166 56.5315 141.565 55.3062C141.963 54.0809 142.316 52.8004 142.948 51.6804C143.539 50.6089 144.53 49.8153 145.704 49.4728C146.977 49.1303 148.329 49.252 149.52 49.8161C150.151 50.0942 150.723 50.4896 151.207 50.9813C151.649 51.4621 151.994 52.0246 152.222 52.6375C152.75 53.9606 153.016 55.3688 153.337 56.7495C153.6 57.8921 154.146 58.922 155.216 59.4857C156.128 59.9668 157.251 60.1122 158.178 59.5935C158.192 59.5867 158.203 59.5752 158.208 59.5612C158.214 59.5471 158.215 59.5311 158.21 59.5168C158.205 59.5023 158.195 59.49 158.182 59.4825C158.168 59.4747 158.153 59.4725 158.138 59.4757C157.554 59.5892 156.951 59.5664 156.378 59.4091C155.804 59.252 155.274 58.964 154.83 58.5686C154.372 58.1051 154.055 57.5212 153.916 56.8848C153.715 56.1331 153.565 55.3588 153.359 54.6021C153.018 53.3492 152.68 51.9785 151.856 50.9362C151.016 49.9263 149.884 49.2014 148.616 48.8614C147.395 48.5061 146.091 48.5622 144.905 49.0218C143.726 49.5094 142.764 50.4087 142.199 51.5526C141.016 53.8077 140.635 56.3786 139.723 58.739C139.303 59.9107 138.677 60.998 137.874 61.9489C137.039 62.881 135.699 63.5726 134.451 63.0539C134.422 63.0401 134.389 63.0381 134.359 63.0481C134.329 63.0584 134.304 63.08 134.289 63.1083C134.274 63.1366 134.271 63.1694 134.28 63.2C134.29 63.2306 134.31 63.2561 134.338 63.2719Z" fill="#263238"/>
<path d="M134.065 59.3201C134.641 59.3978 135.17 58.9643 135.438 58.4882C135.803 57.8031 136.082 57.0762 136.27 56.3232C136.667 54.7659 137.169 53.2372 137.774 51.7478C138.776 49.4149 140.337 47.1648 142.585 45.8718C143.698 45.2233 144.94 44.8259 146.224 44.7079C147.507 44.5896 148.801 44.7535 150.014 45.1877C151.17 45.6092 152.225 46.2642 153.116 47.1121C154.033 48.014 154.771 49.0809 155.291 50.2568C155.811 51.4756 156.238 52.7323 156.569 54.0155C156.717 54.5291 156.925 55.1531 157.421 55.4312C157.606 55.5472 157.826 55.5936 158.043 55.5625C158.259 55.5312 158.457 55.4244 158.601 55.2608C158.629 55.2282 158.584 55.1932 158.554 55.2132C158.413 55.3067 158.245 55.3498 158.077 55.3362C157.909 55.3227 157.75 55.2528 157.627 55.138C157.359 54.9108 157.181 54.5953 157.125 54.2485C156.958 53.5569 156.822 52.8603 156.624 52.1712C156.254 50.7713 155.67 49.4367 154.893 48.2147C154.193 47.1663 153.292 46.2667 152.243 45.5679C151.194 44.869 150.017 44.3844 148.78 44.1423C147.543 43.9 146.27 43.9048 145.034 44.1566C143.799 44.4082 142.626 44.9018 141.582 45.6087C139.417 47.0771 137.952 49.3397 136.982 51.7277C136.481 53.0365 136.062 54.3755 135.729 55.7369C135.564 56.4252 135.359 57.1038 135.118 57.7691C135.004 58.0607 134.87 58.3436 134.717 58.616C134.661 58.7413 134.574 58.8493 134.463 58.9295C134.352 59.0097 134.221 59.0588 134.085 59.072C134.052 59.0693 134.02 59.0798 133.994 59.1014C133.969 59.1227 133.954 59.1532 133.951 59.1861C133.948 59.2189 133.959 59.2515 133.98 59.2768C134.002 59.3018 134.032 59.3174 134.065 59.3201Z" fill="#263238"/>
<path d="M134.764 64.3542C134.76 64.382 134.767 64.41 134.784 64.4328C134.8 64.4557 134.824 64.4714 134.852 64.4769C135.055 64.5253 135.262 64.5571 135.471 64.5722C135.564 64.5772 135.658 64.5772 135.751 64.5722C136.856 64.517 138.007 63.8906 139.164 62.7104C140.143 61.7119 140.949 60.5577 141.55 59.2951C142.024 58.2133 142.388 57.0868 142.637 55.9324C142.717 55.6091 142.8 55.2834 142.888 54.9626C143.161 53.9353 143.657 52.4569 144.777 51.5248C145.155 51.2098 145.599 50.9838 146.076 50.8633C146.553 50.7427 147.051 50.7307 147.533 50.8282C148.282 50.98 148.992 51.2842 149.618 51.7217C150.244 52.1592 150.774 52.7208 151.174 53.3715C151.802 54.4179 152.028 55.6565 151.811 56.857C151.544 58.1547 150.914 59.3497 149.994 60.3024C149.036 61.2886 147.9 62.0852 146.646 62.6503C146.115 62.9008 145.411 63.2341 144.689 63.4997L144.276 63.6526C143.75 63.8455 143.209 64.041 142.69 64.269C142.656 64.2853 142.63 64.3131 142.615 64.3474C142.6 64.3817 142.598 64.4201 142.609 64.4557C142.621 64.4912 142.644 64.5216 142.676 64.5411C142.708 64.5609 142.746 64.5682 142.783 64.5621C143.146 64.4845 143.504 64.3842 143.837 64.2865C146.256 63.5924 149.267 62.4699 151.104 59.9365C151.934 58.8388 152.416 57.5173 152.487 56.1429C152.52 54.882 152.128 53.6464 151.375 52.6348C150.427 51.3316 149.007 50.4506 147.418 50.1792C146.895 50.0932 146.361 50.1155 145.847 50.2448C145.333 50.3741 144.851 50.6077 144.431 50.9309C143.504 51.6501 142.823 52.7952 142.349 54.4389C142.219 54.885 142.098 55.341 141.991 55.782C141.752 56.8492 141.416 57.8926 140.988 58.8992C140.383 60.2119 139.547 61.4052 138.52 62.4222C137.681 63.2491 136.373 64.2339 134.902 64.2364C134.868 64.2344 134.835 64.2454 134.809 64.2675C134.784 64.2895 134.767 64.3206 134.764 64.3542Z" fill="#263238"/>
<path d="M134.283 60.7659C134.596 60.8365 134.921 60.8323 135.231 60.7539C135.542 60.6757 135.83 60.5251 136.072 60.3149C136.621 59.8763 136.904 59.1472 137.13 58.5007C137.653 56.9972 138.059 55.4437 138.58 53.9327C139.39 51.5773 140.585 49.1718 142.707 47.7536C143.662 47.1264 144.739 46.7102 145.868 46.533C146.996 46.3559 148.149 46.4218 149.25 46.7262C150.468 47.071 151.573 47.7345 152.45 48.6481C153.254 49.5397 153.891 50.5683 154.331 51.6851C154.564 52.2464 154.765 52.8177 154.943 53.399C155.105 54.0142 155.3 54.6206 155.524 55.2157C155.935 56.2029 156.97 57.3881 158.163 56.8995C158.182 56.8903 158.198 56.8747 158.208 56.8557C158.217 56.8364 158.22 56.8146 158.216 56.7935C158.212 56.7722 158.201 56.7532 158.185 56.7387C158.169 56.7244 158.149 56.7159 158.128 56.7141C157.795 56.6833 157.474 56.5805 157.185 56.4132C156.897 56.2455 156.648 56.0175 156.456 55.7444C156.033 55.148 155.87 54.4113 155.677 53.7172C155.34 52.4208 154.841 51.1717 154.194 49.9987C153.617 48.9611 152.831 48.0543 151.886 47.3351C150.863 46.5959 149.683 46.1035 148.438 45.8968C147.299 45.7109 146.134 45.7545 145.011 46.0251C143.889 46.2957 142.832 46.7881 141.903 47.4729C139.841 49.014 138.666 51.4295 137.861 53.8125C137.408 55.1505 137.057 56.5161 136.641 57.8642C136.325 58.8916 135.766 60.6206 134.363 60.3925C134.317 60.3895 134.271 60.4031 134.234 60.4311C134.197 60.4589 134.171 60.4993 134.162 60.5446C134.152 60.59 134.159 60.6371 134.181 60.6779C134.203 60.7185 134.24 60.7498 134.283 60.7659Z" fill="#263238"/>
<path d="M134.18 61.7483C134.345 61.9339 134.544 62.0863 134.767 62.1968C135.228 62.4273 135.902 62.3521 136.363 62.1667C136.929 61.9074 137.405 61.4841 137.728 60.9514C138.082 60.3821 138.38 59.7805 138.621 59.1548C138.909 58.4607 139.159 57.7466 139.405 57.035C139.906 55.6042 140.355 54.1609 140.908 52.7476C141.389 51.4948 141.988 50.2995 142.996 49.3874C143.892 48.5645 145.006 48.0153 146.204 47.8046C147.403 47.5936 148.637 47.7299 149.761 48.1972C150.914 48.6816 151.894 49.5012 152.575 50.5501C153.327 51.6952 153.668 53.0308 153.998 54.3363C154.294 55.4989 154.532 56.7543 155.276 57.729C155.895 58.5434 157.213 59.1874 158.083 58.3404C158.092 58.3324 158.098 58.3214 158.099 58.3094C158.101 58.2973 158.098 58.2851 158.091 58.275C158.085 58.2648 158.074 58.2575 158.063 58.2542C158.051 58.2512 158.039 58.2525 158.028 58.2578C157.406 58.566 156.677 58.3555 156.158 57.9345C155.681 57.5161 155.323 56.9781 155.121 56.3759C154.607 55.0454 154.404 53.6196 153.933 52.264C153.547 51.0623 152.875 49.9725 151.974 49.0893C151.108 48.2626 150.053 47.6602 148.902 47.3352C147.733 47.0323 146.505 47.0368 145.339 47.3485C144.172 47.6602 143.106 48.2686 142.244 49.1143C141.289 50.074 140.69 51.2843 140.207 52.5346C139.68 53.9053 139.254 55.3135 138.778 56.7042C138.528 57.4158 138.277 58.1225 137.999 58.8266C137.788 59.4332 137.524 60.02 137.21 60.5806C136.921 61.1028 136.468 61.5157 135.922 61.7558C135.667 61.8683 135.387 61.9114 135.111 61.8801C134.834 61.8487 134.571 61.7445 134.348 61.5779C134.233 61.4902 134.095 61.653 134.18 61.7483Z" fill="#263238"/>
<path d="M158.378 54.5163C158.397 54.1911 158.397 53.8646 158.378 53.5391C158.118 50.8529 156.972 48.3294 155.121 46.3651C153.406 44.5074 151.122 43.2733 148.628 42.8571C146.178 42.4835 143.672 42.8681 141.447 43.9596C139.233 45.0529 137.41 46.8031 136.228 48.9711C135.011 51.1085 134.463 53.5606 134.651 56.0122C134.651 56.0649 134.737 56.0548 134.739 56.0122C134.898 53.3664 135.756 50.8103 137.227 48.6053C138.536 46.6811 140.377 45.1799 142.524 44.2854C144.668 43.4061 147.03 43.2084 149.29 43.7191C151.618 44.2972 153.691 45.6239 155.191 47.4952C155.983 48.4878 156.622 49.5933 157.085 50.7752C157.544 51.9983 157.906 53.2549 158.17 54.5339C158.208 54.6291 158.371 54.6291 158.378 54.5163Z" fill="#263238"/>
<path d="M154.552 63.5546C154.828 63.1487 155.419 63.507 155.725 63.6774C156.183 63.928 156.677 64.2713 157.228 64.1786C157.237 64.1755 157.247 64.1763 157.255 64.1806C157.264 64.1848 157.27 64.1923 157.273 64.2011C157.276 64.2101 157.276 64.2199 157.271 64.2284C157.267 64.2369 157.26 64.2432 157.251 64.2462C157.072 64.3347 156.876 64.382 156.676 64.3845C156.477 64.3873 156.279 64.3452 156.098 64.2612C155.903 64.1813 155.712 64.0911 155.527 63.9906C155.351 63.8891 155.163 63.81 154.968 63.7551C154.932 63.7503 154.896 63.7503 154.86 63.7551C154.823 63.7551 154.833 63.7551 154.828 63.7676C154.793 63.8328 154.848 63.9706 154.868 64.0357C154.914 64.2051 154.979 64.369 155.061 64.5243C155.235 64.8441 155.455 65.1362 155.715 65.3913C155.861 65.5407 156.016 65.6812 156.178 65.8123C156.344 65.9451 156.539 66.0453 156.697 66.1856C156.71 66.1927 156.719 66.2044 156.724 66.2187C156.728 66.2328 156.727 66.248 156.719 66.2608C156.712 66.2739 156.701 66.2836 156.687 66.2876C156.672 66.2919 156.657 66.2904 156.644 66.2834C156.454 66.2242 156.272 66.14 156.103 66.0328C155.927 65.9296 155.759 65.8123 155.602 65.682C155.284 65.4204 155.017 65.1027 154.813 64.7448C154.71 64.5669 154.626 64.3788 154.562 64.1836C154.511 64.0868 154.484 63.9796 154.482 63.8703C154.48 63.7611 154.504 63.6531 154.552 63.5546Z" fill="#263238"/>
<path d="M155.391 64.3315C155.69 64.4686 155.969 64.6455 156.221 64.8578C156.333 64.9512 156.448 65.0389 156.567 65.1208C156.624 65.1609 156.687 65.1985 156.747 65.2336C156.809 65.2652 156.872 65.2927 156.937 65.3163C156.95 65.3201 156.961 65.3276 156.969 65.3381C156.976 65.3484 156.98 65.3609 156.98 65.3739C156.98 65.387 156.976 65.3995 156.969 65.4098C156.961 65.4203 156.95 65.4278 156.937 65.4316C156.639 65.5042 156.326 65.3088 156.101 65.1384C155.816 64.9319 155.563 64.6856 155.349 64.4067C155.314 64.3817 155.344 64.3315 155.391 64.3315Z" fill="#263238"/>
<path d="M135.804 65.2512C135.803 65.257 135.803 65.263 135.804 65.2687C135.806 65.289 135.814 65.3083 135.828 65.3239C135.841 65.3391 135.859 65.3497 135.879 65.3539C135.953 65.373 136.029 65.3847 136.105 65.389C136.37 65.3933 136.634 65.3594 136.889 65.2888C137.247 65.2041 137.594 65.0823 137.926 64.9254C138.576 64.6115 139.177 64.2055 139.71 63.7202C141.527 62.1315 142.805 59.8689 143.509 56.9898C143.554 56.7993 143.602 56.6064 143.647 56.4159C143.898 55.3761 144.148 54.3036 144.724 53.4091C145.027 52.9362 145.44 52.5433 145.927 52.2639C146.435 52.0094 146.999 51.8886 147.566 51.9131C147.595 51.9119 147.623 51.9009 147.645 51.8821C147.668 51.8633 147.683 51.8375 147.69 51.8089C147.696 51.7803 147.693 51.7505 147.68 51.7242C147.668 51.6976 147.647 51.6761 147.621 51.6626C146.972 51.3443 146.165 51.645 145.85 51.7878C145.29 52.0537 144.799 52.4456 144.416 52.933C143.665 53.8626 143.384 55.0553 143.113 56.208L143.043 56.4961C142.754 57.7984 142.307 59.0605 141.713 60.2547C141.101 61.4267 140.282 62.4778 139.295 63.3568C138.817 63.7954 138.284 64.171 137.711 64.4744C137.416 64.6223 137.111 64.7488 136.799 64.8528C136.694 64.8879 136.586 64.9154 136.478 64.9455C136.266 64.9951 136.06 65.0673 135.864 65.161C135.847 65.1693 135.832 65.1818 135.822 65.1978C135.811 65.2136 135.805 65.2321 135.804 65.2512Z" fill="#263238"/>
<path d="M142.091 63.8303C142.089 63.8496 142.093 63.8691 142.102 63.8862C142.111 63.9035 142.124 63.918 142.141 63.928C142.156 63.9388 142.173 63.9448 142.191 63.9456C142.209 63.9463 142.227 63.9426 142.244 63.934C142.26 63.9258 142.274 63.9132 142.284 63.898C142.504 63.6268 142.793 63.4209 143.121 63.3016C143.416 63.1638 143.725 63.051 144.023 62.9282L144.158 62.8731C144.978 62.5524 145.644 62.2667 146.255 61.9736C148.967 60.6731 150.583 58.9892 151.066 56.9621C151.341 55.8811 151.205 54.7367 150.686 53.7497C150.45 53.2801 150.118 52.8647 149.713 52.5304C149.307 52.1959 148.836 51.9498 148.33 51.8078C148.3 51.8 148.269 51.8035 148.241 51.8173C148.213 51.8311 148.192 51.8544 148.18 51.8829C148.168 51.9092 148.166 51.9388 148.175 51.9661C148.184 51.9934 148.202 52.0165 148.227 52.0308C149.199 52.5933 149.958 53.4598 150.387 54.4964C150.936 55.9498 150.671 58.3252 148.11 60.2471C147.152 60.9234 146.121 61.4884 145.035 61.931C144.494 62.169 143.883 62.4321 143.296 62.7503C143.053 62.8724 142.822 63.0157 142.605 63.1788C142.405 63.3477 142.235 63.5494 142.103 63.7752C142.093 63.7917 142.089 63.811 142.091 63.8303Z" fill="#263238"/>
<path d="M135.002 65.7597C135.37 65.981 135.788 66.1068 136.217 66.1256C137.003 66.1373 137.779 65.9494 138.473 65.5793C139.504 65.0341 140.439 64.3239 141.241 63.477C141.319 63.3968 141.392 63.3141 141.467 63.2264L141.535 63.1538C141.553 63.1452 141.569 63.1332 141.582 63.1187C142.216 62.4872 143.086 62.1364 143.92 61.7956C144.211 61.6779 144.514 61.5451 144.797 61.4248C146.198 60.7733 147.152 60.1268 147.889 59.325C148.636 58.551 149.107 57.5522 149.23 56.4835C149.317 55.5563 149.099 54.2634 148.205 53.662C147.31 53.0606 146.178 53.4891 145.514 54.2133C144.742 55.0577 144.349 56.2504 144.03 57.2202L143.92 57.5584C143.631 58.5274 143.26 59.4703 142.813 60.3774C142.318 61.3143 141.698 62.18 140.971 62.9508C140.247 63.7173 139.423 64.3816 138.52 64.9253C137.332 65.6344 136.175 65.8499 135.085 65.5743H135.065C135.042 65.5733 135.02 65.5793 135 65.5913C134.981 65.6036 134.966 65.6212 134.957 65.642C134.95 65.6638 134.951 65.6873 134.959 65.7089C134.967 65.7302 134.982 65.7482 135.002 65.7597ZM142.595 61.8257C142.775 61.5751 142.933 61.3246 143.073 61.074C143.596 60.1444 144.016 59.1604 144.326 58.1398C144.379 57.9769 144.429 57.814 144.484 57.6386C144.772 56.7265 145.07 55.7819 145.599 54.985C145.852 54.5593 146.231 54.223 146.684 54.0228C146.89 53.9416 147.111 53.9048 147.333 53.9151C147.598 53.9251 147.85 54.0288 148.045 54.2083C148.796 54.9099 148.844 56.1953 148.546 57.1575C148.206 58.1237 147.586 58.9667 146.764 59.5781C145.834 60.3173 144.734 60.8109 143.757 61.2469L143.665 61.287C143.316 61.4699 142.943 61.6378 142.595 61.8257Z" fill="#263238"/>
<path d="M144.226 60.1567C144.22 60.1788 144.22 60.2023 144.228 60.2241C144.235 60.2459 144.248 60.2649 144.266 60.2795C144.284 60.2945 144.307 60.3033 144.331 60.3045C144.347 60.3055 144.363 60.3028 144.378 60.2968C144.392 60.2908 144.406 60.2812 144.416 60.2695C144.471 60.2143 144.877 59.9237 145.073 59.7909C145.135 59.7483 145.201 59.7082 145.263 59.6631C145.396 59.5754 145.534 59.4852 145.664 59.3849C146.055 59.089 146.422 58.7633 146.762 58.4102C147.418 57.7211 147.726 57.032 147.671 56.358C147.67 56.1916 147.623 56.0287 147.534 55.8879C147.446 55.7471 147.32 55.6341 147.17 55.5612C146.988 55.5 146.791 55.4985 146.609 55.5567C146.426 55.6148 146.266 55.7296 146.153 55.8844C145.925 56.1881 145.747 56.5264 145.627 56.8867C145.511 57.1774 145.409 57.4806 145.306 57.7712L145.223 58.0068C144.941 58.7081 144.612 59.3894 144.238 60.0464C144.227 60.062 144.219 60.0803 144.217 60.0998C144.215 60.1191 144.218 60.1389 144.226 60.1567ZM145.506 58.4227C145.743 57.8048 146.021 57.2039 146.338 56.6236L146.353 56.5985C146.438 56.4482 146.641 56.0974 146.837 56.0573H146.879C146.921 56.0608 146.96 56.0764 146.992 56.1024C147.163 56.2352 147.138 56.6036 147.057 56.8817C146.872 57.5482 146.306 58.087 145.865 58.5205L145.514 58.8562C145.394 58.969 145.276 59.0842 145.158 59.1995C145.308 58.9214 145.416 58.6482 145.506 58.4227Z" fill="#263238"/>
<path d="M145.809 71.4626C145.377 72.3223 144.989 73.2038 144.647 74.1036C144.646 74.1096 144.647 74.1154 144.65 74.1206C144.653 74.1259 144.657 74.1302 144.662 74.1327C144.668 74.1352 144.674 74.1359 144.679 74.1347C144.685 74.1337 144.69 74.1307 144.694 74.1262C145.183 73.3995 145.589 72.6227 146.047 71.871C146.348 71.3874 146.892 70.2573 147.626 70.4402C147.934 70.5154 148.155 70.8562 148.325 71.0992C148.549 71.4355 148.791 71.7585 149.052 72.0664C149.453 72.5225 150.205 73.1189 150.861 72.9585C150.891 72.9585 150.909 72.9034 150.879 72.8883C150.703 72.7956 150.518 72.738 150.345 72.6378C150.154 72.5303 149.978 72.4 149.819 72.2494C149.512 71.9366 149.241 71.5904 149.012 71.217C148.636 70.6357 148.197 69.8689 147.381 69.9641C146.624 70.0518 146.108 70.8462 145.809 71.4626Z" fill="#263238"/>
<path d="M134.967 66.4084C135.761 67.4533 137.182 67.2678 138.21 66.7116C138.802 66.3675 139.36 65.9691 139.878 65.5213C140.426 65.0593 141.013 64.6451 141.632 64.2835C141.64 64.2812 141.646 64.276 141.65 64.269C141.654 64.262 141.655 64.2537 141.652 64.2459C141.65 64.2384 141.645 64.2319 141.638 64.2281C141.631 64.2244 141.623 64.2236 141.615 64.2259C140.344 64.4288 139.427 65.4787 138.392 66.1403C137.42 66.7667 136.01 67.1426 135.007 66.3507C134.982 66.3207 134.942 66.3758 134.967 66.4084Z" fill="#263238"/>
<path d="M155.654 68.3885C155.735 68.3885 155.767 68.2682 155.685 68.2482C154.402 67.93 153.389 66.9678 152.768 65.8226C152.206 64.7787 151.882 63.6236 151.818 62.4399C151.76 61.5496 151.892 60.657 152.204 59.8214C152.287 59.5425 152.43 59.2857 152.625 59.0697C152.669 59.0138 152.725 58.9677 152.788 58.9351C152.851 58.9023 152.921 58.8832 152.992 58.8795C153.063 58.8757 153.134 58.8872 153.201 58.9131C153.267 58.9389 153.327 58.9787 153.377 59.0296C153.514 59.22 153.637 59.4202 153.745 59.6284C154.04 60.0707 154.433 60.4393 154.893 60.7059C155.351 60.972 155.867 61.1209 156.396 61.1394C156.958 61.1539 157.513 61.0106 157.997 60.726C158.03 60.7059 158.015 60.6433 157.975 60.6558C157.307 60.8598 156.594 60.8615 155.925 60.6608C155.256 60.4601 154.661 60.0659 154.216 59.5282C153.91 59.1348 153.745 58.5259 153.161 58.4808C152.577 58.4357 152.171 58.9018 151.941 59.3854C151.428 60.5443 151.259 61.8265 151.455 63.0788C151.763 65.2864 153.091 68.2707 155.654 68.3885Z" fill="#263238"/>
<path d="M146.383 73.2719C146.303 73.5002 146.266 73.7418 146.275 73.9836C146.277 73.9908 146.281 73.9973 146.287 74.0024C146.292 74.0076 146.299 74.0111 146.306 74.0126C146.313 74.0144 146.321 74.0139 146.328 74.0114C146.335 74.0089 146.341 74.0044 146.346 73.9986C146.462 73.8164 146.551 73.618 146.609 73.4098C146.686 73.1943 146.767 72.9788 146.859 72.7683C146.951 72.5565 147.058 72.3523 147.18 72.1569C147.22 72.0709 147.275 71.992 147.34 71.9238L147.358 71.9113L147.398 71.9514C147.436 71.9872 147.471 72.0258 147.503 72.0667C147.758 72.4162 148.032 72.751 148.325 73.069C148.576 73.302 148.974 73.5551 149.327 73.4749C149.332 73.4726 149.336 73.4691 149.339 73.4646C149.342 73.4604 149.344 73.4551 149.344 73.4498C149.344 73.4446 149.342 73.4393 149.339 73.4348C149.336 73.4305 149.332 73.427 149.327 73.4248C149.126 73.3218 148.94 73.192 148.774 73.0389C148.619 72.8783 148.479 72.7039 148.355 72.5177C148.212 72.3223 148.085 72.1143 147.929 71.9263C147.774 71.7384 147.601 71.4954 147.353 71.4954C147.105 71.4954 146.987 71.7184 146.889 71.8963C146.77 72.1085 146.67 72.3308 146.589 72.5603C146.521 72.7958 146.446 73.0314 146.383 73.2719Z" fill="#263238"/>
<path d="M156.253 67.0377C156.263 67.0407 156.273 67.0402 156.283 67.0362C156.292 67.0322 156.3 67.0251 156.304 67.0161C156.309 67.0071 156.31 66.9968 156.307 66.9868C156.305 66.977 156.299 66.9685 156.291 66.9625C155.983 66.7027 155.698 66.4167 155.439 66.108C155.192 65.7866 154.963 65.452 154.752 65.1057C154.333 64.5099 153.974 63.8734 153.68 63.2064C153.528 62.8827 153.45 62.5293 153.449 62.1715C153.497 61.6704 154.001 62.0362 154.219 62.2241C154.461 62.4617 154.721 62.6812 154.996 62.8806C155.541 63.2317 156.189 63.3898 156.835 63.3292C157.145 63.2738 157.445 63.1663 157.719 63.0109C157.782 62.9834 157.737 62.8982 157.674 62.9182C157.428 62.9786 157.175 63.0022 156.922 62.9884C156.715 62.9924 156.507 62.9796 156.301 62.9508C155.873 62.8842 155.466 62.7203 155.111 62.4722C154.685 62.169 153.903 61.1517 153.307 61.6428C152.79 62.0663 153.189 63.051 153.397 63.5321C153.741 64.2623 154.161 64.9544 154.65 65.5969C155.051 66.1481 155.582 66.8071 156.253 67.0377Z" fill="#263238"/>
<path d="M136.566 68.9546C137.112 69.0634 137.679 68.9679 138.159 68.6865C138.262 68.6314 138.357 68.5687 138.458 68.5061C138.405 68.5662 138.355 68.6239 138.307 68.684C137.963 69.1045 137.747 69.6151 137.686 70.1549C137.686 70.1624 137.688 70.1696 137.692 70.1757C137.696 70.1817 137.702 70.1862 137.709 70.1887C137.716 70.1912 137.723 70.1914 137.731 70.1894C137.738 70.1874 137.744 70.1832 137.748 70.1774C138.029 69.7489 138.317 69.3179 138.638 68.9245C138.959 68.5311 139.332 68.1428 139.64 67.7293C139.652 67.711 139.659 67.6897 139.659 67.6677C139.659 67.6459 139.652 67.6246 139.64 67.606C139.628 67.5877 139.611 67.5735 139.591 67.5644C139.571 67.5557 139.549 67.5529 139.528 67.5564C138.996 67.6767 138.598 68.0576 138.127 68.3081C137.628 68.5692 137.102 68.7734 136.558 68.917C136.538 68.917 136.538 68.9496 136.566 68.9546Z" fill="#263238"/>
<path d="M142.382 71.2998C142.097 71.8305 141.846 72.3788 141.63 72.9411C141.623 72.9546 141.622 72.9706 141.626 72.9852C141.631 72.9997 141.641 73.0117 141.655 73.0187C141.669 73.0258 141.685 73.027 141.699 73.0223C141.714 73.0177 141.726 73.0072 141.733 72.9937C142.159 72.4199 142.502 71.7834 142.898 71.187C143.294 70.5907 143.687 70.0494 144.118 69.5057C144.803 68.6207 145.634 67.8582 146.574 67.2505C146.815 67.0967 147.066 66.9594 147.325 66.8396C147.593 66.6882 147.893 66.6023 148.2 66.589C148.756 66.6191 149.117 67.1528 149.365 67.5663C149.964 68.5686 150.475 69.626 151.402 70.3902C151.808 70.7438 152.298 70.9871 152.826 71.0968C153.05 71.162 153.289 71.155 153.51 71.0768C153.577 71.0342 153.62 70.9716 153.552 70.9114C153.53 70.8939 153.495 70.9114 153.51 70.9465C153.525 70.9816 153.186 70.9139 153.171 70.9089L152.956 70.8488C152.805 70.8022 152.658 70.7418 152.517 70.6684C152.249 70.5288 151.998 70.3607 151.766 70.1672C151.271 69.725 150.856 69.2012 150.538 68.6187C150.25 68.13 149.994 67.6164 149.673 67.1478C149.424 66.7248 149.043 66.3948 148.588 66.2081C148.017 66.0227 147.438 66.2282 146.922 66.4587C146.424 66.6842 145.953 66.9639 145.516 67.2931C144.626 67.9682 143.863 68.7953 143.261 69.7362C142.941 70.2416 142.647 70.7636 142.382 71.2998Z" fill="#263238"/>
<path d="M143.817 72.417C143.641 72.8357 143.517 73.274 143.447 73.7225C143.446 73.73 143.448 73.7373 143.452 73.7433C143.456 73.7496 143.462 73.7541 143.469 73.7563C143.476 73.7588 143.483 73.7586 143.49 73.7561C143.497 73.7536 143.503 73.7488 143.507 73.7425C143.757 73.3065 143.933 72.8229 144.193 72.3869C144.454 71.9509 144.694 71.5199 144.945 71.1015C145.414 70.35 145.957 69.6474 146.566 69.0042C146.854 68.711 147.193 68.4604 147.614 68.503C148.008 68.5832 148.363 68.7985 148.616 69.1119C149.182 69.7459 149.443 70.6154 150.027 71.2368C150.285 71.5207 150.608 71.7382 150.968 71.8717C151.328 72.005 151.715 72.0504 152.096 72.0035C152.121 72.0035 152.129 71.9509 152.096 71.9434C151.606 71.8261 151.146 71.6049 150.748 71.2944C150.361 70.9617 150.041 70.5567 149.809 70.1017C149.378 69.35 148.959 68.5331 148.145 68.1572C147.788 67.9858 147.378 67.9605 147.002 68.0871C146.611 68.2577 146.267 68.5208 146 68.8538C145.363 69.5442 144.815 70.3109 144.369 71.1366C144.155 71.5498 143.97 71.9777 143.817 72.417Z" fill="#263238"/>
<path d="M140.192 71.9939C140.186 72.0139 140.187 72.0352 140.196 72.0543C140.205 72.0733 140.22 72.0884 140.239 72.0966H140.272C140.286 72.0966 140.3 72.0934 140.313 72.0869C140.325 72.0803 140.336 72.0708 140.344 72.059C140.724 71.4662 141.134 70.8939 141.575 70.3451C142.038 69.7821 142.532 69.2459 143.056 68.7389C143.923 67.8527 144.85 67.0265 145.829 66.2658C146.313 65.8977 146.838 65.5872 147.393 65.3412C147.922 65.1106 148.646 64.7974 149.147 65.2434C149.438 65.5451 149.669 65.8999 149.826 66.2883C149.896 66.4337 149.966 66.574 150.039 66.7068C150.344 67.2728 150.702 67.8081 151.109 68.3054C151.504 68.7906 151.978 69.2063 152.51 69.5358C153.018 69.8562 153.599 70.0457 154.199 70.087C154.219 70.0893 154.24 70.0833 154.256 70.0707C154.272 70.0582 154.283 70.0397 154.286 70.0194C154.292 69.9998 154.289 69.9788 154.28 69.961C154.27 69.9432 154.253 69.9299 154.234 69.9242C152.567 69.3403 151.497 68.0649 150.896 67.0977C150.728 66.8271 150.575 66.5339 150.433 66.2532C150.29 65.9726 150.142 65.6895 149.971 65.4188C149.608 64.83 149.142 64.5293 148.596 64.5118C147.939 64.4942 147.258 64.7799 146.739 65.0254C146.169 65.3006 145.631 65.6368 145.133 66.0277C144.126 66.8464 143.187 67.7447 142.324 68.7139C141.429 69.6786 140.547 70.746 140.192 71.9939Z" fill="#263238"/>
<path d="M155.832 67.8622C155.915 67.9023 155.965 67.7795 155.903 67.7294C155.063 67.0912 154.34 66.3139 153.763 65.4316C153.29 64.6629 152.964 63.8132 152.8 62.9259C152.714 62.4716 152.669 62.01 152.668 61.5477C152.668 61.2094 152.58 60.355 153.076 60.3525C153.572 60.35 153.845 60.9464 154.134 61.232C154.463 61.566 154.851 61.8361 155.279 62.0288C155.703 62.2275 156.175 62.3007 156.639 62.2398C157.104 62.1789 157.541 61.9867 157.9 61.6855C157.905 61.6808 157.909 61.674 157.91 61.6667C157.911 61.6595 157.91 61.652 157.906 61.6457C157.902 61.6397 157.896 61.6352 157.888 61.6332C157.881 61.6312 157.874 61.6319 157.867 61.6354C156.765 62.2493 155.319 61.7707 154.467 60.9489C154.121 60.6181 153.84 60.1395 153.349 60.0067C153.25 59.9679 153.144 59.9506 153.037 59.9561C152.931 59.9616 152.827 59.9897 152.732 60.0385C152.637 60.0874 152.553 60.1558 152.487 60.2392C152.421 60.3227 152.373 60.4194 152.347 60.5229C152.247 60.9842 152.218 61.4583 152.262 61.9286C152.285 62.4049 152.357 62.8778 152.477 63.3393C152.971 65.1735 154.108 66.9902 155.832 67.8622Z" fill="#263238"/>
<path d="M139.485 70.2126C139.284 70.5586 139.135 70.9315 139.041 71.3201C139.032 71.3662 139.038 71.4144 139.059 71.4564C139.081 71.4983 139.116 71.5316 139.159 71.5507C139.178 71.5572 139.197 71.5612 139.217 71.5632C139.248 71.5647 139.278 71.5577 139.306 71.5431C139.333 71.5286 139.356 71.5071 139.372 71.4805C139.52 71.2525 139.66 71.0194 139.801 70.7889C140.099 70.2707 140.434 69.7743 140.803 69.303C141.352 68.6395 141.948 68.0166 142.587 67.4387C143.878 66.3605 145.229 65.3565 146.634 64.4319C148.638 63.0988 150.014 62.3947 150.33 62.54C150.545 62.6403 150.555 62.9986 150.565 63.2917C150.565 63.3754 150.57 63.4591 150.578 63.5423C150.629 63.9528 150.703 64.3602 150.798 64.7626C150.966 65.5339 151.257 66.2731 151.658 66.9526C152.027 67.571 152.527 68.1008 153.124 68.5037C153.449 68.7167 154.294 69.1953 155.071 69.0474C155.091 69.0397 155.108 69.0259 155.121 69.0083C155.134 68.9908 155.141 68.9698 155.142 68.948C155.143 68.9264 155.138 68.9049 155.127 68.8861C155.116 68.8673 155.1 68.852 155.081 68.842C154.953 68.7918 154.83 68.7467 154.702 68.7016C154.434 68.6104 154.172 68.5009 153.918 68.3734C153.552 68.1759 153.215 67.9289 152.916 67.6392C152.308 67.0275 151.851 66.2828 151.58 65.4642C151.328 64.6664 151.16 63.8443 151.079 63.0111C151.077 62.8337 151.034 62.6588 150.955 62.4999C150.876 62.3411 150.761 62.2025 150.62 62.094C150.325 61.9011 149.816 62.0339 149.566 62.1416C148.127 62.758 143.507 65.7098 141.665 67.4187C141.092 67.9632 140.576 68.5643 140.124 69.2128C139.893 69.534 139.679 69.8678 139.485 70.2126Z" fill="#263238"/>
<path d="M135.827 67.8548C136.791 68.2733 137.934 67.8548 138.813 67.4188C139.693 66.9828 140.417 66.394 141.241 65.9154C141.454 65.7951 141.667 65.6823 141.888 65.5796C141.998 65.5295 142.111 65.4819 142.224 65.4393C142.281 65.4167 142.349 65.3741 142.409 65.3942C142.469 65.4142 142.482 65.3942 142.434 65.4418C142.387 65.4894 142.404 65.4844 142.387 65.5044C142.101 65.8602 141.652 66.1158 141.309 66.4115C140.607 67.0048 139.969 67.6701 139.405 68.396C138.874 69.0851 138.32 69.8769 138.152 70.7464C138.152 70.789 138.202 70.8041 138.225 70.774C138.563 70.3129 138.846 69.8118 139.182 69.3482C139.512 68.8962 139.876 68.4707 140.272 68.0753C140.625 67.7195 140.993 67.3762 141.367 67.0429C141.74 66.7097 142.134 66.424 142.469 66.0707C142.702 65.8201 143.118 65.319 142.662 65.0684C142.294 64.868 141.748 65.2112 141.422 65.3741C140.5 65.8352 139.668 66.4591 138.771 66.9552C138.309 67.2156 137.819 67.4216 137.31 67.5691C136.825 67.6934 136.327 67.7656 135.827 67.7846C135.786 67.7871 135.786 67.8398 135.827 67.8548Z" fill="#263238"/>
<path d="M147.333 72.7408C147.332 72.7315 147.332 72.7223 147.333 72.7132C147.336 72.7045 147.341 72.6967 147.347 72.6902C147.354 72.6837 147.362 72.6789 147.371 72.6759C147.379 72.6731 147.389 72.6721 147.398 72.6734C147.407 72.6746 147.416 72.6779 147.423 72.6832L147.443 72.6957C147.531 72.7283 147.589 72.8561 147.621 72.9312C147.654 73.0064 147.704 73.1192 147.746 73.2094C147.829 73.3898 147.902 73.5752 147.997 73.7531C148.002 73.7609 148.004 73.7701 148.003 73.7794C148.001 73.7884 147.997 73.7967 147.989 73.8027C147.982 73.8087 147.973 73.8117 147.964 73.8112C147.955 73.811 147.946 73.8072 147.939 73.8007C147.762 73.6799 147.61 73.5248 147.493 73.3447C147.441 73.257 147.395 73.1658 147.355 73.0716C147.331 73.0122 147.315 72.9498 147.308 72.8861C147.3 72.8363 147.309 72.7851 147.333 72.7408Z" fill="#263238"/>
<path d="M127.706 45.709H126.954V36.9238H135.739V37.6756H127.706V45.709Z" fill="#FFC727"/>
<path d="M165.577 75.5444H156.792V74.7927H164.826V66.7593H165.577V75.5444Z" fill="#FFC727"/>
<path d="M135.739 75.5444H126.954V66.7593H127.706V74.7927H135.739V75.5444Z" fill="#FFC727"/>
<path d="M165.577 45.709H164.826V37.6756H156.792V36.9238H165.577V45.709Z" fill="#FFC727"/>
<path d="M167.512 77.4818H166.918V77.2939H167.324V76.8879H167.512V77.4818Z" fill="#FFC727"/>
<path d="M165.911 77.4814H164.908V77.2935H165.911V77.4814ZM163.906 77.4814H162.904V77.2935H163.906V77.4814ZM161.901 77.4814H160.899V77.2935H161.901V77.4814ZM159.897 77.4814H158.894V77.2935H159.897V77.4814ZM157.892 77.4814H156.89V77.2935H157.892V77.4814ZM155.888 77.4814H154.885V77.2935H155.888V77.4814ZM153.883 77.4814H152.881V77.2935H153.883V77.4814ZM151.878 77.4814H150.876V77.2935H151.878V77.4814ZM149.874 77.4814H148.872V77.2935H149.874V77.4814ZM147.869 77.4814H146.867V77.2935H147.869V77.4814ZM145.865 77.4814H144.862V77.2935H145.865V77.4814ZM143.86 77.4814H142.858V77.2935H143.86V77.4814ZM141.855 77.4814H140.853V77.2935H141.855V77.4814ZM139.851 77.4814H138.849V77.2935H139.851V77.4814ZM137.846 77.4814H136.844V77.2935H137.846V77.4814ZM135.842 77.4814H134.839V77.2935H135.842V77.4814ZM133.837 77.4814H132.835V77.2935H133.837V77.4814ZM131.832 77.4814H130.83V77.2935H131.832V77.4814ZM129.828 77.4814H128.826V77.2935H129.828V77.4814ZM127.823 77.4814H126.821V77.2935H127.823V77.4814Z" fill="#FFC727"/>
<path d="M125.613 77.4818H125.019V76.8879H125.207V77.2939H125.613V77.4818Z" fill="#FFC727"/>
<path d="M125.207 75.8782H125.012V74.8759H125.2L125.207 75.8782ZM125.207 73.8736H125.012V72.8713H125.2L125.207 73.8736ZM125.207 71.869H125.012V70.8667H125.2L125.207 71.869ZM125.207 69.8644H125.012V68.8621H125.2L125.207 69.8644ZM125.207 67.8598H125.012V66.8575H125.2L125.207 67.8598ZM125.207 65.8552H125.012V64.8529H125.2L125.207 65.8552ZM125.207 63.8507H125.012V62.8484H125.2L125.207 63.8507ZM125.207 61.8461H125.012V60.8438H125.2L125.207 61.8461ZM125.207 59.8415H125.012V58.8392H125.2L125.207 59.8415ZM125.207 57.8369H125.012V56.8346H125.2L125.207 57.8369ZM125.207 55.8323H125.012V54.83H125.2L125.207 55.8323ZM125.207 53.8277H125.012V52.8254H125.2L125.207 53.8277ZM125.207 51.8231H125.012V50.8208H125.2L125.207 51.8231ZM125.207 49.8185H125.012V48.8162H125.2L125.207 49.8185ZM125.207 47.8139H125.012V46.8116H125.2L125.207 47.8139ZM125.207 45.7968H125.012V44.7945H125.2L125.207 45.7968ZM125.207 43.7922H125.012V42.7899H125.2L125.207 43.7922ZM125.207 41.7876H125.012V40.7853H125.2L125.207 41.7876ZM125.207 39.783H125.012V38.7807H125.2L125.207 39.783ZM125.207 37.7784H125.012V36.7761H125.2L125.207 37.7784Z" fill="#FFC727"/>
<path d="M125.207 35.5831H125.019V34.9893H125.613V35.1772H125.207V35.5831Z" fill="#FFC727"/>
<path d="M165.911 35.1772H164.908V34.9893H165.911V35.1772ZM163.906 35.1772H162.904V34.9893H163.906V35.1772ZM161.901 35.1772H160.899V34.9893H161.901V35.1772ZM159.897 35.1772H158.894V34.9893H159.897V35.1772ZM157.892 35.1772H156.89V34.9893H157.892V35.1772ZM155.888 35.1772H154.885V34.9893H155.888V35.1772ZM153.883 35.1772H152.881V34.9893H153.883V35.1772ZM151.878 35.1772H150.876V34.9893H151.878V35.1772ZM149.874 35.1772H148.872V34.9893H149.874V35.1772ZM147.869 35.1772H146.867V34.9893H147.869V35.1772ZM145.865 35.1772H144.862V34.9893H145.865V35.1772ZM143.86 35.1772H142.858V34.9893H143.86V35.1772ZM141.855 35.1772H140.853V34.9893H141.855V35.1772ZM139.851 35.1772H138.849V34.9893H139.851V35.1772ZM137.846 35.1772H136.844V34.9893H137.846V35.1772ZM135.842 35.1772H134.839V34.9893H135.842V35.1772ZM133.837 35.1772H132.835V34.9893H133.837V35.1772ZM131.832 35.1772H130.83V34.9893H131.832V35.1772ZM129.828 35.1772H128.826V34.9893H129.828V35.1772ZM127.823 35.1772H126.821V34.9893H127.823V35.1772Z" fill="#FFC727"/>
<path d="M167.512 35.5831H167.324V35.1772H166.918V34.9893H167.512V35.5831Z" fill="#FFC727"/>
<path d="M167.512 75.8782H167.324V74.8759H167.512V75.8782ZM167.512 73.8736H167.324V72.8713H167.512V73.8736ZM167.512 71.869H167.324V70.8667H167.512V71.869ZM167.512 69.8644H167.324V68.8621H167.512V69.8644ZM167.512 67.8598H167.324V66.8575H167.512V67.8598ZM167.512 65.8552H167.324V64.8529H167.512V65.8552ZM167.512 63.8507H167.324V62.8484H167.512V63.8507ZM167.512 61.8461H167.324V60.8438H167.512V61.8461ZM167.512 59.8415H167.324V58.8392H167.512V59.8415ZM167.512 57.8369H167.324V56.8346H167.512V57.8369ZM167.512 55.8323H167.324V54.83H167.512V55.8323ZM167.512 53.8277H167.324V52.8254H167.512V53.8277ZM167.512 51.8231H167.324V50.8208H167.512V51.8231ZM167.512 49.8185H167.324V48.8162H167.512V49.8185ZM167.512 47.8139H167.324V46.8116H167.512V47.8139ZM167.512 45.7968H167.324V44.7945H167.512V45.7968ZM167.512 43.7922H167.324V42.7899H167.512V43.7922ZM167.512 41.7876H167.324V40.7853H167.512V41.7876ZM167.512 39.783H167.324V38.7807H167.512V39.783ZM167.512 37.7784H167.324V36.7761H167.512V37.7784Z" fill="#FFC727"/>
<path d="M179.73 106.428H202.868C203.058 105.676 203.241 104.95 203.427 104.228C203.637 103.393 203.843 102.583 204.045 101.8C204.088 101.625 204.136 101.449 204.181 101.276C204.334 100.672 204.481 100.083 204.629 99.5222C204.717 99.1714 204.805 98.8281 204.88 98.4898C204.955 98.1516 205.055 97.8033 205.13 97.4725C205.153 97.3848 205.176 97.2946 205.198 97.2219C205.221 97.1493 205.246 97.029 205.268 96.9363L205.356 96.593C205.389 96.4727 205.419 96.3549 205.446 96.2372C205.506 96.0142 205.561 95.7962 205.614 95.5807C205.697 95.2649 205.774 94.9542 205.852 94.651C205.885 94.5207 205.92 94.3879 205.952 94.2601C206.007 94.0472 206.06 93.8417 206.11 93.6412C206.145 93.5059 206.178 93.3731 206.21 93.2453C206.348 92.7141 206.474 92.2154 206.591 91.7419C206.624 91.6191 206.651 91.4913 206.684 91.381C206.734 91.1781 206.784 90.9851 206.832 90.7972C206.864 90.6794 206.892 90.5667 206.92 90.4539C207.022 90.0555 207.115 89.7022 207.195 89.3739C207.218 89.2887 207.238 89.2061 207.26 89.1234L207.403 88.5571C207.421 88.4919 207.436 88.4268 207.453 88.3666C207.471 88.3065 207.486 88.2388 207.498 88.1837C207.511 88.1286 207.521 88.101 207.528 88.0659C207.536 88.0309 207.559 87.9532 207.571 87.9081C207.575 87.884 207.581 87.8607 207.589 87.8379L207.641 87.6274H185.15C185.15 87.6274 184.398 90.1858 183.22 94.3077C182.97 95.1472 182.719 96.0618 182.441 97.0139C181.642 99.7377 180.722 102.945 179.73 106.428Z" fill="#37474F"/>
<path d="M199.079 106.428H199.655C200.512 102.883 201.342 99.3324 202.146 95.776C202.34 94.9108 202.531 94.0446 202.72 93.1776L202.772 92.927C202.774 92.9185 202.772 92.9095 202.767 92.9022C202.762 92.8947 202.755 92.8894 202.747 92.8874C202.738 92.8852 202.729 92.8862 202.721 92.8902C202.714 92.8944 202.708 92.9012 202.705 92.9095L202.682 92.9896C202.422 93.9185 202.163 94.8497 201.905 95.7835C200.936 99.3166 199.994 102.865 199.079 106.428Z" fill="#263238"/>
<path d="M185.869 87.605L186.871 92.5814L187.678 96.6557L189.066 103.609L189.209 104.323L189.447 105.511L189.625 106.411H202.87C203.058 105.659 203.244 104.93 203.426 104.211C203.637 103.375 203.843 102.566 204.045 101.782C204.088 101.607 204.136 101.432 204.181 101.259C204.334 100.655 204.481 100.066 204.629 99.5047C204.717 99.1539 204.805 98.8107 204.88 98.4724C204.955 98.1341 205.055 97.7858 205.13 97.455C205.153 97.3673 205.175 97.2771 205.198 97.2045C205.221 97.1318 205.246 97.0115 205.268 96.9188L205.356 96.5755C205.388 96.4553 205.419 96.3375 205.446 96.2197C205.506 95.9967 205.561 95.7787 205.614 95.5632C205.697 95.2475 205.774 94.9368 205.852 94.6336C205.887 94.5008 205.92 94.3705 205.952 94.2427C206.007 94.0297 206.06 93.8242 206.11 93.6238C206.145 93.4885 206.178 93.3557 206.21 93.2279C206.348 92.6966 206.473 92.198 206.591 91.7244C206.624 91.6016 206.651 91.4738 206.684 91.3636C206.734 91.1606 206.784 90.9677 206.832 90.7798C206.864 90.662 206.892 90.5492 206.919 90.4365C207.022 90.0381 207.115 89.6847 207.195 89.3565C207.218 89.2713 207.238 89.1886 207.26 89.1059L207.403 88.5396C207.421 88.4745 207.436 88.4093 207.453 88.3492C207.471 88.289 207.486 88.2214 207.498 88.1663C207.511 88.1111 207.521 88.0836 207.528 88.0485C207.536 88.0134 207.558 87.9357 207.571 87.8906C207.575 87.8668 207.58 87.8433 207.588 87.8205L207.641 87.61L185.869 87.605Z" fill="#263238"/>
<path d="M185.866 87.5974C185.866 87.7227 185.961 89.0657 186.177 91.1054C186.24 91.7043 186.312 92.3583 186.397 93.0649C186.53 94.1774 186.693 95.4028 186.899 96.6982C187.244 98.9534 187.695 101.424 188.282 103.835C188.49 104.702 188.72 105.561 188.963 106.403H218.03C217.687 101.973 217.373 97.9661 217.125 94.8089C216.774 90.3637 216.554 87.5798 216.554 87.5798H190.184L185.866 87.5974Z" fill="#37474F"/>
<path d="M185.929 90.2687C185.961 91.3085 186.004 92.3482 186.072 93.383C186.142 94.5056 186.245 95.6257 186.392 96.7457C186.395 96.7871 186.4 96.8279 186.407 96.8688C186.546 97.9177 186.703 98.9643 186.879 100.008C187.046 100.98 187.169 102.03 187.6 102.932C187.764 103.28 187.994 103.592 188.279 103.85C188.542 104.088 188.862 104.254 189.209 104.331C189.266 104.345 189.323 104.354 189.382 104.358C189.397 104.358 189.414 104.358 189.432 104.358C189.421 104.364 189.412 104.372 189.406 104.383C189.4 104.394 189.398 104.406 189.399 104.419C189.412 104.767 189.399 105.123 189.442 105.468C189.442 105.484 189.442 105.498 189.442 105.513C189.477 105.814 189.532 106.112 189.587 106.413H190.088C190.088 106.413 190.088 106.413 190.088 106.395C190.001 106.067 189.928 105.736 189.838 105.393C189.748 105.05 189.637 104.727 189.56 104.391C189.556 104.377 189.547 104.365 189.535 104.358C189.852 104.374 190.166 104.293 190.435 104.124C190.704 103.955 190.914 103.708 191.038 103.416C191.164 102.971 191.173 102.5 191.063 102.05L190.793 100.264C190.622 99.1713 190.404 98.0888 190.209 97.0063C190.181 96.841 190.151 96.6756 190.121 96.5052C189.733 94.2926 189.324 92.0778 188.836 89.8853C188.818 89.7951 188.795 89.7049 188.775 89.6121C188.755 89.5194 188.665 89.5696 188.67 89.6272C188.685 89.775 188.7 89.9226 188.718 90.0705C188.803 90.9124 188.903 91.7493 189.018 92.5762C189.159 93.5584 189.257 94.5457 189.394 95.528L189.537 96.5303C189.763 98.1465 189.998 99.7627 190.274 101.371C190.404 102.123 190.87 103.459 189.793 103.692C189.546 103.747 189.289 103.714 189.064 103.599C188.589 103.317 188.233 102.872 188.061 102.346C187.756 101.489 187.648 100.547 187.49 99.6549C187.311 98.6712 187.154 97.6846 187.019 96.6956C186.843 95.4628 186.663 94.23 186.468 92.9997C186.372 92.3707 186.272 91.747 186.172 91.1156C186.127 90.8274 186.079 90.5368 186.032 90.2461C186.024 90.1885 185.929 90.206 185.929 90.2687Z" fill="#263238"/>
<path d="M211.653 97.996C210.442 97.9839 209.238 97.8223 208.067 97.5149C207.526 97.3745 206.992 97.2016 206.463 97.0287C205.938 96.8824 205.446 96.6356 205.015 96.3021C204.201 95.598 203.82 94.4904 203.467 93.5082C203.08 92.3996 202.766 91.2673 202.527 90.1179C202.514 90.0603 202.432 90.0778 202.429 90.1329C202.406 91.4344 202.575 92.7319 202.93 93.9843C203.223 95.0467 203.617 96.2394 204.476 96.9912C205.378 97.7729 206.606 98.0486 207.761 98.1914C209.061 98.343 210.375 98.3252 211.67 98.1388C211.68 98.1375 211.689 98.1345 211.697 98.13C211.705 98.1253 211.712 98.119 211.718 98.1117C211.724 98.1042 211.728 98.0957 211.731 98.0867C211.733 98.0774 211.734 98.0679 211.733 98.0586C211.732 98.0491 211.729 98.0401 211.724 98.0318C211.719 98.0238 211.713 98.0165 211.706 98.0107C211.698 98.0047 211.69 98.0005 211.681 97.998C211.672 97.9955 211.662 97.9947 211.653 97.996Z" fill="#263238"/>
<path d="M213.667 90.1405C213.733 91.7692 213.801 93.398 213.873 95.0267C214.04 98.8204 214.223 102.614 214.422 106.408H214.968C214.717 102.604 214.454 98.8046 214.179 95.0092C214.058 93.3822 213.935 91.7585 213.808 90.138C213.807 90.1195 213.8 90.1017 213.786 90.0886C213.773 90.0759 213.755 90.0688 213.736 90.0691C213.718 90.0693 213.7 90.0771 213.687 90.0904C213.674 90.1039 213.667 90.122 213.667 90.1405Z" fill="#263238"/>
<path d="M189.094 54.0982C177.642 64.4193 167.026 75.7227 166.194 81.4909C165.044 89.4792 169.952 91.6968 172.157 91.7169C178.151 91.777 189.044 67.4863 192.832 58.2126C196.511 49.207 191.609 51.8305 189.094 54.0982Z" fill="#D3766A"/>
<path d="M171.809 70.6161L184.543 77.5369C184.543 77.5369 192.459 62.9134 194.283 56.1354C196.107 49.3574 193.383 49.5478 187.405 54.8249C181.426 60.102 171.809 70.6161 171.809 70.6161Z" fill="#C7C7C7"/>
<path d="M171.809 70.6161L184.543 77.5369C184.543 77.5369 192.459 62.9134 194.283 56.1354C196.107 49.3574 193.383 49.5478 187.405 54.8249C181.426 60.102 171.809 70.6161 171.809 70.6161Z" fill="#FFC727"/>
<path opacity="0.1" d="M194.283 56.1329C192.459 62.9135 184.541 77.5395 184.541 77.5395L172.947 71.235L194.301 51.1641C195.012 51.7103 195.042 53.3215 194.283 56.1329Z" fill="black"/>
<path d="M174.43 68.6643C179.339 71.9869 184.097 74.1443 185.052 74.6931C185.097 74.7206 185.135 74.6455 185.087 74.6204C184.122 74.1318 178.898 70.8793 174.468 68.5841C174.418 68.5565 174.375 68.6317 174.43 68.6643Z" fill="#263238"/>
<path d="M181.672 96.6334L218.96 96.7411C218.96 96.7411 215.702 68.6768 202.016 52.1114C198.848 48.2751 193.747 50.3573 191.594 52.397C186.132 57.5664 181.566 96.4981 181.672 96.6334Z" fill="#FFC727"/>
<path d="M194.498 50.5852C195.393 51.2392 196.253 51.9609 197.112 52.6299L199.618 54.5718C200.369 55.1607 201.121 55.8247 201.976 56.2883C202.745 56.7092 203.639 56.8972 204.464 56.5213C204.665 56.4276 204.855 56.3098 205.028 56.1705L205.113 56.3033C204.693 56.6524 204.174 56.8611 203.629 56.8997C202.805 56.9473 202.036 56.5714 201.374 56.1204C200.537 55.5541 199.758 54.9001 198.959 54.2812C197.408 53.0809 195.877 51.8281 194.283 50.6804C194.346 50.6478 194.421 50.6153 194.498 50.5852ZM209.37 72.9088C210.689 72.9008 212.007 73.0174 213.304 73.2571C213.274 73.1694 213.241 73.0792 213.206 72.9915C212.066 72.7828 210.91 72.6746 209.751 72.6683C206.376 72.6057 201.86 72.8161 199.821 69.5086C199.016 68.2056 198.756 66.4741 199.64 65.1385C200.42 63.9609 201.875 63.4522 203.241 63.4647C203.953 63.469 204.658 63.6085 205.318 63.8757C206.098 64.2312 206.817 64.7063 207.451 65.2839C208.663 66.3162 209.794 67.5265 211.312 68.1003L211.192 67.8097C210.74 67.6152 210.311 67.3707 209.914 67.0805C208.503 66.0607 207.363 64.6474 205.794 63.8506C204.593 63.245 203.218 63.0808 201.908 63.387C200.655 63.6902 199.54 64.5046 199.076 65.7449C198.56 67.1281 198.964 68.7117 199.788 69.8919C201.908 72.9164 206.08 72.8663 209.37 72.9088ZM203.647 60.0143C204.633 59.5415 205.654 59.1418 206.699 58.8191C206.654 58.7464 206.609 58.6687 206.561 58.5961C204.156 59.2701 201.933 60.7911 199.452 61.2171C196.442 61.6942 193.361 61.0592 190.785 59.4305C190.079 58.989 189.421 58.476 188.82 57.8995C188.79 57.9796 188.763 58.0598 188.735 58.15C189.309 58.6893 189.931 59.1741 190.595 59.5984C193.082 61.192 196.043 61.8803 198.979 61.5478C200.625 61.3248 202.139 60.6959 203.647 60.0143ZM205.902 86.6378C207.741 87.3023 209.62 87.8496 211.528 88.2766C213.642 88.7777 216.258 89.1987 217.967 90.6294C217.945 90.5067 217.92 90.3789 217.895 90.2611C216.188 88.9606 213.74 88.5447 211.703 88.0686C209.79 87.6378 207.904 87.0906 206.057 86.4298C204.471 85.846 202.903 85.0617 201.743 83.7963C201.242 83.2608 200.856 82.6294 200.607 81.9403C200.358 81.251 200.252 80.5185 200.294 79.7871C200.392 78.3087 201.234 76.9631 202.69 76.5021C204.251 76.0009 205.992 76.5898 207.295 77.4793C208.784 78.4992 209.854 80.0302 210.999 81.3933C212.084 82.6938 213.287 83.899 214.873 84.5555C215.468 84.8076 216.102 84.956 216.747 84.994C216.729 84.9214 216.714 84.8437 216.694 84.7685C215.429 84.6883 214.189 84.0669 213.206 83.3052C211.761 82.1876 210.723 80.6315 209.533 79.2634C208.443 78.0105 207.195 76.898 205.586 76.3768C204.193 75.9258 202.592 75.9709 201.414 76.9306C200.387 77.7725 199.979 79.1356 200.049 80.4261C200.134 81.8371 200.735 83.1676 201.738 84.1646C202.885 85.3248 204.384 86.0715 205.9 86.6328L205.902 86.6378ZM201.369 93.0199C201.104 94.2302 201.229 95.468 201.156 96.6908H201.387C201.474 95.1874 201.236 93.6163 201.86 92.2006C202.009 91.8385 202.235 91.513 202.522 91.2464C202.809 90.98 203.15 90.7788 203.522 90.657C204.355 90.4423 205.238 90.5412 206.002 90.9352C207.621 91.727 208.486 93.4409 209.272 94.9644C209.578 95.5482 209.891 96.1521 210.252 96.7184H210.523C209.631 95.3653 209.062 93.8218 208.1 92.5088C207.17 91.2559 205.772 90.2185 204.131 90.3288C202.61 90.4315 201.672 91.6142 201.367 93.0199H201.369ZM186.751 96.6558H187.046C187.38 96.0679 187.618 95.4312 187.753 94.7689C188.114 93.1051 188.004 91.3837 187.888 89.6998C187.613 85.7984 186.939 81.8143 187.793 77.9379C188.12 76.3502 188.738 74.837 189.617 73.4751C190.539 72.097 191.872 70.8015 193.484 70.2753C193.907 70.1177 194.359 70.0475 194.81 70.0686C195.262 70.0896 195.705 70.2016 196.112 70.3981C196.799 70.7842 197.342 71.3818 197.661 72.102C198.475 73.836 197.971 75.798 197.195 77.4467C195.674 80.6641 193.206 83.3753 191.98 86.7481C191.438 88.2543 191.212 89.8557 191.314 91.4531C191.417 93.0505 191.846 94.6098 192.577 96.0343C192.687 96.2473 192.802 96.4578 192.925 96.6658H193.198C192.595 95.6758 192.146 94.6003 191.865 93.476C191.454 91.8758 191.401 90.205 191.71 88.5823C192.05 86.8282 192.83 85.217 193.714 83.6936C194.599 82.1701 195.654 80.6867 196.553 79.1306C197.453 77.5745 198.325 75.828 198.307 73.9713C198.29 72.538 197.623 71.0195 196.355 70.2703C194.852 69.3783 193.05 69.9846 191.735 70.9218C189.146 72.7685 187.833 75.8681 187.352 78.9251C186.726 82.9143 187.51 86.9435 187.698 90.9377C187.776 92.5313 187.771 94.1776 187.212 95.6986C187.094 96.0333 186.939 96.3543 186.751 96.6558ZM190.489 62.9786C189.684 62.2968 188.674 61.9049 187.62 61.8661C187.603 61.9312 187.585 62.0014 187.565 62.0665C187.818 62.0788 188.069 62.1096 188.317 62.1592C189.855 62.4649 191.414 63.6627 191.431 65.354C191.454 67.1958 189.89 68.5639 188.377 69.3256C187.49 69.7717 186.56 70.1175 185.651 70.5008C185.636 70.581 185.618 70.6587 185.603 70.7514C186.179 70.5008 186.766 70.2853 187.357 70.0448C188.923 69.4033 190.502 68.5413 191.281 66.9627C191.626 66.307 191.735 65.5532 191.591 64.8268C191.447 64.1004 191.058 63.4454 190.489 62.9711V62.9786Z" fill="white"/>
<path d="M204.634 53.364C215.494 61.7006 226.818 75.858 226.995 84.0217C227.163 92.0902 222.63 91.2884 221.869 91.0378C213.8 88.5321 204.078 66.1433 200.475 57.0299C196.896 47.9917 201.938 51.3018 204.634 53.364Z" fill="#D3766A"/>
<path d="M222.082 69.6261L209.473 76.775C209.473 76.775 201.294 62.2943 199.35 55.5489C197.405 48.8034 200.134 48.9513 206.218 54.1156C212.302 59.2799 222.082 69.6261 222.082 69.6261Z" fill="#FFC727"/>
<path d="M219.426 67.7219C214.575 71.1297 209.856 73.3748 208.902 73.9386C208.856 73.9662 208.819 73.891 208.864 73.866C209.819 73.3648 214.985 70.0146 219.373 67.6417C219.436 67.6141 219.478 67.6893 219.426 67.7219Z" fill="#263238"/>
<path d="M210.282 76.2815C210.026 76.3805 209.775 76.4935 209.53 76.6198C208.32 74.2118 208.541 74.7631 207.305 72.3601C206.702 71.1906 206.098 70.0154 205.491 68.8345C204.865 67.6117 204.303 66.3287 203.612 65.151C203.608 65.1438 203.602 65.1383 203.594 65.1355C203.586 65.133 203.578 65.1338 203.571 65.1373C203.563 65.141 203.558 65.1473 203.555 65.155C203.552 65.1628 203.553 65.1713 203.557 65.1786C203.958 66.3363 204.501 67.4588 205.015 68.5764C204.902 68.4035 204.795 68.2256 204.669 68.0577C204.391 67.6843 204.118 67.306 203.872 66.9151C203.832 66.8549 203.732 66.9026 203.77 66.9652C204.02 67.3411 204.216 67.7294 204.424 68.1254C204.632 68.5213 204.86 68.8946 205.093 69.2755C205.326 69.6564 205.569 69.9871 205.819 70.3354L205.91 70.4657C206.24 71.1648 206.561 71.8664 206.912 72.558C208.125 74.9811 209.373 76.8879 209.418 76.8754C209.736 76.7233 210.042 76.5457 210.332 76.3442C210.352 76.3241 210.317 76.279 210.282 76.2815Z" fill="#263238"/>
<path d="M172.711 91.4333C176.45 90.887 178.567 83.9436 182.717 72.8908C183.443 70.9514 173.794 59.8434 172.483 61.63C170.832 63.8852 166.469 76.3613 166.023 79.754C165.164 86.4393 168.361 92.0723 172.711 91.4333Z" fill="#D3766A"/>
<path d="M178.462 84.0741C178.798 83.1344 179.153 82.2023 179.512 81.2701L180.597 78.4812C180.973 77.5566 181.333 76.627 181.697 75.6999C181.882 75.2356 182.061 74.7702 182.233 74.3042C182.411 73.8381 182.584 73.3695 182.717 72.8884C182.509 73.8669 182.228 74.8284 181.877 75.765C181.549 76.7097 181.186 77.6418 180.83 78.574C180.474 79.5061 180.078 80.4257 179.687 81.3428C179.296 82.2599 178.885 83.1745 178.462 84.0741Z" fill="#263238"/>
<path d="M169.02 69.6414C169.544 65.8477 170.614 60.5556 171.969 59.4456C173.393 58.2829 178.562 54.3915 180.053 53.8753C181.544 53.3591 188.199 50.8258 189.422 51.5324C190.402 52.0987 189.241 54.6721 186.077 55.9075C183.293 56.9899 181.859 58.0023 181.065 58.3456C180.271 58.6888 178.309 61.3249 178.835 62.4875C179.148 63.1716 181.143 63.976 182.383 63.4147C183.624 62.8534 183.929 60.4078 185.345 59.2426C186.761 58.0774 189.261 58.2253 189.407 58.8993C189.552 59.5734 188.725 59.8891 187.447 62.1843C186.625 63.6577 186.57 67.1958 184.706 69.7367C183.769 71.0121 182.143 74.4048 182.143 74.4048L169.02 69.6414Z" fill="#D3766A"/>
<path d="M186.668 58.1949C187.126 58.129 187.555 57.9343 187.906 57.6336C188.047 57.4978 188.146 57.3237 188.189 57.1325C188.205 57.028 188.205 56.9215 188.189 56.8168C188.186 56.7048 188.143 56.5975 188.069 56.5136C188.044 56.496 188.081 56.466 188.094 56.491C188.128 56.5439 188.166 56.594 188.207 56.6414C188.236 56.6862 188.26 56.7341 188.279 56.7842C188.317 56.8834 188.335 56.9889 188.332 57.0949C188.322 57.3269 188.233 57.5484 188.081 57.7238C187.898 57.911 187.675 58.0536 187.428 58.1405C187.181 58.2275 186.918 58.2563 186.658 58.225C186.653 58.2325 186.653 58.1999 186.668 58.1949Z" fill="#263238"/>
<path d="M171.969 59.4456C173.175 57.5538 176.259 54.136 179.316 52.9633C181.381 52.169 188.492 55.6269 188.287 56.985C188.081 58.3431 186.866 58.3506 185.067 58.1376C184.413 58.06 180.947 56.8171 180.356 57.5438C179.509 58.5912 178.432 62.1619 178.432 62.1619L171.969 59.4456Z" fill="#D3766A"/>
<path d="M188.109 56.4533C187.229 54.9999 185.3 54.2257 183.378 53.6143C183.348 53.6143 183.33 53.6493 183.361 53.6594C183.849 53.8147 186.981 55.253 188.089 56.4783C188.101 56.4909 188.119 56.4683 188.109 56.4533Z" fill="#263238"/>
<path d="M171.969 59.4452C173.175 57.5534 176.259 54.1355 179.316 52.9629C181.381 52.1685 187.009 56.5937 186.801 57.9543C186.593 59.3149 184.851 59.4227 182.922 58.7536C182.298 58.5356 180.208 57.0673 179.617 57.7939C178.77 58.8388 176.703 61.4348 176.703 61.4348L171.969 59.4452Z" fill="#D3766A"/>
<path d="M177.883 59.8211C178.078 59.5229 178.134 59.4177 178.342 59.122C178.549 58.8263 178.742 58.5357 178.963 58.2575C179.134 57.9984 179.35 57.7712 179.599 57.586C179.857 57.4389 180.156 57.379 180.451 57.4156C181.12 57.4782 181.724 57.9017 182.293 58.2275C182.927 58.5908 184.24 59.1796 185.247 59.0719C185.524 59.0559 185.795 58.9824 186.042 58.8564C186.229 58.7707 186.391 58.6399 186.515 58.4755C186.951 57.7238 186.405 56.8919 185.849 56.293C184.809 55.178 183.411 54.3711 182.055 53.7071C181.722 53.5442 181.386 53.3914 181.053 53.236C180.675 53.0346 180.259 52.9158 179.832 52.8877C179.133 52.8877 177.988 53.5943 177.635 53.8098C177.607 53.8249 177.587 53.7823 177.612 53.7647C178.043 53.4966 179.116 52.6246 180.233 52.6797C180.645 52.7421 181.043 52.8759 181.409 53.0757C181.802 53.2435 182.19 53.4265 182.574 53.6169C183.322 53.9847 184.041 54.4095 184.724 54.8873C185.365 55.3459 186.049 55.8896 186.478 56.5486C186.677 56.8403 186.795 57.1808 186.817 57.5336C186.839 57.8867 186.765 58.239 186.603 58.5532C186.295 59.0544 185.636 59.1897 185.335 59.2298C185.04 59.2686 184.741 59.2686 184.446 59.2298C183.788 59.0879 183.142 58.8995 182.511 58.666C181.9 58.4154 181.348 58.0095 180.719 57.819C180.571 57.7682 180.414 57.7476 180.257 57.7584C180.101 57.7692 179.947 57.811 179.807 57.8817C179.55 58.0536 179.321 58.263 179.126 58.5031C178.705 58.9168 178.324 59.3691 177.988 59.8537C177.906 59.994 177.813 59.9514 177.883 59.8211Z" fill="#263238"/>
<path d="M171.077 61.099C171.518 60.1969 172.263 56.4834 172.979 55.3358C173.696 54.1881 176.963 50.2566 178.492 50.427C180.414 50.64 178.414 54.1004 177.409 55.5262C176.405 56.952 176.577 59.375 176.577 59.375L171.077 61.099Z" fill="#D3766A"/>
<path d="M178.81 53.1735C178.452 53.6245 178.136 54.1257 177.825 54.6093C177.506 55.0588 177.219 55.5311 176.968 56.0225C176.758 56.5257 176.632 57.0596 176.595 57.6036C176.57 57.8718 176.562 58.1374 176.56 58.4055C176.557 58.6736 176.585 58.9943 176.58 59.285C176.579 59.2888 176.578 59.2928 176.579 59.2968C176.58 59.3005 176.581 59.3043 176.583 59.3075C176.586 59.3108 176.589 59.3133 176.592 59.3151C176.596 59.3171 176.6 59.3178 176.604 59.3178C176.608 59.3178 176.612 59.3171 176.615 59.3151C176.619 59.3133 176.622 59.3108 176.624 59.3075C176.626 59.3043 176.628 59.3005 176.629 59.2968C176.629 59.2928 176.629 59.2888 176.628 59.285C176.662 58.7508 176.731 58.2191 176.836 57.6938C176.929 57.1473 177.09 56.6146 177.314 56.1077C177.763 55.1054 178.419 54.2034 178.875 53.2036C178.885 53.166 178.835 53.1409 178.81 53.1735Z" fill="#263238"/>
<path d="M176.6 59.7913C176.628 60.241 176.722 60.6841 176.878 61.1068C177.021 61.536 177.193 61.9547 177.394 62.3596C177.589 62.7638 177.806 63.157 178.043 63.5373C178.274 63.9207 178.544 64.2665 178.828 64.6323C179.403 65.3465 179.863 66.1473 180.188 67.0053C180.493 67.8632 180.646 68.7681 180.639 69.6789C180.556 68.7816 180.345 67.9006 180.013 67.0629C179.657 66.2395 179.19 65.4683 178.627 64.7702C178.341 64.4149 178.076 64.0425 177.835 63.6551C177.6 63.2625 177.391 62.855 177.209 62.4348C176.863 61.6004 176.542 60.7084 176.6 59.7913Z" fill="#263238"/>
<path d="M190.309 54.4888C190.363 55.0774 190.447 55.6628 190.559 56.2428C190.648 56.771 190.785 57.2902 190.968 57.7939C191.326 58.6985 192.01 59.5479 193.065 59.7809C193.556 59.8749 194.06 59.8696 194.549 59.7649C195.037 59.6604 195.5 59.4587 195.909 59.172C196.784 58.5957 197.465 57.7789 198.089 56.9845C198.478 56.4934 198.843 55.9873 199.184 55.4661C199.355 55.2004 199.53 54.9399 199.685 54.6667C199.841 54.3936 199.989 54.118 200.164 53.8574C200.179 53.8348 200.224 53.8574 200.212 53.8749C199.871 54.4913 198.848 56.4458 198.508 56.9294C197.884 57.8114 197.205 58.711 196.3 59.3625C195.434 60.0217 194.344 60.3184 193.263 60.1894C192.745 60.1082 192.256 59.896 191.843 59.5727C191.43 59.2495 191.106 58.826 190.903 58.3427C190.663 57.7651 190.511 57.1557 190.449 56.5335C190.364 55.8519 190.319 55.1654 190.289 54.4813C190.294 54.4813 190.309 54.4813 190.309 54.4888Z" fill="#263238"/>
<path d="M193.92 58.0799C196.22 58.0173 199.057 53.7299 199.813 50.6654C199.863 50.4549 197.152 43.3211 196.761 41.8502C196.676 41.5495 188.124 46.541 188.124 46.541C188.124 46.541 189.85 49.38 190.514 51.9458C190.567 52.1613 191.695 58.14 193.92 58.0799Z" fill="#D3766A"/>
<path d="M188.124 46.5405C188.124 46.5405 189.85 49.3795 190.514 51.9479C190.514 51.998 190.6 52.3714 190.732 52.9126C195.01 51.3415 197.087 47.9012 198.039 45.5884C197.455 43.9696 196.917 42.4487 196.761 41.8548C196.676 41.5491 188.124 46.5405 188.124 46.5405Z" fill="#263238"/>
<path d="M183.213 29.9151C182.664 30.0078 180.822 34.3829 181.09 36.2972C181.358 38.2116 182.609 41.9201 183.18 41.9026C183.751 41.8851 183.646 29.8425 183.213 29.9151Z" fill="#263238"/>
<path d="M196.373 31.6113C198.262 34.6007 199.117 44.4934 197.375 47.2296C194.842 51.1962 189.407 52.9928 185.711 49.6627C182.125 46.4303 181.238 33.5182 183.31 30.8997C186.357 27.0434 193.581 27.1962 196.373 31.6113Z" fill="#D3766A"/>
<path d="M189.264 37.9289C189.556 37.9697 189.849 37.9955 190.144 38.0065C190.482 38.0316 190.75 38.0892 191.058 37.9163C191.14 37.8572 191.2 37.773 191.229 37.6765C191.258 37.5801 191.254 37.4768 191.218 37.3826C191.043 36.9892 190.637 36.8539 190.231 36.8063C189.824 36.7424 189.408 36.8316 189.064 37.0569C188.986 37.1127 188.927 37.1904 188.894 37.2796C188.86 37.3688 188.854 37.4661 188.875 37.559C188.897 37.652 188.945 37.7367 189.014 37.8023C189.083 37.8682 189.17 37.9121 189.264 37.9289Z" fill="#263238"/>
<path d="M189.66 40.0886C189.66 40.061 189.715 40.1136 189.718 40.1412C189.765 40.8102 189.933 41.567 190.557 41.7273C190.577 41.7273 190.579 41.7649 190.557 41.7649C189.8 41.7373 189.587 40.7275 189.66 40.0886Z" fill="#263238"/>
<path d="M190.174 39.3319C191.239 39.1389 191.542 41.2813 190.557 41.4567C189.572 41.6321 189.284 39.4922 190.174 39.3319Z" fill="#263238"/>
<path d="M185.821 40.5271C185.821 40.5021 185.774 40.5672 185.779 40.5923C185.894 41.2538 185.914 42.0281 185.345 42.3338C185.328 42.3338 185.345 42.3764 185.345 42.3713C186.074 42.1734 186.034 41.1435 185.821 40.5271Z" fill="#263238"/>
<path d="M185.13 39.9279C184.052 40.0006 184.273 42.1505 185.27 42.0853C186.267 42.0202 186.034 39.8703 185.13 39.9279Z" fill="#263238"/>
<path d="M184.147 38.7882C184.426 38.6887 184.7 38.5749 184.967 38.4474C185.28 38.3121 185.543 38.2369 185.736 37.9462C185.781 37.8558 185.795 37.7533 185.776 37.6541C185.757 37.5551 185.706 37.4649 185.631 37.3975C185.292 37.1294 184.866 37.1995 184.483 37.3449C184.092 37.4802 183.765 37.7561 183.566 38.1191C183.527 38.2041 183.513 38.2986 183.526 38.3913C183.539 38.484 183.579 38.5709 183.64 38.6416C183.702 38.7122 183.783 38.7636 183.872 38.7897C183.962 38.8155 184.058 38.8152 184.147 38.7882Z" fill="#263238"/>
<path d="M191.028 45.5112C190.893 45.6892 190.778 45.9247 190.527 45.9798C190.28 46.0106 190.028 45.9883 189.79 45.9147C189.788 45.9129 189.785 45.9117 189.782 45.9112C189.779 45.9107 189.776 45.9107 189.773 45.9112C189.77 45.9117 189.768 45.9129 189.765 45.9147C189.763 45.9162 189.761 45.9184 189.759 45.9209C189.757 45.9232 189.756 45.9259 189.756 45.929C189.755 45.932 189.755 45.935 189.756 45.9377C189.756 45.9407 189.757 45.9435 189.759 45.946C189.761 45.9485 189.763 45.9505 189.765 45.9523C189.877 46.071 190.02 46.1572 190.178 46.2013C190.335 46.2457 190.502 46.2459 190.66 46.2028C190.79 46.1485 190.901 46.0567 190.979 45.9395C191.057 45.8222 191.098 45.6846 191.098 45.5438C191.101 45.4937 191.048 45.4862 191.028 45.5112Z" fill="#263238"/>
<path d="M190.051 43.624C189.92 43.9106 189.731 44.167 189.496 44.3769C189.261 44.5869 188.985 44.746 188.685 44.8443C188.425 44.933 188.153 44.9846 187.878 44.9971C187.826 45.0021 187.773 45.0021 187.721 44.9971C187.671 44.9996 187.622 44.9996 187.573 44.9971C187.536 44.9954 187.501 44.9816 187.473 44.958C187.445 44.9345 187.425 44.9024 187.417 44.8668C187.415 44.8443 187.415 44.8217 187.417 44.7992V44.7415C187.33 44.2404 187.269 43.4486 187.269 43.4486C187.097 43.5688 186.205 44.1301 186.182 43.862C186.002 41.6344 185.799 39.1587 186.087 36.9061C186.09 36.8918 186.097 36.8793 186.109 36.87C186.12 36.861 186.134 36.856 186.148 36.856C186.163 36.856 186.176 36.861 186.188 36.87C186.199 36.8793 186.207 36.8918 186.21 36.9061C186.46 39.041 186.352 41.2059 186.58 43.3508C186.896 43.1454 187.24 42.986 187.6 42.8773C187.675 42.8773 187.69 44.3807 187.748 44.6187C187.746 44.626 187.746 44.6338 187.748 44.6413C188.62 44.6413 189.231 44.278 189.981 43.5839C190.023 43.5338 190.081 43.5663 190.051 43.624Z" fill="#263238"/>
<path d="M197.533 40.1035C195.809 40.4919 194.691 38.6652 193.729 36.0317C193.165 34.4907 193.163 31.2708 193.163 31.2708C193.163 31.2708 188.983 33.9569 186.425 34.0722C183.867 34.1875 181.414 32.3006 181.263 30.3136C181.135 28.5972 183.709 26.0012 187.462 25.3347C190.081 24.8711 194.812 26.3871 197.155 28.9555C197.155 28.9555 200.68 30.0956 200.522 32.664C200.364 35.2324 199.49 39.6625 197.533 40.1035Z" fill="#263238"/>
<path d="M197.383 39.9208C195.15 40.7151 193.471 37.4151 193.173 35.6235C192.862 33.7567 193.328 31.7646 193.409 29.8928H193.393C192.912 32.2156 192.446 35.1348 193.514 37.3524C194.185 38.7506 195.581 41.0233 197.428 40.0436C197.49 40.0085 197.453 39.8957 197.383 39.9208Z" fill="#263238"/>
<path d="M200.936 31.8322C200.407 30.3288 198.445 29.0484 196.927 28.8855C196.912 28.8855 196.907 28.9081 196.927 28.9106C198.776 29.3165 201.091 31.078 200.808 33.1302C200.58 34.769 200.099 36.9515 199.189 38.3497C199.167 38.3848 199.219 38.4173 199.244 38.3848C199.981 37.4251 200.204 36.2699 200.497 35.1273C200.74 34.1175 201.292 32.8721 200.936 31.8322Z" fill="#263238"/>
<path d="M196.425 40.3564C196.425 40.3564 197.766 36.7406 199.355 37.1391C200.943 37.5375 200.492 42.4011 199.021 43.421C198.842 43.5663 198.635 43.6738 198.413 43.7372C198.191 43.8003 197.958 43.8184 197.729 43.7895C197.5 43.7607 197.279 43.6858 197.08 43.5695C196.88 43.4533 196.706 43.2979 196.568 43.1128L196.425 40.3564Z" fill="#D3766A"/>
<path d="M199.199 38.5222C199.227 38.5222 199.239 38.5473 199.219 38.5648C198.199 39.3165 197.874 40.5418 197.741 41.7496C197.969 41.2485 198.372 40.8851 199.044 41.1407C199.079 41.1532 199.064 41.2084 199.029 41.2084C198.811 41.1973 198.596 41.2537 198.411 41.3697C198.227 41.486 198.083 41.6561 197.999 41.8574C197.863 42.1951 197.763 42.5462 197.701 42.9048C197.673 43.0225 197.475 43.015 197.483 42.8872C197.482 42.8779 197.482 42.8689 197.483 42.8597C197.074 41.4163 197.678 39.0835 199.199 38.5222Z" fill="#263238"/>
<path d="M191.842 56.401L197.104 72.0894C197.31 72.5455 197.104 72.9439 196.643 72.979L188.384 73.6029C188.132 73.6041 187.885 73.5345 187.671 73.4014C187.457 73.2684 187.285 73.0777 187.174 72.8512L181.912 57.1627C181.707 56.7042 181.912 56.3058 182.373 56.2707L190.627 55.6367C190.881 55.636 191.13 55.7076 191.345 55.8427C191.56 55.978 191.733 56.1717 191.842 56.401Z" fill="#37474F"/>
<path d="M190.86 56.4658L196.122 72.1543C196.328 72.6103 196.122 73.0113 195.661 73.0463L187.405 73.6803C187.151 73.68 186.903 73.6081 186.689 73.4728C186.475 73.3377 186.304 73.1446 186.194 72.916L180.932 57.2276C180.724 56.7715 180.932 56.3731 181.393 56.3381L189.66 55.7041C189.911 55.7056 190.157 55.7778 190.37 55.9126C190.582 56.0471 190.752 56.2391 190.86 56.4658Z" fill="#455A64"/>
<path d="M188.658 57.3705C188.671 57.5093 188.726 57.6406 188.814 57.7484C188.902 57.8561 189.021 57.9353 189.154 57.9757C189.287 58.0162 189.429 58.0162 189.563 57.9759C189.696 57.9356 189.814 57.8564 189.903 57.7489C189.991 57.6411 190.046 57.5096 190.059 57.371C190.073 57.2325 190.045 57.0929 189.979 56.9701C189.914 56.8471 189.813 56.7466 189.69 56.6809C189.567 56.6153 189.428 56.5877 189.289 56.6013C189.103 56.6198 188.933 56.711 188.814 56.8553C188.696 56.9997 188.639 57.1848 188.658 57.3705Z" fill="#263238"/>
<path d="M223.573 91.143C219.979 91.6667 215.444 88.9129 203.692 80.5337C202.063 79.366 207.16 65.6922 208.954 66.8373C211.222 68.2831 219.709 74.3921 220.273 74.9183C225.041 79.366 226.016 90.7671 223.573 91.143Z" fill="#D3766A"/>
<path d="M213.171 70.914C213.171 70.914 209.799 66.2934 207.275 64.4116C203.895 61.9059 199.941 61.114 198.255 60.886C194.747 60.4099 185.976 61.6803 185.889 64.2763C185.819 66.6267 194.739 64.8727 194.739 64.8727C194.739 64.8727 185.35 65.1583 185.786 68.0023C186.222 70.8463 196.466 68.2253 196.466 68.2253C196.466 68.2253 186.823 68.7265 187.738 71.5981C188.43 73.7605 197.839 71.9063 197.839 71.9063C197.839 71.9063 189.555 72.4074 190.169 74.6626C190.85 77.1533 199.64 75.9881 199.64 75.9881C202.189 81.4506 205.622 83.0217 208.202 83.8461C208.826 84.0441 213.171 70.914 213.171 70.914Z" fill="#D3766A"/>
<path d="M197.991 64.5673C196.886 64.5673 195.769 64.5473 194.669 64.6375C193.569 64.7277 192.469 64.8605 191.381 65.0534C188.713 65.5295 187.122 66.2462 187.222 66.2111C189.667 65.4218 193.601 65.0309 194.704 64.9382C195.806 64.8455 196.896 64.7001 197.996 64.6074C198.024 64.6049 198.017 64.5673 197.991 64.5673Z" fill="#263238"/>
<path d="M198.395 68.5361C196.984 68.5888 195.584 68.5887 194.175 68.704C192.767 68.8193 191.454 69.0523 190.063 69.2628C189.956 69.2778 190.001 69.3305 190.108 69.3179C191.504 69.1626 192.81 69.1275 194.208 68.9897C195.606 68.8519 197.002 68.6564 198.4 68.5687C198.43 68.5687 198.43 68.5361 198.395 68.5361Z" fill="#263238"/>
<path d="M199.355 71.8814C197.195 71.8513 195.032 72.2196 192.92 72.6331C192.815 72.6531 192.88 72.7158 192.987 72.7007C195.122 72.4101 196.794 72.167 199.355 71.949C199.392 71.9515 199.4 71.8814 199.355 71.8814Z" fill="#263238"/>
<path d="M217.035 72.5078C217.967 73.1217 218.864 73.7857 219.734 74.4898C220.17 74.8384 220.588 75.209 220.987 75.5999C221.399 75.9885 221.762 76.427 222.067 76.9054C222.645 77.8678 223.131 78.8829 223.517 79.9373C223.919 80.9827 224.203 82.0692 224.364 83.1773C224.244 82.6338 224.094 82.0975 223.913 81.5711C223.74 81.0424 223.55 80.5212 223.337 80.0075C222.93 78.9774 222.433 77.9846 221.854 77.0407C221.568 76.5721 221.222 76.1426 220.826 75.7628C220.438 75.3694 220.019 75.011 219.604 74.6352C219.188 74.2593 218.757 73.9135 218.326 73.5602C217.895 73.2069 217.474 72.8511 217.035 72.5078Z" fill="#263238"/>
<path d="M181.459 23.3953C181.459 23.3953 180.429 31.6392 178.735 33.496C176.703 35.7211 175.227 35.3953 174.407 36.5429C173.586 35.3928 172.112 35.7211 170.077 33.4935C168.386 31.6392 167.359 23.3953 167.359 23.3953C171.819 21.2304 174.41 18.8022 174.41 18.8022C174.488 18.8799 177.066 21.2629 181.459 23.3953Z" fill="#FFC727"/>
<path opacity="0.2" d="M174.407 18.8048V36.5429C173.586 35.3928 172.112 35.7211 170.077 33.4935C168.386 31.6392 167.359 23.3953 167.359 23.3953C171.819 21.2304 174.41 18.8022 174.41 18.8022L174.407 18.8048Z" fill="black"/>
<path opacity="0.1" d="M181.459 23.3953C181.459 23.3953 180.429 31.6392 178.735 33.496C176.703 35.7211 175.227 35.3953 174.407 36.543V18.8047C174.488 18.8799 177.066 21.2629 181.459 23.3953Z" fill="black"/>
<path d="M180.364 24.0594C180.364 24.0594 179.494 31.0253 178.063 32.5914C176.347 34.4757 175.099 34.1976 174.408 35.1673C173.713 34.1976 172.468 34.4757 170.749 32.5914C169.318 31.0253 168.451 24.0594 168.451 24.0594C172.21 22.2302 174.408 20.1804 174.408 20.1804C174.408 20.1804 176.595 22.2352 180.364 24.0594Z" fill="#FFC727"/>
<path opacity="0.1" d="M174.408 20.183V35.1673C173.716 34.1976 172.468 34.4732 170.752 32.5914C169.321 31.0228 168.454 24.0569 168.454 24.0569C172.212 22.2277 174.408 20.178 174.408 20.178V20.183Z" fill="black"/>
<path d="M174.5 56.0027H173.433V55.8123H174.407V55.8775H174.5V56.0027ZM172.43 56.0027H171.428V55.8123H172.43V56.0027ZM170.426 56.0027H169.424V55.8123H170.426V56.0027ZM168.421 56.0027H167.419V55.8123H168.421V56.0027ZM174.5 54.8777H174.312V53.8754H174.5V54.8777ZM174.5 52.8731H174.312V51.8708H174.5V52.8731ZM174.5 50.8685H174.312V49.8662H174.5V50.8685ZM174.5 48.8639H174.312V47.8616H174.5V48.8639ZM174.5 46.8593H174.312V45.857H174.5V46.8593ZM174.5 44.8547H174.312V43.8524H174.5V44.8547ZM174.5 42.8501H174.312V41.8478H174.5V42.8501ZM174.5 40.8455H174.312V39.8432H174.5V40.8455ZM174.5 38.8409H174.312V37.8386H174.5V38.8409Z" fill="#FFC727"/>
<path d="M174.831 37.6333C174.831 37.5494 174.806 37.4677 174.76 37.398C174.713 37.3283 174.647 37.274 174.57 37.2419C174.492 37.2098 174.407 37.2016 174.325 37.2178C174.243 37.2341 174.167 37.2745 174.108 37.3339C174.049 37.393 174.009 37.4684 173.992 37.5506C173.976 37.6328 173.984 37.718 174.016 37.7952C174.048 37.8726 174.103 37.9387 174.172 37.9854C174.242 38.032 174.324 38.0568 174.407 38.0568C174.52 38.0568 174.627 38.0122 174.707 37.9327C174.786 37.8533 174.831 37.7456 174.831 37.6333Z" fill="#FFC727"/>
<path d="M146.739 35.0818H146.561V34.0795H146.749L146.739 35.0818ZM146.739 33.0772H146.561V32.0749H146.749L146.739 33.0772ZM146.739 31.0726H146.561V30.0703H146.749L146.739 31.0726ZM146.739 29.068H146.561V28.0657H146.749L146.739 29.068ZM146.739 27.0634H146.561V26.0611H146.749L146.739 27.0634ZM146.739 25.0588H146.561V24.0565H146.749L146.739 25.0588ZM146.739 23.0542H146.561V22.0519H146.749L146.739 23.0542ZM146.739 21.0496H146.561V20.0473H146.749L146.739 21.0496ZM145.809 19.9797H144.807V19.7917H145.809V19.9797ZM143.805 19.9797H142.803V19.7917H143.805V19.9797ZM141.8 19.9797H140.798V19.7917H141.8V19.9797ZM139.796 19.9797H139.362V19.7917H139.796V19.9797Z" fill="#FFC727"/>
<path d="M153.943 90.8199H153.354V90.642H153.943V90.8199ZM152.352 90.8199H151.35V90.642H152.352V90.8199ZM150.347 90.8199H149.345V90.642H150.347V90.8199ZM148.343 90.8199H147.34V90.642H148.343V90.8199ZM146.739 90.419H146.561V89.4167H146.749L146.739 90.419ZM146.739 88.4144H146.561V87.4121H146.749L146.739 88.4144ZM146.739 86.4098H146.561V85.4075H146.749L146.739 86.4098ZM146.739 84.4052H146.561V83.4029H146.749L146.739 84.4052ZM146.739 82.4006H146.561V81.3983H146.749L146.739 82.4006ZM146.739 80.396H146.561V79.3938H146.749L146.739 80.396ZM146.739 78.3915H146.561V77.3892H146.749L146.739 78.3915Z" fill="#FFC727"/>
<path d="M153.921 91.1504C154.154 91.1504 154.344 90.961 154.344 90.7269C154.344 90.4932 154.154 90.3035 153.921 90.3035C153.687 90.3035 153.497 90.4932 153.497 90.7269C153.497 90.961 153.687 91.1504 153.921 91.1504Z" fill="#FFC727"/>
<path d="M171.413 87.9783H155.401V97.6404H171.413V87.9783Z" fill="#455A64"/>
<path d="M161.135 89.1936H156.659V94.9167H161.135V89.1936Z" fill="white"/>
<path d="M158.897 92.5439C159.482 92.5439 159.957 92.0693 159.957 91.484C159.957 90.8987 159.482 90.4241 158.897 90.4241C158.312 90.4241 157.837 90.8987 157.837 91.484C157.837 92.0693 158.312 92.5439 158.897 92.5439Z" fill="#455A64"/>
<path d="M161.135 94.9165H156.659C156.659 94.9165 156.782 93.849 157 93.5308C157.218 93.2126 157.794 92.8542 158.897 92.8542C160 92.8542 160.576 93.2126 160.794 93.5308C161.012 93.849 161.135 94.9165 161.135 94.9165Z" fill="#455A64"/>
<path d="M169.659 89.1936H162.292V89.4717H169.659V89.1936Z" fill="white"/>
<path d="M169.659 91.9148H162.292V92.1929H169.659V91.9148Z" fill="white"/>
<path d="M169.659 92.7168H162.292V92.9949H169.659V92.7168Z" fill="white"/>
<path d="M169.659 93.5161H162.292V93.7942H169.659V93.5161Z" fill="white"/>
<path d="M169.659 94.3181H162.292V94.5963H169.659V94.3181Z" fill="white"/>
<path d="M169.659 95.1172H162.292V95.3953H169.659V95.1172Z" fill="white"/>
<path d="M168.258 89.9958H162.292V90.274H168.258V89.9958Z" fill="white"/>
<path d="M172.281 99.7243C173.43 99.2449 173.974 97.9246 173.495 96.775C173.015 95.6254 171.695 95.0819 170.545 95.5612C169.396 96.0403 168.852 97.3609 169.332 98.5105C169.811 99.6601 171.131 100.203 172.281 99.7243Z" fill="#263238"/>
<path d="M172.531 97.0715H170.296V99.1012H172.531V97.0715Z" fill="white"/>
<path d="M172.308 97.6956H172.08V96.791C172.08 96.6141 172.009 96.4447 171.884 96.3197C171.759 96.1947 171.59 96.1245 171.413 96.1245C171.236 96.1245 171.067 96.1947 170.942 96.3197C170.817 96.4447 170.747 96.6141 170.747 96.791V97.6956H170.519V96.791C170.519 96.5537 170.613 96.3262 170.781 96.1583C170.948 95.9907 171.176 95.8965 171.413 95.8965C171.65 95.8965 171.878 95.9907 172.046 96.1583C172.213 96.3262 172.308 96.5537 172.308 96.791V97.6956Z" fill="white"/>
<path d="M171.508 98.109L171.601 98.555H171.203L171.298 98.109C171.269 98.0907 171.245 98.0652 171.228 98.0348C171.212 98.0043 171.204 97.9702 171.205 97.9359C171.206 97.9015 171.216 97.868 171.234 97.8384C171.252 97.8091 171.277 97.7848 171.307 97.7682C171.337 97.7514 171.371 97.7429 171.406 97.7434C171.44 97.7439 171.474 97.7532 171.504 97.7707C171.533 97.7883 171.558 97.8131 171.575 97.8429C171.592 97.873 171.601 97.9066 171.601 97.9411C171.601 97.9747 171.592 98.0075 171.576 98.0371C171.56 98.0664 171.537 98.0912 171.508 98.109Z" fill="#263238"/>
<path d="M226.991 106.428L213.838 106.488L200.683 106.51L174.375 106.553L148.067 106.51L134.915 106.488L121.759 106.428L134.915 106.365L148.067 106.345L174.375 106.302L200.683 106.345L213.838 106.368L226.991 106.428Z" fill="#263238"/>
<path d="M151.856 139V124.624H146.264V122.08H160.544V124.624H154.952V139H151.856ZM162.755 139V122.08H165.467L171.683 136.072H170.939L177.155 122.08H179.843V139H177.035V126.448H177.899L172.211 139H170.363L164.675 126.448H165.563V139H162.755ZM189.518 139.24C188.158 139.24 186.902 139.072 185.75 138.736C184.614 138.384 183.638 137.904 182.822 137.296L183.782 134.872C184.326 135.256 184.894 135.584 185.486 135.856C186.078 136.112 186.71 136.312 187.382 136.456C188.054 136.584 188.766 136.648 189.518 136.648C190.782 136.648 191.694 136.44 192.254 136.024C192.814 135.608 193.094 135.064 193.094 134.392C193.094 133.8 192.902 133.352 192.518 133.048C192.134 132.728 191.446 132.464 190.454 132.256L187.742 131.704C186.19 131.384 185.03 130.848 184.262 130.096C183.494 129.344 183.11 128.336 183.11 127.072C183.11 126.016 183.39 125.096 183.95 124.312C184.51 123.528 185.294 122.92 186.302 122.488C187.31 122.056 188.486 121.84 189.83 121.84C191.03 121.84 192.142 122.016 193.166 122.368C194.19 122.704 195.046 123.192 195.734 123.832L194.774 126.136C194.086 125.56 193.334 125.136 192.518 124.864C191.702 124.576 190.79 124.432 189.782 124.432C188.646 124.432 187.758 124.656 187.118 125.104C186.494 125.536 186.182 126.136 186.182 126.904C186.182 127.496 186.374 127.968 186.758 128.32C187.158 128.672 187.83 128.944 188.774 129.136L191.462 129.664C193.062 129.984 194.246 130.512 195.014 131.248C195.782 131.968 196.166 132.944 196.166 134.176C196.166 135.184 195.894 136.072 195.35 136.84C194.806 137.592 194.038 138.184 193.046 138.616C192.054 139.032 190.878 139.24 189.518 139.24Z" fill="#555555"/>
</svg>
