<svg width="348" height="167" viewBox="0 0 348 167" fill="none" xmlns="http://www.w3.org/2000/svg">
<rect width="348" height="167" rx="4" fill="#6E6EE5"/>
<path d="M116.75 102.838L116.29 102.041L115.83 101.244H130.041L129.114 102.838H116.75Z" fill="white"/>
<path d="M114.729 84.1627L116.109 81.7715L137.572 44.6008H126.283L126.749 43.7974L127.21 43H150.623L127.78 82.5685H140.825L139.904 84.1627H114.729Z" fill="white"/>
<path d="M174.781 78.9326L172.682 82.568L160.978 102.838L149.968 121.91H127.76L127.3 121.113L127.158 120.86L127.475 120.315H138.757L149.307 102.041L161.011 81.7709L161.73 80.5267H150.448L150.908 79.7297L151.368 78.9326H174.781Z" fill="white"/>
<path d="M141.544 79.7302L139.904 82.5688L139.444 83.3659H116.115L138.964 43.7974H117.392L90.9327 89.6645C90.2106 90.9178 89.8304 92.3388 89.8303 93.7853C89.8301 95.2317 90.21 96.6529 90.9319 97.9063C91.6537 99.1597 92.6924 100.202 93.9436 100.927C95.1947 101.653 96.6145 102.037 98.061 102.042H128.674L128.214 102.839L117.806 120.861L117.955 121.107H139.237L150.02 102.444L163.129 79.7302H141.544ZM149.32 102.042L138.77 120.31H119.038L128.667 103.636L129.127 102.839L130.048 101.245H98.061C96.7524 101.244 95.467 100.899 94.334 100.245C93.2011 99.5898 92.2605 98.6483 91.607 97.5146C90.9534 96.3809 90.6098 95.0948 90.6109 93.7862C90.612 92.4776 90.9577 91.1924 91.6131 90.0597L117.858 44.6008H137.591L116.128 81.7718L114.748 84.163H139.924L140.844 82.5688L142.023 80.5273H161.749L161.036 81.7718L149.32 102.042Z" fill="white"/>
<path d="M174.937 99.8896V112.759C174.937 116.008 176.03 118.516 178.216 120.283C180.288 121.891 182.859 122.721 185.48 122.629C188.539 122.629 191.015 121.784 192.907 120.095C194.968 118.263 196 115.656 196.004 112.273V99.8896H174.937ZM191.533 112.526C191.582 113.292 191.457 114.06 191.166 114.77C190.875 115.481 190.427 116.116 189.854 116.628C188.617 117.617 187.062 118.122 185.48 118.047C183.924 118.132 182.391 117.643 181.171 116.673C180.588 116.158 180.128 115.517 179.826 114.799C179.524 114.081 179.388 113.304 179.428 112.526V104.452H191.533V112.526Z" fill="white"/>
<path d="M202.427 99.8896V111.852H206.931V104.452H216.652V112.811C216.652 115.835 215.3 117.347 212.595 117.347H202.453V121.929H212.945C218.475 121.929 221.237 118.989 221.233 113.109V99.909L202.427 99.8896Z" fill="white"/>
<path d="M227.63 99.8896V121.923H232.127V99.8896H227.63Z" fill="white"/>
<path d="M248.884 99.8902V104.426H254.418V114.062C254.434 114.909 254.118 115.727 253.537 116.343C253.251 116.656 252.901 116.904 252.511 117.07C252.121 117.235 251.699 117.315 251.276 117.302H243.272V99.8643H238.775V121.897H250.997C256.328 121.897 258.996 118.987 259 113.168V99.8772L248.884 99.8902Z" fill="white"/>
<path d="M141.079 78.9265L138.986 82.5685H117.504L140.353 43H116.934L90.2154 89.2431C89.4195 90.6216 89.0004 92.1853 89 93.7771C88.9996 95.3688 89.418 96.9324 90.2132 98.3113C91.0083 99.6902 92.1523 100.836 93.5302 101.633C94.9081 102.43 96.4713 102.85 98.063 102.852H127.289L116.921 120.873L117.53 121.923H139.731L150.748 102.852L162.458 82.5815L164.551 78.9395L141.079 78.9265ZM119.046 120.309L128.676 103.636L129.136 102.839L130.056 101.245H98.063C96.7544 101.244 95.4691 100.899 94.3361 100.244C93.2031 99.5895 92.2626 98.648 91.609 97.5143C90.9555 96.3806 90.6119 95.0945 90.6129 93.7859C90.614 92.4773 90.9598 91.1921 91.6152 90.0594L117.86 44.6004H137.593L116.13 81.7715L114.75 84.1627H139.926L140.846 82.5685L142.025 80.527H161.751L161.038 81.7715L149.335 102.042L138.785 120.309H119.046Z" fill="white"/>
<path d="M209.172 79.406L204.428 87.6361H176.142L180.892 79.406H209.172Z" fill="#00FFA9"/>
<path d="M226.28 50.8928L224.874 53.3296L221.53 59.1229H153.643L156.987 53.3296L158.393 50.8928H226.28Z" fill="#00FFA9"/>
<path d="M218.083 64.7019L213.333 72.932H145.439L150.196 64.7019H218.083Z" fill="#00FFA9"/>
</svg>
