<svg width="24" height="24" viewBox="0 0 24 24" fill="none" xmlns="http://www.w3.org/2000/svg">
<circle cx="12" cy="12" r="12" fill="#0DB760"/>
<path fill-rule="evenodd" clip-rule="evenodd" d="M13.9854 8.62861H17.8992V7.50781H13.9854V8.62861ZM15.9146 10.8796C15.0415 10.8796 14.3785 11.4205 14.3146 12.4199H17.4469C17.2346 11.2338 16.7077 10.8796 15.9146 10.8796ZM16.0369 15.5152C16.8431 15.5152 17.4346 15.006 17.5554 14.577H19.2508C18.7662 16.1286 17.7654 17 15.9685 17C13.6754 17 12.3885 15.3691 12.3885 13.2049C12.3885 8.1084 19.7423 7.92568 19.3731 13.6808H14.3146C14.3638 14.8495 14.8462 15.5152 16.0369 15.5152ZM8.40769 15.291C9.33308 15.291 9.98077 14.935 9.98077 13.9745C9.98077 12.9783 9.40846 12.5461 8.44769 12.5461H6.12923V15.291H8.40769ZM8.28538 11.0479C9.05538 11.0479 9.58692 10.6894 9.58692 9.85682C9.58692 8.97973 8.96846 8.70898 8.12308 8.70898H6.12923V11.0479H8.28538ZM8.55692 7C10.3808 7 11.6485 7.60284 11.6485 9.47859C11.6485 10.4073 11.2754 11.0995 10.3331 11.5658C11.5392 11.9241 12.11 12.8649 12.11 14.1011C12.11 16.0635 10.5538 17 8.69231 17H4V7H8.55692Z" fill="white"/>
</svg>
