<svg width="679" height="605" viewBox="0 0 679 605" fill="none" xmlns="http://www.w3.org/2000/svg">
<path d="M118.092 444.5L332 74L545.908 444.5H118.092Z" stroke="#979797" stroke-width="2"/>
<path d="M340.68 500.699L335.56 509.566L334.694 509.066L333 512L331.306 509.066L330.44 509.566L325.32 500.698L326.186 500.198L321.067 491.331L320.201 491.831L315.081 482.963L315.947 482.463L310.827 473.596L309.961 474.096L304.841 465.228L305.707 464.728L300.588 455.86L299.722 456.36L294.602 447.493L295.468 446.993L290.348 438.125L289.482 438.625L284.362 429.757L285.228 429.257L280.109 420.39L279.243 420.89L274.123 412.022L274.989 411.522L269.869 402.654L269.003 403.154L263.884 394.287L264.75 393.787L259.63 384.919L258.764 385.419L253.644 376.551L254.51 376.051L249.39 367.184L248.524 367.684L243.405 358.816L244.271 358.316L239.151 349.449L238.285 349.949L233.165 341.081L234.031 340.581L228.911 331.713L228.045 332.213L222.926 323.346L223.792 322.846L218.672 313.978L217.806 314.478L212.686 305.61L213.552 305.11L208.432 296.243L207.566 296.743L202.447 287.875L203.313 287.375L198.193 278.507L197.327 279.007L192.207 270.14L193.073 269.64L187.953 260.772L187.087 261.272L181.968 252.404L182.834 251.904L177.714 243.037L176.848 243.537L171.728 234.669L172.594 234.169L167.475 225.301L166.608 225.801L161.489 216.934L162.355 216.434L160.661 213.5L164.049 213.5L164.049 212.5L174.288 212.5L174.288 213.5L184.528 213.5L184.528 212.5L194.767 212.5L194.767 213.5L205.007 213.5L205.007 212.5L215.246 212.5L215.246 213.5L225.486 213.5L225.486 212.5L235.725 212.5L235.725 213.5L245.964 213.5L245.964 212.5L256.204 212.5L256.204 213.5L266.443 213.5L266.443 212.5L276.683 212.5L276.683 213.5L286.922 213.5L286.922 212.5L297.162 212.5L297.162 213.5L307.401 213.5L307.401 212.5L317.641 212.5L317.641 213.5L327.88 213.5L327.88 212.5L338.12 212.5L338.12 213.5L348.359 213.5L348.359 212.5L358.599 212.5L358.599 213.5L368.838 213.5L368.838 212.5L379.078 212.5L379.078 213.5L389.317 213.5L389.317 212.5L399.557 212.5L399.557 213.5L409.796 213.5L409.796 212.5L420.036 212.5L420.036 213.5L430.275 213.5L430.275 212.5L440.514 212.5L440.514 213.5L450.754 213.5L450.754 212.5L460.993 212.5L460.993 213.5L471.233 213.5L471.233 212.5L481.472 212.5L481.472 213.5L491.712 213.5L491.712 212.5L501.951 212.5L501.951 213.5L505.339 213.5L503.645 216.434L504.511 216.934L499.391 225.802L498.525 225.302L493.406 234.169L494.272 234.669L489.152 243.537L488.286 243.037L483.166 251.904L484.032 252.404L478.912 261.272L478.046 260.772L472.927 269.64L473.793 270.14L468.673 279.007L467.807 278.507L462.687 287.375L463.553 287.875L458.434 296.743L457.568 296.243L452.448 305.11L453.314 305.61L448.194 314.478L447.328 313.978L442.208 322.846L443.074 323.346L437.955 332.213L437.089 331.713L431.969 340.581L432.835 341.081L427.715 349.949L426.849 349.449L421.729 358.316L422.595 358.816L417.476 367.684L416.61 367.184L411.49 376.051L412.356 376.551L407.236 385.419L406.37 384.919L401.25 393.787L402.116 394.287L396.997 403.154L396.131 402.654L391.011 411.522L391.877 412.022L386.757 420.89L385.891 420.39L380.771 429.257L381.638 429.757L376.518 438.625L375.652 438.125L370.532 446.993L371.398 447.493L366.278 456.36L365.412 455.86L360.293 464.728L361.159 465.228L356.039 474.096L355.173 473.596L350.053 482.463L350.919 482.963L345.799 491.831L344.933 491.331L339.814 500.199L340.68 500.699Z" stroke="#979797" stroke-opacity="0.44" stroke-width="2" stroke-dasharray="10 10"/>
<g clip-path="url(#clip0_223_544)">
<rect x="283" y="557" width="89" height="36" rx="4" fill="#F4F4F4"/>
<path d="M302.328 581V569.72H306.232C307.501 569.72 308.573 569.939 309.448 570.376C310.333 570.813 311 571.453 311.448 572.296C311.907 573.128 312.136 574.147 312.136 575.352C312.136 576.547 311.907 577.565 311.448 578.408C311 579.251 310.333 579.896 309.448 580.344C308.573 580.781 307.501 581 306.232 581H302.328ZM303.992 579.608H306.136C307.587 579.608 308.664 579.256 309.368 578.552C310.083 577.848 310.44 576.781 310.44 575.352C310.44 573.923 310.083 572.861 309.368 572.168C308.664 571.464 307.587 571.112 306.136 571.112H303.992V579.608ZM317.975 581.144C316.673 581.144 315.649 580.776 314.903 580.04C314.156 579.304 313.783 578.285 313.783 576.984C313.783 576.141 313.943 575.405 314.263 574.776C314.593 574.147 315.047 573.661 315.623 573.32C316.209 572.968 316.887 572.792 317.655 572.792C318.412 572.792 319.047 572.952 319.559 573.272C320.071 573.592 320.46 574.045 320.727 574.632C320.993 575.208 321.127 575.891 321.127 576.68V577.192H315.047V576.264H320.023L319.751 576.472C319.751 575.672 319.569 575.053 319.207 574.616C318.855 574.168 318.343 573.944 317.671 573.944C316.924 573.944 316.348 574.205 315.943 574.728C315.537 575.24 315.335 575.949 315.335 576.856V577.016C315.335 577.965 315.564 578.68 316.023 579.16C316.492 579.64 317.153 579.88 318.007 579.88C318.476 579.88 318.913 579.816 319.319 579.688C319.735 579.549 320.129 579.325 320.503 579.016L321.031 580.12C320.657 580.451 320.204 580.707 319.671 580.888C319.137 581.059 318.572 581.144 317.975 581.144ZM325.749 581.144C325.077 581.144 324.458 581.059 323.893 580.888C323.328 580.717 322.858 580.477 322.485 580.168L322.981 579.064C323.376 579.363 323.813 579.587 324.293 579.736C324.773 579.885 325.264 579.96 325.765 579.96C326.352 579.96 326.794 579.859 327.093 579.656C327.392 579.443 327.541 579.155 327.541 578.792C327.541 578.515 327.445 578.291 327.253 578.12C327.072 577.949 326.768 577.821 326.341 577.736L324.805 577.432C324.122 577.283 323.605 577.027 323.253 576.664C322.901 576.301 322.725 575.837 322.725 575.272C322.725 574.792 322.853 574.365 323.109 573.992C323.376 573.619 323.749 573.325 324.229 573.112C324.72 572.899 325.29 572.792 325.941 572.792C326.538 572.792 327.093 572.877 327.605 573.048C328.117 573.219 328.544 573.464 328.885 573.784L328.373 574.856C328.042 574.579 327.669 574.365 327.253 574.216C326.837 574.056 326.416 573.976 325.989 573.976C325.392 573.976 324.949 574.088 324.661 574.312C324.373 574.536 324.229 574.829 324.229 575.192C324.229 575.469 324.314 575.699 324.485 575.88C324.666 576.051 324.949 576.184 325.333 576.28L326.869 576.584C327.594 576.733 328.138 576.979 328.501 577.32C328.864 577.661 329.045 578.12 329.045 578.696C329.045 579.197 328.906 579.635 328.629 580.008C328.352 580.381 327.968 580.664 327.477 580.856C326.986 581.048 326.41 581.144 325.749 581.144ZM330.95 581V572.936H332.566V581H330.95ZM330.822 571.256V569.576H332.694V571.256H330.822ZM338.566 584.584C337.841 584.584 337.179 584.499 336.582 584.328C335.995 584.157 335.467 583.901 334.998 583.56L335.398 582.376C335.729 582.6 336.054 582.776 336.374 582.904C336.694 583.043 337.03 583.144 337.382 583.208C337.734 583.272 338.097 583.304 338.47 583.304C339.238 583.304 339.814 583.107 340.198 582.712C340.593 582.328 340.79 581.768 340.79 581.032V578.872H340.95C340.779 579.469 340.427 579.944 339.894 580.296C339.371 580.637 338.763 580.808 338.07 580.808C337.334 580.808 336.694 580.648 336.15 580.328C335.617 579.997 335.201 579.533 334.902 578.936C334.614 578.328 334.47 577.613 334.47 576.792C334.47 575.971 334.614 575.261 334.902 574.664C335.201 574.067 335.617 573.608 336.15 573.288C336.694 572.957 337.334 572.792 338.07 572.792C338.774 572.792 339.382 572.968 339.894 573.32C340.417 573.661 340.763 574.131 340.934 574.728L340.79 574.6L340.934 572.936H342.502C342.459 573.267 342.427 573.597 342.406 573.928C342.385 574.248 342.374 574.563 342.374 574.872V580.84C342.374 582.056 342.049 582.984 341.398 583.624C340.758 584.264 339.814 584.584 338.566 584.584ZM338.454 579.544C339.158 579.544 339.718 579.304 340.134 578.824C340.561 578.344 340.774 577.667 340.774 576.792C340.774 575.917 340.561 575.245 340.134 574.776C339.718 574.307 339.158 574.072 338.454 574.072C337.729 574.072 337.153 574.307 336.726 574.776C336.31 575.245 336.102 575.917 336.102 576.792C336.102 577.667 336.31 578.344 336.726 578.824C337.153 579.304 337.729 579.544 338.454 579.544ZM344.731 581V574.872C344.731 574.563 344.715 574.248 344.683 573.928C344.662 573.597 344.635 573.267 344.603 572.936H346.171L346.315 574.632H346.123C346.368 574.035 346.747 573.581 347.259 573.272C347.771 572.952 348.363 572.792 349.035 572.792C349.984 572.792 350.699 573.053 351.179 573.576C351.67 574.099 351.915 574.909 351.915 576.008V581H350.299V576.104C350.299 575.389 350.155 574.877 349.867 574.568C349.59 574.248 349.163 574.088 348.587 574.088C347.904 574.088 347.36 574.301 346.955 574.728C346.55 575.144 346.347 575.709 346.347 576.424V581H344.731Z" fill="#232334"/>
</g>
<g clip-path="url(#clip1_223_544)">
<rect y="347" width="111" height="36" rx="4" fill="#F4F4F4"/>
<path d="M44.032 371V361.112H40.176V359.72H49.552V361.112H45.696V371H44.032ZM53.4589 371.144C52.1575 371.144 51.1335 370.776 50.3869 370.04C49.6402 369.304 49.2669 368.285 49.2669 366.984C49.2669 366.141 49.4269 365.405 49.7469 364.776C50.0775 364.147 50.5309 363.661 51.1069 363.32C51.6935 362.968 52.3709 362.792 53.1389 362.792C53.8962 362.792 54.5309 362.952 55.0429 363.272C55.5549 363.592 55.9442 364.045 56.2109 364.632C56.4775 365.208 56.6109 365.891 56.6109 366.68V367.192H50.5309V366.264H55.5069L55.2349 366.472C55.2349 365.672 55.0535 365.053 54.6909 364.616C54.3389 364.168 53.8269 363.944 53.1549 363.944C52.4082 363.944 51.8322 364.205 51.4269 364.728C51.0215 365.24 50.8189 365.949 50.8189 366.856V367.016C50.8189 367.965 51.0482 368.68 51.5069 369.16C51.9762 369.64 52.6375 369.88 53.4909 369.88C53.9602 369.88 54.3975 369.816 54.8029 369.688C55.2189 369.549 55.6135 369.325 55.9869 369.016L56.5149 370.12C56.1415 370.451 55.6882 370.707 55.1549 370.888C54.6215 371.059 54.0562 371.144 53.4589 371.144ZM61.2333 371.144C60.5613 371.144 59.9426 371.059 59.3773 370.888C58.8119 370.717 58.3426 370.477 57.9693 370.168L58.4653 369.064C58.8599 369.363 59.2973 369.587 59.7773 369.736C60.2573 369.885 60.7479 369.96 61.2493 369.96C61.8359 369.96 62.2786 369.859 62.5773 369.656C62.8759 369.443 63.0253 369.155 63.0253 368.792C63.0253 368.515 62.9293 368.291 62.7373 368.12C62.5559 367.949 62.2519 367.821 61.8253 367.736L60.2893 367.432C59.6066 367.283 59.0893 367.027 58.7373 366.664C58.3853 366.301 58.2093 365.837 58.2093 365.272C58.2093 364.792 58.3373 364.365 58.5933 363.992C58.8599 363.619 59.2333 363.325 59.7133 363.112C60.2039 362.899 60.7746 362.792 61.4253 362.792C62.0226 362.792 62.5773 362.877 63.0893 363.048C63.6013 363.219 64.0279 363.464 64.3693 363.784L63.8573 364.856C63.5266 364.579 63.1533 364.365 62.7373 364.216C62.3213 364.056 61.8999 363.976 61.4733 363.976C60.8759 363.976 60.4333 364.088 60.1453 364.312C59.8573 364.536 59.7133 364.829 59.7133 365.192C59.7133 365.469 59.7986 365.699 59.9693 365.88C60.1506 366.051 60.4333 366.184 60.8173 366.28L62.3533 366.584C63.0786 366.733 63.6226 366.979 63.9853 367.32C64.3479 367.661 64.5293 368.12 64.5293 368.696C64.5293 369.197 64.3906 369.635 64.1133 370.008C63.8359 370.381 63.4519 370.664 62.9613 370.856C62.4706 371.048 61.8946 371.144 61.2333 371.144ZM69.4919 371.144C68.6172 371.144 67.9559 370.909 67.5079 370.44C67.0599 369.96 66.8359 369.245 66.8359 368.296V364.184H65.2679V362.936H66.8359V360.808L68.4519 360.376V362.936H70.6919V364.184H68.4519V368.152C68.4519 368.749 68.5585 369.176 68.7719 369.432C68.9852 369.688 69.2945 369.816 69.6999 369.816C69.9025 369.816 70.0785 369.8 70.2279 369.768C70.3879 369.725 70.5319 369.677 70.6599 369.624V370.936C70.4999 371 70.3132 371.048 70.0999 371.08C69.8865 371.123 69.6839 371.144 69.4919 371.144Z" fill="#232334"/>
</g>
<g clip-path="url(#clip2_223_544)">
<rect x="239" width="179" height="36" rx="4" fill="#F4F4F4"/>
<path d="M305.328 24V12.72H309.232C310.501 12.72 311.573 12.9387 312.448 13.376C313.333 13.8133 314 14.4533 314.448 15.296C314.907 16.128 315.136 17.1467 315.136 18.352C315.136 19.5467 314.907 20.5653 314.448 21.408C314 22.2507 313.333 22.896 312.448 23.344C311.573 23.7813 310.501 24 309.232 24H305.328ZM306.992 22.608H309.136C310.587 22.608 311.664 22.256 312.368 21.552C313.083 20.848 313.44 19.7813 313.44 18.352C313.44 16.9227 313.083 15.8613 312.368 15.168C311.664 14.464 310.587 14.112 309.136 14.112H306.992V22.608ZM320.975 24.144C319.673 24.144 318.649 23.776 317.903 23.04C317.156 22.304 316.783 21.2853 316.783 19.984C316.783 19.1413 316.943 18.4053 317.263 17.776C317.593 17.1467 318.047 16.6613 318.623 16.32C319.209 15.968 319.887 15.792 320.655 15.792C321.412 15.792 322.047 15.952 322.559 16.272C323.071 16.592 323.46 17.0453 323.727 17.632C323.993 18.208 324.127 18.8907 324.127 19.68V20.192H318.047V19.264H323.023L322.751 19.472C322.751 18.672 322.569 18.0533 322.207 17.616C321.855 17.168 321.343 16.944 320.671 16.944C319.924 16.944 319.348 17.2053 318.943 17.728C318.537 18.24 318.335 18.9493 318.335 19.856V20.016C318.335 20.9653 318.564 21.68 319.023 22.16C319.492 22.64 320.153 22.88 321.007 22.88C321.476 22.88 321.913 22.816 322.319 22.688C322.735 22.5493 323.129 22.3253 323.503 22.016L324.031 23.12C323.657 23.4507 323.204 23.7067 322.671 23.888C322.137 24.0587 321.572 24.144 320.975 24.144ZM326.445 24V17.184H324.877V15.936H326.893L326.445 16.352V15.072C326.445 14.1227 326.68 13.4027 327.149 12.912C327.629 12.4107 328.323 12.16 329.229 12.16C329.443 12.16 329.672 12.176 329.917 12.208C330.163 12.24 330.371 12.2933 330.541 12.368V13.68C330.413 13.6267 330.253 13.584 330.061 13.552C329.869 13.5093 329.683 13.488 329.501 13.488C329.032 13.488 328.669 13.6267 328.413 13.904C328.168 14.1707 328.045 14.592 328.045 15.168V16.256L327.805 15.936H333.165V24H331.549V17.184H328.061V24H326.445ZM331.421 14.256V12.576H333.293V14.256H331.421ZM335.528 24V17.872C335.528 17.5627 335.512 17.248 335.48 16.928C335.458 16.5973 335.432 16.2667 335.4 15.936H336.968L337.112 17.632H336.92C337.165 17.0347 337.544 16.5813 338.056 16.272C338.568 15.952 339.16 15.792 339.832 15.792C340.781 15.792 341.496 16.0533 341.976 16.576C342.466 17.0987 342.712 17.9093 342.712 19.008V24H341.096V19.104C341.096 18.3893 340.952 17.8773 340.664 17.568C340.386 17.248 339.96 17.088 339.384 17.088C338.701 17.088 338.157 17.3013 337.752 17.728C337.346 18.144 337.144 18.7093 337.144 19.424V24H335.528ZM348.74 24.144C347.439 24.144 346.415 23.776 345.668 23.04C344.921 22.304 344.548 21.2853 344.548 19.984C344.548 19.1413 344.708 18.4053 345.028 17.776C345.359 17.1467 345.812 16.6613 346.388 16.32C346.975 15.968 347.652 15.792 348.42 15.792C349.177 15.792 349.812 15.952 350.324 16.272C350.836 16.592 351.225 17.0453 351.492 17.632C351.759 18.208 351.892 18.8907 351.892 19.68V20.192H345.812V19.264H350.788L350.516 19.472C350.516 18.672 350.335 18.0533 349.972 17.616C349.62 17.168 349.108 16.944 348.436 16.944C347.689 16.944 347.113 17.2053 346.708 17.728C346.303 18.24 346.1 18.9493 346.1 19.856V20.016C346.1 20.9653 346.329 21.68 346.788 22.16C347.257 22.64 347.919 22.88 348.772 22.88C349.241 22.88 349.679 22.816 350.084 22.688C350.5 22.5493 350.895 22.3253 351.268 22.016L351.796 23.12C351.423 23.4507 350.969 23.7067 350.436 23.888C349.903 24.0587 349.337 24.144 348.74 24.144Z" fill="#232334"/>
</g>
<g clip-path="url(#clip3_223_544)">
<rect x="540" y="347" width="126" height="36" rx="4" fill="#F4F4F4"/>
<path d="M573.16 371L578.184 359.72H579.608L584.712 371H583L581.608 367.8L582.312 368.248H575.48L576.232 367.8L574.84 371H573.16ZM578.872 361.544L576.44 367.288L576.056 366.92H581.736L581.416 367.288L578.936 361.544H578.872ZM586.059 371V364.872C586.059 364.563 586.043 364.248 586.011 363.928C585.99 363.597 585.963 363.267 585.931 362.936H587.499L587.643 364.632H587.451C587.696 364.035 588.075 363.581 588.587 363.272C589.099 362.952 589.691 362.792 590.363 362.792C591.312 362.792 592.027 363.053 592.507 363.576C592.998 364.099 593.243 364.909 593.243 366.008V371H591.627V366.104C591.627 365.389 591.483 364.877 591.195 364.568C590.918 364.248 590.491 364.088 589.915 364.088C589.232 364.088 588.688 364.301 588.283 364.728C587.878 365.144 587.675 365.709 587.675 366.424V371H586.059ZM598.631 371.144C597.917 371.144 597.293 370.979 596.759 370.648C596.226 370.317 595.81 369.837 595.511 369.208C595.223 368.579 595.079 367.832 595.079 366.968C595.079 366.093 595.223 365.347 595.511 364.728C595.81 364.109 596.226 363.635 596.759 363.304C597.293 362.963 597.917 362.792 598.631 362.792C599.335 362.792 599.949 362.968 600.471 363.32C600.994 363.672 601.341 364.152 601.511 364.76H601.335L601.495 362.936H603.063C603.031 363.267 602.999 363.597 602.967 363.928C602.946 364.248 602.935 364.563 602.935 364.872V371H601.319V369.208H601.495C601.325 369.805 600.973 370.28 600.439 370.632C599.917 370.973 599.314 371.144 598.631 371.144ZM599.031 369.88C599.725 369.88 600.279 369.635 600.695 369.144C601.122 368.653 601.335 367.928 601.335 366.968C601.335 366.008 601.122 365.288 600.695 364.808C600.279 364.317 599.725 364.072 599.031 364.072C598.327 364.072 597.762 364.317 597.335 364.808C596.919 365.288 596.711 366.008 596.711 366.968C596.711 367.928 596.919 368.653 597.335 369.144C597.751 369.635 598.317 369.88 599.031 369.88ZM605.293 371V359.224H606.909V371H605.293ZM609.038 374.632L608.654 373.32C609.155 373.213 609.571 373.085 609.902 372.936C610.243 372.787 610.526 372.589 610.75 372.344C610.974 372.109 611.166 371.805 611.326 371.432L611.726 370.488L611.694 371.144L608.19 362.936H609.918L612.638 369.656H612.206L614.926 362.936H616.59L612.894 371.576C612.659 372.109 612.408 372.557 612.142 372.92C611.875 373.283 611.587 373.576 611.278 373.8C610.968 374.024 610.627 374.2 610.254 374.328C609.88 374.456 609.475 374.557 609.038 374.632ZM617.347 371V369.928L622.595 363.784L622.611 364.184H617.347V362.936H624.083V364.008L618.787 370.2L618.771 369.768H624.259V371H617.347ZM629.678 371.144C628.376 371.144 627.352 370.776 626.606 370.04C625.859 369.304 625.486 368.285 625.486 366.984C625.486 366.141 625.646 365.405 625.966 364.776C626.296 364.147 626.75 363.661 627.326 363.32C627.912 362.968 628.59 362.792 629.358 362.792C630.115 362.792 630.75 362.952 631.262 363.272C631.774 363.592 632.163 364.045 632.43 364.632C632.696 365.208 632.83 365.891 632.83 366.68V367.192H626.75V366.264H631.726L631.454 366.472C631.454 365.672 631.272 365.053 630.91 364.616C630.558 364.168 630.046 363.944 629.374 363.944C628.627 363.944 628.051 364.205 627.646 364.728C627.24 365.24 627.038 365.949 627.038 366.856V367.016C627.038 367.965 627.267 368.68 627.726 369.16C628.195 369.64 628.856 369.88 629.71 369.88C630.179 369.88 630.616 369.816 631.022 369.688C631.438 369.549 631.832 369.325 632.206 369.016L632.734 370.12C632.36 370.451 631.907 370.707 631.374 370.888C630.84 371.059 630.275 371.144 629.678 371.144Z" fill="#232334"/>
</g>
<g clip-path="url(#clip4_223_544)">
<rect x="493" y="137" width="186" height="36" rx="4" fill="#F4F4F4"/>
<path d="M552.328 161V149.72H557.096C558.301 149.72 559.235 150.008 559.896 150.584C560.557 151.149 560.888 151.944 560.888 152.968C560.888 153.64 560.739 154.216 560.44 154.696C560.141 155.176 559.72 155.544 559.176 155.8C558.632 156.045 557.992 156.168 557.256 156.168L557.512 155.912H557.944C558.381 155.912 558.771 156.024 559.112 156.248C559.464 156.472 559.752 156.829 559.976 157.32L561.592 161H559.768L558.168 157.304C558.008 156.867 557.757 156.584 557.416 156.456C557.085 156.328 556.675 156.264 556.184 156.264H553.992V161H552.328ZM553.992 155H556.824C557.624 155 558.227 154.829 558.632 154.488C559.048 154.147 559.256 153.656 559.256 153.016C559.256 152.365 559.048 151.875 558.632 151.544C558.227 151.213 557.624 151.048 556.824 151.048H553.992V155ZM566.881 161.144C565.579 161.144 564.555 160.776 563.809 160.04C563.062 159.304 562.689 158.285 562.689 156.984C562.689 156.141 562.849 155.405 563.169 154.776C563.499 154.147 563.953 153.661 564.529 153.32C565.115 152.968 565.793 152.792 566.561 152.792C567.318 152.792 567.953 152.952 568.465 153.272C568.977 153.592 569.366 154.045 569.633 154.632C569.899 155.208 570.033 155.891 570.033 156.68V157.192H563.953V156.264H568.929L568.657 156.472C568.657 155.672 568.475 155.053 568.113 154.616C567.761 154.168 567.249 153.944 566.577 153.944C565.83 153.944 565.254 154.205 564.849 154.728C564.443 155.24 564.241 155.949 564.241 156.856V157.016C564.241 157.965 564.47 158.68 564.929 159.16C565.398 159.64 566.059 159.88 566.913 159.88C567.382 159.88 567.819 159.816 568.225 159.688C568.641 159.549 569.035 159.325 569.409 159.016L569.937 160.12C569.563 160.451 569.11 160.707 568.577 160.888C568.043 161.059 567.478 161.144 566.881 161.144ZM574.655 161.144C573.983 161.144 573.364 161.059 572.799 160.888C572.234 160.717 571.764 160.477 571.391 160.168L571.887 159.064C572.282 159.363 572.719 159.587 573.199 159.736C573.679 159.885 574.17 159.96 574.671 159.96C575.258 159.96 575.7 159.859 575.999 159.656C576.298 159.443 576.447 159.155 576.447 158.792C576.447 158.515 576.351 158.291 576.159 158.12C575.978 157.949 575.674 157.821 575.247 157.736L573.711 157.432C573.028 157.283 572.511 157.027 572.159 156.664C571.807 156.301 571.631 155.837 571.631 155.272C571.631 154.792 571.759 154.365 572.015 153.992C572.282 153.619 572.655 153.325 573.135 153.112C573.626 152.899 574.196 152.792 574.847 152.792C575.444 152.792 575.999 152.877 576.511 153.048C577.023 153.219 577.45 153.464 577.791 153.784L577.279 154.856C576.948 154.579 576.575 154.365 576.159 154.216C575.743 154.056 575.322 153.976 574.895 153.976C574.298 153.976 573.855 154.088 573.567 154.312C573.279 154.536 573.135 154.829 573.135 155.192C573.135 155.469 573.22 155.699 573.391 155.88C573.572 156.051 573.855 156.184 574.239 156.28L575.775 156.584C576.5 156.733 577.044 156.979 577.407 157.32C577.77 157.661 577.951 158.12 577.951 158.696C577.951 159.197 577.812 159.635 577.535 160.008C577.258 160.381 576.874 160.664 576.383 160.856C575.892 161.048 575.316 161.144 574.655 161.144ZM583.584 161.144C582.283 161.144 581.259 160.776 580.512 160.04C579.765 159.304 579.392 158.285 579.392 156.984C579.392 156.141 579.552 155.405 579.872 154.776C580.203 154.147 580.656 153.661 581.232 153.32C581.819 152.968 582.496 152.792 583.264 152.792C584.021 152.792 584.656 152.952 585.168 153.272C585.68 153.592 586.069 154.045 586.336 154.632C586.603 155.208 586.736 155.891 586.736 156.68V157.192H580.656V156.264H585.632L585.36 156.472C585.36 155.672 585.179 155.053 584.816 154.616C584.464 154.168 583.952 153.944 583.28 153.944C582.533 153.944 581.957 154.205 581.552 154.728C581.147 155.24 580.944 155.949 580.944 156.856V157.016C580.944 157.965 581.173 158.68 581.632 159.16C582.101 159.64 582.763 159.88 583.616 159.88C584.085 159.88 584.523 159.816 584.928 159.688C585.344 159.549 585.739 159.325 586.112 159.016L586.64 160.12C586.267 160.451 585.813 160.707 585.28 160.888C584.747 161.059 584.181 161.144 583.584 161.144ZM591.678 161.144C590.964 161.144 590.34 160.979 589.806 160.648C589.273 160.317 588.857 159.837 588.558 159.208C588.27 158.579 588.126 157.832 588.126 156.968C588.126 156.093 588.27 155.347 588.558 154.728C588.857 154.109 589.273 153.635 589.806 153.304C590.34 152.963 590.964 152.792 591.678 152.792C592.382 152.792 592.996 152.968 593.518 153.32C594.041 153.672 594.388 154.152 594.558 154.76H594.382L594.542 152.936H596.11C596.078 153.267 596.046 153.597 596.014 153.928C595.993 154.248 595.982 154.563 595.982 154.872V161H594.366V159.208H594.542C594.372 159.805 594.02 160.28 593.486 160.632C592.964 160.973 592.361 161.144 591.678 161.144ZM592.078 159.88C592.772 159.88 593.326 159.635 593.742 159.144C594.169 158.653 594.382 157.928 594.382 156.968C594.382 156.008 594.169 155.288 593.742 154.808C593.326 154.317 592.772 154.072 592.078 154.072C591.374 154.072 590.809 154.317 590.382 154.808C589.966 155.288 589.758 156.008 589.758 156.968C589.758 157.928 589.966 158.653 590.382 159.144C590.798 159.635 591.364 159.88 592.078 159.88ZM598.308 161V154.936C598.308 154.605 598.298 154.275 598.276 153.944C598.266 153.603 598.244 153.267 598.212 152.936H599.78L599.956 155.016H599.7C599.807 154.515 599.988 154.099 600.244 153.768C600.5 153.437 600.81 153.192 601.172 153.032C601.546 152.872 601.935 152.792 602.34 152.792C602.511 152.792 602.655 152.803 602.772 152.824C602.89 152.835 603.007 152.856 603.124 152.888L603.108 154.328C602.927 154.253 602.767 154.211 602.628 154.2C602.5 154.179 602.34 154.168 602.148 154.168C601.679 154.168 601.279 154.275 600.948 154.488C600.618 154.691 600.367 154.968 600.196 155.32C600.026 155.672 599.94 156.051 599.94 156.456V161H598.308ZM607.798 161.144C606.987 161.144 606.278 160.979 605.67 160.648C605.073 160.307 604.609 159.821 604.278 159.192C603.958 158.552 603.798 157.795 603.798 156.92C603.798 156.056 603.963 155.315 604.294 154.696C604.625 154.077 605.089 153.608 605.686 153.288C606.283 152.957 606.987 152.792 607.798 152.792C608.321 152.792 608.827 152.883 609.318 153.064C609.809 153.235 610.214 153.48 610.534 153.8L610.006 154.936C609.707 154.648 609.371 154.435 608.998 154.296C608.625 154.147 608.262 154.072 607.91 154.072C607.142 154.072 606.539 154.317 606.102 154.808C605.665 155.299 605.446 156.008 605.446 156.936C605.446 157.875 605.665 158.595 606.102 159.096C606.539 159.597 607.142 159.848 607.91 159.848C608.251 159.848 608.609 159.784 608.982 159.656C609.355 159.517 609.697 159.299 610.006 159L610.534 160.136C610.203 160.456 609.787 160.707 609.286 160.888C608.795 161.059 608.299 161.144 607.798 161.144ZM612.247 161V149.224H613.863V154.648H613.639C613.873 154.04 614.252 153.581 614.775 153.272C615.297 152.952 615.9 152.792 616.583 152.792C617.543 152.792 618.257 153.059 618.727 153.592C619.196 154.115 619.431 154.909 619.431 155.976V161H617.815V156.072C617.815 155.379 617.676 154.877 617.399 154.568C617.132 154.248 616.705 154.088 616.119 154.088C615.436 154.088 614.887 154.301 614.471 154.728C614.065 155.144 613.863 155.699 613.863 156.392V161H612.247Z" fill="#232334"/>
</g>
<g clip-path="url(#clip5_223_544)">
<rect y="137" width="159" height="36" rx="4" fill="#F4F4F4"/>
<path d="M56.328 161V149.72H57.992V161H56.328ZM63.6325 161.144C62.7578 161.144 62.0965 160.909 61.6485 160.44C61.2005 159.96 60.9765 159.245 60.9765 158.296V154.184H59.4085V152.936H60.9765V150.808L62.5925 150.376V152.936H64.8325V154.184H62.5925V158.152C62.5925 158.749 62.6992 159.176 62.9125 159.432C63.1258 159.688 63.4352 159.816 63.8405 159.816C64.0432 159.816 64.2192 159.8 64.3685 159.768C64.5285 159.725 64.6725 159.677 64.8005 159.624V160.936C64.6405 161 64.4538 161.048 64.2405 161.08C64.0272 161.123 63.8245 161.144 63.6325 161.144ZM69.9589 161.144C68.6575 161.144 67.6335 160.776 66.8869 160.04C66.1402 159.304 65.7669 158.285 65.7669 156.984C65.7669 156.141 65.9269 155.405 66.2469 154.776C66.5775 154.147 67.0309 153.661 67.6069 153.32C68.1935 152.968 68.8709 152.792 69.6389 152.792C70.3962 152.792 71.0309 152.952 71.5429 153.272C72.0549 153.592 72.4442 154.045 72.7109 154.632C72.9775 155.208 73.1109 155.891 73.1109 156.68V157.192H67.0309V156.264H72.0069L71.7349 156.472C71.7349 155.672 71.5535 155.053 71.1909 154.616C70.8389 154.168 70.3269 153.944 69.6549 153.944C68.9082 153.944 68.3322 154.205 67.9269 154.728C67.5215 155.24 67.3189 155.949 67.3189 156.856V157.016C67.3189 157.965 67.5482 158.68 68.0069 159.16C68.4762 159.64 69.1375 159.88 69.9909 159.88C70.4602 159.88 70.8975 159.816 71.3029 159.688C71.7189 159.549 72.1135 159.325 72.4869 159.016L73.0149 160.12C72.6415 160.451 72.1882 160.707 71.6549 160.888C71.1215 161.059 70.5562 161.144 69.9589 161.144ZM74.9333 161V154.936C74.9333 154.605 74.9226 154.275 74.9013 153.944C74.8906 153.603 74.8693 153.267 74.8372 152.936H76.4053L76.5813 155.016H76.3253C76.4319 154.515 76.6133 154.099 76.8693 153.768C77.1253 153.437 77.4346 153.192 77.7973 153.032C78.1706 152.872 78.5599 152.792 78.9653 152.792C79.1359 152.792 79.2799 152.803 79.3973 152.824C79.5146 152.835 79.6319 152.856 79.7493 152.888L79.7333 154.328C79.5519 154.253 79.3919 154.211 79.2533 154.2C79.1253 154.179 78.9653 154.168 78.7733 154.168C78.3039 154.168 77.9039 154.275 77.5733 154.488C77.2426 154.691 76.9919 154.968 76.8213 155.32C76.6506 155.672 76.5653 156.051 76.5653 156.456V161H74.9333ZM84.0064 161.144C83.2917 161.144 82.6677 160.979 82.1344 160.648C81.601 160.317 81.185 159.837 80.8864 159.208C80.5984 158.579 80.4544 157.832 80.4544 156.968C80.4544 156.093 80.5984 155.347 80.8864 154.728C81.185 154.109 81.601 153.635 82.1344 153.304C82.6677 152.963 83.2917 152.792 84.0064 152.792C84.7104 152.792 85.3237 152.968 85.8464 153.32C86.369 153.672 86.7157 154.152 86.8864 154.76H86.7104L86.8704 152.936H88.4384C88.4064 153.267 88.3744 153.597 88.3424 153.928C88.321 154.248 88.3104 154.563 88.3104 154.872V161H86.6944V159.208H86.8704C86.6997 159.805 86.3477 160.28 85.8144 160.632C85.2917 160.973 84.689 161.144 84.0064 161.144ZM84.4064 159.88C85.0997 159.88 85.6544 159.635 86.0704 159.144C86.497 158.653 86.7104 157.928 86.7104 156.968C86.7104 156.008 86.497 155.288 86.0704 154.808C85.6544 154.317 85.0997 154.072 84.4064 154.072C83.7024 154.072 83.137 154.317 82.7104 154.808C82.2944 155.288 82.0864 156.008 82.0864 156.968C82.0864 157.928 82.2944 158.653 82.7104 159.144C83.1264 159.635 83.6917 159.88 84.4064 159.88ZM93.8044 161.144C92.9297 161.144 92.2684 160.909 91.8204 160.44C91.3724 159.96 91.1484 159.245 91.1484 158.296V154.184H89.5804V152.936H91.1484V150.808L92.7644 150.376V152.936H95.0044V154.184H92.7644V158.152C92.7644 158.749 92.871 159.176 93.0844 159.432C93.2977 159.688 93.607 159.816 94.0124 159.816C94.215 159.816 94.391 159.8 94.5404 159.768C94.7004 159.725 94.8444 159.677 94.9724 159.624V160.936C94.8124 161 94.6257 161.048 94.4124 161.08C94.199 161.123 93.9964 161.144 93.8044 161.144ZM100.131 161.144C98.8294 161.144 97.8054 160.776 97.0588 160.04C96.3121 159.304 95.9388 158.285 95.9388 156.984C95.9388 156.141 96.0988 155.405 96.4188 154.776C96.7494 154.147 97.2028 153.661 97.7788 153.32C98.3654 152.968 99.0428 152.792 99.8108 152.792C100.568 152.792 101.203 152.952 101.715 153.272C102.227 153.592 102.616 154.045 102.883 154.632C103.149 155.208 103.283 155.891 103.283 156.68V157.192H97.2028V156.264H102.179L101.907 156.472C101.907 155.672 101.725 155.053 101.363 154.616C101.011 154.168 100.499 153.944 99.8268 153.944C99.0801 153.944 98.5041 154.205 98.0988 154.728C97.6934 155.24 97.4908 155.949 97.4908 156.856V157.016C97.4908 157.965 97.7201 158.68 98.1788 159.16C98.6481 159.64 99.3094 159.88 100.163 159.88C100.632 159.88 101.069 159.816 101.475 159.688C101.891 159.549 102.285 159.325 102.659 159.016L103.187 160.12C102.813 160.451 102.36 160.707 101.827 160.888C101.293 161.059 100.728 161.144 100.131 161.144Z" fill="#232334"/>
</g>
<path opacity="0.7" d="M71 411L69.8386 416.655L75.3171 414.834L71 411ZM72.9874 418.192C73.571 419.743 74.1774 421.282 74.8058 422.809L75.7306 422.429C75.106 420.911 74.5033 419.381 73.9233 417.84L72.9874 418.192ZM76.7636 427.374C77.4388 428.886 78.1354 430.386 78.8525 431.874L79.7534 431.44C79.0404 429.96 78.3479 428.469 77.6767 426.966L76.7636 427.374ZM81.071 436.317C81.8312 437.788 82.6112 439.246 83.4102 440.693L84.2855 440.209C83.491 438.77 82.7152 437.32 81.9593 435.858L81.071 436.317ZM85.8686 445.006C86.707 446.433 87.5636 447.848 88.4374 449.251L89.2862 448.722C88.4169 447.326 87.5648 445.919 86.7308 444.5L85.8686 445.006ZM91.1151 453.431C92.0249 454.813 92.9511 456.183 93.8929 457.541L94.7146 456.971C93.7773 455.62 92.8556 454.256 91.9504 452.881L91.1151 453.431ZM96.7701 461.586C97.7446 462.923 98.7339 464.247 99.7371 465.56L100.532 464.953C99.5329 463.646 98.5481 462.327 97.5781 460.997L96.7701 461.586ZM102.795 469.47C103.828 470.762 104.874 472.042 105.933 473.309L106.7 472.668C105.646 471.406 104.605 470.132 103.576 468.846L102.795 469.47ZM109.154 477.086C110.24 478.334 111.338 479.569 112.446 480.791L113.187 480.12C112.083 478.902 110.99 477.672 109.909 476.43L109.154 477.086ZM115.815 484.439C116.949 485.643 118.092 486.834 119.245 488.013L119.96 487.314C118.812 486.139 117.673 484.952 116.543 483.753L115.815 484.439ZM122.748 491.534C123.925 492.696 125.11 493.844 126.302 494.981L126.992 494.257C125.804 493.125 124.624 491.98 123.451 490.822L122.748 491.534ZM129.927 498.379C131.143 499.5 132.365 500.608 133.593 501.703L134.259 500.957C133.035 499.865 131.817 498.761 130.605 497.644L129.927 498.379ZM137.328 504.982C138.58 506.064 139.836 507.132 141.096 508.188L141.738 507.421C140.482 506.369 139.23 505.304 137.982 504.226L137.328 504.982ZM144.931 511.352C146.216 512.396 147.503 513.426 148.792 514.443L149.411 513.658C148.126 512.644 146.842 511.617 145.561 510.576L144.931 511.352ZM152.716 517.494C154.032 518.503 155.348 519.497 156.664 520.477L157.261 519.676C155.949 518.698 154.636 517.707 153.324 516.701L152.716 517.494ZM160.667 523.418C162.012 524.393 163.356 525.353 164.697 526.298L165.273 525.481C163.936 524.538 162.596 523.581 161.253 522.608L160.667 523.418ZM168.768 529.128C170.143 530.071 171.514 530.999 172.879 531.911L173.434 531.079C172.073 530.17 170.705 529.244 169.333 528.303L168.768 529.128ZM177.003 534.629C178.409 535.543 179.806 536.44 181.195 537.319L181.73 536.475C180.345 535.597 178.95 534.702 177.548 533.79L177.003 534.629ZM185.372 539.932C186.803 540.815 188.223 541.68 189.628 542.525L190.144 541.668C188.741 540.825 187.325 539.962 185.897 539.081L185.372 539.932ZM193.89 545.055C195.33 545.899 196.753 546.722 198.158 547.524L198.654 546.655C197.252 545.855 195.832 545.034 194.396 544.192L193.89 545.055ZM202.507 549.975C203.979 550.793 205.426 551.587 206.847 552.356L207.323 551.477C205.905 550.709 204.461 549.917 202.993 549.101L202.507 549.975ZM211.18 554.672C212.695 555.471 214.175 556.24 215.615 556.979L216.071 556.089C214.634 555.352 213.158 554.585 211.647 553.788L211.18 554.672ZM220.054 559.224C221.595 559.992 223.081 560.72 224.506 561.41L224.942 560.51C223.52 559.822 222.038 559.095 220.501 558.329L220.054 559.224ZM228.982 563.542C230.591 564.296 232.098 564.989 233.492 565.62L233.905 564.709C232.514 564.08 231.012 563.389 229.407 562.637L228.982 563.542ZM238.007 567.625C239.918 568.456 241.465 569.105 242.598 569.572L242.979 568.647C241.851 568.183 240.31 567.536 238.406 566.708L238.007 567.625Z" fill="#30855C"/>
<path opacity="0.7" d="M408.738 569.711L414.318 571.191L412.81 565.618L408.738 569.711ZM416.152 568.118C417.762 567.625 419.363 567.111 420.955 566.578L420.637 565.63C419.053 566.16 417.46 566.671 415.859 567.162L416.152 568.118ZM425.722 564.915C427.303 564.34 428.876 563.747 430.44 563.135L430.076 562.204C428.519 562.813 426.954 563.403 425.38 563.975L425.722 564.915ZM435.119 561.24C436.671 560.59 438.213 559.922 439.746 559.238L439.338 558.325C437.812 559.006 436.277 559.671 434.733 560.318L435.119 561.24ZM444.332 557.126C445.852 556.406 447.362 555.669 448.863 554.917L448.414 554.023C446.92 554.772 445.417 555.506 443.904 556.223L444.332 557.126ZM453.352 552.605C454.838 551.82 456.315 551.019 457.782 550.204L457.297 549.33C455.836 550.141 454.365 550.939 452.884 551.721L453.352 552.605ZM462.171 547.708C463.625 546.862 465.068 546.002 466.501 545.13L465.981 544.275C464.553 545.144 463.116 546.001 461.668 546.843L462.171 547.708ZM470.788 542.463C472.208 541.561 473.617 540.647 475.016 539.722L474.464 538.888C473.07 539.81 471.666 540.72 470.252 541.619L470.788 542.463ZM479.201 536.899C480.587 535.946 481.963 534.982 483.327 534.008L482.746 533.194C481.386 534.165 480.016 535.125 478.634 536.075L479.201 536.899ZM487.411 531.041C488.764 530.04 490.106 529.031 491.437 528.013L490.829 527.218C489.503 528.233 488.165 529.24 486.817 530.237L487.411 531.041ZM495.421 524.913C496.741 523.868 498.05 522.816 499.347 521.758L498.714 520.983C497.421 522.039 496.117 523.087 494.8 524.128L495.421 524.913ZM503.233 518.535C504.521 517.451 505.797 516.36 507.06 515.264L506.405 514.508C505.145 515.601 503.873 516.689 502.589 517.77L503.233 518.535ZM510.851 511.928C512.107 510.806 513.351 509.68 514.582 508.55L513.905 507.813C512.678 508.94 511.438 510.063 510.185 511.182L510.851 511.928ZM518.279 505.108C519.504 503.952 520.716 502.793 521.914 501.633L521.218 500.914C520.023 502.072 518.814 503.228 517.593 504.381L518.279 505.108ZM525.521 498.091C526.715 496.904 527.895 495.716 529.06 494.528L528.346 493.828C527.183 495.013 526.007 496.198 524.816 497.382L525.521 498.091ZM532.581 490.891C533.744 489.676 534.891 488.461 536.023 487.249L535.292 486.567C534.163 487.776 533.018 488.988 531.859 490.2L532.581 490.891ZM539.462 483.522C540.599 482.274 541.719 481.03 542.823 479.791L542.076 479.126C540.975 480.362 539.857 481.603 538.723 482.848L539.462 483.522ZM546.164 475.996C547.278 474.715 548.373 473.441 549.45 472.175L548.688 471.527C547.614 472.791 546.521 474.062 545.409 475.339L546.164 475.996ZM552.685 468.328C553.778 467.013 554.85 465.709 555.901 464.416L555.125 463.785C554.077 465.075 553.007 466.377 551.916 467.689L552.685 468.328ZM559.041 460.511C560.108 459.17 561.15 457.843 562.169 456.533L561.379 455.919C560.363 457.226 559.322 458.55 558.258 459.889L559.041 460.511ZM565.248 452.528C566.28 451.172 567.283 449.837 568.258 448.525L567.455 447.929C566.482 449.237 565.481 450.569 564.452 451.922L565.248 452.528ZM571.25 444.455C572.271 443.051 573.256 441.678 574.206 440.341L573.391 439.762C572.443 441.096 571.46 442.466 570.441 443.867L571.25 444.455ZM577.103 436.213C578.099 434.776 579.047 433.391 579.948 432.06L579.119 431.5C578.221 432.827 577.275 434.21 576.281 435.643L577.103 436.213ZM582.746 427.87C583.742 426.359 584.661 424.942 585.501 423.631L584.659 423.091C583.821 424.399 582.905 425.812 581.911 427.32L582.746 427.87ZM588.19 419.367C589.305 417.568 590.183 416.111 590.818 415.041L589.958 414.53C589.326 415.595 588.451 417.047 587.34 418.84L588.19 419.367Z" fill="#30855C"/>
<path opacity="0.7" d="M44 327C44.4984 326.961 44.4984 326.961 44.4984 326.961C44.4984 326.961 44.4984 326.961 44.4984 326.961C44.4984 326.961 44.4984 326.961 44.4984 326.961C44.4984 326.961 44.4984 326.96 44.4984 326.96C44.4984 326.96 44.4983 326.959 44.4983 326.959C44.4982 326.957 44.498 326.955 44.4977 326.951C44.4972 326.945 44.4965 326.936 44.4955 326.923C44.4936 326.897 44.4907 326.859 44.4869 326.807C44.4793 326.704 44.4683 326.551 44.4546 326.348C44.427 325.942 44.3884 325.338 44.3442 324.549L43.3458 324.605C43.3902 325.398 43.429 326.005 43.4569 326.415C43.4708 326.62 43.4819 326.776 43.4896 326.88C43.4934 326.933 43.4964 326.972 43.4984 326.999C43.4994 327.012 43.5002 327.022 43.5007 327.029C43.501 327.032 43.5012 327.035 43.5013 327.037C43.5014 327.037 43.5015 327.038 43.5015 327.039C43.5015 327.039 43.5015 327.039 43.5015 327.039C43.5015 327.039 43.5015 327.039 43.5015 327.039C43.5015 327.039 43.5015 327.039 43.5015 327.039C43.5015 327.039 43.5016 327.039 44 327ZM44.1186 319.575C44.0664 318.126 44.0178 316.482 43.9798 314.659L42.9801 314.68C43.0181 316.508 43.0669 318.157 43.1192 319.611L44.1186 319.575ZM43.9114 309.728C43.9002 308.169 43.8981 306.518 43.908 304.784L42.908 304.779C42.8981 306.517 42.9002 308.172 42.9114 309.736L43.9114 309.728ZM43.9672 299.823C43.9961 298.231 44.0354 296.583 44.0869 294.884L43.0873 294.853C43.0357 296.557 42.9963 298.209 42.9674 299.805L43.9672 299.823ZM44.266 289.952C44.334 288.345 44.4131 286.699 44.5046 285.018L43.5061 284.964C43.4144 286.649 43.3351 288.299 43.2669 289.91L44.266 289.952ZM44.8029 280.084C44.9105 278.468 45.0297 276.823 45.1614 275.152L44.1645 275.074C44.0324 276.748 43.913 278.397 43.8051 280.018L44.8029 280.084ZM45.5809 270.223C45.7287 268.606 45.8886 266.967 46.0612 265.309L45.0666 265.206C44.8935 266.868 44.7333 268.511 44.5851 270.132L45.5809 270.223ZM46.6038 260.405C46.7935 258.787 46.9955 257.153 47.2107 255.506L46.2192 255.376C46.0034 257.028 45.8008 258.666 45.6106 260.289L46.6038 260.405ZM47.8836 250.611C48.1173 248.993 48.3639 247.364 48.6242 245.724L47.6365 245.567C47.3755 247.212 47.1282 248.846 46.8939 250.468L47.8836 250.611ZM49.4343 240.845C49.7141 239.232 50.0075 237.611 50.3148 235.982L49.3322 235.797C49.0239 237.43 48.7297 239.056 48.449 240.674L49.4343 240.845ZM51.2671 231.141C51.5957 229.536 51.9383 227.925 52.2955 226.311L51.3191 226.095C50.9607 227.715 50.617 229.33 50.2874 230.941L51.2671 231.141ZM53.4024 221.495C53.7834 219.898 54.1792 218.298 54.5902 216.697L53.6216 216.449C53.2091 218.055 52.812 219.661 52.4297 221.263L53.4024 221.495ZM55.8595 211.927C56.2957 210.345 56.7473 208.762 57.2148 207.18L56.2559 206.897C55.7866 208.485 55.3333 210.073 54.8954 211.661L55.8595 211.927ZM58.6598 202.458C59.156 200.891 59.6683 199.326 60.1972 197.764L59.2501 197.444C58.7189 199.012 58.2046 200.583 57.7064 202.156L58.6598 202.458ZM61.8294 193.106C62.3891 191.56 62.9659 190.019 63.5601 188.484L62.6275 188.123C62.0306 189.665 61.4513 191.213 60.8891 192.765L61.8294 193.106Z" fill="#30855C"/>
<path opacity="0.7" d="M614 326L617.406 321.338L611.665 320.72L614 326ZM615.225 318.618C615.364 316.954 615.485 315.299 615.591 313.653L614.593 313.589C614.488 315.228 614.367 316.877 614.229 318.535L615.225 318.618ZM615.862 308.675C615.937 307.005 615.996 305.346 616.04 303.699L615.04 303.673C614.997 305.314 614.938 306.967 614.863 308.63L615.862 308.675ZM616.124 298.725C616.137 297.056 616.135 295.399 616.118 293.756L615.118 293.767C615.135 295.404 615.137 297.054 615.124 298.718L616.124 298.725ZM616.02 288.774C615.972 287.098 615.91 285.437 615.833 283.793L614.834 283.84C614.91 285.478 614.973 287.132 615.021 288.802L616.02 288.774ZM615.557 278.82C615.449 277.147 615.328 275.492 615.194 273.856L614.197 273.938C614.331 275.568 614.452 277.217 614.559 278.885L615.557 278.82ZM614.743 268.901C614.577 267.23 614.398 265.581 614.207 263.955L613.214 264.072C613.404 265.692 613.582 267.335 613.748 269L614.743 268.901ZM613.586 259.02C613.362 257.352 613.126 255.71 612.88 254.096L611.892 254.246C612.136 255.855 612.371 257.491 612.595 259.154L613.586 259.02ZM612.09 249.182C611.807 247.515 611.515 245.88 611.215 244.28L610.232 244.464C610.531 246.059 610.822 247.688 611.104 249.349L612.09 249.182ZM610.256 239.391C609.914 237.723 609.565 236.098 609.212 234.517L608.236 234.735C608.588 236.31 608.935 237.93 609.276 239.592L610.256 239.391ZM608.084 229.663C607.681 227.997 607.276 226.388 606.872 224.84L605.904 225.092C606.307 226.635 606.71 228.238 607.112 229.898L608.084 229.663ZM605.575 220.047C605.1 218.356 604.633 216.755 604.178 215.247L603.22 215.536C603.673 217.038 604.139 218.633 604.612 220.318L605.575 220.047ZM602.691 210.498C602.119 208.737 601.583 207.159 601.097 205.775L600.154 206.106C600.637 207.483 601.171 209.054 601.74 210.807L602.691 210.498ZM599.38 201.101C599.09 200.349 598.86 199.776 598.703 199.39C598.624 199.197 598.564 199.051 598.523 198.953C598.502 198.904 598.487 198.867 598.476 198.842C598.471 198.829 598.467 198.82 598.464 198.813C598.463 198.81 598.461 198.808 598.461 198.806C598.46 198.805 598.46 198.804 598.46 198.804C598.46 198.804 598.46 198.803 598.46 198.803C598.46 198.803 598.46 198.803 598.46 198.803C598.46 198.803 598.46 198.803 598.46 198.803C598.46 198.803 598.46 198.803 598 199C597.54 199.197 597.54 199.197 597.54 199.197C597.54 199.197 597.54 199.197 597.54 199.197C597.54 199.197 597.54 199.197 597.54 199.197C597.54 199.197 597.541 199.197 597.541 199.197C597.541 199.198 597.541 199.198 597.541 199.199C597.542 199.2 597.543 199.202 597.544 199.205C597.546 199.211 597.55 199.22 597.555 199.232C597.565 199.255 597.58 199.291 597.6 199.339C597.64 199.434 597.7 199.577 597.777 199.768C597.932 200.148 598.16 200.715 598.448 201.461L599.38 201.101Z" fill="#30855C"/>
<path opacity="0.7" d="M104 116C104.378 116.327 104.378 116.327 104.378 116.327C104.378 116.327 104.378 116.327 104.378 116.327C104.378 116.327 104.378 116.327 104.378 116.327C104.378 116.327 104.378 116.327 104.379 116.327C104.379 116.326 104.379 116.326 104.38 116.325C104.381 116.324 104.382 116.322 104.384 116.32C104.389 116.315 104.395 116.308 104.404 116.298C104.421 116.278 104.447 116.248 104.481 116.209C104.549 116.13 104.652 116.013 104.788 115.859C105.061 115.55 105.466 115.093 105.999 114.503L105.256 113.833C104.721 114.427 104.313 114.886 104.038 115.197C103.901 115.353 103.797 115.472 103.728 115.551C103.693 115.591 103.666 115.622 103.649 115.642C103.64 115.652 103.633 115.66 103.629 115.665C103.626 115.668 103.625 115.67 103.624 115.671C103.623 115.672 103.623 115.672 103.622 115.672C103.622 115.673 103.622 115.673 103.622 115.673C103.622 115.673 103.622 115.673 103.622 115.673C103.622 115.673 103.622 115.673 103.622 115.673C103.622 115.673 103.622 115.673 104 116ZM109.397 110.806C110.398 109.734 111.54 108.528 112.814 107.205L112.093 106.511C110.816 107.838 109.671 109.048 108.666 110.122L109.397 110.806ZM116.288 103.643C117.396 102.52 118.574 101.341 119.817 100.114L119.115 99.4026C117.868 100.633 116.688 101.815 115.576 102.94L116.288 103.643ZM123.403 96.6172C124.559 95.5031 125.761 94.359 127.005 93.1894L126.32 92.4609C125.073 93.6333 123.869 94.7802 122.709 95.897L123.403 96.6172ZM130.653 89.8005C131.852 88.7011 133.083 87.5844 134.347 86.454L133.68 85.7088C132.413 86.842 131.179 87.9615 129.977 89.0637L130.653 89.8005ZM138.083 83.1531C139.317 82.0768 140.577 80.9916 141.862 79.9002L141.214 79.138C139.926 80.2323 138.663 81.3204 137.426 82.3995L138.083 83.1531ZM145.684 76.6974C146.952 75.6497 148.241 74.5988 149.55 73.5474L148.924 72.7677C147.611 73.8222 146.318 74.876 145.047 75.9266L145.684 76.6974ZM153.46 70.4527C154.762 69.4382 156.081 68.4255 157.416 67.4166L156.813 66.6187C155.474 67.6307 154.151 68.6465 152.845 69.664L153.46 70.4527ZM161.416 64.4449C162.749 63.4702 164.098 62.5013 165.461 61.5403L164.884 60.7231C163.517 61.6875 162.164 62.6596 160.826 63.6375L161.416 64.4449ZM169.556 58.7048C170.927 57.7741 172.309 56.853 173.703 55.9435L173.157 55.106C171.757 56.019 170.37 56.9435 168.994 57.8776L169.556 58.7048ZM177.903 53.2624C179.31 52.3835 180.728 51.5179 182.155 50.6676L181.643 49.8085C180.21 50.6625 178.786 51.5317 177.373 52.4142L177.903 53.2624ZM186.462 48.1664C187.907 47.3486 189.362 46.548 190.824 45.7666L190.352 44.8847C188.883 45.67 187.422 46.4745 185.969 47.2961L186.462 48.1664ZM195.243 43.4758C196.73 42.7295 198.223 42.0047 199.723 41.3032L199.299 40.3974C197.791 41.1029 196.289 41.8318 194.795 42.582L195.243 43.4758ZM204.262 39.2602C205.79 38.5999 207.323 37.9655 208.86 37.3591L208.493 36.4289C206.946 37.0394 205.403 37.6778 203.865 38.3422L204.262 39.2602Z" fill="#30855C"/>
<path opacity="0.7" d="M551 119L550.905 113.227L545.953 116.196L551 119ZM451 36C450.781 36.4497 450.781 36.4497 450.781 36.4497C450.781 36.4497 450.781 36.4497 450.781 36.4497C450.781 36.4497 450.781 36.4497 450.781 36.4497C450.782 36.4497 450.782 36.4498 450.782 36.4499C450.782 36.45 450.783 36.4503 450.783 36.4507C450.785 36.4513 450.787 36.4524 450.79 36.4539C450.796 36.4567 450.805 36.4611 450.817 36.4669C450.841 36.4786 450.876 36.4962 450.924 36.5196C451.019 36.5664 451.161 36.6366 451.348 36.7299C451.722 36.9164 452.275 37.1949 452.99 37.5624L453.447 36.6728C452.728 36.3035 452.171 36.0233 451.794 35.8351C451.606 35.7411 451.462 35.6701 451.366 35.6225C451.317 35.5987 451.281 35.5807 451.256 35.5687C451.244 35.5626 451.235 35.5581 451.228 35.555C451.225 35.5535 451.223 35.5523 451.221 35.5516C451.22 35.5512 451.22 35.5509 451.219 35.5507C451.219 35.5506 451.219 35.5505 451.219 35.5504C451.219 35.5504 451.219 35.5504 451.219 35.5503C451.219 35.5503 451.219 35.5503 451.219 35.5503C451.219 35.5503 451.219 35.5503 451 36ZM457.489 39.9312C458.8 40.6368 460.278 41.4451 461.902 42.3518L462.389 41.4788C460.761 40.5694 459.278 39.7586 457.963 39.0507L457.489 39.9312ZM466.288 44.8432C467.674 45.6435 469.131 46.497 470.65 47.4018L471.162 46.5427C469.639 45.6354 468.178 44.7797 466.788 43.9772L466.288 44.8432ZM474.993 50.0294C476.38 50.882 477.807 51.771 479.266 52.6951L479.801 51.8502C478.338 50.9236 476.908 50.0323 475.516 49.1774L474.993 50.0294ZM483.511 55.4245C484.893 56.3268 486.298 57.2573 487.72 58.2155L488.279 57.386C486.852 56.4251 485.443 55.4919 484.058 54.5872L483.511 55.4245ZM491.89 61.0676C493.255 62.0157 494.632 62.9874 496.017 63.9819L496.601 63.1695C495.211 62.1719 493.83 61.1973 492.461 60.2464L491.89 61.0676ZM500.098 66.96C501.439 67.9546 502.784 68.9695 504.13 70.0041L504.739 69.2111C503.388 68.173 502.039 67.1548 500.694 66.157L500.098 66.96ZM508.109 73.1166C509.418 74.16 510.726 75.2214 512.03 76.3003L512.667 75.53C511.359 74.447 510.046 73.3816 508.732 72.3345L508.109 73.1166ZM515.888 79.5581C517.16 80.6537 518.424 81.7656 519.679 82.8934L520.347 82.1497C519.087 81.0171 517.818 79.9005 516.541 78.8005L515.888 79.5581ZM523.394 86.3095C524.619 87.4615 525.831 88.6287 527.028 89.8104L527.731 89.0989C526.528 87.9112 525.31 86.7385 524.08 85.5811L523.394 86.3095ZM530.572 93.4015C531.739 94.6162 532.888 95.845 534.016 97.0874L534.757 96.4151C533.622 95.1655 532.467 93.9298 531.293 92.7086L530.572 93.4015ZM537.35 100.873C538.445 102.156 539.516 103.452 540.56 104.762L541.342 104.139C540.291 102.82 539.213 101.515 538.111 100.223L537.35 100.873ZM543.63 108.76C544.633 110.118 545.605 111.489 546.542 112.871L547.37 112.31C546.424 110.916 545.445 109.534 544.434 108.166L543.63 108.76Z" fill="#30855C"/>
<g clip-path="url(#clip6_223_544)">
<g style="mix-blend-mode:multiply">
<circle cx="331.72" cy="233" r="98" fill="#3C514A"/>
</g>
<path d="M317.048 234V222.72H318.712V234H317.048ZM324.304 234.144C323.6 234.144 322.976 233.979 322.432 233.648C321.899 233.317 321.483 232.837 321.184 232.208C320.896 231.579 320.752 230.832 320.752 229.968C320.752 229.093 320.896 228.347 321.184 227.728C321.483 227.109 321.899 226.635 322.432 226.304C322.976 225.963 323.6 225.792 324.304 225.792C324.998 225.792 325.606 225.968 326.128 226.32C326.662 226.661 327.014 227.131 327.184 227.728H326.992V222.224H328.608V234H327.008V232.176H327.2C327.019 232.784 326.667 233.264 326.144 233.616C325.622 233.968 325.008 234.144 324.304 234.144ZM324.704 232.88C325.398 232.88 325.958 232.635 326.384 232.144C326.811 231.653 327.024 230.928 327.024 229.968C327.024 229.008 326.811 228.288 326.384 227.808C325.958 227.317 325.398 227.072 324.704 227.072C324 227.072 323.435 227.317 323.008 227.808C322.592 228.288 322.384 229.008 322.384 229.968C322.384 230.928 322.592 231.653 323.008 232.144C323.435 232.635 324 232.88 324.704 232.88ZM334.694 234.144C333.393 234.144 332.369 233.776 331.622 233.04C330.876 232.304 330.502 231.285 330.502 229.984C330.502 229.141 330.662 228.405 330.982 227.776C331.313 227.147 331.766 226.661 332.342 226.32C332.929 225.968 333.606 225.792 334.374 225.792C335.132 225.792 335.766 225.952 336.278 226.272C336.79 226.592 337.18 227.045 337.446 227.632C337.713 228.208 337.846 228.891 337.846 229.68V230.192H331.766V229.264H336.742L336.47 229.472C336.47 228.672 336.289 228.053 335.926 227.616C335.574 227.168 335.062 226.944 334.39 226.944C333.644 226.944 333.068 227.205 332.662 227.728C332.257 228.24 332.054 228.949 332.054 229.856V230.016C332.054 230.965 332.284 231.68 332.742 232.16C333.212 232.64 333.873 232.88 334.726 232.88C335.196 232.88 335.633 232.816 336.038 232.688C336.454 232.549 336.849 232.325 337.222 232.016L337.75 233.12C337.377 233.451 336.924 233.707 336.39 233.888C335.857 234.059 335.292 234.144 334.694 234.144ZM342.789 234.144C342.074 234.144 341.45 233.979 340.917 233.648C340.384 233.317 339.968 232.837 339.669 232.208C339.381 231.579 339.237 230.832 339.237 229.968C339.237 229.093 339.381 228.347 339.669 227.728C339.968 227.109 340.384 226.635 340.917 226.304C341.45 225.963 342.074 225.792 342.789 225.792C343.493 225.792 344.106 225.968 344.629 226.32C345.152 226.672 345.498 227.152 345.669 227.76H345.493L345.653 225.936H347.221C347.189 226.267 347.157 226.597 347.125 226.928C347.104 227.248 347.093 227.563 347.093 227.872V234H345.477V232.208H345.653C345.482 232.805 345.13 233.28 344.597 233.632C344.074 233.973 343.472 234.144 342.789 234.144ZM343.189 232.88C343.882 232.88 344.437 232.635 344.853 232.144C345.28 231.653 345.493 230.928 345.493 229.968C345.493 229.008 345.28 228.288 344.853 227.808C344.437 227.317 343.882 227.072 343.189 227.072C342.485 227.072 341.92 227.317 341.493 227.808C341.077 228.288 340.869 229.008 340.869 229.968C340.869 230.928 341.077 231.653 341.493 232.144C341.909 232.635 342.474 232.88 343.189 232.88Z" fill="white"/>
</g>
<g clip-path="url(#clip7_223_544)">
<g style="mix-blend-mode:multiply">
<circle cx="400.48" cy="359.16" r="98" fill="#C93B7A"/>
</g>
<path d="M375.248 365V353.72H380.176C381.413 353.72 382.368 354.013 383.04 354.6C383.723 355.187 384.064 356.003 384.064 357.048C384.064 357.741 383.909 358.333 383.6 358.824C383.301 359.315 382.869 359.693 382.304 359.96C381.739 360.216 381.072 360.344 380.304 360.344L380.528 360.04H381.072C381.52 360.04 381.92 360.157 382.272 360.392C382.624 360.627 382.912 360.984 383.136 361.464L384.784 365H382.512L380.848 361.336C380.699 360.963 380.469 360.717 380.16 360.6C379.861 360.483 379.499 360.424 379.072 360.424H377.312V365H375.248ZM377.312 358.904H379.84C380.565 358.904 381.115 358.755 381.488 358.456C381.872 358.147 382.064 357.699 382.064 357.112C382.064 356.525 381.872 356.083 381.488 355.784C381.115 355.485 380.565 355.336 379.84 355.336H377.312V358.904ZM390.023 365.16C388.669 365.16 387.607 364.787 386.839 364.04C386.071 363.293 385.687 362.269 385.687 360.968C385.687 360.125 385.853 359.389 386.183 358.76C386.514 358.131 386.973 357.64 387.559 357.288C388.157 356.936 388.85 356.76 389.639 356.76C390.418 356.76 391.069 356.925 391.591 357.256C392.114 357.587 392.509 358.051 392.775 358.648C393.053 359.245 393.191 359.944 393.191 360.744V361.272H387.303V360.216H391.767L391.495 360.44C391.495 359.693 391.335 359.123 391.015 358.728C390.706 358.333 390.253 358.136 389.655 358.136C388.994 358.136 388.482 358.371 388.119 358.84C387.767 359.309 387.591 359.965 387.591 360.808V361.016C387.591 361.891 387.805 362.547 388.231 362.984C388.669 363.411 389.282 363.624 390.071 363.624C390.53 363.624 390.957 363.565 391.351 363.448C391.757 363.32 392.141 363.117 392.503 362.84L393.095 364.184C392.711 364.493 392.253 364.733 391.719 364.904C391.186 365.075 390.621 365.16 390.023 365.16ZM397.765 365.16C397.072 365.16 396.432 365.08 395.845 364.92C395.269 364.749 394.784 364.515 394.389 364.216L394.949 362.872C395.354 363.149 395.802 363.363 396.293 363.512C396.784 363.661 397.28 363.736 397.781 363.736C398.314 363.736 398.709 363.645 398.965 363.464C399.232 363.283 399.365 363.037 399.365 362.728C399.365 362.483 399.28 362.291 399.109 362.152C398.949 362.003 398.688 361.891 398.325 361.816L396.725 361.512C396.042 361.363 395.52 361.107 395.157 360.744C394.805 360.381 394.629 359.907 394.629 359.32C394.629 358.819 394.762 358.376 395.029 357.992C395.306 357.608 395.696 357.309 396.197 357.096C396.709 356.872 397.306 356.76 397.989 356.76C398.586 356.76 399.146 356.84 399.669 357C400.202 357.16 400.65 357.4 401.013 357.72L400.437 359.016C400.106 358.749 399.728 358.541 399.301 358.392C398.874 358.243 398.458 358.168 398.053 358.168C397.498 358.168 397.093 358.269 396.837 358.472C396.581 358.664 396.453 358.915 396.453 359.224C396.453 359.459 396.528 359.656 396.677 359.816C396.837 359.965 397.082 360.077 397.413 360.152L399.013 360.456C399.728 360.595 400.266 360.84 400.629 361.192C401.002 361.533 401.189 362.003 401.189 362.6C401.189 363.133 401.045 363.592 400.757 363.976C400.469 364.36 400.069 364.653 399.557 364.856C399.045 365.059 398.448 365.16 397.765 365.16ZM406.805 365.16C405.45 365.16 404.389 364.787 403.621 364.04C402.853 363.293 402.469 362.269 402.469 360.968C402.469 360.125 402.634 359.389 402.965 358.76C403.295 358.131 403.754 357.64 404.341 357.288C404.938 356.936 405.631 356.76 406.421 356.76C407.199 356.76 407.85 356.925 408.373 357.256C408.895 357.587 409.29 358.051 409.557 358.648C409.834 359.245 409.973 359.944 409.973 360.744V361.272H404.085V360.216H408.549L408.277 360.44C408.277 359.693 408.117 359.123 407.797 358.728C407.487 358.333 407.034 358.136 406.437 358.136C405.775 358.136 405.263 358.371 404.901 358.84C404.549 359.309 404.373 359.965 404.373 360.808V361.016C404.373 361.891 404.586 362.547 405.013 362.984C405.45 363.411 406.063 363.624 406.853 363.624C407.311 363.624 407.738 363.565 408.133 363.448C408.538 363.32 408.922 363.117 409.285 362.84L409.877 364.184C409.493 364.493 409.034 364.733 408.501 364.904C407.967 365.075 407.402 365.16 406.805 365.16ZM414.786 365.16C414.082 365.16 413.463 364.995 412.93 364.664C412.397 364.323 411.981 363.837 411.682 363.208C411.383 362.579 411.234 361.827 411.234 360.952C411.234 360.077 411.383 359.331 411.682 358.712C411.981 358.083 412.397 357.603 412.93 357.272C413.463 356.931 414.082 356.76 414.786 356.76C415.469 356.76 416.066 356.931 416.578 357.272C417.101 357.603 417.447 358.051 417.618 358.616H417.442L417.618 356.92H419.538C419.506 357.251 419.474 357.587 419.442 357.928C419.421 358.269 419.41 358.605 419.41 358.936V365H417.426L417.41 363.336H417.602C417.431 363.891 417.085 364.333 416.562 364.664C416.039 364.995 415.447 365.16 414.786 365.16ZM415.346 363.624C415.975 363.624 416.482 363.405 416.866 362.968C417.25 362.52 417.442 361.848 417.442 360.952C417.442 360.056 417.25 359.389 416.866 358.952C416.482 358.515 415.975 358.296 415.346 358.296C414.717 358.296 414.21 358.515 413.826 358.952C413.442 359.389 413.25 360.056 413.25 360.952C413.25 361.848 413.437 362.52 413.81 362.968C414.194 363.405 414.706 363.624 415.346 363.624ZM421.572 365V358.984C421.572 358.643 421.561 358.296 421.54 357.944C421.529 357.592 421.503 357.251 421.46 356.92H423.396L423.62 359.128H423.3C423.407 358.595 423.583 358.152 423.828 357.8C424.084 357.448 424.393 357.187 424.756 357.016C425.119 356.845 425.513 356.76 425.94 356.76C426.132 356.76 426.287 356.771 426.404 356.792C426.521 356.803 426.639 356.829 426.756 356.872L426.74 358.632C426.537 358.547 426.361 358.493 426.212 358.472C426.073 358.451 425.897 358.44 425.684 358.44C425.225 358.44 424.836 358.536 424.516 358.728C424.207 358.92 423.972 359.187 423.812 359.528C423.663 359.869 423.588 360.259 423.588 360.696V365H421.572ZM431.456 365.16C430.624 365.16 429.894 364.989 429.264 364.648C428.646 364.307 428.166 363.821 427.824 363.192C427.483 362.552 427.312 361.795 427.312 360.92C427.312 360.045 427.483 359.299 427.824 358.68C428.176 358.061 428.662 357.587 429.28 357.256C429.899 356.925 430.624 356.76 431.456 356.76C431.99 356.76 432.507 356.845 433.008 357.016C433.52 357.176 433.936 357.411 434.256 357.72L433.648 359.112C433.36 358.845 433.035 358.648 432.672 358.52C432.32 358.381 431.974 358.312 431.632 358.312C430.918 358.312 430.358 358.536 429.952 358.984C429.558 359.432 429.36 360.083 429.36 360.936C429.36 361.789 429.558 362.445 429.952 362.904C430.358 363.363 430.918 363.592 431.632 363.592C431.963 363.592 432.304 363.528 432.656 363.4C433.019 363.272 433.35 363.075 433.648 362.808L434.256 364.184C433.926 364.493 433.504 364.733 432.992 364.904C432.491 365.075 431.979 365.16 431.456 365.16ZM435.807 365V353.224H437.807V358.536H437.583C437.828 357.96 438.207 357.523 438.719 357.224C439.231 356.915 439.817 356.76 440.479 356.76C441.439 356.76 442.153 357.032 442.623 357.576C443.092 358.109 443.327 358.925 443.327 360.024V365H441.327V360.12C441.327 359.491 441.204 359.037 440.959 358.76C440.724 358.472 440.345 358.328 439.823 358.328C439.215 358.328 438.724 358.52 438.351 358.904C437.988 359.277 437.807 359.779 437.807 360.408V365H435.807Z" fill="white"/>
</g>
<g clip-path="url(#clip8_223_544)">
<g style="mix-blend-mode:multiply">
<circle cx="255" cy="359.16" r="98" fill="#D4AE5E"/>
</g>
<path d="M218.248 365V353.72H222.344C223.635 353.72 224.723 353.944 225.608 354.392C226.504 354.829 227.181 355.469 227.64 356.312C228.099 357.144 228.328 358.157 228.328 359.352C228.328 360.536 228.099 361.549 227.64 362.392C227.181 363.235 226.504 363.88 225.608 364.328C224.723 364.776 223.635 365 222.344 365H218.248ZM220.312 363.288H222.216C223.581 363.288 224.595 362.963 225.256 362.312C225.917 361.661 226.248 360.675 226.248 359.352C226.248 358.019 225.917 357.032 225.256 356.392C224.595 355.741 223.581 355.416 222.216 355.416H220.312V363.288ZM234.18 365.16C232.825 365.16 231.764 364.787 230.996 364.04C230.228 363.293 229.844 362.269 229.844 360.968C229.844 360.125 230.009 359.389 230.34 358.76C230.67 358.131 231.129 357.64 231.716 357.288C232.313 356.936 233.006 356.76 233.796 356.76C234.574 356.76 235.225 356.925 235.748 357.256C236.27 357.587 236.665 358.051 236.932 358.648C237.209 359.245 237.348 359.944 237.348 360.744V361.272H231.46V360.216H235.924L235.652 360.44C235.652 359.693 235.492 359.123 235.172 358.728C234.862 358.333 234.409 358.136 233.812 358.136C233.15 358.136 232.638 358.371 232.276 358.84C231.924 359.309 231.748 359.965 231.748 360.808V361.016C231.748 361.891 231.961 362.547 232.388 362.984C232.825 363.411 233.438 363.624 234.228 363.624C234.686 363.624 235.113 363.565 235.508 363.448C235.913 363.32 236.297 363.117 236.66 362.84L237.252 364.184C236.868 364.493 236.409 364.733 235.876 364.904C235.342 365.075 234.777 365.16 234.18 365.16ZM241.921 365.16C241.228 365.16 240.588 365.08 240.001 364.92C239.425 364.749 238.94 364.515 238.545 364.216L239.105 362.872C239.51 363.149 239.958 363.363 240.449 363.512C240.94 363.661 241.436 363.736 241.937 363.736C242.47 363.736 242.865 363.645 243.121 363.464C243.388 363.283 243.521 363.037 243.521 362.728C243.521 362.483 243.436 362.291 243.265 362.152C243.105 362.003 242.844 361.891 242.481 361.816L240.881 361.512C240.198 361.363 239.676 361.107 239.313 360.744C238.961 360.381 238.785 359.907 238.785 359.32C238.785 358.819 238.918 358.376 239.185 357.992C239.462 357.608 239.852 357.309 240.353 357.096C240.865 356.872 241.462 356.76 242.145 356.76C242.742 356.76 243.302 356.84 243.825 357C244.358 357.16 244.806 357.4 245.169 357.72L244.593 359.016C244.262 358.749 243.884 358.541 243.457 358.392C243.03 358.243 242.614 358.168 242.209 358.168C241.654 358.168 241.249 358.269 240.993 358.472C240.737 358.664 240.609 358.915 240.609 359.224C240.609 359.459 240.684 359.656 240.833 359.816C240.993 359.965 241.238 360.077 241.569 360.152L243.169 360.456C243.884 360.595 244.422 360.84 244.785 361.192C245.158 361.533 245.345 362.003 245.345 362.6C245.345 363.133 245.201 363.592 244.913 363.976C244.625 364.36 244.225 364.653 243.713 364.856C243.201 365.059 242.604 365.16 241.921 365.16ZM247.057 365V356.92H249.057V365H247.057ZM246.945 355.4V353.448H249.169V355.4H246.945ZM254.973 368.584C254.226 368.584 253.549 368.504 252.941 368.344C252.343 368.184 251.81 367.939 251.341 367.608L251.773 366.168C252.082 366.371 252.402 366.536 252.733 366.664C253.063 366.792 253.405 366.888 253.757 366.952C254.109 367.016 254.466 367.048 254.829 367.048C255.575 367.048 256.13 366.861 256.493 366.488C256.866 366.125 257.053 365.603 257.053 364.92V362.984H257.213C257.042 363.539 256.695 363.981 256.173 364.312C255.661 364.643 255.069 364.808 254.397 364.808C253.671 364.808 253.037 364.648 252.493 364.328C251.959 363.997 251.543 363.528 251.245 362.92C250.946 362.312 250.797 361.597 250.797 360.776C250.797 359.955 250.946 359.245 251.245 358.648C251.543 358.04 251.959 357.576 252.493 357.256C253.037 356.925 253.671 356.76 254.397 356.76C255.079 356.76 255.671 356.925 256.173 357.256C256.685 357.576 257.026 358.013 257.197 358.568L257.053 358.472L257.213 356.92H259.149C259.106 357.251 259.074 357.587 259.053 357.928C259.031 358.269 259.021 358.605 259.021 358.936V364.68C259.021 365.949 258.674 366.915 257.981 367.576C257.298 368.248 256.295 368.584 254.973 368.584ZM254.941 363.272C255.581 363.272 256.087 363.059 256.461 362.632C256.845 362.195 257.037 361.576 257.037 360.776C257.037 359.976 256.845 359.363 256.461 358.936C256.087 358.509 255.581 358.296 254.941 358.296C254.29 358.296 253.773 358.509 253.389 358.936C253.005 359.363 252.813 359.976 252.813 360.776C252.813 361.576 253.005 362.195 253.389 362.632C253.773 363.059 254.29 363.272 254.941 363.272ZM261.182 365V358.936C261.182 358.605 261.171 358.269 261.15 357.928C261.128 357.587 261.096 357.251 261.054 356.92H262.99L263.15 358.52H262.958C263.214 357.955 263.592 357.523 264.094 357.224C264.595 356.915 265.176 356.76 265.838 356.76C266.787 356.76 267.502 357.027 267.982 357.56C268.462 358.093 268.702 358.925 268.702 360.056V365H266.702V360.152C266.702 359.501 266.574 359.037 266.318 358.76C266.072 358.472 265.699 358.328 265.198 358.328C264.579 358.328 264.088 358.52 263.726 358.904C263.363 359.288 263.182 359.8 263.182 360.44V365H261.182Z" fill="white"/>
</g>
<circle cx="482.5" cy="232.5" r="41.5" fill="#FFB798"/>
<circle cx="331.5" cy="494.5" r="41.5" fill="#B9DDFF"/>
<circle cx="184.5" cy="222.5" r="41.5" fill="#E0D1FF"/>
<path d="M320.032 500V490.112H316.176V488.72H325.552V490.112H321.696V500H320.032ZM329.459 500.144C328.158 500.144 327.134 499.776 326.387 499.04C325.64 498.304 325.267 497.285 325.267 495.984C325.267 495.141 325.427 494.405 325.747 493.776C326.078 493.147 326.531 492.661 327.107 492.32C327.694 491.968 328.371 491.792 329.139 491.792C329.896 491.792 330.531 491.952 331.043 492.272C331.555 492.592 331.944 493.045 332.211 493.632C332.478 494.208 332.611 494.891 332.611 495.68V496.192H326.531V495.264H331.507L331.235 495.472C331.235 494.672 331.054 494.053 330.691 493.616C330.339 493.168 329.827 492.944 329.155 492.944C328.408 492.944 327.832 493.205 327.427 493.728C327.022 494.24 326.819 494.949 326.819 495.856V496.016C326.819 496.965 327.048 497.68 327.507 498.16C327.976 498.64 328.638 498.88 329.491 498.88C329.96 498.88 330.398 498.816 330.803 498.688C331.219 498.549 331.614 498.325 331.987 498.016L332.515 499.12C332.142 499.451 331.688 499.707 331.155 499.888C330.622 500.059 330.056 500.144 329.459 500.144ZM337.233 500.144C336.561 500.144 335.943 500.059 335.377 499.888C334.812 499.717 334.343 499.477 333.969 499.168L334.465 498.064C334.86 498.363 335.297 498.587 335.777 498.736C336.257 498.885 336.748 498.96 337.249 498.96C337.836 498.96 338.279 498.859 338.577 498.656C338.876 498.443 339.025 498.155 339.025 497.792C339.025 497.515 338.929 497.291 338.737 497.12C338.556 496.949 338.252 496.821 337.825 496.736L336.289 496.432C335.607 496.283 335.089 496.027 334.737 495.664C334.385 495.301 334.209 494.837 334.209 494.272C334.209 493.792 334.337 493.365 334.593 492.992C334.86 492.619 335.233 492.325 335.713 492.112C336.204 491.899 336.775 491.792 337.425 491.792C338.023 491.792 338.577 491.877 339.089 492.048C339.601 492.219 340.028 492.464 340.369 492.784L339.857 493.856C339.527 493.579 339.153 493.365 338.737 493.216C338.321 493.056 337.9 492.976 337.473 492.976C336.876 492.976 336.433 493.088 336.145 493.312C335.857 493.536 335.713 493.829 335.713 494.192C335.713 494.469 335.799 494.699 335.969 494.88C336.151 495.051 336.433 495.184 336.817 495.28L338.353 495.584C339.079 495.733 339.623 495.979 339.985 496.32C340.348 496.661 340.529 497.12 340.529 497.696C340.529 498.197 340.391 498.635 340.113 499.008C339.836 499.381 339.452 499.664 338.961 499.856C338.471 500.048 337.895 500.144 337.233 500.144ZM345.492 500.144C344.617 500.144 343.956 499.909 343.508 499.44C343.06 498.96 342.836 498.245 342.836 497.296V493.184H341.268V491.936H342.836V489.808L344.452 489.376V491.936H346.692V493.184H344.452V497.152C344.452 497.749 344.559 498.176 344.772 498.432C344.985 498.688 345.295 498.816 345.7 498.816C345.903 498.816 346.079 498.8 346.228 498.768C346.388 498.725 346.532 498.677 346.66 498.624V499.936C346.5 500 346.313 500.048 346.1 500.08C345.887 500.123 345.684 500.144 345.492 500.144Z" fill="#232334"/>
<path d="M452.16 238L457.184 226.72H458.608L463.712 238H462L460.608 234.8L461.312 235.248H454.48L455.232 234.8L453.84 238H452.16ZM457.872 228.544L455.44 234.288L455.056 233.92H460.736L460.416 234.288L457.936 228.544H457.872ZM465.059 238V231.872C465.059 231.563 465.043 231.248 465.011 230.928C464.99 230.597 464.963 230.267 464.931 229.936H466.499L466.643 231.632H466.451C466.696 231.035 467.075 230.581 467.587 230.272C468.099 229.952 468.691 229.792 469.363 229.792C470.312 229.792 471.027 230.053 471.507 230.576C471.998 231.099 472.243 231.909 472.243 233.008V238H470.627V233.104C470.627 232.389 470.483 231.877 470.195 231.568C469.918 231.248 469.491 231.088 468.915 231.088C468.232 231.088 467.688 231.301 467.283 231.728C466.878 232.144 466.675 232.709 466.675 233.424V238H465.059ZM477.631 238.144C476.917 238.144 476.293 237.979 475.759 237.648C475.226 237.317 474.81 236.837 474.511 236.208C474.223 235.579 474.079 234.832 474.079 233.968C474.079 233.093 474.223 232.347 474.511 231.728C474.81 231.109 475.226 230.635 475.759 230.304C476.293 229.963 476.917 229.792 477.631 229.792C478.335 229.792 478.949 229.968 479.471 230.32C479.994 230.672 480.341 231.152 480.511 231.76H480.335L480.495 229.936H482.063C482.031 230.267 481.999 230.597 481.967 230.928C481.946 231.248 481.935 231.563 481.935 231.872V238H480.319V236.208H480.495C480.325 236.805 479.973 237.28 479.439 237.632C478.917 237.973 478.314 238.144 477.631 238.144ZM478.031 236.88C478.725 236.88 479.279 236.635 479.695 236.144C480.122 235.653 480.335 234.928 480.335 233.968C480.335 233.008 480.122 232.288 479.695 231.808C479.279 231.317 478.725 231.072 478.031 231.072C477.327 231.072 476.762 231.317 476.335 231.808C475.919 232.288 475.711 233.008 475.711 233.968C475.711 234.928 475.919 235.653 476.335 236.144C476.751 236.635 477.317 236.88 478.031 236.88ZM484.293 238V226.224H485.909V238H484.293ZM488.038 241.632L487.654 240.32C488.155 240.213 488.571 240.085 488.902 239.936C489.243 239.787 489.526 239.589 489.75 239.344C489.974 239.109 490.166 238.805 490.326 238.432L490.726 237.488L490.694 238.144L487.19 229.936H488.918L491.638 236.656H491.206L493.926 229.936H495.59L491.894 238.576C491.659 239.109 491.408 239.557 491.142 239.92C490.875 240.283 490.587 240.576 490.278 240.8C489.968 241.024 489.627 241.2 489.254 241.328C488.88 241.456 488.475 241.557 488.038 241.632ZM496.347 238V236.928L501.595 230.784L501.611 231.184H496.347V229.936H503.083V231.008L497.787 237.2L497.771 236.768H503.259V238H496.347ZM508.678 238.144C507.376 238.144 506.352 237.776 505.606 237.04C504.859 236.304 504.486 235.285 504.486 233.984C504.486 233.141 504.646 232.405 504.966 231.776C505.296 231.147 505.75 230.661 506.326 230.32C506.912 229.968 507.59 229.792 508.358 229.792C509.115 229.792 509.75 229.952 510.262 230.272C510.774 230.592 511.163 231.045 511.43 231.632C511.696 232.208 511.83 232.891 511.83 233.68V234.192H505.75V233.264H510.726L510.454 233.472C510.454 232.672 510.272 232.053 509.91 231.616C509.558 231.168 509.046 230.944 508.374 230.944C507.627 230.944 507.051 231.205 506.646 231.728C506.24 232.24 506.038 232.949 506.038 233.856V234.016C506.038 234.965 506.267 235.68 506.726 236.16C507.195 236.64 507.856 236.88 508.71 236.88C509.179 236.88 509.616 236.816 510.022 236.688C510.438 236.549 510.832 236.325 511.206 236.016L511.734 237.12C511.36 237.451 510.907 237.707 510.374 237.888C509.84 238.059 509.275 238.144 508.678 238.144Z" fill="#232334"/>
<path d="M161.328 228V216.72H165.232C166.501 216.72 167.573 216.939 168.448 217.376C169.333 217.813 170 218.453 170.448 219.296C170.907 220.128 171.136 221.147 171.136 222.352C171.136 223.547 170.907 224.565 170.448 225.408C170 226.251 169.333 226.896 168.448 227.344C167.573 227.781 166.501 228 165.232 228H161.328ZM162.992 226.608H165.136C166.587 226.608 167.664 226.256 168.368 225.552C169.083 224.848 169.44 223.781 169.44 222.352C169.44 220.923 169.083 219.861 168.368 219.168C167.664 218.464 166.587 218.112 165.136 218.112H162.992V226.608ZM176.975 228.144C175.673 228.144 174.649 227.776 173.903 227.04C173.156 226.304 172.783 225.285 172.783 223.984C172.783 223.141 172.943 222.405 173.263 221.776C173.593 221.147 174.047 220.661 174.623 220.32C175.209 219.968 175.887 219.792 176.655 219.792C177.412 219.792 178.047 219.952 178.559 220.272C179.071 220.592 179.46 221.045 179.727 221.632C179.993 222.208 180.127 222.891 180.127 223.68V224.192H174.047V223.264H179.023L178.751 223.472C178.751 222.672 178.569 222.053 178.207 221.616C177.855 221.168 177.343 220.944 176.671 220.944C175.924 220.944 175.348 221.205 174.943 221.728C174.537 222.24 174.335 222.949 174.335 223.856V224.016C174.335 224.965 174.564 225.68 175.023 226.16C175.492 226.64 176.153 226.88 177.007 226.88C177.476 226.88 177.913 226.816 178.319 226.688C178.735 226.549 179.129 226.325 179.503 226.016L180.031 227.12C179.657 227.451 179.204 227.707 178.671 227.888C178.137 228.059 177.572 228.144 176.975 228.144ZM182.445 228V221.184H180.877V219.936H182.893L182.445 220.352V219.072C182.445 218.123 182.68 217.403 183.149 216.912C183.629 216.411 184.323 216.16 185.229 216.16C185.443 216.16 185.672 216.176 185.917 216.208C186.163 216.24 186.371 216.293 186.541 216.368V217.68C186.413 217.627 186.253 217.584 186.061 217.552C185.869 217.509 185.683 217.488 185.501 217.488C185.032 217.488 184.669 217.627 184.413 217.904C184.168 218.171 184.045 218.592 184.045 219.168V220.256L183.805 219.936H189.165V228H187.549V221.184H184.061V228H182.445ZM187.421 218.256V216.576H189.293V218.256H187.421ZM191.528 228V221.872C191.528 221.563 191.512 221.248 191.48 220.928C191.458 220.597 191.432 220.267 191.4 219.936H192.968L193.112 221.632H192.92C193.165 221.035 193.544 220.581 194.056 220.272C194.568 219.952 195.16 219.792 195.832 219.792C196.781 219.792 197.496 220.053 197.976 220.576C198.466 221.099 198.712 221.909 198.712 223.008V228H197.096V223.104C197.096 222.389 196.952 221.877 196.664 221.568C196.386 221.248 195.96 221.088 195.384 221.088C194.701 221.088 194.157 221.301 193.752 221.728C193.346 222.144 193.144 222.709 193.144 223.424V228H191.528ZM204.74 228.144C203.439 228.144 202.415 227.776 201.668 227.04C200.921 226.304 200.548 225.285 200.548 223.984C200.548 223.141 200.708 222.405 201.028 221.776C201.359 221.147 201.812 220.661 202.388 220.32C202.975 219.968 203.652 219.792 204.42 219.792C205.177 219.792 205.812 219.952 206.324 220.272C206.836 220.592 207.225 221.045 207.492 221.632C207.759 222.208 207.892 222.891 207.892 223.68V224.192H201.812V223.264H206.788L206.516 223.472C206.516 222.672 206.335 222.053 205.972 221.616C205.62 221.168 205.108 220.944 204.436 220.944C203.689 220.944 203.113 221.205 202.708 221.728C202.303 222.24 202.1 222.949 202.1 223.856V224.016C202.1 224.965 202.329 225.68 202.788 226.16C203.257 226.64 203.919 226.88 204.772 226.88C205.241 226.88 205.679 226.816 206.084 226.688C206.5 226.549 206.895 226.325 207.268 226.016L207.796 227.12C207.423 227.451 206.969 227.707 206.436 227.888C205.903 228.059 205.337 228.144 204.74 228.144Z" fill="#232334"/>
<defs>
<clipPath id="clip0_223_544">
<rect width="89" height="36" fill="white" transform="translate(283 557)"/>
</clipPath>
<clipPath id="clip1_223_544">
<rect width="111" height="36" fill="white" transform="translate(0 347)"/>
</clipPath>
<clipPath id="clip2_223_544">
<rect width="179" height="36" fill="white" transform="translate(239)"/>
</clipPath>
<clipPath id="clip3_223_544">
<rect width="126" height="36" fill="white" transform="translate(540 347)"/>
</clipPath>
<clipPath id="clip4_223_544">
<rect width="186" height="36" fill="white" transform="translate(493 137)"/>
</clipPath>
<clipPath id="clip5_223_544">
<rect width="159" height="36" fill="white" transform="translate(0 137)"/>
</clipPath>
<clipPath id="clip6_223_544">
<rect width="196" height="196" fill="white" transform="translate(233.72 135)"/>
</clipPath>
<clipPath id="clip7_223_544">
<rect width="196" height="196" fill="white" transform="translate(302.48 261.16)"/>
</clipPath>
<clipPath id="clip8_223_544">
<rect width="196" height="196" fill="white" transform="translate(157 261.16)"/>
</clipPath>
</defs>
</svg>
