<svg width="20" height="20" viewBox="0 0 20 20" fill="none" xmlns="http://www.w3.org/2000/svg">
<g clip-path="url(#clip0_0_566)">
<path d="M1.1313 7.11636V15.8719C1.1313 17.5289 2.47138 18.869 4.12821 18.869H15.8718C17.5288 18.869 18.8688 17.5289 18.8688 15.8719V7.147C16.3341 7.80965 13.3076 8.19461 10.0581 8.19461C6.75783 8.19461 3.68902 7.79773 1.1313 7.11636ZM0.00270893 3.44971C0.000915996 3.49638 1.28569e-05 3.54308 0 3.58978L0 16.4105C0 18.3891 1.61097 20.0002 3.58997 20.0002H16.4102C18.3891 20.0002 20 18.3891 20 16.4105V3.58978C20 3.56565 19.9998 3.54137 19.9993 3.51733V6.82291C19.8485 6.87009 19.6957 6.91634 19.5408 6.96146V16.116C19.5408 18.0042 18.0039 19.5411 16.1157 19.5411H3.88421C1.99613 19.5411 0.459138 18.0042 0.459138 16.116V6.92733C0.304188 6.88133 0.151306 6.83424 0.000689545 6.78617V3.56964C0.000738798 3.52955 0.00137909 3.4895 0.00270893 3.44971Z" fill="#3C514A"/>
<path d="M1.13126 4.12372C1.13126 2.47113 2.47135 1.12691 4.12817 1.12691H15.8718C17.5287 1.12691 18.8688 2.47113 18.8688 4.12372V15.8716C18.8688 17.5287 17.5287 18.8688 15.8718 18.8688H4.12812C2.4713 18.8688 1.13122 17.5287 1.13122 15.8716L1.13126 4.12372ZM0.459106 3.88395V16.1157C0.459106 18.0039 1.9961 19.5409 3.88417 19.5409H16.1158C18.0039 19.5409 19.5408 18.0039 19.5408 16.1157V3.88395C19.5408 1.99598 18.0039 0.458984 16.1158 0.458984H3.88417C1.9961 0.458984 0.459106 1.99598 0.459106 3.88395Z" fill="#3C514A"/>
<path d="M16.5742 0H3.38776C3.2991 0 3.21153 0.00448204 3.1245 0.0111312C1.40379 0.235529 0.0610013 1.68293 0.00268555 3.4496C0.0765161 1.53547 1.65784 0 3.58989 0H16.4102C18.3649 0 19.9606 1.57177 19.9992 3.51722V3.51028C19.9703 1.74726 18.6638 0.288279 16.9669 0.023149C16.8379 0.00837304 16.7071 0 16.5742 0" fill="#3C514A"/>
<path d="M15.8719 1.12701H4.12827C2.47144 1.12701 1.13136 2.47123 1.13136 4.12382V7.1162C3.68908 7.79757 6.75785 8.19445 10.0581 8.19445C13.3075 8.19445 16.3341 7.80949 18.8688 7.14684V4.12387C18.8688 2.47128 17.5288 1.12701 15.8719 1.12701ZM16.4103 0H3.59003C1.65798 0 0.0766552 1.53547 0.00282462 3.4496C0.00154404 3.48939 0.000854492 3.52943 0.000854492 3.56953V6.78601C0.153174 6.83466 0.305999 6.88171 0.459303 6.92717V3.88411C0.459303 1.99613 1.9963 0.459138 3.88437 0.459138H16.116C18.0041 0.459138 19.541 1.99613 19.541 3.88411V6.96135C19.6943 6.91672 19.8471 6.87053 19.9995 6.8228V3.51722C19.9607 1.57177 18.3651 0 16.4103 0Z" fill="#3C514A"/>
<path d="M16.1158 0.458984H3.88417C1.9961 0.458984 0.459106 1.99598 0.459106 3.88395V6.92701C0.682244 6.99318 0.906303 7.05619 1.13122 7.11605V4.12372C1.13122 2.47113 2.4713 1.12691 4.12813 1.12691H15.8718C17.5287 1.12691 18.8687 2.47113 18.8687 4.12372V7.14678C19.0936 7.08805 19.3177 7.0262 19.5408 6.96124V3.88395C19.5408 1.99598 18.0039 0.458984 16.1158 0.458984Z" fill="#3C514A"/>
<path d="M11.9926 5H10.2944C9.28669 5 8.16581 5.43878 8.16581 6.95102C8.17073 7.47795 8.16581 7.98259 8.16581 8.55052H7V10.4711H8.20188V16H10.4104V10.4346H11.8681L12 8.54514H10.3724C10.3724 8.54514 10.376 7.70463 10.3724 7.46054C10.3724 6.86293 10.973 6.89716 11.0091 6.89716C11.295 6.89716 11.8507 6.89802 11.9934 6.89716V5H11.9926Z" fill="white"/>
</g>
<defs>
<clipPath id="clip0_0_566">
<rect width="20" height="20" rx="5" fill="white"/>
</clipPath>
</defs>
</svg>
