<svg width="24" height="24" viewBox="0 0 24 24" fill="none" xmlns="http://www.w3.org/2000/svg">
<g filter="url(#filter0_bi_239_4714)">
<circle cx="12" cy="12" r="12" fill="#0DB760"/>
</g>
<g clip-path="url(#clip0_239_4714)">
<path d="M14.5 7H9.5C8.11929 7 7 8.11929 7 9.5V14.5C7 15.8807 8.11929 17 9.5 17H14.5C15.8807 17 17 15.8807 17 14.5V9.5C17 8.11929 15.8807 7 14.5 7Z" stroke="white" stroke-linecap="round" stroke-linejoin="round"/>
<path d="M13.9979 11.6852C14.0596 12.1013 13.9885 12.5263 13.7948 12.8997C13.601 13.2731 13.2945 13.5759 12.9187 13.765C12.543 13.9541 12.1171 14.0199 11.7018 13.9531C11.2865 13.8863 10.9028 13.6902 10.6053 13.3927C10.3079 13.0953 10.1118 12.7116 10.0449 12.2963C9.9781 11.8809 10.0439 11.4551 10.2331 11.0793C10.4222 10.7036 10.725 10.397 11.0984 10.2033C11.4718 10.0095 11.8968 9.93844 12.3129 10.0002C12.7374 10.0631 13.1303 10.2609 13.4337 10.5643C13.7372 10.8677 13.935 11.2607 13.9979 11.6852Z" stroke="white" stroke-linecap="round" stroke-linejoin="round"/>
<path d="M14.75 9.25H14.755" stroke="white" stroke-linecap="round" stroke-linejoin="round"/>
</g>
<defs>
<filter id="filter0_bi_239_4714" x="-42" y="-42" width="108" height="108" filterUnits="userSpaceOnUse" color-interpolation-filters="sRGB">
<feFlood flood-opacity="0" result="BackgroundImageFix"/>
<feGaussianBlur in="BackgroundImageFix" stdDeviation="21"/>
<feComposite in2="SourceAlpha" operator="in" result="effect1_backgroundBlur_239_4714"/>
<feBlend mode="normal" in="SourceGraphic" in2="effect1_backgroundBlur_239_4714" result="shape"/>
<feColorMatrix in="SourceAlpha" type="matrix" values="0 0 0 0 0 0 0 0 0 0 0 0 0 0 0 0 0 0 127 0" result="hardAlpha"/>
<feOffset dx="-5" dy="-5"/>
<feGaussianBlur stdDeviation="125"/>
<feComposite in2="hardAlpha" operator="arithmetic" k2="-1" k3="1"/>
<feColorMatrix type="matrix" values="0 0 0 0 1 0 0 0 0 1 0 0 0 0 1 0 0 0 0.02 0"/>
<feBlend mode="normal" in2="shape" result="effect2_innerShadow_239_4714"/>
</filter>
<clipPath id="clip0_239_4714">
<rect width="12" height="12" fill="white" transform="translate(6 6)"/>
</clipPath>
</defs>
</svg>
