<svg width="48" height="49" viewBox="0 0 48 49" fill="none" xmlns="http://www.w3.org/2000/svg">
<path d="M30.7239 0.113735C29.4184 0.53582 28.427 1.38981 27.8479 2.59717L27.4847 3.36282L27.4552 9.9984L27.4258 16.6438L26.5227 16.6831C25.7669 16.7125 25.5117 16.7714 24.9521 17.0266C24.0785 17.4389 23.3031 18.2143 22.8908 19.088L22.5767 19.7555L22.5276 24.6634C22.4883 28.364 22.4393 29.6401 22.3509 29.8659C22.0564 30.5432 21.4479 31.0929 20.8393 31.2401L20.5742 31.3088L20.5448 24.7027L20.5153 18.0867L20.1521 17.3211C19.6614 16.3101 18.9546 15.6033 17.9436 15.1125L17.1779 14.7493H10.2577H3.33742L2.57178 15.1125C1.56074 15.6033 0.853988 16.3101 0.36319 17.3211L0 18.0867V31.3874V44.688L0.36319 45.4536C0.853988 46.4647 1.56074 47.1714 2.57178 47.6622L3.33742 48.0254H10.2577H17.1779L17.9436 47.6622C18.9546 47.1714 19.6614 46.4647 20.1521 45.4536L20.5153 44.688L20.5448 39.034L20.5742 33.3702L21.0356 33.3113C22.2429 33.1542 23.5485 32.1432 24.1276 30.926L24.4417 30.2585L24.4908 25.3505C24.5399 20.4622 24.5399 20.4426 24.7656 19.9812C25.1779 19.137 25.865 18.7248 26.8368 18.7248H27.4258L27.4552 24.3395L27.4847 29.964L27.8479 30.7297C28.3386 31.7407 29.0454 32.4475 30.0564 32.9383L30.8221 33.3015H37.7423H44.6626L45.4282 32.9383C46.4393 32.4475 47.146 31.7407 47.6368 30.7297L48 29.964V16.6634V3.36282L47.6368 2.59717C47.146 1.58613 46.4393 0.879379 45.4282 0.38858L44.6626 0.0253906L37.8896 0.00576019C32.5988 -0.0138741 31.0282 0.0155754 30.7239 0.113735ZM44.427 2.19472C44.9865 2.45975 45.5558 3.01926 45.8012 3.54932C45.9386 3.85361 45.9877 4.18736 45.9877 4.90392V5.86588H37.6736H29.3693L29.4282 4.93336C29.4675 4.42294 29.5558 3.8438 29.6442 3.63766C29.9975 2.78367 30.7337 2.19472 31.627 2.03766C31.892 1.9984 34.7681 1.96895 38.0368 1.96895C43.8675 1.98858 43.9853 1.98858 44.427 2.19472ZM45.9877 16.6634V25.4978H37.6933H29.3988V22.1113V18.7248H32.9914H36.584L36.4172 18.98C36.1031 19.4708 36.2307 20.1972 36.6822 20.4818C36.9865 20.6683 37.6049 20.6291 37.919 20.4131C38.0663 20.3051 38.6356 19.7555 39.1951 19.1861C40.1865 18.1555 40.1963 18.1456 40.1963 17.6745V17.1935L38.9399 15.9469C37.7325 14.7493 37.6638 14.7002 37.2712 14.7002C36.3975 14.7002 35.9264 15.6622 36.4564 16.3788L36.6724 16.6634H33.0307H29.3988V12.2463V7.82907H37.6933H45.9877V16.6634ZM16.9423 16.9186C17.5018 17.1837 18.0712 17.7432 18.3166 18.2732C18.454 18.5775 18.5031 18.9113 18.5031 19.6278V20.5898H10.189H1.88466L1.94356 19.6573C1.98282 19.1469 2.07117 18.5677 2.15951 18.3616C2.51288 17.5076 3.24908 16.9186 4.14233 16.7616C4.40736 16.7223 7.28344 16.6929 10.5521 16.6929C16.3828 16.7125 16.5006 16.7125 16.9423 16.9186ZM18.5031 26.9702V31.3874H16.0687H13.6442L13.4773 30.9162C13.1043 29.8953 12.0147 28.8843 10.9546 28.5702C10.1104 28.3248 8.78528 28.4229 8.03926 28.7861C7.29325 29.1493 6.54724 29.9051 6.17423 30.6512C5.9092 31.2009 5.88957 31.3186 5.88957 32.3689C5.88957 33.4193 5.9092 33.537 6.17423 34.0867C6.54724 34.8426 7.30307 35.5984 8.04908 35.9518C8.79509 36.315 10.1202 36.4033 10.9546 36.1677C12.0147 35.8536 13.1043 34.8426 13.4773 33.8119L13.6442 33.3505H16.0687H18.5031V36.7861V40.2217H10.2086H1.91411V31.3874V22.553H10.2086H18.5031V26.9702ZM45.9681 28.4622C45.9288 29.6009 45.8012 29.9739 45.2319 30.5334C44.4957 31.2794 44.908 31.2401 37.8405 31.2696C30.7436 31.299 31.038 31.3285 30.2822 30.5824C29.7031 30.0328 29.5067 29.5125 29.4282 28.4033L29.3693 27.461H37.6834H46.0074L45.9681 28.4622ZM10.6601 30.7002C11.5632 31.1714 11.9166 32.4082 11.3865 33.3113C10.4245 34.9505 7.90184 34.2732 7.90184 32.3788C7.90184 31.2794 8.64785 30.5137 9.74724 30.5039C10.081 30.5039 10.4049 30.5726 10.6601 30.7002ZM18.4834 43.1861C18.4442 44.3248 18.3166 44.6978 17.7472 45.2573C17.011 46.0033 17.4233 45.964 10.3558 45.9935C3.2589 46.0229 3.55337 46.0524 2.79755 45.3064C2.21841 44.7567 2.02209 44.2364 1.94356 43.1272L1.88466 42.1849H10.1988H18.5227L18.4834 43.1861Z" fill="#232334"/>
<path d="M15.3227 4.08925C14.8712 4.39355 14.6749 4.76655 14.6749 5.37514C14.6749 6.30766 15.2147 6.84753 16.1473 6.84753C17.0798 6.84753 17.6197 6.30766 17.6197 5.37514C17.6197 4.44263 17.0798 3.90275 16.1473 3.90275C15.7841 3.90275 15.519 3.96164 15.3227 4.08925Z" fill="#D4AE5E"/>
<path d="M3.15091 5.13956C2.94477 5.34569 2.89569 5.49293 2.89569 5.86594C2.89569 6.51379 3.22943 6.84753 3.87729 6.84753C4.52514 6.84753 4.85888 6.51379 4.85888 5.86594C4.85888 5.21809 4.52514 4.88434 3.87729 4.88434C3.50428 4.88434 3.35704 4.93342 3.15091 5.13956Z" fill="#D4AE5E"/>
<path d="M22.7828 9.06583C22.5767 9.27196 22.5276 9.4192 22.5276 9.79221C22.5276 10.1652 22.5767 10.3125 22.7828 10.5186C22.989 10.7247 23.1362 10.7738 23.5092 10.7738C23.8822 10.7738 24.0295 10.7247 24.2356 10.5186C24.4417 10.3125 24.4908 10.1652 24.4908 9.79221C24.4908 9.4192 24.4417 9.27196 24.2356 9.06583C24.0295 8.85969 23.8822 8.81061 23.5092 8.81061C23.1362 8.81061 22.989 8.85969 22.7828 9.06583Z" fill="#D4AE5E"/>
<path d="M24.746 37.5321C24.5398 37.7383 24.4908 37.8855 24.4908 38.2585C24.4908 38.6315 24.5398 38.7788 24.746 38.9849C24.9521 39.191 25.0993 39.2401 25.4723 39.2401C26.1202 39.2401 26.4539 38.9064 26.4539 38.2585C26.4539 37.8855 26.4049 37.7383 26.1987 37.5321C25.8257 37.1689 25.119 37.1689 24.746 37.5321Z" fill="#D4AE5E"/>
<path d="M43.789 37.4635C43.3375 37.7678 43.1411 38.1408 43.1411 38.7494C43.1411 39.6819 43.681 40.2218 44.6135 40.2218C45.5461 40.2218 46.0859 39.6819 46.0859 38.7494C46.0859 37.8169 45.5461 37.277 44.6135 37.277C44.2503 37.277 43.9853 37.3359 43.789 37.4635Z" fill="#D4AE5E"/>
<path d="M35.5435 45.3849C35.3373 45.5911 35.2883 45.7383 35.2883 46.1113C35.2883 46.7592 35.622 47.0929 36.2699 47.0929C36.9177 47.0929 37.2515 46.7592 37.2515 46.1113C37.2515 45.4634 36.9177 45.1297 36.2699 45.1297C35.8969 45.1297 35.7496 45.1788 35.5435 45.3849Z" fill="#D4AE5E"/>
</svg>
