<svg width="49" height="40" viewBox="0 0 49 40" fill="none" xmlns="http://www.w3.org/2000/svg">
<path d="M10.1168 0.185553C9.19092 0.692369 8.85954 1.87169 9.3761 2.86583C9.67824 3.45062 10.302 3.79175 11.0622 3.79175C11.647 3.79175 12.0661 3.60657 12.4462 3.17772C13.2455 2.26155 13.0895 0.955524 12.1051 0.273271C11.6275 -0.0483627 10.6334 -0.0970953 10.1168 0.185553ZM11.5008 1.45259C11.7542 1.706 11.7445 2.03738 11.5008 2.31028C11.1012 2.72938 10.4092 2.46623 10.4092 1.89119C10.4092 1.32589 11.1012 1.05299 11.5008 1.45259Z" fill="#D4AE5E"/>
<path d="M32.7092 0.71182C31.8223 1.0432 31.2667 1.7352 31.2083 2.61238C31.1595 3.27514 31.2862 3.72348 31.6663 4.25954C32.3973 5.25368 34.1127 5.3414 35.0191 4.41548C36.0717 3.36286 35.7891 1.52078 34.4733 0.858017C33.9665 0.594862 33.1965 0.536383 32.7092 0.71182ZM33.9178 2.05683C34.7365 2.61238 34.3954 3.79171 33.4305 3.79171C32.6117 3.79171 32.1732 2.91452 32.6605 2.29075C33.0406 1.81317 33.4402 1.7352 33.9178 2.05683Z" fill="#D4AE5E"/>
<path d="M20.9549 2.42717C20.6917 2.69032 20.7112 3.0217 21.0036 3.34334C21.3155 3.68447 21.7249 3.7137 22.0562 3.43106C22.2902 3.20689 22.2609 2.88525 21.9685 2.53438C21.6664 2.17376 21.2473 2.13478 20.9549 2.42717Z" fill="#232334"/>
<path d="M22.6606 2.47589C22.2025 2.92423 22.4169 3.62598 22.9919 3.62598C23.411 3.62598 23.8106 3.22637 23.8106 2.80727C23.8106 2.23223 23.1089 2.01781 22.6606 2.47589Z" fill="#232334"/>
<path d="M40.0873 3.01199C39.6097 3.20692 39.5025 4.12309 39.9118 4.52269C40.1847 4.80534 40.4089 4.82483 40.7208 4.61041C40.8962 4.48371 40.9352 4.36675 40.9352 3.89892C40.9352 3.12895 40.6233 2.79757 40.0873 3.01199Z" fill="#D4AE5E"/>
<path d="M4.60035 3.55776C4.42491 3.67472 4.38593 3.80143 4.38593 4.18154C4.38593 4.56165 4.42491 4.68836 4.60035 4.80531C5.08767 5.14644 5.60423 4.82481 5.60423 4.18154C5.60423 3.53827 5.08767 3.21664 4.60035 3.55776Z" fill="#232334"/>
<path d="M21.2863 3.93789C21.0134 4.05485 20.76 4.42521 20.76 4.71761C20.76 4.96127 21.1304 5.25366 21.4325 5.25366C21.7639 5.25366 22.222 4.77608 22.222 4.43496C22.222 4.01586 21.7347 3.75271 21.2863 3.93789Z" fill="#232334"/>
<path d="M22.8555 3.86966C22.1147 4.01586 22.4071 5.25366 23.1868 5.25366C23.567 5.25366 23.7814 5.02949 23.7814 4.62989C23.7814 4.16206 23.3135 3.7722 22.8555 3.86966Z" fill="#232334"/>
<path d="M3.33331 4.82475C3.0799 5.00018 3.04092 5.54599 3.27483 5.7799C3.48926 6.00407 4.2105 5.98458 4.41517 5.76041C4.63934 5.51675 4.61985 5.09765 4.38593 4.86373C4.15202 4.62982 3.63545 4.61032 3.33331 4.82475Z" fill="#D4AE5E"/>
<path d="M5.75047 4.73719C5.35086 4.88339 5.22416 5.49742 5.53605 5.77032C5.75047 5.96525 6.42298 5.98474 6.66664 5.80931C6.92005 5.62412 6.90055 5.06857 6.62765 4.84441C6.42298 4.67872 6.05261 4.62998 5.75047 4.73719Z" fill="#232334"/>
<path d="M38.177 4.84436C37.9333 5.10751 37.9626 5.60458 38.2257 5.78002C38.5474 6.00419 39.3271 5.98469 39.5708 5.74103C39.8144 5.49737 39.8242 5.03929 39.5902 4.83461C39.3271 4.60069 38.3914 4.61044 38.177 4.84436Z" fill="#232334"/>
<path d="M41.0327 4.8638C40.7793 5.11721 40.789 5.36087 41.0424 5.6825C41.2081 5.89693 41.3153 5.93591 41.7247 5.93591C42.3387 5.93591 42.748 5.60453 42.6408 5.17569C42.5531 4.79558 42.3289 4.66887 41.7442 4.66887C41.3543 4.66887 41.1789 4.7176 41.0327 4.8638Z" fill="#232334"/>
<path d="M15.0681 5.19522C14.0057 5.83849 13.9375 7.4759 14.9316 8.18739C15.3994 8.52852 16.3838 8.55776 16.9102 8.25562C18.0213 7.6026 18.0213 5.84824 16.9004 5.19522C16.3546 4.87359 15.5944 4.87359 15.0681 5.19522ZM16.2864 6.32581C16.5008 6.44277 16.5398 6.90086 16.3546 7.08604C16.2864 7.15426 16.1207 7.203 15.9842 7.203C15.6626 7.203 15.4969 7.03731 15.4969 6.69618C15.4969 6.30632 15.8868 6.12114 16.2864 6.32581Z" fill="#D4AE5E"/>
<path d="M4.54187 5.89698C4.4444 5.98469 4.38593 6.21861 4.38593 6.47202C4.38593 6.96909 4.57111 7.203 4.96097 7.203C5.40931 7.203 5.58474 6.99833 5.58474 6.47202C5.58474 6.13089 5.53601 5.97495 5.40931 5.87748C5.16564 5.6923 4.72705 5.70205 4.54187 5.89698Z" fill="#232334"/>
<path d="M39.8631 6.03334C39.6194 6.27701 39.5999 7.05672 39.8241 7.37836C40.0093 7.65126 40.5453 7.67075 40.7695 7.41734C41.0034 7.15419 40.9937 6.21853 40.7598 6.0041C40.5161 5.77994 40.097 5.79943 39.8631 6.03334Z" fill="#232334"/>
<path d="M25.4481 6.03345C24.2395 6.3161 23.5183 7.7001 23.8984 8.99638C24.0738 9.56167 24.7756 10.2439 25.3701 10.4096C27.7775 11.0919 29.3759 8.11919 27.4851 6.49153C26.9198 6.00421 26.2278 5.84827 25.4481 6.03345ZM26.4617 7.35897C26.9198 7.57339 27.1439 8.07046 26.9977 8.52855C26.8613 8.92815 26.413 9.24978 25.9939 9.24978C25.5943 9.24978 25.0485 8.68449 25.0485 8.27514C25.0485 7.86579 25.1947 7.62212 25.565 7.39795C25.9451 7.16404 26.0523 7.16404 26.4617 7.35897Z" fill="#D4AE5E"/>
<path d="M6.71532 8.20688C6.53988 8.32383 6.28648 8.59674 6.16952 8.81116C6.05256 9.02558 5.73093 9.34721 5.44828 9.5324C5.16563 9.72733 4.86349 10.01 4.78552 10.1562C4.68805 10.3316 4.48338 10.4876 4.24946 10.5655C3.76214 10.741 3.34304 11.1601 3.1676 11.6474L3.0409 12.0275L1.94929 12.3296C0.779718 12.661 0.389859 12.9144 0.136451 13.509C0.0194929 13.7721 0 15.6922 0 24.7856C0 35.5262 0 35.7602 0.194929 36.2767C0.448338 36.959 0.925915 37.495 1.56918 37.8557C2.3489 38.2845 3.38203 38.265 5.65296 37.7874C9.53205 36.9687 13.0798 36.7153 15.8088 37.0759C18.3331 37.4073 19.8048 37.9824 21.53 39.2981C22.2415 39.8439 22.797 39.9999 24.0738 39.9999C25.3506 39.9999 25.9061 39.8439 26.6176 39.3079C27.6215 38.5477 27.9724 38.3332 28.7521 37.9921C31.5298 36.7933 35.6818 36.5984 40.6038 37.4171C41.52 37.573 42.787 37.8167 43.4303 37.9531C44.941 38.2942 45.8182 38.265 46.5784 37.8557C47.1924 37.5145 47.6992 36.9297 47.9624 36.2475C48.1378 35.7797 48.1476 35.38 48.1476 24.7954C48.1476 15.6922 48.1281 13.7721 48.0111 13.509C47.7577 12.9144 47.3679 12.661 46.1983 12.3296L45.1067 12.0275L44.9702 11.6376C44.8143 11.1503 44.288 10.663 43.7909 10.5265C43.1769 10.3414 41.1496 9.95149 40.058 9.79555C33.8495 8.89888 28.4792 9.88327 24.8535 12.5733L24.064 13.1581L23.3623 12.6318C20.3409 10.3414 15.7113 9.18152 10.9161 9.52265C9.45408 9.62012 9.13245 9.52265 8.75233 8.8404C8.304 8.01195 7.40732 7.73904 6.71532 8.20688ZM7.83617 9.81504C7.95312 10.0685 8.14805 10.2634 8.48918 10.4486C8.75233 10.6045 8.96676 10.7605 8.96676 10.8092C8.96676 10.8579 8.75233 11.0139 8.48918 11.1406C8.19678 11.2965 7.98236 11.4817 7.90439 11.6571C7.84591 11.8033 7.70946 12.0372 7.612 12.1639L7.43656 12.3979L7.13442 11.8716C6.91025 11.4622 6.72507 11.2868 6.39369 11.1211C6.15003 11.0041 5.94535 10.8677 5.94535 10.8189C5.94535 10.7702 6.15003 10.6143 6.41318 10.4681C6.74456 10.2829 6.94924 10.0879 7.14417 9.72733C7.44631 9.17178 7.55352 9.18152 7.83617 9.81504ZM15.5749 10.9554C18.3916 11.355 20.9939 12.3784 22.7093 13.7624L23.3428 14.2789L23.372 24.8344L23.3915 35.3898L23.0797 35.1851C21.0231 33.8401 18.3819 32.9337 15.5456 32.5926C14.4638 32.4561 13.7133 32.4366 11.8907 32.4756C9.45408 32.5341 8.37222 32.651 6.02332 33.1286C5.20462 33.2943 4.48338 33.4015 4.41515 33.382C4.30794 33.343 4.28845 31.3937 4.28845 22.7486V12.1639L4.53211 11.93C4.78552 11.6669 4.92197 11.6279 5.01943 11.7838C5.05842 11.8423 5.25335 11.969 5.45803 12.0762C5.71143 12.2029 5.96484 12.4661 6.18901 12.817C6.58862 13.4505 7.03695 13.6844 7.64124 13.6064C8.12856 13.5382 8.46969 13.2848 8.75233 12.778C8.88878 12.5343 9.15194 12.2712 9.3956 12.125C9.9414 11.8033 10.1461 11.5694 10.2241 11.1796C10.2825 10.8774 10.3118 10.8579 10.8186 10.7897C11.6568 10.6922 14.3566 10.7897 15.5749 10.9554ZM37.5824 10.8092C40.3212 11.0236 43.3816 11.6084 43.6837 11.9788C43.8494 12.1834 43.8591 12.7585 43.8591 22.7584C43.8591 31.6666 43.8396 33.3333 43.7227 33.382C43.6545 33.4113 43.0502 33.3138 42.3874 33.1773C40.1165 32.6998 38.674 32.5341 36.2569 32.4756C33.6058 32.4171 32.0074 32.5633 30.0874 33.0506C28.2063 33.5185 26.9198 34.0545 25.4188 34.9902L24.6586 35.458V24.9416V14.4349L25.1264 14.0158C27.7969 11.6376 32.5337 10.4193 37.5824 10.8092ZM3.1871 33.9571C3.42101 34.3567 3.79138 34.6101 4.22022 34.6588C4.49312 34.6978 5.2631 34.5906 6.39369 34.3567C11.111 33.421 15.3897 33.499 18.8302 34.6003C20.068 34.9902 21.9198 35.9259 22.8555 36.6276C24.0251 37.5145 24.142 37.5048 25.448 36.5399C29.1517 33.7914 35.0093 33.0117 41.7539 34.3567C42.8845 34.5906 43.6545 34.6978 43.9274 34.6588C44.3562 34.6101 44.7266 34.3567 44.9605 33.9571C45.0482 33.8109 45.0872 31.0331 45.1262 23.5673L45.1749 13.3628L45.9449 13.5869C46.364 13.7039 46.7441 13.8696 46.7928 13.9378C46.8416 14.0158 46.8805 18.9085 46.8805 24.8246C46.8805 35.3703 46.8805 35.5847 46.6856 35.9551C46.5784 36.1598 46.3347 36.4522 46.1301 36.6081C45.6232 36.998 44.8533 36.9785 42.6896 36.5204C39.6292 35.8674 38.2354 35.7212 35.136 35.7212C32.7676 35.7212 32.2608 35.7504 31.2862 35.9259C29.1225 36.3352 27.5533 36.9687 26.2375 37.9726C25.3701 38.6354 25.0095 38.7718 24.0738 38.7718C23.1381 38.7718 22.7775 38.6354 21.9101 37.9726C20.5943 36.9687 19.0251 36.3352 16.8614 35.9259C15.8868 35.7504 15.3799 35.7212 13.0115 35.7212C9.91216 35.7212 8.51842 35.8674 5.45803 36.5204C3.29431 36.9785 2.52434 36.998 2.01752 36.6081C1.81284 36.4522 1.56918 36.1598 1.46197 35.9551C1.26704 35.5847 1.26704 35.3703 1.26704 24.8246C1.26704 18.9085 1.30603 14.0158 1.35476 13.9378C1.40349 13.8696 1.7836 13.7039 2.2027 13.5869L2.97267 13.3628L3.02141 23.5673C3.06039 31.0331 3.09938 33.8109 3.1871 33.9571Z" fill="#232334"/>
<path d="M11.5008 15.2535C10.5262 15.3705 9.17144 15.6239 8.89854 15.7311C8.53792 15.887 8.39172 16.2477 8.55741 16.6083C8.71335 16.9494 8.95701 16.9786 10.1071 16.7545C11.6081 16.4621 13.4989 16.4036 14.9901 16.5985C16.7639 16.8324 18.1772 17.3295 19.8828 18.3139C20.721 18.8012 21.4033 17.8851 20.643 17.3003C19.6879 16.5888 17.8653 15.8383 16.1986 15.4874C15.2825 15.2925 12.378 15.1463 11.5008 15.2535Z" fill="#D4AE5E"/>
<path d="M11.3546 18.9573C9.72695 19.1522 8.83027 19.3277 8.66458 19.4934C8.42092 19.737 8.43066 20.1171 8.67433 20.3608C8.90824 20.5947 9.04469 20.5947 10.185 20.3998C11.5983 20.1659 13.9764 20.1171 15.3994 20.3023C16.8809 20.4973 18.4403 20.9943 19.4149 21.5889C19.8048 21.8228 20.2239 22.0177 20.3506 22.0177C20.643 22.0177 20.9549 21.6863 20.9549 21.3842C20.9549 21.0236 20.565 20.7117 19.4442 20.1561C17.6411 19.2789 15.6625 18.8891 13.0797 18.9086C12.2903 18.9183 11.5203 18.9476 11.3546 18.9573Z" fill="#232334"/>
<path d="M10.7309 22.7973C9.08371 22.9143 8.79132 22.9728 8.62563 23.2164C8.54766 23.3334 8.47943 23.5186 8.47943 23.6355C8.47943 23.9182 8.94726 24.2885 9.21042 24.2203C9.31763 24.1911 10.1851 24.1229 11.1305 24.0644C14.7269 23.8305 18.0212 24.3275 19.6002 25.3314C20.3214 25.7992 20.9549 25.653 20.9549 25.0195C20.9549 24.2788 18.5963 23.2652 16.1304 22.9435C14.7367 22.7583 12.1636 22.6901 10.7309 22.7973Z" fill="#D4AE5E"/>
<path d="M11.647 26.5985C10.1363 26.7349 8.87903 26.9786 8.66461 27.193C8.42095 27.4367 8.43069 27.8168 8.6841 28.0702C8.84979 28.2359 8.96675 28.2651 9.2494 28.2261C9.44433 28.1969 10.0584 28.0994 10.6237 28.0117C11.2669 27.9045 12.2416 27.846 13.2552 27.846C15.7893 27.8363 17.4949 28.2066 19.2883 29.1423C19.7951 29.4055 20.2824 29.6199 20.3799 29.6199C20.6528 29.6199 20.9549 29.269 20.9549 28.9474C20.9549 28.577 20.604 28.3041 19.4832 27.7778C17.4072 26.8031 14.4345 26.3548 11.647 26.5985Z" fill="#232334"/>
<path d="M33.099 15.2925C31.0425 15.5557 28.7131 16.3841 27.5143 17.3003C26.7443 17.8851 27.4265 18.8012 28.2647 18.3139C31.3836 16.5108 34.522 16.043 38.3426 16.813C39.2198 16.9884 39.5219 16.9202 39.6291 16.5108C39.7168 16.1404 39.5317 15.8188 39.1613 15.6921C38.0112 15.3217 34.6389 15.0976 33.099 15.2925Z" fill="#232334"/>
<path d="M32.4167 19.045C31.0425 19.24 29.8339 19.6006 28.7033 20.1561C27.5825 20.7117 27.1926 21.0236 27.1926 21.3842C27.1926 21.6863 27.5045 22.0177 27.8067 22.0177C27.9236 22.0177 28.3427 21.8228 28.7326 21.5889C29.7072 20.9943 31.2667 20.4973 32.7481 20.3023C34.1711 20.1171 36.5492 20.1659 37.9625 20.3998C39.1028 20.5947 39.2393 20.5947 39.4732 20.3608C39.7168 20.1171 39.7266 19.737 39.4829 19.4934C39.0248 19.0353 34.5025 18.7429 32.4167 19.045Z" fill="#D4AE5E"/>
<path d="M33.2939 22.8071C30.0483 23.0702 27.1926 24.1131 27.1926 25.0293C27.1926 25.653 27.8359 25.7992 28.5474 25.3314C30.1263 24.3275 33.4206 23.8305 37.0171 24.0644C37.9625 24.1228 38.8397 24.1911 38.9566 24.2203C39.21 24.2885 39.6681 23.8792 39.6681 23.5965C39.6681 23.1774 39.366 22.9923 38.5375 22.8948C37.2802 22.7583 34.4635 22.7096 33.2939 22.8071Z" fill="#232334"/>
<path d="M39.1808 25.2535C39.0541 25.3217 38.8007 25.6433 38.6155 25.965C38.1282 26.8324 38.1574 26.8227 37.3679 26.6862C36.3543 26.5108 33.2744 26.54 32.1633 26.7252C30.8963 26.9396 29.639 27.3197 28.6643 27.7778C27.5435 28.3041 27.1926 28.577 27.1926 28.9474C27.1926 29.2593 27.485 29.6199 27.7482 29.6199C27.8359 29.6199 28.3232 29.4055 28.8398 29.1423C30.3602 28.3723 31.598 28.041 33.5571 27.8655C34.1516 27.8168 35.0873 27.7973 35.6331 27.8363L36.6272 27.8948L36.6857 28.2067C36.7539 28.577 36.8904 28.7037 37.6506 29.1326C38.0989 29.3762 38.2744 29.5517 38.479 29.9318C38.9176 30.7602 39.1126 30.9357 39.5512 30.9357C40.0385 30.9357 40.1749 30.809 40.6038 30.039C40.9059 29.5127 41.0424 29.3762 41.5687 29.0838C42.3289 28.655 42.4459 28.5185 42.4459 28.0605C42.4459 27.6024 42.3289 27.4659 41.5589 27.0371C41.0326 26.7349 40.8962 26.5985 40.594 26.0722C40.3991 25.7311 40.1847 25.3997 40.1165 25.3412C39.9118 25.1658 39.4439 25.1268 39.1808 25.2535ZM39.8046 27.3197C39.902 27.5049 40.1262 27.7291 40.3114 27.8265C40.4966 27.924 40.6428 28.0312 40.6428 28.0605C40.633 28.0897 40.4966 28.1969 40.3211 28.3041C40.1554 28.4113 39.9215 28.6452 39.8143 28.8109C39.7071 28.9864 39.5999 29.1228 39.5707 29.1326C39.5414 29.1326 39.4342 28.9864 39.3367 28.8012C39.2393 28.616 39.0151 28.3918 38.8299 28.2944C38.6447 28.1969 38.4985 28.0897 38.4985 28.0605C38.4985 28.0312 38.6447 27.924 38.8299 27.8265C39.0151 27.7291 39.2393 27.5049 39.3367 27.3197C39.4342 27.1345 39.5414 26.9883 39.5707 26.9883C39.5999 26.9883 39.7071 27.1345 39.8046 27.3197Z" fill="#D4AE5E"/>
</svg>
