<svg width="49" height="49" viewBox="0 0 49 49" fill="none" xmlns="http://www.w3.org/2000/svg">
<path d="M7.79981 0.181786C7.33087 0.401905 6.95762 0.784718 6.72794 1.29195C6.57481 1.62691 6.55567 2.02886 6.52696 4.37359L6.49825 7.06285L4.27793 7.10113C2.2586 7.12984 2.01934 7.14898 1.61738 7.33082C1.04317 7.59879 0.507227 8.14429 0.229688 8.74723L0 9.23531V23.9736V38.7119L0.229688 39.2C0.507227 39.8029 1.04317 40.3484 1.61738 40.6164C2.02891 40.7982 2.24903 40.8174 4.67032 40.8461C6.51739 40.8748 7.36915 40.8461 7.56055 40.7695C8.04864 40.5685 8.15391 39.9273 7.7711 39.4967C7.63712 39.3531 7.38829 39.334 5.2254 39.334C3.90469 39.334 2.67012 39.2861 2.47871 39.2383C2.29688 39.1904 2.01934 39.0086 1.85664 38.8459L1.5791 38.5588L1.55039 35.3049L1.52168 32.0605H24.1172H46.7127L46.684 35.3049L46.6553 38.5588L46.3778 38.8459C46.2151 39.0086 45.9375 39.1904 45.7557 39.2383C45.5356 39.2957 39.133 39.334 27.8783 39.334C10.4604 39.334 10.3359 39.334 10.1445 39.5254C9.87657 39.7934 9.88614 40.3867 10.1541 40.6355C10.3455 40.8078 10.5752 40.8174 14.2215 40.8461L18.0879 40.8748V42.7314V44.5881L17.7242 44.6455C16.9299 44.7795 16.26 45.0953 15.7049 45.593C15.1115 46.1193 14.5469 47.3826 14.5469 48.1961C14.5469 48.3588 14.633 48.6076 14.7479 48.7512L14.9393 49H24.1172H33.2952L33.4866 48.7512C33.7258 48.4449 33.7354 48.0908 33.544 47.3443C33.1707 45.8992 32.051 44.9039 30.5102 44.6455L30.1465 44.5881V42.7314V40.8748L38.1664 40.8461C46.1002 40.8174 46.1768 40.8174 46.617 40.6164C47.1913 40.3484 47.7272 39.8029 48.0047 39.2L48.2344 38.7119V23.9736V9.23531L48.0047 8.74723C47.5932 7.85719 46.8372 7.28297 45.861 7.12984C45.3538 7.04371 44.9518 7.19683 44.7987 7.52222C44.5403 8.08687 44.837 8.55582 45.5165 8.66109C45.8227 8.69938 46.062 8.82379 46.3012 9.04391L46.6553 9.35973L46.684 19.9445L46.7032 30.5293H44.1192H41.5352V19.5713V8.61324H42.2913C42.9995 8.61324 43.0664 8.5941 43.2483 8.36441C43.478 8.0773 43.4971 7.86676 43.344 7.5318C43.1909 7.20641 42.875 7.08199 42.1573 7.08199H41.5448L41.5161 4.37359C41.4873 2.02886 41.4682 1.62691 41.3151 1.29195C41.0854 0.784718 40.7122 0.401905 40.2432 0.181786C39.8795 0.00952148 39.2383 -4.95911e-05 24.0215 -4.95911e-05C8.8047 -4.95911e-05 8.16348 0.00952148 7.79981 0.181786ZM39.7168 1.72261C39.8987 1.90445 39.9082 2.03843 39.9082 6.26851V10.623H27.3903C14.9201 10.623 14.8723 10.623 14.6617 10.8144C14.3459 11.1111 14.3746 11.6949 14.7 11.9533L14.9584 12.1543H27.4285H39.9082V21.3418V30.5293H24.0215H8.13477V21.3418V12.1543H9.90528C11.6662 12.1543 11.6854 12.1543 11.9151 11.915C12.2213 11.6183 12.2309 11.1494 11.9438 10.8431C11.7428 10.6326 11.6949 10.623 9.93399 10.623H8.13477V6.26851C8.13477 2.03843 8.14434 1.90445 8.32618 1.72261C8.51759 1.5312 8.642 1.5312 24.0215 1.5312C39.401 1.5312 39.5254 1.5312 39.7168 1.72261ZM6.50782 19.5713V30.5293H4.01954H1.53125L1.55039 19.9636L1.5791 9.38844L1.86621 9.09176C2.01934 8.92906 2.27774 8.7568 2.44043 8.71851C2.59356 8.67066 3.5793 8.62281 4.62247 8.62281L6.50782 8.61324V19.5713ZM28.6153 42.7314V44.5977H24.1172H19.6192V42.7314V40.8652H24.1172H28.6153V42.7314ZM30.4241 46.2342C30.9791 46.349 31.5534 46.7414 31.8022 47.1721L31.9744 47.4687H24.1172H16.26L16.4322 47.1721C16.6715 46.7605 17.1596 46.4064 17.686 46.2629C18.2793 46.1002 29.6967 46.0715 30.4241 46.2342Z" fill="#232334"/>
<path d="M12.4988 3.17721C12.3744 3.30162 11.7236 4.34479 11.0633 5.5028C9.76169 7.77096 9.64685 8.10593 10.0584 8.47917C10.2402 8.65143 10.4603 8.661 12.8625 8.68971C14.8148 8.70886 15.5135 8.68014 15.6953 8.58444C16.0111 8.42175 16.2217 8.03893 16.1451 7.74225C16.059 7.41686 13.6185 3.23463 13.4271 3.08151C13.1783 2.89967 12.7668 2.94752 12.4988 3.17721ZM13.6185 6.41198L13.9822 7.0819H12.9773H11.9724L12.4701 6.22057C13.0347 5.22526 12.9677 5.21569 13.6185 6.41198Z" fill="#D4AE5E"/>
<path d="M19.4661 3.92383C19.1981 4.0291 18.9493 4.3832 18.9493 4.66074C18.9493 4.77559 19.0546 4.9957 19.179 5.13926L19.4087 5.40723H25.9835H32.5583L32.788 5.13926C33.0751 4.79473 33.0751 4.48848 32.788 4.14394L32.5583 3.87598L26.1079 3.85683C22.5669 3.84726 19.5714 3.87598 19.4661 3.92383Z" fill="#232334"/>
<path d="M19.1693 7.23515C18.9684 7.43613 18.9396 7.54141 18.9875 7.82851C19.0928 8.51758 19.0832 8.51758 22.4902 8.51758C25.4188 8.51758 25.5336 8.50801 25.7824 8.3166C26.1174 8.0582 26.127 7.49355 25.8111 7.19687C25.591 6.98633 25.5432 6.98633 22.4998 6.98633H19.4182L19.1693 7.23515Z" fill="#232334"/>
<path d="M10.0488 14.3555C9.85743 14.5469 9.85743 14.6713 9.85743 21.6098V28.6822L10.0776 28.8832L10.2977 29.0938H17.3127H24.3182L24.5479 28.8545L24.7871 28.6248V21.6002V14.5756L24.567 14.3746L24.3469 14.164H17.2936C10.3647 14.164 10.2402 14.164 10.0488 14.3555ZM23.2559 19.4277V23.1602H22.7008C21.9543 23.1602 21.3035 23.3611 20.5953 23.8205C19.6574 24.433 19.4182 24.5287 18.8535 24.5383C18.1645 24.5478 17.552 24.2416 16.3653 23.3037C15.8676 22.9018 15.1977 22.4519 14.8819 22.2988C13.9152 21.8107 12.719 21.7246 11.7524 22.0691L11.3887 22.1935V18.9492V15.6953H17.3223H23.2559V19.4277ZM14.1162 23.6769C14.3842 23.8014 14.9776 24.2033 15.4465 24.567C16.5662 25.457 17.15 25.8016 17.8487 25.9834C19.1119 26.3088 19.9828 26.0982 21.5906 25.0838C22.1074 24.7584 22.6147 24.634 23.0071 24.7297L23.2559 24.7871V26.1748V27.5625H17.3223H11.3887V25.7441V23.9353L11.6949 23.7727C12.4701 23.3707 13.3985 23.3324 14.1162 23.6769Z" fill="#D4AE5E"/>
<path d="M18.1932 17.4754C17.0735 18.0304 16.6428 19.4277 17.217 20.557C17.5807 21.2556 18.1932 21.6385 19.0641 21.7055C19.6288 21.7437 19.7723 21.715 20.2413 21.4853C20.892 21.1695 21.294 20.6623 21.4376 19.9637C21.7342 18.5281 20.6911 17.2361 19.2268 17.2265C18.844 17.2265 18.5569 17.2935 18.1932 17.4754ZM19.6575 18.9588C20.136 19.332 19.8489 20.1933 19.2364 20.1933C18.5856 20.1933 18.3176 19.4181 18.8153 18.9683C19.112 18.7099 19.3321 18.7004 19.6575 18.9588Z" fill="#D4AE5E"/>
<path d="M26.883 14.8627C26.6246 15.0541 26.4906 15.3987 26.5576 15.7049C26.6916 16.2887 26.4906 16.2696 32.5678 16.2696C35.994 16.2696 38.1664 16.2313 38.2813 16.1739C38.5205 16.0495 38.6737 15.5518 38.5684 15.2743C38.3578 14.7192 38.5397 14.7383 32.5391 14.7383C28.3664 14.7479 26.9979 14.7766 26.883 14.8627Z" fill="#232334"/>
<path d="M27.1223 17.9635C26.8448 18.021 26.6246 18.2794 26.5481 18.6335C26.5098 18.8536 26.5481 18.978 26.7299 19.1981L26.9692 19.4757L32.4625 19.4948C36.7596 19.5139 37.9942 19.4948 38.1856 19.3991C38.7598 19.112 38.7502 18.3559 38.176 18.0688C37.8793 17.9061 37.42 17.8966 32.587 17.9061C29.6967 17.9157 27.2276 17.9444 27.1223 17.9635Z" fill="#232334"/>
<path d="M26.883 21.2749C26.6246 21.4663 26.4906 21.8108 26.5576 22.117C26.6916 22.7008 26.4906 22.6817 32.5869 22.6817C36.9893 22.6721 38.176 22.653 38.3004 22.5477C38.7311 22.2223 38.6832 21.4663 38.2239 21.2557C37.8698 21.1026 27.0936 21.1122 26.883 21.2749Z" fill="#232334"/>
<path d="M27.1223 24.3755C26.8448 24.4329 26.6246 24.6913 26.5481 25.0454C26.5098 25.2655 26.5481 25.3899 26.7299 25.61L26.9692 25.8876H32.5774C38.1665 25.8876 38.1856 25.8876 38.3866 25.6866C38.6545 25.4091 38.6545 24.8348 38.3866 24.5573C38.1856 24.3563 38.1569 24.3563 32.7497 24.3468C29.7637 24.3372 27.2276 24.3468 27.1223 24.3755Z" fill="#232334"/>
<path d="M26.883 27.6582C26.7969 27.7061 26.6725 27.8783 26.6055 28.041C26.4619 28.376 26.6055 28.8449 26.9022 28.998C26.9979 29.0555 28.2324 29.0938 29.7924 29.0938C32.3285 29.0938 32.5295 29.0842 32.7401 28.9119C33.0559 28.6535 33.0559 28.0027 32.7401 27.7443C32.5295 27.5721 32.3285 27.5625 29.7733 27.5625C28.2324 27.5625 26.9692 27.6104 26.883 27.6582Z" fill="#232334"/>
<path d="M23.6387 33.6206C23.1219 33.8885 22.8826 34.0991 22.6242 34.4819C22.3754 34.8456 22.3467 34.9604 22.3467 35.6973C22.3467 36.4821 22.3658 36.5395 22.6816 36.9797C23.6769 38.3579 25.7824 38.2047 26.5098 36.7022C27.0648 35.5538 26.5385 34.1086 25.39 33.6206C24.9976 33.4579 23.9545 33.4579 23.6387 33.6206ZM24.9498 35.2379C25.3805 35.6399 25.1125 36.3672 24.5287 36.3672C24.2033 36.3672 23.8301 36.0227 23.8301 35.7069C23.8301 35.3911 24.1842 35.0274 24.4904 35.0274C24.6148 35.0274 24.8254 35.1231 24.9498 35.2379Z" fill="#D4AE5E"/>
</svg>
