<svg width="48" height="42" viewBox="0 0 48 42" fill="none" xmlns="http://www.w3.org/2000/svg">
<path d="M31.2843 0.0655708C30.7312 0.159321 30.075 0.534321 29.775 0.937447C29.2687 1.60307 29.25 1.71557 29.25 4.70619V7.47181H15.1406C-0.35625 7.47181 0.759374 7.42494 0.24375 8.03431L0 8.33431V11.0812V13.8374L0.24375 14.0249C0.571874 14.2874 0.871874 14.2687 1.19062 13.9968L1.45312 13.7718L1.48125 11.3718L1.50937 8.97181H15.3844H29.25V10.9031C29.25 12.1312 29.2875 12.9749 29.3625 13.2093C29.4843 13.6124 30.1781 14.4562 30.4687 14.5499C30.6187 14.5968 30.6375 14.7374 30.675 15.9374C30.7125 17.5312 30.8156 17.8124 31.5187 18.1031C31.9218 18.2718 31.9875 18.2718 32.3812 18.1406L32.8125 17.9999V19.1343V20.278L30.9656 20.2405C29.175 20.2124 29.0906 20.2124 28.6875 20.428C28.0218 20.7749 27.9 21.0749 27.8625 22.5374C27.825 23.8218 27.9468 25.2843 28.1812 26.203C28.2468 26.4937 28.5 27.103 28.725 27.5624L29.1375 28.378H15.2719H1.40625V22.378C1.40625 16.4999 1.40625 16.3781 1.21875 16.1906C0.965624 15.9374 0.440625 15.9374 0.1875 16.1906C0 16.3781 0 16.4999 0 24.4124C0 32.0812 0.00937499 32.4655 0.178125 32.7187C0.571874 33.3187 0.365625 33.2999 5.22187 33.3468L9.63749 33.3937L8.21249 36.5343L6.78749 39.6749L4.79999 39.7218C2.9625 39.7687 2.8125 39.778 2.68125 39.9562C2.475 40.2187 2.49375 40.7155 2.70937 40.9312C2.8125 41.0343 3.0375 41.1468 3.20625 41.1749C3.375 41.203 9.76874 41.2124 17.4 41.203C30.9093 41.1749 31.2937 41.1655 31.4906 40.9968C31.6312 40.8655 31.6875 40.7062 31.6875 40.4249C31.6875 39.7405 31.6312 39.7218 29.4187 39.7218H27.4968L26.0718 36.6093C25.2937 34.8937 24.6562 33.4593 24.6562 33.4124C24.6562 33.3749 26.6156 33.3468 29.0062 33.3468H33.3468L33.6562 33.1312C33.825 33.0187 34.0312 32.7937 34.1156 32.6249L34.2656 32.3343L35.0156 33.0655C35.925 33.9468 36.3468 34.1249 36.9656 33.8999L37.3593 33.7499L37.8843 34.2562C38.5406 34.8843 38.9531 34.9968 39.3187 34.6312C39.7312 34.2187 39.6562 33.8718 39.0281 33.2343L38.4843 32.6905L39.4031 31.7718L40.3125 30.8624L42.75 33.2999L45.1875 35.7374L44.2781 36.6468L43.3593 37.5655L42.4218 36.628C41.5875 35.7937 41.4468 35.6905 41.1468 35.6905C40.7156 35.6905 40.4062 35.9999 40.4062 36.4405C40.4062 36.7124 40.5375 36.8905 41.4656 37.8187C42.0375 38.4093 42.6281 38.953 42.7687 39.028C42.9093 39.103 43.2187 39.1593 43.4625 39.1593H43.9031L45.3 37.7812C46.7999 36.2905 46.9593 36.0374 46.7812 35.4093C46.7156 35.1562 46.0499 34.4437 44.025 32.4187L41.3531 29.7468L41.4937 29.4937C41.6625 29.1655 41.6625 28.7437 41.4937 28.3499C41.3625 28.0312 37.9875 24.628 37.8093 24.628C37.7531 24.628 37.6593 24.403 37.5937 24.1312C37.2656 22.7249 36.375 21.6187 35.0718 20.9999L34.3218 20.6437L34.3125 18.4968V16.3499L34.8937 15.7312C35.2218 15.3937 35.55 15.0656 35.625 15.0187C35.7093 14.9624 37.7531 14.9062 41.0156 14.8781C46.8843 14.8218 46.6124 14.8593 47.325 14.1468C48.0187 13.4437 48 13.7062 48 7.47181V1.89369L47.7749 1.42495C47.5031 0.853069 47.1656 0.515572 46.5468 0.234322L46.0781 0.0186958L38.9062 -5.34058e-05C34.9593 -5.34058e-05 31.5375 0.0280724 31.2843 0.0655708ZM45.8343 1.59369C46.0125 1.65932 46.2468 1.82807 46.35 1.96869C46.5468 2.23119 46.5468 2.30619 46.5468 7.41556C46.5468 11.5124 46.5187 12.6468 46.4249 12.8249C46.1531 13.3406 46.3031 13.3312 40.6406 13.3781C35.4468 13.4249 35.3906 13.4249 34.9687 13.6312C34.6875 13.7718 34.1625 14.2593 33.375 15.1218L32.2031 16.3968L32.1562 15.2343C32.1 13.9499 32.0156 13.7249 31.4437 13.3687C31.275 13.2656 31.0406 13.0687 30.9375 12.9374C30.75 12.7031 30.75 12.5718 30.75 7.42494C30.75 2.24057 30.75 2.14682 30.9468 1.90307C31.05 1.77182 31.275 1.62182 31.4343 1.57494C31.9031 1.43432 45.4406 1.45307 45.8343 1.59369ZM33.2625 21.9468C34.5656 22.2749 35.4562 22.9218 35.8781 23.8405C36.3562 24.8812 36.4312 24.7218 34.3687 26.7749L32.5406 28.603L32.1375 28.4812C30.15 27.8812 29.3437 26.2593 29.3437 22.8562V21.703L31.0125 21.7499C32.0625 21.778 32.8875 21.853 33.2625 21.9468ZM38.6718 27.5343L40.0781 28.9405L38.3156 30.703L36.5625 32.4562L35.1375 31.0218L33.7031 29.5968L35.4375 27.8624C36.3937 26.9062 37.1906 26.128 37.2187 26.128C37.2468 26.128 37.9031 26.7655 38.6718 27.5343ZM31.8937 29.9812C32.1281 30.0374 32.2968 30.1593 32.3812 30.3374C32.4562 30.478 32.5875 30.6468 32.6625 30.7124C32.7656 30.8062 32.8125 31.003 32.8125 31.3874V31.9405H17.1094H1.40625V30.9093V29.878H16.4812C26.6343 29.878 31.6593 29.9155 31.8937 29.9812ZM24.3187 36.4124C25.0875 38.1093 25.7343 39.5437 25.7531 39.6093C25.7906 39.6937 25.4625 39.7218 24.3093 39.7218H22.8281L21.8906 37.7343C20.8781 35.5968 20.475 35.0249 19.8844 34.9124C19.7062 34.8749 18.4219 34.8468 17.025 34.8468C14.7375 34.8468 14.4469 34.8655 14.0906 35.0249C13.875 35.128 13.6219 35.3249 13.5281 35.4655C13.4344 35.6062 12.9281 36.6093 12.4031 37.6968L11.4469 39.6749L9.93749 39.703C9.10312 39.7124 8.44687 39.6937 8.46562 39.6562C8.49374 39.6093 9.13124 38.2124 9.89061 36.5343C10.65 34.8562 11.2875 33.4593 11.3156 33.4124C11.3344 33.3749 13.9594 33.3468 17.1375 33.3468H22.9219L24.3187 36.4124ZM20.3062 37.9968C20.7469 38.9062 21.0844 39.6655 21.0656 39.6843C21.0469 39.703 19.2562 39.7124 17.0812 39.703L13.1344 39.6749L13.9406 38.0062L14.7469 36.3468H17.1281H19.5094L20.3062 37.9968Z" fill="#232334"/>
<path d="M33.6656 3.77805C33.3468 4.18118 33.4687 4.7343 33.9093 4.93118C34.0593 5.00618 35.5312 5.0343 38.6343 5.0343C42.4031 5.0343 43.1812 5.01555 43.3968 4.89368C43.8281 4.66868 43.9124 4.19993 43.5843 3.77805L43.3968 3.5343H38.6249H33.8531L33.6656 3.77805Z" fill="#D4AE5E"/>
<path d="M33.7031 6.95616C33.3375 7.32179 33.45 7.93116 33.9281 8.12804C34.0968 8.19366 35.6062 8.22179 38.8031 8.20304L43.425 8.17491L43.6031 7.94991C43.8375 7.66866 43.8281 7.27491 43.5843 6.96554L43.3968 6.72179H38.6625H33.9281L33.7031 6.95616Z" fill="#D4AE5E"/>
<path d="M33.6843 10.153C33.4875 10.3499 33.4593 10.453 33.4968 10.7343C33.6 11.3624 33.5906 11.3624 36.2062 11.3905C37.8093 11.4093 38.6437 11.3812 38.8218 11.3155C39.3093 11.1093 39.4031 10.3499 38.9718 10.0499C38.8031 9.93741 38.3343 9.90929 36.3468 9.90929H33.9281L33.6843 10.153Z" fill="#D4AE5E"/>
<path d="M16.5937 12.253C16.4437 12.403 16.4062 12.5624 16.4062 13.1343C16.4062 13.7812 16.425 13.8468 16.65 14.0249C17.0531 14.3437 17.6062 14.2218 17.8031 13.7812C17.9812 13.3968 17.9344 12.5905 17.7094 12.3093C17.4656 11.9999 16.8844 11.9624 16.5937 12.253Z" fill="#D4AE5E"/>
<path d="M11.1844 13.5281C10.9875 13.725 10.9594 13.8281 11.0062 14.1093C11.0344 14.3062 11.175 14.5593 11.3437 14.7281C11.9062 15.2906 12.75 15.0187 12.75 14.2781C12.75 14.0531 12.6562 13.8937 12.3937 13.6312C11.9531 13.2 11.55 13.1625 11.1844 13.5281Z" fill="#D4AE5E"/>
<path d="M21.9 13.5656C21.7313 13.7249 21.5532 13.9593 21.5157 14.0999C21.3938 14.5874 21.7875 15.0656 22.3313 15.0656C22.4344 15.0656 22.6875 14.9062 22.8844 14.6999C23.325 14.2593 23.3813 13.8187 23.0344 13.4906C22.7157 13.1906 22.2938 13.2187 21.9 13.5656Z" fill="#D4AE5E"/>
<path d="M15.7781 15.6374C13.6781 15.8812 11.775 16.6781 10.1343 18.0093C8.78433 19.0968 8.29683 19.9312 8.52183 20.7656C8.73745 21.5531 10.3687 23.0249 11.9062 23.8218C13.7249 24.7593 14.9812 25.0499 17.2031 25.0406C18.5999 25.0406 18.9187 25.0124 19.7812 24.7968C20.9437 24.5062 21.8531 24.1406 22.7906 23.5968C23.8593 22.9687 25.2374 21.7218 25.6218 21.0374C25.8281 20.6531 25.8281 20.0249 25.6031 19.5843C25.3781 19.1437 24.1312 17.9437 23.3437 17.4093C21.2437 15.9843 18.4406 15.3281 15.7781 15.6374ZM18.1031 17.1281C18.7593 17.2499 19.4906 17.7562 19.9124 18.3749C21.0374 20.0437 20.5312 22.3312 18.8343 23.2687C18.3468 23.5406 18.2812 23.5499 17.1093 23.5499C15.9562 23.5499 15.8718 23.5406 15.4593 23.2968C14.9531 22.9968 14.3343 22.3499 14.0812 21.8437C13.3031 20.3062 13.8749 18.2999 15.3468 17.4374C16.0124 17.0437 17.0531 16.9312 18.1031 17.1281ZM12.4781 18.7499C12.1031 19.8281 12.1406 21.1968 12.5624 22.1718L12.7406 22.5656L12.5343 22.4624C11.6625 22.0031 10.0312 20.6156 10.0312 20.3343C10.0312 20.1093 11.0531 19.1624 11.8687 18.6281C12.2625 18.3656 12.6093 18.1687 12.6281 18.1874C12.6375 18.2062 12.5718 18.4593 12.4781 18.7499ZM22.4437 18.6656C22.8562 18.9468 23.4562 19.4343 23.7656 19.7437L24.3187 20.3156L23.7187 20.9343C23.1656 21.4874 21.8531 22.4718 21.6562 22.4718C21.6187 22.4718 21.6656 22.2468 21.7781 21.9749C22.0687 21.2624 22.0687 19.4718 21.7781 18.6937C21.6656 18.4031 21.5999 18.1593 21.6281 18.1593C21.6562 18.1593 22.0218 18.3843 22.4437 18.6656Z" fill="#D4AE5E"/>
</svg>
