<svg width="348" height="167" viewBox="0 0 348 167" fill="none" xmlns="http://www.w3.org/2000/svg">
<rect width="348" height="167" rx="4" fill="#C7EAFF"/>
<path d="M47 92.3454C47 81.5246 55.772 72.7527 66.5927 72.7527C77.4135 72.7527 86.1854 81.5246 86.1854 92.3454V111.938H66.5927C55.7719 111.938 47 103.166 47 92.3454Z" fill="#009EFF"/>
<path d="M129.527 92.3454C129.527 81.5246 120.755 72.7527 109.935 72.7527C99.1139 72.7527 90.3419 81.5246 90.3419 92.3454V111.938H109.935C120.755 111.938 129.527 103.166 129.527 92.3454Z" fill="#009EFF"/>
<path fill-rule="evenodd" clip-rule="evenodd" d="M84.1493 99.5767C75.2412 98.3584 68.0819 91.0607 67.3798 81.7331C67.1446 78.6077 67.6603 75.5991 68.7745 72.8845C77.6826 74.1029 84.8419 81.4006 85.544 90.7282C85.7792 93.8535 85.2635 96.8621 84.1493 99.5767Z" fill="#13928A"/>
<path fill-rule="evenodd" clip-rule="evenodd" d="M91.5308 99.471C100.324 97.5889 106.917 89.7736 106.917 80.4183C106.917 77.2848 106.178 74.3241 104.863 71.7012C96.07 73.5833 89.4767 81.3986 89.4767 90.7539C89.4767 93.8874 90.2164 96.8481 91.5308 99.471Z" fill="#13928A"/>
<path fill-rule="evenodd" clip-rule="evenodd" d="M73.6802 72.1445C74.5506 75.2561 74.7655 78.5136 74.3122 81.7109C76.0658 82.9466 77.6507 84.4251 79.0153 86.1121C82.0052 89.8083 83.7954 94.3292 84.1465 99.0702L82.9297 99.1604C82.5969 94.6671 80.9003 90.3825 78.0666 86.8795C75.233 83.3765 71.3975 80.822 67.0729 79.5578L67.4152 78.3867C69.4556 78.9831 71.3928 79.8518 73.1784 80.9604C73.5053 78.117 73.2776 75.2345 72.5052 72.4732L73.6802 72.1445ZM101.353 80.9161C103.358 79.552 105.576 78.5009 107.931 77.8125L108.273 78.9836C103.949 80.2479 100.113 82.8023 97.2794 86.3053C94.4458 89.8083 92.7491 94.0929 92.4164 98.5862L91.1996 98.4961C91.5507 93.755 93.3409 89.2341 96.3307 85.5379C97.4828 84.1137 98.7918 82.8381 100.227 81.7317C99.7697 78.5278 99.9835 75.2629 100.856 72.1445L102.031 72.4732C101.262 75.2202 101.033 78.0871 101.353 80.9161Z" fill="white"/>
<path fill-rule="evenodd" clip-rule="evenodd" d="M110.716 78.4231C110.716 91.2932 100.283 101.727 87.4128 101.727C74.5426 101.727 64.1093 91.2932 64.1093 78.4231C64.1093 65.5529 74.5426 55.1196 87.4128 55.1196C100.283 55.1196 110.716 65.5529 110.716 78.4231ZM68.4075 78.4231C68.4075 87.9709 75.4481 95.8742 84.6207 97.2247C85.1969 95.0943 85.3925 92.8726 85.1923 90.6629C84.9245 87.7074 83.9563 84.8583 82.3678 82.3516C80.7794 79.8449 78.6165 77.7528 76.0583 76.2486C73.8791 74.9673 71.4664 74.144 68.9679 73.8236C68.6018 75.2964 68.4075 76.837 68.4075 78.4231ZM87.6394 82.2475C88.0668 81.3275 88.5548 80.4337 89.1015 79.5724C91.0894 76.4405 93.795 73.8274 96.9941 71.9496C99.1891 70.6611 101.573 69.7443 104.05 69.2283C100.81 63.3783 94.5737 59.4178 87.4128 59.4178C80.1954 59.4178 73.9176 63.4409 70.6998 69.3669C73.4165 69.8526 76.0332 70.8174 78.4249 72.2237C81.6226 74.1039 84.3262 76.719 86.3118 79.8524C86.8021 80.6262 87.2451 81.426 87.6394 82.2475ZM90.8282 97.1222C99.6945 95.5133 106.418 87.7534 106.418 78.4231C106.418 76.7742 106.208 75.1743 105.813 73.6488C103.542 74.0183 101.352 74.8055 99.3577 75.9763C96.7984 77.4785 94.634 79.569 93.0437 82.0745C91.4534 84.5801 90.483 87.4285 90.213 90.3838C90.0056 92.6544 90.2161 94.9378 90.8282 97.1222Z" fill="white"/>
<path fill-rule="evenodd" clip-rule="evenodd" d="M109.129 69.816C105.43 60.954 96.8591 54.8236 86.9896 55.0039C85.3584 55.0337 83.7689 55.2344 82.2368 55.5894C74.4378 57.3965 68.1231 63.1998 65.3414 70.792C66.3655 70.6093 67.4174 70.5048 68.4907 70.4852C78.1385 70.309 86.3046 77.0458 88.2605 86.137C89.8831 76.9817 97.7965 69.9525 107.443 69.7763C108.011 69.766 108.573 69.7795 109.129 69.816Z" fill="#009EFF"/>
<path d="M138.868 91.5928C138.868 90.8317 139.012 90.123 139.299 89.4668C139.586 88.806 140.001 88.234 140.543 87.751C141.09 87.2633 141.755 86.8805 142.539 86.6025C143.327 86.3245 144.218 86.1855 145.212 86.1855C146.082 86.1855 146.88 86.2744 147.604 86.4521C148.334 86.6253 149.01 86.8919 149.635 87.252L148.637 88.8926C148.45 88.7695 148.233 88.6602 147.987 88.5645C147.746 88.4688 147.486 88.389 147.208 88.3252C146.935 88.2568 146.65 88.2044 146.354 88.168C146.062 88.1315 145.772 88.1133 145.485 88.1133C144.793 88.1133 144.175 88.1999 143.633 88.373C143.09 88.5417 142.632 88.7809 142.259 89.0908C141.89 89.3962 141.607 89.763 141.411 90.1914C141.22 90.6152 141.124 91.0824 141.124 91.5928C141.124 92.1214 141.224 92.6068 141.425 93.0488C141.625 93.4909 141.915 93.8737 142.293 94.1973C142.676 94.5163 143.141 94.7669 143.688 94.9492C144.239 95.127 144.861 95.2158 145.554 95.2158C145.868 95.2158 146.18 95.193 146.49 95.1475C146.8 95.1019 147.099 95.0404 147.386 94.9629C147.677 94.8809 147.958 94.7852 148.227 94.6758C148.495 94.5618 148.746 94.4388 148.979 94.3066L149.977 95.9473C149.393 96.321 148.719 96.6149 147.953 96.8291C147.188 97.0387 146.374 97.1436 145.513 97.1436C144.414 97.1436 143.451 97.0023 142.621 96.7197C141.792 96.4326 141.099 96.0407 140.543 95.5439C139.987 95.0426 139.568 94.4548 139.285 93.7803C139.007 93.1012 138.868 92.3721 138.868 91.5928ZM156.079 86.3154H158.246V95.0996H164.46V97H156.079V86.3154ZM169.647 91.627C169.647 90.8203 169.795 90.082 170.091 89.4121C170.387 88.7422 170.802 88.168 171.335 87.6895C171.873 87.2064 172.515 86.8327 173.263 86.5684C174.015 86.304 174.846 86.1719 175.758 86.1719C176.665 86.1719 177.494 86.304 178.246 86.5684C178.998 86.8327 179.641 87.2064 180.174 87.6895C180.712 88.168 181.129 88.7422 181.425 89.4121C181.721 90.082 181.869 90.8203 181.869 91.627C181.869 92.4382 181.721 93.1833 181.425 93.8623C181.129 94.5368 180.712 95.1178 180.174 95.6055C179.641 96.0931 178.998 96.4736 178.246 96.7471C177.494 97.016 176.665 97.1504 175.758 97.1504C174.846 97.1504 174.015 97.016 173.263 96.7471C172.515 96.4736 171.873 96.0931 171.335 95.6055C170.802 95.1178 170.387 94.5368 170.091 93.8623C169.795 93.1833 169.647 92.4382 169.647 91.627ZM171.814 91.627C171.814 92.1784 171.912 92.6751 172.108 93.1172C172.308 93.5592 172.584 93.9375 172.935 94.252C173.29 94.5618 173.707 94.8011 174.186 94.9697C174.669 95.1383 175.193 95.2227 175.758 95.2227C176.323 95.2227 176.845 95.1383 177.323 94.9697C177.806 94.8011 178.223 94.5618 178.574 94.252C178.925 93.9375 179.201 93.5592 179.401 93.1172C179.602 92.6751 179.702 92.1784 179.702 91.627C179.702 91.0755 179.602 90.5811 179.401 90.1436C179.201 89.7061 178.925 89.3369 178.574 89.0361C178.223 88.7308 177.806 88.4984 177.323 88.3389C176.845 88.1794 176.323 88.0996 175.758 88.0996C175.193 88.0996 174.669 88.1794 174.186 88.3389C173.707 88.4984 173.29 88.7308 172.935 89.0361C172.584 89.3369 172.308 89.7061 172.108 90.1436C171.912 90.5811 171.814 91.0755 171.814 91.627ZM187.582 86.3154H189.749V92.2012C189.749 92.6842 189.815 93.1149 189.947 93.4932C190.08 93.8669 190.276 94.1836 190.535 94.4434C190.8 94.7031 191.125 94.9014 191.513 95.0381C191.9 95.1702 192.351 95.2363 192.866 95.2363C193.377 95.2363 193.826 95.1702 194.213 95.0381C194.605 94.9014 194.931 94.7031 195.191 94.4434C195.455 94.1836 195.653 93.8669 195.785 93.4932C195.917 93.1149 195.984 92.6842 195.984 92.2012V86.3154H198.151V92.4609C198.151 93.1628 198.032 93.8008 197.795 94.375C197.558 94.9492 197.214 95.4414 196.763 95.8516C196.312 96.2617 195.758 96.5785 195.102 96.8018C194.45 97.0251 193.705 97.1367 192.866 97.1367C192.028 97.1367 191.28 97.0251 190.624 96.8018C189.972 96.5785 189.421 96.2617 188.97 95.8516C188.519 95.4414 188.175 94.9492 187.938 94.375C187.701 93.8008 187.582 93.1628 187.582 92.4609V86.3154ZM204.506 86.3154H208.423C209.567 86.3154 210.56 86.4385 211.403 86.6846C212.247 86.9307 212.944 87.2839 213.495 87.7441C214.051 88.1999 214.464 88.7559 214.733 89.4121C215.006 90.0638 215.143 90.7975 215.143 91.6133C215.143 92.388 215.008 93.1058 214.739 93.7666C214.471 94.4229 214.06 94.9925 213.509 95.4756C212.958 95.9541 212.26 96.3301 211.417 96.6035C210.574 96.8724 209.581 97.0068 208.437 97.0068L204.506 97V86.3154ZM208.956 95.127C209.603 95.127 210.171 95.0449 210.658 94.8809C211.146 94.7122 211.552 94.4753 211.875 94.1699C212.203 93.8646 212.449 93.4954 212.613 93.0625C212.777 92.6296 212.86 92.1465 212.86 91.6133C212.86 91.0892 212.777 90.6175 212.613 90.1982C212.449 89.7744 212.203 89.4167 211.875 89.125C211.552 88.8288 211.146 88.6009 210.658 88.4414C210.171 88.2819 209.603 88.2021 208.956 88.2021H206.673V95.127H208.956ZM221.526 93.8213C221.913 94.04 222.305 94.2383 222.701 94.416C223.102 94.5892 223.517 94.7373 223.946 94.8604C224.374 94.9788 224.823 95.07 225.292 95.1338C225.766 95.1976 226.27 95.2295 226.803 95.2295C227.446 95.2295 227.992 95.1885 228.444 95.1064C228.895 95.0199 229.262 94.9036 229.544 94.7578C229.831 94.6074 230.039 94.4297 230.166 94.2246C230.298 94.0195 230.364 93.7962 230.364 93.5547C230.364 93.1673 230.203 92.862 229.879 92.6387C229.556 92.4108 229.057 92.2969 228.382 92.2969C228.086 92.2969 227.774 92.3174 227.446 92.3584C227.117 92.3949 226.785 92.4359 226.447 92.4814C226.115 92.527 225.784 92.5703 225.456 92.6113C225.133 92.6478 224.827 92.666 224.54 92.666C224.062 92.666 223.601 92.6045 223.159 92.4814C222.722 92.3584 222.332 92.1738 221.99 91.9277C221.653 91.6816 221.384 91.374 221.184 91.0049C220.983 90.6357 220.883 90.2051 220.883 89.7129C220.883 89.4212 220.922 89.1318 220.999 88.8447C221.081 88.5576 221.209 88.2842 221.382 88.0244C221.56 87.7601 221.788 87.5163 222.066 87.293C222.344 87.0651 222.679 86.8691 223.071 86.7051C223.467 86.541 223.923 86.4134 224.438 86.3223C224.957 86.2266 225.547 86.1787 226.208 86.1787C226.687 86.1787 227.168 86.2061 227.651 86.2607C228.134 86.3109 228.603 86.3838 229.059 86.4795C229.519 86.5752 229.961 86.6914 230.385 86.8281C230.809 86.9603 231.203 87.1084 231.568 87.2725L230.617 89.0225C230.317 88.8903 229.993 88.7695 229.647 88.6602C229.3 88.5462 228.938 88.4482 228.56 88.3662C228.182 88.2842 227.79 88.2204 227.384 88.1748C226.983 88.1247 226.573 88.0996 226.154 88.0996C225.557 88.0996 225.064 88.1429 224.677 88.2295C224.294 88.3161 223.989 88.4277 223.761 88.5645C223.533 88.6966 223.374 88.847 223.282 89.0156C223.196 89.1797 223.153 89.3438 223.153 89.5078C223.153 89.8268 223.296 90.0889 223.583 90.2939C223.87 90.4945 224.308 90.5947 224.896 90.5947C225.133 90.5947 225.404 90.5788 225.709 90.5469C226.019 90.5104 226.343 90.4717 226.68 90.4307C227.022 90.3896 227.368 90.3532 227.719 90.3213C228.074 90.2848 228.418 90.2666 228.751 90.2666C229.38 90.2666 229.936 90.3372 230.419 90.4785C230.907 90.6198 231.315 90.8226 231.643 91.0869C231.971 91.3467 232.219 91.6634 232.388 92.0371C232.557 92.4062 232.641 92.821 232.641 93.2812C232.641 93.8965 232.497 94.4456 232.21 94.9287C231.928 95.4072 231.522 95.8128 230.993 96.1455C230.469 96.4736 229.836 96.7243 229.093 96.8975C228.35 97.0661 227.523 97.1504 226.612 97.1504C226.01 97.1504 225.422 97.1117 224.848 97.0342C224.274 96.9613 223.722 96.8564 223.194 96.7197C222.669 96.5785 222.168 96.4121 221.69 96.2207C221.216 96.0247 220.776 95.8105 220.37 95.5781L221.526 93.8213ZM238.73 86.3154H240.897V89.1045H247.541V86.3154H249.715V97H247.541V90.957H240.897V97H238.73V86.3154ZM256.46 86.3154H261.895C262.715 86.3154 263.426 86.402 264.028 86.5752C264.629 86.7438 265.128 86.9899 265.525 87.3135C265.921 87.637 266.215 88.0312 266.407 88.4961C266.602 88.9609 266.7 89.4873 266.7 90.0752C266.7 90.4717 266.653 90.8499 266.557 91.21C266.461 91.5654 266.313 91.8936 266.113 92.1943C265.917 92.4951 265.668 92.764 265.367 93.001C265.067 93.2334 264.713 93.4271 264.308 93.582L266.632 97H263.98L261.97 93.9648H261.908L258.627 93.958V97H256.46V86.3154ZM261.949 92.085C262.36 92.085 262.717 92.0371 263.023 91.9414C263.333 91.8457 263.59 91.7113 263.795 91.5381C264.005 91.3649 264.16 91.1553 264.26 90.9092C264.365 90.6585 264.417 90.3805 264.417 90.0752C264.417 89.4782 264.212 89.0179 263.802 88.6943C263.392 88.3662 262.774 88.2021 261.949 88.2021H258.627V92.085H261.949ZM272.577 86.3154H274.744V92.2012C274.744 92.6842 274.811 93.1149 274.943 93.4932C275.075 93.8669 275.271 94.1836 275.531 94.4434C275.795 94.7031 276.121 94.9014 276.508 95.0381C276.895 95.1702 277.347 95.2363 277.862 95.2363C278.372 95.2363 278.821 95.1702 279.208 95.0381C279.6 94.9014 279.926 94.7031 280.186 94.4434C280.45 94.1836 280.648 93.8669 280.781 93.4932C280.913 93.1149 280.979 92.6842 280.979 92.2012V86.3154H283.146V92.4609C283.146 93.1628 283.027 93.8008 282.79 94.375C282.553 94.9492 282.209 95.4414 281.758 95.8516C281.307 96.2617 280.753 96.5785 280.097 96.8018C279.445 97.0251 278.7 97.1367 277.862 97.1367C277.023 97.1367 276.276 97.0251 275.619 96.8018C274.968 96.5785 274.416 96.2617 273.965 95.8516C273.514 95.4414 273.17 94.9492 272.933 94.375C272.696 93.8008 272.577 93.1628 272.577 92.4609V86.3154ZM289.501 86.3154H295.209C295.907 86.3154 296.513 86.3906 297.028 86.541C297.547 86.6868 297.978 86.8896 298.32 87.1494C298.661 87.4092 298.914 87.7191 299.078 88.0791C299.247 88.4346 299.331 88.8197 299.331 89.2344C299.331 89.9134 299.117 90.5081 298.689 91.0186C299.181 91.3102 299.548 91.6885 299.789 92.1533C300.031 92.6182 300.152 93.1468 300.152 93.7393C300.152 94.236 300.067 94.6849 299.899 95.0859C299.735 95.487 299.482 95.8311 299.14 96.1182C298.803 96.4007 298.374 96.6195 297.855 96.7744C297.34 96.9248 296.731 97 296.03 97H289.501V86.3154ZM296.043 90.417C296.23 90.417 296.412 90.4238 296.59 90.4375C296.896 90.1458 297.048 89.8132 297.048 89.4395C297.048 89.0521 296.896 88.7536 296.59 88.5439C296.289 88.3298 295.847 88.2227 295.264 88.2227H291.668V90.417H296.043ZM296.084 95.1133C296.668 95.1133 297.11 94.988 297.411 94.7373C297.716 94.4867 297.869 94.1335 297.869 93.6777C297.869 93.222 297.716 92.8665 297.411 92.6113C297.11 92.3561 296.668 92.2285 296.084 92.2285H291.668V95.1133H296.084Z" fill="#009EFF"/>
</svg>
