<svg width="348" height="167" viewBox="0 0 348 167" fill="none" xmlns="http://www.w3.org/2000/svg">
<rect width="348" height="167" rx="4" fill="#FFECDA"/>
<path d="M167.163 99.5356C167.204 100.022 167.204 100.512 167.163 100.998C167.163 101.095 167.163 101.403 167.163 101.961C167.163 102.519 167.163 102.808 167.163 102.923C167.147 103.233 166.988 103.516 166.735 103.683C166.555 103.829 166.345 103.927 166.121 103.972C165.833 103.993 165.544 103.993 165.256 103.972C163.452 103.921 160.757 103.898 157.173 103.905C154.541 103.905 153.211 103.905 153.164 103.905C152.807 103.942 152.449 103.85 152.15 103.645C151.964 103.481 151.881 103.096 151.881 102.5V60.8581C151.881 60.2133 152.011 59.8091 152.308 59.6359C152.781 59.4556 153.287 59.3898 153.787 59.4434H165.879C166.661 59.4915 167.061 59.7899 167.107 60.3384C167.162 60.9108 167.18 61.4862 167.163 62.0611C167.184 62.6551 167.165 63.25 167.107 63.8414C167.081 64.0194 167.007 64.1861 166.893 64.3226C166.774 64.4427 166.621 64.5202 166.456 64.544C166.297 64.5882 166.135 64.6236 165.972 64.6498C165.777 64.6693 165.581 64.6693 165.386 64.6498H164.884H158.903C158.385 64.5948 157.861 64.6572 157.368 64.8327C157.03 65.1602 156.867 65.6378 156.931 66.1126V78.1807C156.958 78.5458 157.204 78.854 157.545 78.9506C158.049 79.0836 158.571 79.1292 159.089 79.0853H163.033C163.431 79.0713 163.776 79.3699 163.833 79.7782C163.952 80.4317 163.974 81.1003 163.898 81.7607C163.921 82.3806 163.899 83.0015 163.833 83.6181C163.759 83.9549 163.489 84.1666 163.033 84.2436H159.089C158.531 84.2037 157.97 84.2491 157.424 84.3783C157.063 84.6628 156.875 85.1247 156.931 85.5909V98.0055C157.1 98.4795 157.563 98.7706 158.047 98.708H165.814C166.605 98.7465 167.051 99.0256 167.163 99.5356Z" fill="#333333"/>
<path fill-rule="evenodd" clip-rule="evenodd" d="M187.359 101.77C187.399 102.018 187.455 102.263 187.524 102.503C187.52 102.706 187.55 102.909 187.612 103.1C187.595 103.292 187.538 103.476 187.446 103.64C187.368 103.755 187.245 103.823 187.114 103.823C186.959 103.901 186.788 103.934 186.617 103.919C186.434 104.011 186.224 104.011 186.041 103.919H183.974C183.572 103.971 183.167 103.872 182.822 103.64C182.534 103.416 182.352 103.063 182.325 102.676C182.325 102.625 182.287 102.324 182.216 101.76C182.179 101.468 182.134 101.106 182.08 100.672C181.915 99.8532 181.662 98.5622 181.33 96.7412C181.152 95.7653 181.022 94.9222 180.914 94.2223C180.821 93.6163 180.744 93.1177 180.667 92.7332C180.579 92.2917 180.468 91.6969 180.334 90.9751C180.216 90.3425 180.08 89.6123 179.925 88.8023C179.897 88.4952 179.841 88.192 179.76 87.8966C179.722 87.5721 179.666 87.2504 179.594 86.9332C179.489 86.244 179.384 85.7363 179.321 85.432C179.285 85.2556 179.262 85.1476 179.262 85.1122C179.116 84.7331 178.809 84.4588 178.442 84.38C177.976 84.1782 177.449 84.2469 177.038 84.5631C176.959 84.7006 176.928 84.8648 176.95 85.0255C176.903 85.0544 176.913 85.1979 176.928 85.4269C176.938 85.5793 176.95 85.7695 176.95 85.989V101.954C176.95 102.965 176.793 103.505 176.706 103.688C176.619 103.871 176.122 103.967 175.301 103.967H173.557C172.893 103.967 172.562 103.784 172.396 103.505C172.304 102.933 172.277 102.35 172.318 101.77V61.5267C172.276 60.9793 172.302 60.4282 172.396 59.8888C172.562 59.6094 173.094 59.5227 173.967 59.5227H181.906C182.174 59.4513 182.45 59.4189 182.726 59.4263C182.852 59.4263 182.977 59.4504 183.101 59.4745C183.225 59.4986 183.35 59.5227 183.476 59.5227C183.731 59.5861 183.979 59.6764 184.218 59.7924C184.531 60.0389 184.823 60.3162 185.09 60.621C185.499 61.0843 185.886 61.5698 186.251 62.0758C186.431 62.5374 186.515 63.0381 186.495 63.5403V79.6398C186.529 80.2484 186.5 80.8594 186.408 81.4607C186.179 81.9351 185.884 82.3673 185.535 82.7421C185.173 83.1325 184.843 83.5581 184.549 84.0139C184.381 84.5142 184.381 85.0647 184.549 85.5651C184.574 85.936 184.63 86.3036 184.715 86.6634C184.746 86.9892 184.801 87.3115 184.881 87.6269C185.095 88.7181 185.24 89.6656 185.361 90.461C185.423 90.8665 185.479 91.2325 185.535 91.5578C185.702 92.4996 185.879 93.4749 186.064 94.4898C186.344 96.0287 186.64 97.6586 186.94 99.4004C186.983 99.5807 187.024 99.8264 187.074 100.128C187.126 100.44 187.187 100.81 187.271 101.231C187.271 101.266 187.286 101.332 187.303 101.41C187.328 101.523 187.359 101.662 187.359 101.77ZM181.077 79.1391C181.574 79.1391 181.818 78.956 181.906 78.6862L181.897 65.6217C181.928 65.278 181.804 64.9393 181.565 64.716H178.18C177.605 64.716 177.194 64.8991 177.029 65.2652C176.925 65.9008 176.896 66.5483 176.941 67.1921V78.5032C177.029 78.5032 177.029 78.5995 177.029 78.6862C177.029 78.693 177.029 78.7004 177.029 78.7082C177.028 78.8005 177.027 78.956 177.107 78.956C177.151 78.956 177.192 78.9801 177.234 79.0042C177.275 79.0283 177.317 79.0524 177.36 79.0524C177.96 79.1565 178.569 79.1856 179.175 79.1391H181.077Z" fill="#333333"/>
<path d="M209.722 99.542V102.38C209.734 102.907 209.548 103.407 209.227 103.71C208.711 103.951 208.162 104.036 207.619 103.962H196.334C195.831 104.03 195.323 103.944 194.848 103.71C194.558 103.497 194.418 102.957 194.418 102.128V99.2156C194.418 98.1609 194.577 97.5206 194.913 97.3072C195.117 97.1905 195.337 97.1348 195.558 97.1439H196.428H197.082H208.666C209.021 97.081 209.375 97.2713 209.601 97.6462C209.71 98.2667 209.751 98.9055 209.722 99.542Z" fill="#333333"/>
<path fill-rule="evenodd" clip-rule="evenodd" d="M209.583 93.0344C209.612 93.241 209.635 93.4111 209.677 93.5318C209.764 94.5171 209.773 95.1518 209.495 95.2371C209.366 95.2768 209.259 95.298 209.154 95.3189C209.034 95.3429 208.916 95.3665 208.767 95.4171H206.131C205.956 95.3688 205.776 95.3371 205.595 95.3224C205.428 95.3032 205.27 95.2411 205.135 95.1424C204.866 94.9624 204.684 94.4223 204.502 93.5318C204.406 93.1718 204.224 92.9823 204.138 92.897C204.052 92.8118 203.688 92.8118 202.959 92.8118H200.42C200.223 92.815 200.032 92.8778 199.873 92.9918C199.824 93.0354 199.803 93.079 199.781 93.1238C199.76 93.1667 199.738 93.2107 199.691 93.257C199.595 93.3518 199.595 93.5318 199.595 93.7971V93.9771C199.604 94.5421 199.289 95.0633 198.781 95.3224C198.648 95.3224 198.536 95.3456 198.423 95.3691C198.308 95.393 198.192 95.4171 198.052 95.4171H195.426C195.267 95.4238 195.109 95.3912 194.966 95.3224C194.824 95.3202 194.69 95.254 194.602 95.1424C194.43 94.9624 194.334 94.4223 194.516 93.3518C194.698 91.8265 194.88 91.0212 194.88 91.0212C194.933 90.4649 195.06 89.6011 195.235 88.4073C195.343 87.6695 195.469 86.8056 195.608 85.8104C195.708 85.0791 195.846 84.1586 196.012 83.0479C196.294 81.1658 196.658 78.7376 197.056 75.7585C198.052 69.5909 198.512 66.2466 198.512 65.8013C198.752 64.4669 198.915 63.36 199.043 62.4934C199.156 61.7295 199.242 61.1523 199.327 60.7706V60.1453C199.327 60.1387 199.327 60.1315 199.327 60.1238C199.326 60.0314 199.325 59.864 199.413 59.7853C199.456 59.7471 199.478 59.6897 199.498 59.6382C199.522 59.5748 199.542 59.52 199.595 59.52C199.643 59.52 199.689 59.4963 199.734 59.4727C199.78 59.449 199.825 59.4253 199.873 59.4253H204.224C204.502 59.52 204.684 59.88 204.866 60.5906C204.866 60.5906 205.049 62.2959 205.595 65.7066C205.666 66.1646 205.735 66.7018 205.815 67.3199C205.941 68.2872 206.091 69.4526 206.314 70.8225C206.536 72.1962 206.691 73.3358 206.819 74.2804C206.901 74.8799 206.971 75.4008 207.042 75.8533C207.095 76.1959 207.164 76.5925 207.241 77.0389C207.426 78.1107 207.66 79.4693 207.857 81.0545C208.134 83.2998 208.403 85.0052 208.585 86.0852C208.839 87.6706 209.005 88.9006 209.12 89.7448C209.212 90.4291 209.27 90.86 209.313 91.0212C209.317 91.3796 209.346 91.7373 209.4 92.0917C209.502 92.4476 209.547 92.7708 209.583 93.0344ZM203.141 87.6955C203.506 87.6955 203.688 87.5155 203.688 87.2502C203.774 87.1649 203.726 86.7481 203.64 86.0281C203.608 85.7598 203.574 85.5297 203.545 85.3279C203.495 84.9881 203.458 84.7286 203.458 84.5027C203.381 83.6884 203.259 82.8787 203.093 82.0774C202.985 81.1775 202.911 80.3979 202.85 79.7622C202.809 79.327 202.774 78.9593 202.739 78.6667C202.715 78.5465 202.692 78.4309 202.669 78.3168C202.599 77.9725 202.533 77.6418 202.461 77.2362C202.401 76.4869 202.337 76.0431 202.303 75.8099C202.288 75.707 202.279 75.6451 202.279 75.6161C202.193 75.2561 202.01 75.3508 201.915 75.7961V75.8908C201.915 75.9258 201.902 76.0202 201.881 76.1705C201.845 76.4276 201.787 76.8483 201.733 77.4162C201.658 78.1983 201.438 79.7243 201.086 82.1685C201.033 82.537 200.977 82.9265 200.918 83.3374C200.874 83.6632 200.827 84.1287 200.767 84.7223C200.711 85.2855 200.642 85.964 200.554 86.7481C200.435 87.0731 200.505 87.4361 200.736 87.6955H203.141Z" fill="#333333"/>
<path d="M267.538 59.9232C267.614 60.4787 267.592 61.044 267.474 61.5912C267.429 62.0539 267.374 62.7578 267.301 63.693C267.266 64.2299 267.202 64.7643 267.109 65.2934C266.954 67.0867 266.707 69.5838 266.388 72.775C266.339 73.1992 265.855 78.2287 264.936 87.8636C264.69 90.592 264.452 93.0988 264.206 95.403C263.841 99.3302 263.64 101.609 263.603 102.239C263.603 103.203 263.275 103.772 262.754 103.907C262.273 103.976 261.788 103.999 261.303 103.974H257.916C257.431 103.999 256.945 103.977 256.464 103.907C255.898 103.772 255.551 103.203 255.551 102.181C255.551 102.097 255.329 99.7544 254.885 95.1523C254.568 91.4758 254.325 88.9819 254.154 87.6707C254.154 87.6707 254.154 87.4683 254.154 87.1887C254.144 86.9639 254.144 86.7386 254.154 86.5138C254.072 86.2535 253.99 86.1281 253.908 86.1281C253.826 86.1281 253.844 86.1956 253.826 86.3306C253.812 86.4652 253.812 86.601 253.826 86.7355C253.82 86.9614 253.802 87.1868 253.771 87.4104C253.725 88.0467 253.671 88.712 253.579 89.3965C253.506 90.3606 253.378 91.7104 253.223 93.5133C253.068 95.3162 252.958 96.4057 252.913 96.8685C252.867 97.3313 252.822 97.7844 252.739 98.6039C252.657 99.4234 252.593 100.05 252.548 100.532C252.475 101.246 252.42 101.834 252.374 102.248C252.376 102.744 252.25 103.231 252.009 103.656C251.627 103.897 251.185 104.011 250.74 103.984H248.896C246.632 103.984 245.482 103.984 245.445 103.916C245.263 103.92 245.084 103.873 244.925 103.781C244.804 103.715 244.693 103.631 244.596 103.531C244.495 103.401 244.423 103.25 244.386 103.087C244.336 102.941 244.306 102.789 244.295 102.634C244.295 102.557 244.295 102.374 244.295 102.094C244.295 101.814 244.295 101.66 244.295 101.612C244.295 101.313 244.213 100.908 244.176 100.407C244.14 99.9055 244.094 99.4427 244.057 99.0185C244.021 98.5943 243.966 98.2279 243.939 97.8422C242.721 85.3536 241.751 75.3171 241.026 67.7326C241.026 67.3084 240.926 66.6625 240.844 65.8044C240.762 64.9463 240.698 64.3389 240.67 63.9533C240.659 63.5886 240.628 63.2249 240.579 62.8638C240.515 62.3914 240.469 61.9768 240.424 61.5912C240.381 61.2298 240.36 60.8659 240.36 60.5017C240.342 60.2031 240.465 59.9144 240.689 59.7304C240.87 59.5876 241.079 59.4888 241.3 59.4412C241.483 59.4412 241.787 59.4412 242.213 59.4412H243.729C244.184 59.3755 244.645 59.5155 244.998 59.8268C245.199 60.1027 245.305 60.4428 245.299 60.7909C245.299 61.0031 245.381 61.3212 245.427 61.7551C245.472 62.1889 245.482 62.43 245.482 62.5167C245.728 64.9078 245.847 66.1418 245.847 66.2286C246.163 69.3845 246.407 71.9009 246.577 73.7777C246.693 75.1018 246.915 77.4542 247.243 80.8351C247.563 84.2288 247.819 86.8319 248.029 88.6638C248.029 88.8855 248.029 89.1458 248.029 89.464C248.029 89.7822 248.074 90.0907 248.102 90.3606C248.129 90.6306 248.102 90.9102 248.184 91.1609C248.266 91.4115 248.284 91.7393 248.366 91.7393C248.449 91.7393 248.512 91.5176 248.549 91.0934C248.549 90.9327 248.732 88.908 249.097 85.0194C249.34 82.6734 249.824 77.6438 250.548 69.9308C250.914 66.3057 251.157 63.8569 251.279 62.5842C251.271 62.4365 251.271 62.2884 251.279 62.1407C251.286 61.9898 251.286 61.8385 251.279 61.6876C251.267 61.54 251.267 61.3916 251.279 61.2441C251.287 61.0932 251.287 60.9419 251.279 60.7909C251.279 60.7909 251.279 60.6463 251.279 60.4824C251.286 60.3411 251.286 60.1995 251.279 60.0582C251.284 59.9458 251.315 59.8364 251.37 59.74C251.432 59.6331 251.53 59.5542 251.644 59.5183C251.69 59.4701 251.845 59.4701 252.137 59.5183H256.19C256.28 59.6256 256.343 59.7549 256.373 59.8943C256.421 60.2551 256.439 60.6196 256.428 60.9838C256.428 61.3694 256.528 61.9479 256.61 62.806C256.692 63.664 256.756 64.2714 256.793 64.7342C256.866 65.4573 256.957 66.2575 257.03 67.1252C257.103 67.993 257.195 68.8992 257.277 69.8152C257.359 70.7311 257.432 71.5313 257.523 72.2062C258.406 81.2047 258.89 86.2342 258.975 87.2947C258.975 87.4683 258.975 87.9696 259.093 88.7988C259.212 89.6279 259.23 90.2835 259.276 90.727C259.305 91.0672 259.405 91.3963 259.568 91.6911C259.568 91.6911 259.641 91.5272 259.641 91.1801V90.9488C259.632 90.888 259.632 90.8263 259.641 90.7656C259.651 90.692 259.651 90.6174 259.641 90.5438V90.351C259.687 89.9171 259.742 89.2808 259.824 88.4228C259.979 87.1405 260.107 85.9064 260.189 84.7109C261.041 76.0145 261.525 71.0075 261.641 69.6898C262.042 65.6019 262.289 63.0663 262.362 62.0829C262.362 61.9961 262.362 61.8129 262.362 61.543C262.362 61.273 262.362 61.0416 262.417 60.8681C262.443 60.6726 262.483 60.4793 262.535 60.2896C262.59 60.098 262.687 59.9229 262.818 59.7786C262.952 59.6455 263.121 59.5582 263.302 59.5279H264.872H265.667H266.452C267.109 59.4605 267.429 59.6244 267.538 59.9232Z" fill="#333333"/>
<path d="M287.858 98.2666C287.951 99.1169 287.995 99.9763 287.988 100.836C288.029 101.668 287.963 102.503 287.793 103.303C287.568 103.745 287.198 104 286.807 103.984H274.172C273.861 103.998 273.55 103.972 273.242 103.907C272.87 103.676 272.694 102.956 272.694 101.774V99.5771C272.708 99.3935 272.708 99.2082 272.694 99.0246C272.684 98.8536 272.684 98.6817 272.694 98.5107C272.795 98.0478 272.988 97.6336 273.252 97.3158C273.694 97.157 274.153 97.1006 274.609 97.1487H285.952C286.446 97.1151 286.941 97.1452 287.43 97.2387C287.694 97.4525 287.857 97.8435 287.858 98.2666Z" fill="#333333"/>
<path d="M272.691 63.6291V62.0724C272.672 61.588 272.712 61.1031 272.812 60.6289C272.986 60.0286 273.49 59.5887 274.1 59.5062C274.527 59.4522 274.958 59.4301 275.388 59.4402H286.018C286.473 59.3989 286.932 59.4437 287.371 59.5722C287.621 59.6477 287.788 59.9685 287.862 60.5157C287.936 61.0629 287.936 61.7422 287.936 62.3271V63.1385C287.936 63.2329 287.936 63.3555 287.936 63.5159C287.926 63.646 287.895 63.7735 287.844 63.8933C287.791 63.9933 287.729 64.088 287.658 64.1763C287.584 64.2727 287.489 64.3502 287.38 64.4028L286.982 64.5254H280.04C279.898 64.5346 279.756 64.5346 279.614 64.5254H279.151H278.743C278.594 64.5435 278.45 64.5882 278.317 64.6575C278.192 64.7187 278.079 64.8017 277.983 64.9028C277.88 65.003 277.806 65.1304 277.77 65.2707C277.7 65.7389 277.675 66.2129 277.696 66.6859V72.1863C277.696 72.1863 277.696 72.441 277.696 72.8184C277.667 73.0881 277.667 73.3601 277.696 73.6298C277.722 73.8365 277.781 74.0373 277.872 74.2242C277.969 74.4448 278.131 74.6294 278.335 74.7525C278.629 74.8809 278.943 74.9545 279.262 74.9695C279.674 74.9906 280.086 74.9716 280.494 74.9129C280.829 74.8585 281.166 74.8239 281.505 74.8091H283.228C283.641 74.7922 284.048 74.9041 284.396 75.1299C284.593 75.4038 284.7 75.734 284.702 76.0734V78.6018C284.702 78.6585 284.702 78.7622 284.702 78.9132C284.694 79.0317 284.663 79.1473 284.609 79.2528L284.489 79.5453C284.451 79.6451 284.374 79.724 284.276 79.7623L283.933 79.885C283.465 79.9417 282.994 79.9607 282.524 79.9416C281.792 79.9416 281.171 79.9416 280.671 79.885H280.022H279.225C279.017 79.8913 278.812 79.9262 278.613 79.9887C278.384 80.0235 278.175 80.1447 278.029 80.3284C277.79 80.6237 277.676 81.0041 277.714 81.3851V88.5837C277.662 89.0185 277.75 89.4587 277.964 89.8385C278.174 90.1112 278.495 90.2711 278.836 90.2725H285.777C286.311 90.2391 286.848 90.2804 287.371 90.3951C287.689 90.5078 287.906 90.8076 287.918 91.1499C287.99 91.7318 288.014 92.3187 287.992 92.9047C288.012 93.4248 287.988 93.9458 287.918 94.4614C287.906 94.8038 287.689 95.1035 287.371 95.2162C286.908 95.337 286.431 95.4003 285.953 95.4049H285.434C285.249 95.4049 285.054 95.4049 284.85 95.4049H284.359H275.509C274.913 95.4418 274.315 95.4005 273.729 95.2822C273.071 95.0275 272.747 94.2444 272.747 92.9047V63.6291H272.691Z" fill="#333333"/>
<path fill-rule="evenodd" clip-rule="evenodd" d="M223.091 81.7068C222.847 81.7055 222.605 81.67 222.37 81.6011C221.312 81.1664 220.723 80.0022 220.985 78.8636L223.241 71.6982C221.929 72.5888 220.299 72.8318 218.795 72.3609C218.521 72.2862 218.313 72.0599 218.255 71.7759C218.197 71.4919 218.3 71.1987 218.521 71.0178C218.742 70.8369 219.043 70.7991 219.3 70.9202C220.236 71.2756 222.52 71.2371 224.149 68.5477C224.907 65.3031 226.665 59.6782 226.818 59.1898L226.826 59.1634C227.037 58.6009 227.458 58.1479 227.996 57.9045C228.533 57.6612 229.143 57.6476 229.691 57.8667C230.889 58.2894 231.413 59.3363 231.244 60.9692C231.095 62.4484 229.653 66.3961 228.268 67.6928C227.524 68.3775 226.632 68.8713 225.665 69.1336L224.729 72.0632C225.881 72.409 228.155 72.5915 230.449 68.2211C230.65 67.8501 231.104 67.7133 231.469 67.9137C231.826 68.1199 231.955 68.5821 231.759 68.9511C229.747 72.7932 227.5 73.7537 225.581 73.6865C226.769 75.6412 226.744 78.1261 225.516 80.0547C225.07 81.0257 224.136 81.6623 223.091 81.7068ZM222.408 79.2287C222.408 79.2287 222.333 79.9875 222.801 80.1316C223.007 80.1989 223.56 80.3621 224.224 79.296L224.233 79.2809C224.38 79.0233 225.907 76.3587 224.009 74.2052L222.408 79.2287ZM225.984 67.3952C226.855 64.1103 228.202 59.7783 228.202 59.7783C228.262 59.5712 228.409 59.4025 228.604 59.3188C228.798 59.235 229.018 59.2451 229.204 59.3461C229.635 59.4998 229.869 59.6535 229.756 60.8445C229.644 62.0356 228.324 65.5991 227.266 66.5596C226.885 66.9067 226.452 67.1889 225.984 67.3952Z" fill="#333333"/>
<path fill-rule="evenodd" clip-rule="evenodd" d="M212.542 71.5698C213.336 72.5823 214.505 73.1569 215.729 73.1367H215.72C218.43 73.1067 221.038 70.4619 221.543 67.2283C221.836 65.6299 221.467 63.9725 220.533 62.6972C219.74 61.6899 218.575 61.1191 217.355 61.1402C214.645 61.1602 212.028 63.805 211.532 67.0386C211.237 68.637 211.607 70.2951 212.542 71.5698ZM213.011 67.2983C213.397 64.7933 215.371 62.7273 217.401 62.7273C218.192 62.7069 218.949 63.0776 219.459 63.7353C220.118 64.6493 220.37 65.8334 220.148 66.969C219.762 69.4741 217.787 71.54 215.757 71.54C214.965 71.5645 214.205 71.1975 213.691 70.542C213.04 69.6197 212.792 68.4355 213.011 67.2983Z" fill="#333333"/>
<path d="M151.881 48.2847H288" stroke="#333333" stroke-width="0.8192" stroke-linecap="round"/>
<path d="M259.074 122.1L262.58 119.401C264.061 118.247 264.594 117.591 264.594 116.755C264.598 116.311 264.392 115.886 264.025 115.579C263.657 115.273 263.161 115.112 262.653 115.136C261.554 115.182 260.565 115.734 260.057 116.586L259.256 116.078C259.928 114.947 261.279 114.249 262.738 114.278C263.505 114.229 264.261 114.457 264.828 114.91C265.396 115.363 265.723 116 265.735 116.67C265.735 117.898 264.983 118.66 263.308 119.952L260.749 121.973H265.88V122.841H259.123L259.074 122.1Z" fill="#333333"/>
<path fill-rule="evenodd" clip-rule="evenodd" d="M269.299 114.271C267.225 114.271 265.88 116.242 265.88 118.567C265.88 120.902 267.205 122.841 269.278 122.841C271.352 122.841 272.686 120.871 272.686 118.546C272.686 116.221 271.372 114.271 269.299 114.271ZM269.278 115.127C270.735 115.127 271.746 116.753 271.746 118.567C271.746 120.392 270.765 121.987 269.299 121.987C267.832 121.987 266.821 120.36 266.821 118.546C266.821 116.711 267.822 115.127 269.278 115.127Z" fill="#333333"/>
<path d="M274.436 122.12L277.968 119.414C279.458 118.258 280.008 117.6 280.008 116.762C280.013 116.315 279.803 115.887 279.431 115.579C279.058 115.272 278.555 115.112 278.041 115.138C276.935 115.187 275.94 115.74 275.426 116.592L274.62 116.083C275.298 114.951 276.658 114.252 278.127 114.279C278.9 114.226 279.663 114.454 280.236 114.909C280.808 115.363 281.137 116.004 281.145 116.677C281.145 117.908 280.399 118.671 278.701 119.966L276.098 121.971H281.194V122.841H274.388L274.436 122.12Z" fill="#333333"/>
<path fill-rule="evenodd" clip-rule="evenodd" d="M282.911 114.271C280.838 114.271 279.493 116.242 279.493 118.567C279.493 120.902 280.807 122.841 282.88 122.841C284.954 122.841 286.299 120.871 286.299 118.546C286.299 116.221 284.984 114.271 282.911 114.271ZM282.881 115.127C284.337 115.127 285.348 116.753 285.348 118.567C285.348 120.392 284.377 121.987 282.911 121.987C281.445 121.987 280.433 120.36 280.433 118.546C280.433 116.711 281.424 115.127 282.881 115.127Z" fill="#333333"/>
<path d="M105.536 73.7595L105.163 73.4645L105.068 73.3957L104.667 73.1204L104.504 73.0122L104.266 72.8647L104.037 72.7369L103.865 72.6386L103.368 72.3927H103.273C103.167 72.3337 103.053 72.2944 102.948 72.2452L102.585 72.1076V91.9904L102.948 91.8527L103.282 91.7151H103.378L103.884 91.4692L104.046 91.3709L104.275 91.2431L104.514 91.0956L104.676 90.9874C104.81 90.9087 104.944 90.8104 105.077 90.7219L105.173 90.6432L105.545 90.3482C107.04 89.1174 108.174 87.4834 108.821 85.6283H122.716C122.873 84.4584 122.953 83.279 122.955 82.0981C122.985 69.8725 114.286 59.4819 102.537 57.7117V64.8014C109.224 66.2165 114.452 71.5949 115.831 78.4795H108.812C108.165 76.6244 107.031 74.9904 105.536 73.7595Z" fill="#333333"/>
<path d="M94.0296 91.3748V71.4231C91.11 72.4924 88.8128 74.8577 87.7743 77.8639H73.86C71.9776 91.2824 81.0014 103.737 94.0296 105.702V98.612C87.3423 97.197 82.115 91.8186 80.736 84.934H87.7743C88.8128 87.9401 91.11 90.3055 94.0296 91.3748Z" fill="#333333"/>
<path d="M60 81.7114C60.0031 101.283 74.7554 117.627 94.0298 119.413V112.529C79.8305 110.925 68.608 99.6186 66.9693 85.2668C65.3307 70.9151 73.71 57.3204 87.1742 52.4865V59.9496C82.2631 62.3328 78.3023 66.3377 75.9455 71.3036H83.8514C86.3485 67.9567 89.9677 65.6463 94.0298 64.806V44C74.7517 45.7868 59.9982 62.1365 60 81.7114V81.7114Z" fill="#A67C52"/>
<path d="M102.537 44V50.8838C116.747 52.489 127.977 63.7994 129.616 78.1559C131.256 92.5125 122.87 106.111 109.395 110.946V103.464C114.308 101.08 118.271 97.0755 120.628 92.1096H112.729C110.226 95.4551 106.603 97.7649 102.537 98.6072V119.413C121.816 117.62 136.567 101.275 136.567 81.7066C136.567 62.1382 121.816 45.7931 102.537 44Z" fill="#A67C52"/>
<path d="M252.268 115.128H150.179" stroke="#333333" stroke-width="0.8192" stroke-linecap="round"/>
</svg>
