<svg width="348" height="167" viewBox="0 0 348 167" fill="none" xmlns="http://www.w3.org/2000/svg">
<rect width="348" height="167" rx="4" fill="#2C535D"/>
<path d="M114.229 73.5888C114.229 58.8788 119.678 52.5413 130.227 52.5413C140.777 52.5413 146.109 58.8206 146.109 73.4725C146.109 88.2987 140.893 94.4618 130.227 94.4618C119.62 94.4618 114.229 88.2987 114.229 73.5888ZM136.724 73.4143C136.724 62.9487 135.159 59.6346 130.175 59.6346C125.19 59.6346 123.625 62.9487 123.625 73.4143C123.625 83.9962 125.19 87.4266 130.175 87.4266C135.159 87.4266 136.724 83.9962 136.724 73.4143Z" fill="white"/>
<path d="M156.369 53.2971H168.194C177.7 53.2971 182.859 56.2624 182.859 65.7396C182.859 73.7632 180.076 78.8797 168.889 78.8797H165.064V93.706H156.369V53.2971ZM168.773 71.8445C172.251 71.8445 173.932 70.6817 173.932 66.3791C173.932 61.7277 172.309 60.623 169.121 60.623H165.064V71.8445H168.773Z" fill="white"/>
<path d="M189.814 90.7407L192.712 83.9962C195.495 85.973 198.625 87.0778 201.929 87.0778C205.986 87.0778 207.725 85.2753 207.725 82.3101C207.725 79.1123 206.044 78.2401 202.334 77.0773C195.669 74.9842 191.437 72.4259 191.437 64.4023C191.437 56.2042 196.654 52.5413 204.189 52.5413C209.058 52.5413 212.072 53.5297 215.087 55.3321L212.014 61.844C209.522 60.3323 207.783 59.8672 204.885 59.8672C201.871 59.8672 200.248 61.2045 200.248 63.7046C200.248 66.4373 201.175 67.4257 204.827 68.5885C211.319 70.5654 216.825 72.7166 216.825 81.6124C216.825 89.2872 213.232 94.4618 202.74 94.4618C197.413 94.4618 192.486 92.7757 189.814 90.7407Z" fill="white"/>
<path d="M225.296 88.9381L229.18 88.0659V58.9948L225.296 58.1227V53.2969H241.932V58.1227L238.048 58.9948V88.0659L241.932 88.9381V93.7057H225.296V88.9381Z" fill="white"/>
<path d="M250.278 73.5888C250.278 58.8788 255.727 52.5413 266.277 52.5413C276.826 52.5413 282.159 58.8206 282.159 73.4725C282.159 88.2987 276.942 94.4618 266.277 94.4618C255.664 94.4618 250.278 88.2987 250.278 73.5888ZM272.769 73.4143C272.769 62.9487 271.203 59.6346 266.219 59.6346C261.234 59.6346 259.669 62.9487 259.669 73.4143C259.669 83.9962 261.234 87.4266 266.219 87.4266C271.203 87.4266 272.769 83.9962 272.769 73.4143Z" fill="white"/>
<path d="M59.3583 108.908H288L280.401 117H59L59.3583 108.908Z" fill="#58C9E8"/>
<path d="M59 49V98.6958L101.904 73.8479L59 49ZM67.7789 64.2544L84.3408 73.8426L67.7789 83.4361V64.2544Z" fill="url(#paint0_linear_121_2523)"/>
<defs>
<linearGradient id="paint0_linear_121_2523" x1="80.0561" y1="85.591" x2="58.3014" y2="48.4963" gradientUnits="userSpaceOnUse">
<stop stop-color="#5CCAE7"/>
<stop offset="1" stop-color="#BDE6F5"/>
</linearGradient>
</defs>
</svg>
