<svg width="348" height="167" viewBox="0 0 348 167" fill="none" xmlns="http://www.w3.org/2000/svg">
<rect width="348" height="167" rx="4" fill="#020528"/>
<path d="M107.259 65.1379L105.885 66.117C109.314 70.9396 111.203 76.687 111.303 82.6033C111.404 88.5197 109.712 94.328 106.449 99.2646L104.773 97.5872C107.657 93.0569 109.123 87.7695 108.984 82.4014C108.845 77.0332 107.108 71.8285 103.995 67.4531L103.416 66.6354L97.2478 72.7948L97.5982 73.367C98.8766 75.4171 99.7375 77.6982 100.131 80.0829C99.3998 80.3476 98.7893 80.8688 98.4131 81.5496C98.0369 82.2304 97.9206 83.0247 98.0858 83.7848C98.251 84.5449 98.6864 85.2193 99.3112 85.6826C99.9361 86.1459 100.708 86.3667 101.483 86.304C102.257 86.2414 102.982 85.9007 103.524 85.3448C104.066 84.789 104.389 84.0556 104.432 83.2804C104.475 82.5051 104.236 81.7405 103.759 81.1278C103.282 80.5152 102.6 80.096 101.837 79.9477L101.836 79.9005H101.818C101.431 77.4878 100.605 75.1666 99.3806 73.052L103.185 69.2551C105.87 73.3438 107.301 78.1277 107.304 83.0189C107.314 87.7288 106.014 92.3488 103.55 96.3627L101.421 94.2352L100.226 95.4282L106.682 101.874L107.259 101.056C110.992 95.8091 112.998 89.5297 112.998 83.0904C112.998 76.6511 110.992 70.3717 107.259 65.1248V65.1379ZM102.734 82.8036C102.801 83.1505 102.747 83.5099 102.579 83.8211C102.412 84.1323 102.143 84.3762 101.816 84.5116C101.49 84.647 101.127 84.6655 100.789 84.564C100.45 84.4625 100.157 84.2473 99.9594 83.9547C99.8049 83.7247 99.7159 83.457 99.7018 83.1804C99.6878 82.9037 99.7492 82.6284 99.8796 82.3839C100.01 82.1395 100.204 81.9351 100.442 81.7926C100.68 81.6502 100.951 81.575 101.229 81.5752C101.583 81.574 101.927 81.6958 102.201 81.9198C102.476 82.1439 102.664 82.4563 102.734 82.8036Z" fill="#8BD893"/>
<path d="M81.9012 113.316C76.1561 113.319 70.5374 111.629 65.7474 108.457L67.4234 106.777C71.6945 109.52 76.661 110.985 81.7371 110.998C87.3999 111.023 92.9286 109.275 97.5484 106L98.366 105.42L92.2053 99.2487L91.6305 99.5965C89.583 100.877 87.2993 101.738 84.9172 102.13C84.6531 101.398 84.132 100.787 83.4509 100.411C82.7698 100.036 81.9753 99.9204 81.2155 100.087C80.4558 100.254 79.7825 100.691 79.3214 101.318C78.8603 101.944 78.6427 102.717 78.7093 103.492C78.7752 104.264 79.1186 104.986 79.6758 105.525C80.233 106.064 80.9663 106.382 81.7403 106.422C82.5143 106.462 83.2766 106.22 83.8861 105.742C84.4957 105.263 84.9114 104.58 85.0563 103.819C87.4835 103.434 89.8192 102.606 91.9468 101.376L95.7437 105.176C91.576 107.885 86.7077 109.317 81.7371 109.297C77.1062 109.287 72.5695 107.987 68.6361 105.543L70.7649 103.413L69.5732 102.219L63.1237 108.683L63.9414 109.263C69.1887 112.995 75.468 115 81.9071 115C88.3462 115 94.6254 112.995 99.8727 109.263L98.8936 107.886C93.9343 111.424 87.993 113.323 81.9012 113.317V113.316ZM82.9787 104.306C82.7299 104.556 82.4017 104.712 82.0505 104.747C81.6993 104.781 81.347 104.693 81.0539 104.496C80.7609 104.299 80.5454 104.007 80.4444 103.669C80.3435 103.331 80.3634 102.968 80.5008 102.643C80.5874 102.435 80.7189 102.249 80.8858 102.099C81.0528 101.948 81.2511 101.837 81.4664 101.772C81.6817 101.707 81.9087 101.691 82.131 101.724C82.3534 101.758 82.5655 101.84 82.7522 101.965C82.9389 102.091 83.0956 102.256 83.2108 102.449C83.326 102.642 83.397 102.858 83.4187 103.082C83.4403 103.306 83.4121 103.532 83.336 103.743C83.26 103.955 83.1379 104.147 82.9787 104.306ZM81.0927 53.6878C86.8387 53.6843 92.4584 55.3733 97.2504 58.544L95.5731 60.22C91.2173 57.4554 86.1625 55.9923 81.0034 56.003C75.4224 56.0087 69.9824 57.7569 65.4429 61.0035L64.6252 61.5836L70.7872 67.7496L71.3555 67.3873C73.4046 66.1081 75.6867 65.2473 78.0701 64.8543C78.253 65.3629 78.5615 65.8171 78.967 66.1746C79.3724 66.5321 79.8616 66.7814 80.3892 66.8992C80.9167 67.0171 81.4655 66.9997 81.9845 66.8487C82.5036 66.6977 82.976 66.418 83.358 66.0355C83.8329 65.559 84.1465 64.9455 84.2544 64.2815C84.3624 63.6174 84.2593 62.9363 83.9598 62.3338C83.6603 61.7314 83.1793 61.2382 82.5847 60.9235C81.9901 60.6088 81.3117 60.4885 80.6451 60.5796C79.9784 60.6723 79.3577 60.9722 78.8707 61.4369C78.3837 61.9015 78.0549 62.5075 77.931 63.1691C75.5029 63.5523 73.1667 64.3805 71.0405 65.6129L67.2475 61.808C71.3363 59.1235 76.12 57.6916 81.0113 57.6882C85.7231 57.679 90.3429 58.9784 94.3604 61.4419L92.2316 63.572L93.4246 64.7663L99.8727 58.313L99.0551 57.7342C93.8069 54.0049 87.5285 52.0009 81.0902 52C74.652 51.9991 68.373 54.0012 63.1237 57.7289L64.1028 59.1044C69.0638 55.5735 75.0035 53.6799 81.0927 53.6878ZM80.0165 62.6913C80.2658 62.4405 80.5946 62.2842 80.9466 62.2494C81.2985 62.2146 81.6516 62.3034 81.9452 62.5006C82.2388 62.6978 82.4546 62.991 82.5556 63.33C82.6565 63.669 82.6363 64.0325 82.4983 64.3582C82.3641 64.685 82.1204 64.955 81.8089 65.1218C81.4974 65.2886 81.1377 65.3419 80.7912 65.2726C80.4448 65.2032 80.1332 65.0155 79.91 64.7417C79.6867 64.4678 79.5657 64.1248 79.5676 63.7715C79.565 63.362 79.7251 62.9709 80.0152 62.6821V62.6926L80.0165 62.6913Z" fill="#76C7E4"/>
<path d="M65.3943 93.6315C64.1136 91.5826 63.2526 89.2998 62.8612 86.9156C63.4657 86.6961 63.9903 86.3001 64.3671 85.779C64.7438 85.2578 64.9554 84.6355 64.9743 83.9927C64.9933 83.3499 64.8188 82.7163 64.4733 82.1738C64.1279 81.6314 63.6276 81.2052 63.0371 80.9504C62.6229 80.7726 62.1759 80.684 61.7252 80.6904C61.2745 80.6969 60.8302 80.7983 60.4213 80.988C60.0124 81.1777 59.6481 81.4514 59.3521 81.7914C59.0561 82.1313 58.8351 82.5299 58.7034 82.961C58.5718 83.3921 58.5325 83.8461 58.5881 84.2934C58.6437 84.7407 58.7929 85.1713 59.0261 85.5571C59.2593 85.9428 59.5711 86.2751 59.9414 86.5323C60.3116 86.7894 60.7318 86.9656 61.1747 87.0495C61.5569 89.4791 62.3845 91.8174 63.6159 93.9465L59.8124 97.7447C57.1877 93.7258 55.76 89.0434 55.6956 84.2437C55.6312 79.444 56.9329 74.725 59.4488 70.6371L61.5777 72.7659L62.772 71.5742L56.3147 65.1248L55.7372 65.9424C52.0052 71.1897 50 77.469 50 83.9081C50 90.3472 52.0052 96.6264 55.7372 101.874L57.1127 100.895C53.6825 96.0713 51.793 90.3225 51.6927 84.4046C51.5924 78.4868 53.2861 72.6773 56.5509 67.7405L58.2309 69.4165C55.3472 73.9463 53.8808 79.2335 54.0192 84.6016C54.1576 89.9696 55.8946 95.1742 59.0079 99.5494L59.5853 100.367L65.7487 94.2063L65.3943 93.6315ZM61.764 85.4286C61.5629 85.4292 61.3636 85.3902 61.1775 85.3137C60.9915 85.2373 60.8223 85.125 60.6796 84.9832C60.537 84.8414 60.4237 84.6729 60.3461 84.4873C60.2686 84.3017 60.2284 84.1027 60.2278 83.9015C60.2272 83.7004 60.2662 83.5011 60.3426 83.315C60.419 83.129 60.5314 82.9598 60.6732 82.8171C60.8149 82.6745 60.9835 82.5612 61.1691 82.4836C61.3547 82.4061 61.5537 82.3659 61.7548 82.3653C62.1532 82.3757 62.5318 82.5409 62.8103 82.826C63.0888 83.111 63.2453 83.4933 63.2465 83.8918C63.2477 84.2903 63.0935 84.6736 62.8167 84.9603C62.5399 85.2469 62.1623 85.4158 61.764 85.4286Z" fill="#8BD893"/>
<path d="M88.1879 83.3128C90.4716 79.7561 89.356 75.0837 85.689 72.8551C82.0219 70.6279 77.1829 71.6805 74.8559 75.211C72.5302 78.7428 73.592 83.427 77.2314 85.6963L74.4543 95.3114H88.5462L85.7703 85.6963C86.7425 85.0899 87.5672 84.276 88.1879 83.3128ZM84.2925 84.5124L83.6349 84.8379L86.1575 93.5632H76.8324L79.3524 84.8379L78.6961 84.5124C77.7336 84.03 76.9179 83.2985 76.3337 82.3941C74.7627 79.9398 75.2759 76.7426 77.5438 74.8645C78.6551 73.9538 80.0476 73.4561 81.4845 73.4561C82.9213 73.4561 84.3138 73.9538 85.4251 74.8645C87.6931 76.7426 88.2076 79.9385 86.6352 82.3941C86.0566 83.296 85.2479 84.0272 84.2925 84.5124Z" fill="white"/>
<path d="M138.533 77.118C138.722 74.6348 137.387 72.7553 134.75 72.7553C130.899 72.7553 130.487 75.1755 130.487 77.0235C130.487 78.6798 131.22 79.7009 132.745 80.2731L136.527 81.7063C141.046 83.3902 141.872 84.9901 141.872 88.1426C141.872 92.668 139.041 95.3113 134.46 95.3113C132.106 95.3113 129.305 94.6446 127.945 91.5222C127.434 90.3437 127.466 88.4327 127.434 87.157H130.07C129.941 90.6941 130.609 92.924 134.585 92.924C137.258 92.924 139.135 91.5537 139.135 88.7503C139.135 85.1187 137.665 85.0859 135.254 84.1619C133.951 83.6527 131.852 82.9834 130.578 82.314C128.32 81.1669 127.748 79.256 127.748 76.8988C127.748 72.9469 130.515 70.3745 134.397 70.3745C138.754 70.3745 141.427 72.6372 141.172 77.1285L138.533 77.118ZM149.746 95.3113V71.687H161.497V74.0507H152.349V81.8612H160.932V84.2236H152.349V92.9489H161.559V95.3113H149.746ZM185.183 94.9163L183.813 96.6238L181.074 94.323C180.028 95.373 177.974 96.0962 176.178 96.0962C169.034 96.0962 168.185 89.4945 168.121 82.6618C168.121 77.0182 168.97 70.3745 176.114 70.3745C183.39 70.3745 184.269 77.0103 184.269 82.6618C184.269 84.3693 184.041 90.3804 182.377 92.5499L185.183 94.9163ZM176.636 90.7755L178.071 88.9682L180.354 90.8083C180.91 89.8554 181.497 86.3748 181.465 83.7446C181.399 76.6153 180.681 72.8393 176.179 72.8393C171.678 72.8393 170.96 76.6153 170.927 83.7446C170.894 89.232 171.938 93.7652 176.114 93.634C177.191 93.6012 178.071 93.4371 179.05 92.714L176.636 90.7755ZM200.998 70.3745C207.979 70.3745 208.84 76.8082 208.807 82.2864C208.774 88.9118 207.915 95.3113 200.932 95.3113C193.949 95.3113 193.121 88.9118 193.058 82.2864C193.058 76.8082 193.887 70.3745 200.998 70.3745ZM200.869 72.7645C196.788 72.7645 195.768 77.03 195.799 82.3494C195.831 89.2609 196.533 92.924 200.931 92.924C205.332 92.924 206.033 89.2609 206.067 82.3494C206.098 77.0313 205.077 72.7645 200.869 72.7645ZM216.682 95.3113V71.687H222.654C224.411 71.687 226.623 71.9075 227.956 73.2304C229.321 74.5547 229.807 76.3803 229.807 78.2703C229.807 80.886 229.048 83.4362 226.592 84.6016C225.017 85.2946 222.44 85.2946 220.713 85.2946H219.197V95.3113H216.682ZM219.197 82.9335H221.654C225.108 82.902 227.23 82.3954 227.2 78.3333C227.2 74.5232 224.864 73.9864 221.793 74.0507H219.191L219.197 82.9335ZM247.465 77.118C247.656 74.6348 246.32 72.7553 243.682 72.7553C239.833 72.7553 239.418 75.1755 239.418 77.0235C239.418 78.6798 240.149 79.7009 241.678 80.2731L245.46 81.7063C249.978 83.3902 250.806 84.9901 250.806 88.1426C250.806 92.668 247.974 95.3113 243.392 95.3113C241.039 95.3113 238.239 94.6446 236.877 91.5222C236.369 90.3437 236.4 88.4327 236.369 87.157H239.008C238.882 90.6941 239.55 92.924 243.527 92.924C246.199 92.924 248.076 91.5537 248.076 88.7503C248.076 85.1187 246.606 85.0859 244.195 84.1619C242.889 83.6527 240.791 82.9834 239.518 82.314C237.26 81.1669 236.687 79.256 236.687 76.8988C236.687 72.9469 239.455 70.3745 243.336 70.3745C247.693 70.3745 250.366 72.6372 250.113 77.1285L247.465 77.118ZM257.368 95.3113V91.3739H261.306V95.3113H257.368ZM269.181 95.3113V71.687H273.118V95.3113H269.181ZM290.243 70.3745C297.225 70.3745 298.085 76.8082 298.053 82.2864C298.022 88.9118 297.161 95.3113 290.179 95.3113C283.198 95.3113 282.37 88.9118 282.305 82.2864C282.305 76.8082 283.135 70.3745 290.243 70.3745ZM290.117 72.7645C286.035 72.7645 285.015 77.03 285.047 82.3494C285.078 89.2609 285.781 92.924 290.179 92.924C294.579 92.924 295.28 89.2609 295.312 82.3494C295.346 77.0313 294.33 72.7645 290.118 72.7645H290.117Z" fill="white" stroke="white"/>
</svg>
