<svg width="348" height="167" viewBox="0 0 348 167" fill="none" xmlns="http://www.w3.org/2000/svg">
<rect width="348" height="167" rx="4" fill="#2B3351"/>
<path fill-rule="evenodd" clip-rule="evenodd" d="M206.737 76.7439C207.341 76.9921 207.852 77.2623 208.411 77.5979C212.689 80.1666 214.688 85.7862 212.624 90.428C212.624 90.428 212.429 90.8574 212.294 91.1083C212.159 91.3592 212.243 91.1963 211.979 91.6777C211.716 92.1591 211.22 92.7893 211.22 92.7893C211.22 92.7893 211.545 92.3439 211.545 90.1915C211.545 88.0391 210.24 85.2741 206.618 83.7646C206.397 83.6724 206.176 83.5863 205.961 83.5062C205.249 83.2416 204.589 83.0519 204.105 82.9075L204.035 82.8867C204.013 82.88 203.991 82.8735 203.969 82.867C202.009 82.5244 200.66 81.2456 200.66 79.5087C200.725 78.4598 201.043 77.7921 202.105 77.0163C202.725 76.5628 203.565 76.3483 204.156 76.2483C204.627 76.1685 205.109 76.2034 205.568 76.3386C205.893 76.4345 206.304 76.5659 206.737 76.7439Z" fill="#13928A"/>
<path fill-rule="evenodd" clip-rule="evenodd" d="M198.531 76.6327C192.11 79.0764 189.695 86.1962 193.069 91.8078C193.673 92.705 194.273 93.7041 195.595 94.2448C195.867 94.3362 196.54 94.4616 196.947 94.1528C197.939 93.3984 197.486 91.0889 199.705 89.6847C200.895 88.9996 201.52 88.8418 202.849 88.8838C207.436 89.0285 210.476 91.7896 211.219 92.7898C211.219 92.7898 210.786 88.711 205.722 87.2818C202.643 86.4127 200.612 86.4728 199.225 85.3228C197.721 84.0746 197.518 82.875 197.671 81.0815C197.962 79.3009 199.022 78.2043 200.01 77.5302C202.272 75.9875 204.878 76.1669 204.878 76.1669C204.878 76.1669 203.683 75.8824 202.323 75.9147C201.257 75.9295 199.95 76.0928 198.531 76.6327Z" fill="white"/>
<path d="M86.1311 73.7011C88.3023 73.7011 90.5215 74.5507 92.7886 76.2516L95.4671 72.2335C92.5488 70.1371 89.3999 69.0898 86.0223 69.0898C83.5135 69.0898 81.3478 69.7488 79.5271 71.0633C77.7045 72.3795 76.7951 74.2016 76.7951 76.5312C76.7951 77.3933 76.9334 78.1788 77.212 78.8894C77.4887 79.6001 77.8318 80.1825 78.2432 80.6367C78.6527 81.0908 79.184 81.5094 79.8351 81.8941C80.4863 82.2788 81.1135 82.5745 81.7167 82.7847C82.32 82.9948 83.0191 83.2032 83.816 83.4134C84.2015 83.506 84.6959 83.6236 85.2991 83.7625C85.9024 83.9032 86.3912 84.019 86.7638 84.1116C87.1383 84.2042 87.5663 84.3217 88.0478 84.4607C88.5292 84.6014 88.9166 84.7456 89.2062 84.897C89.4958 85.0484 89.7781 85.223 90.0566 85.4207C90.3333 85.6184 90.5326 85.8517 90.6543 86.1189C90.7742 86.386 90.8351 86.6835 90.8351 87.0094C90.8351 88.8724 89.4958 89.8039 86.8192 89.8039C83.9968 89.8039 81.4031 88.7567 79.0401 86.6603L76 90.5057C77.4481 91.7631 79.1305 92.7249 81.0471 93.3875C82.9638 94.0501 84.9247 94.3831 86.928 94.3831C89.5088 94.3831 91.7279 93.7188 93.5856 92.3919C95.4432 91.065 96.371 89.2019 96.371 86.8028C96.371 85.7787 96.1903 84.8525 95.8287 84.0261C95.4671 83.1997 95.0318 82.5353 94.5263 82.0348C94.0209 81.5343 93.3439 81.0802 92.5009 80.6723C91.656 80.2644 90.9034 79.967 90.2393 79.7817C89.5752 79.5947 88.7617 79.3863 87.7969 79.153C85.5297 78.6401 84.1185 78.234 83.5633 77.9312C82.7424 77.4895 82.3329 76.9302 82.3329 76.2534C82.3329 75.345 82.7129 74.6932 83.4729 74.296C84.2329 73.9006 85.1184 73.7029 86.133 73.7029L86.1311 73.7011Z" fill="white"/>
<path d="M114.654 78.9576C112.82 77.2229 110.553 76.3555 107.851 76.3555C105.148 76.3555 102.881 77.2229 101.047 78.9576C99.2137 80.6924 98.2969 82.8297 98.2969 85.3696C98.2969 87.9094 99.2137 90.0449 101.047 91.7797C102.881 93.5145 105.148 94.3819 107.851 94.3819C110.553 94.3819 112.82 93.5145 114.654 91.7797C116.487 90.0449 117.404 87.9076 117.404 85.3696C117.404 82.8315 116.487 80.6942 114.654 78.9576ZM111.09 88.8979C110.258 89.8063 109.177 90.2605 107.851 90.2605C106.524 90.2605 105.445 89.8063 104.611 88.8979C103.779 87.9896 103.362 86.814 103.362 85.3696C103.362 83.9251 103.779 82.7496 104.611 81.8412C105.443 80.9329 106.522 80.4787 107.851 80.4787C109.179 80.4787 110.256 80.9329 111.09 81.8412C111.924 82.7496 112.339 83.9269 112.339 85.3696C112.339 86.8123 111.922 87.9896 111.09 88.8979Z" fill="white"/>
<path d="M164.853 78.9576C163.019 77.2229 160.752 76.3555 158.05 76.3555C155.347 76.3555 153.08 77.2229 151.247 78.9576C149.413 80.6924 148.496 82.8297 148.496 85.3696C148.496 87.9094 149.413 90.0449 151.247 91.7797C153.08 93.5145 155.347 94.3819 158.05 94.3819C160.752 94.3819 163.019 93.5145 164.853 91.7797C166.687 90.0449 167.604 87.9076 167.604 85.3696C167.604 82.8315 166.687 80.6942 164.853 78.9576ZM161.289 88.8979C160.457 89.8063 159.376 90.2605 158.05 90.2605C156.723 90.2605 155.644 89.8063 154.811 88.8979C153.979 87.9896 153.562 86.814 153.562 85.3696C153.562 83.9251 153.979 82.7496 154.811 81.8412C155.642 80.9329 156.722 80.4787 158.05 80.4787C159.378 80.4787 160.455 80.9329 161.289 81.8412C162.123 82.7496 162.538 83.9269 162.538 85.3696C162.538 86.8123 162.121 87.9896 161.289 88.8979Z" fill="white"/>
<path d="M121.408 76.7753H118.586V80.7578H121.408V93.9646H126.439V80.7596H130.6V76.777H126.439V75.24C126.439 74.5418 126.68 74.011 127.162 73.6494C127.643 73.2879 128.236 73.108 128.935 73.108C129.682 73.108 130.383 73.3182 131.034 73.7367L132.589 70.3473C131.165 69.5084 129.61 69.0898 127.922 69.0898C126.088 69.0898 124.544 69.5975 123.29 70.6091C122.036 71.6226 121.408 73.0617 121.408 74.9247V76.777V76.7753Z" fill="white"/>
<path d="M136.235 76.7753H133.449V80.6527H136.235V88.4094C136.235 92.3919 138.225 94.3832 142.206 94.3832C142.809 94.3832 143.49 94.2959 144.25 94.1214C145.01 93.9468 145.582 93.7313 145.969 93.4748L144.811 89.7363C144.449 90.0854 143.966 90.26 143.363 90.26C141.964 90.26 141.263 89.5725 141.263 88.1992V80.6527H145.279V76.7753H141.263V72.1641H136.233V76.7753H136.235Z" fill="white"/>
<path d="M218.168 76.7753H215.383V80.6527H218.168V88.4094C218.168 92.3919 220.159 94.3832 224.14 94.3832C224.743 94.3832 225.424 94.2959 226.184 94.1214C226.944 93.9468 227.515 93.7313 227.903 93.4748L226.744 89.7363C226.383 90.0854 225.899 90.26 225.296 90.26C223.898 90.26 223.197 89.5725 223.197 88.1992V80.6527H227.213V76.7753H223.197V72.1641H218.166V76.7753H218.168Z" fill="white"/>
<path d="M231.062 72.0233C231.062 72.8159 231.352 73.4909 231.931 74.0502C232.511 74.6094 233.21 74.8891 234.031 74.8891C234.899 74.8891 235.623 74.6148 236.202 74.068C236.781 73.5212 237.071 72.8408 237.071 72.0233C237.071 71.2058 236.781 70.5165 236.202 69.9448C235.623 69.3748 234.899 69.0898 234.031 69.0898C233.21 69.0898 232.511 69.3748 231.931 69.9448C231.352 70.5165 231.062 71.2076 231.062 72.0233Z" fill="#13928A"/>
<path d="M236.562 76.7754H231.531V93.9647H236.562V76.7754Z" fill="white"/>
<path d="M248.784 94.3839C251.848 94.3839 254.235 93.3597 255.949 91.3097L252.691 88.4795C251.798 89.6675 250.52 90.2624 248.856 90.2624C247.504 90.2624 246.401 89.8082 245.545 88.8999C244.689 87.9915 244.261 86.816 244.261 85.3715C244.261 83.9271 244.678 82.7515 245.51 81.8432C246.342 80.9348 247.434 80.4807 248.784 80.4807C250.4 80.4807 251.643 81.0168 252.512 82.0872L255.624 79.0825C253.815 77.2658 251.523 76.3574 248.749 76.3574C245.975 76.3574 243.779 77.2195 241.946 78.9418C240.112 80.6659 239.195 82.8085 239.195 85.3715C239.195 87.9345 240.123 90.1057 241.981 91.8173C243.838 93.5289 246.106 94.3856 248.784 94.3856V94.3839Z" fill="white"/>
<path d="M264.721 79.9889C266.432 79.9889 268.05 80.5945 269.568 81.8056L271.812 78.6958C269.712 77.1356 267.373 76.3555 264.792 76.3555C262.839 76.3555 261.144 76.8275 259.708 77.7697C258.273 78.7136 257.556 80.0922 257.556 81.9107C257.556 82.958 257.814 83.8432 258.334 84.5663C258.853 85.2894 259.504 85.8059 260.288 86.1212C261.072 86.4347 261.922 86.709 262.839 86.9423C263.756 87.1756 264.606 87.3502 265.39 87.4659C266.174 87.5835 266.825 87.7794 267.344 88.0608C267.862 88.3404 268.122 88.702 268.122 89.1437C268.122 90.2159 267.192 90.7503 265.337 90.7503C263.117 90.7503 261.103 89.947 259.293 88.3404L256.941 91.4146C259.328 93.3952 262.127 94.3837 265.337 94.3837C267.314 94.3837 269.021 93.9117 270.458 92.9695C271.893 92.0255 272.61 90.6345 272.61 88.7946C272.61 87.5372 272.249 86.5059 271.526 85.7026C270.802 84.8994 269.921 84.3526 268.884 84.0605C267.847 83.7702 266.809 83.5368 265.772 83.3623C264.733 83.1877 263.854 82.9669 263.13 82.6979C262.407 82.4308 262.046 82.0514 262.046 81.5616C262.046 80.5143 262.939 79.9889 264.724 79.9889H264.721Z" fill="white"/>
<path d="M187.047 78.6019C185.355 76.8742 183.176 76.0086 180.509 76.0086C178.69 76.0086 177.159 76.5536 175.912 77.6383V79.813H175.185V75.3425H175.211V69H170.062V94.0333H175.211V93.5399H175.185V90.1968H175.912V92.7936C176.34 93.1765 176.866 93.5078 177.491 93.7839C178.515 94.2363 179.559 94.4625 180.622 94.4625C183.239 94.4625 185.386 93.5987 187.067 91.8692C188.746 90.1416 189.585 87.9295 189.585 85.2347C189.585 82.5399 188.738 80.3295 187.047 78.6001V78.6019ZM182.435 88.1503C181.793 88.877 180.928 89.2653 179.843 89.3116H179.732C178.696 89.3116 177.843 88.9304 177.178 88.1663C176.512 87.404 176.178 86.4262 176.178 85.2347C176.178 84.996 176.191 84.7823 176.215 84.5917C176.338 83.5676 176.714 82.7447 177.344 82.1249C177.973 81.5051 178.746 81.1951 179.659 81.1951C180.992 81.1951 182.003 81.6956 182.695 82.6966C183.164 83.4358 183.398 84.2818 183.398 85.2364C183.398 86.4529 183.077 87.4236 182.435 88.1503Z" fill="white"/>
</svg>
