<svg width="45" height="45" viewBox="0 0 45 45" fill="none" xmlns="http://www.w3.org/2000/svg">
<g id="Sewn Icon_successful partners">
<path id="Path" d="M10.3789 13.9684L24.1579 6.44208L28.2105 10.8421L42.1052 1.46313" stroke="#D4AE5E" stroke-width="2" stroke-linecap="round" stroke-linejoin="round"/>
<path id="Path_2" d="M35.1582 1H42.6845V7.13684" stroke="#D4AE5E" stroke-width="2" stroke-linecap="round" stroke-linejoin="round"/>
<g id="Group">
<path id="Path_3" d="M43.0312 20.2211V20.2211C43.0312 16.7474 40.2523 13.9684 36.7786 13.9684H20.5681H18.947L13.3891 19.5263C12.5786 20.3369 12.5786 21.8421 13.3891 22.6527V22.6527C14.1997 23.4632 15.7049 23.4632 16.5155 22.6527L20.6839 18.4842C20.6839 18.4842 24.8523 23.2316 30.526 20.9158L36.0839 26.4737H36.6628C38.5155 26.5895 40.1365 25.779 41.2944 24.6211" stroke="#008858" stroke-width="2" stroke-linecap="round" stroke-linejoin="round"/>
<path id="Path_4" d="M22.0736 40.7158L20.4525 42.2211C19.4104 43.2632 17.7894 43.2632 16.863 42.2211C16.0525 41.4106 15.9367 40.1369 16.3999 39.2106L15.3578 40.2527C14.3157 41.2948 12.6946 41.2948 11.7683 40.2527C11.0736 39.5579 10.842 38.5158 11.1894 37.5895C10.1472 38.2843 8.87356 38.1685 7.94725 37.2421C6.90514 36.2 6.90514 34.579 7.94725 33.6527V33.6527C7.02093 33.8843 5.97882 33.7685 5.1683 32.9579C4.12619 31.9158 4.12619 30.2948 5.1683 29.3685L7.48409 27.0527" stroke="#008858" stroke-width="2" stroke-linecap="round" stroke-linejoin="round"/>
<path id="Path_5" d="M11.0732 37.5895L13.6206 35.1579" stroke="#008858" stroke-width="2" stroke-linecap="round" stroke-linejoin="round"/>
<path id="Path_6" d="M7.71582 33.6527L9.68424 31.8" stroke="#008858" stroke-width="2" stroke-linecap="round" stroke-linejoin="round"/>
<path id="Path_7" d="M27.6317 39.2105L23.5791 35.1579" stroke="#008858" stroke-width="2" stroke-linecap="round" stroke-linejoin="round"/>
<path id="Path_8" d="M32.9582 37.5895L24.1582 28.7895" stroke="#008858" stroke-width="2" stroke-linecap="round" stroke-linejoin="round"/>
<path id="Path_9" d="M36.316 33.6526L30.2949 27.7474" stroke="#008858" stroke-width="2" stroke-linecap="round" stroke-linejoin="round"/>
<path id="Path_10" d="M18.2526 13.9684H6.90526C3.66316 13.9684 1 16.6316 1 19.8737V20.6842C1 24.0421 3.77895 26.7053 7.13684 26.5895V26.5895L9.91579 28.6737L23.4632 42.2211C24.3895 43.1474 26.0105 43.379 27.0526 42.4527C28.0947 41.6421 28.2105 40.2527 27.7474 39.2106L28.7895 40.2527C29.7158 41.179 30.9895 41.4105 32.0316 40.7158C33.0737 40.0211 33.4211 38.7474 33.0737 37.7053C34.3474 38.5158 36.2 38.1684 36.8947 36.4316C37.3579 35.5053 37.0105 34.3474 36.3158 33.6527V33.6527C37.3579 34 38.6316 33.6527 39.3263 32.6105C40.0211 31.5684 39.7895 30.179 38.8632 29.3684L36.3158 26.8211" stroke="#008858" stroke-width="2" stroke-linecap="round" stroke-linejoin="round"/>
</g>
</g>
</svg>
