<svg width="44" height="58" viewBox="0 0 44 58" fill="none" xmlns="http://www.w3.org/2000/svg">
<g id="Sewn Icon_The voice of coffee">
<path id="Path" fill-rule="evenodd" clip-rule="evenodd" d="M42.6592 20.9149C42.6592 22.9685 40.0188 24.7288 39.4321 26.6357C38.8453 28.6893 39.8721 31.4764 38.6986 33.2367C37.5251 34.8502 34.298 34.7035 32.6845 35.877C31.0709 37.0505 30.1908 40.131 28.2838 40.7177C26.3769 41.3045 23.8832 39.3975 21.8296 39.3975C19.776 39.3975 17.2823 41.3045 15.3754 40.7177C13.3217 40.131 12.5883 37.0505 10.9747 35.877C9.36118 34.7035 6.13406 34.8502 4.96056 33.2367C3.78706 31.4764 4.81387 28.6893 4.22712 26.6357C3.64037 24.7288 1 22.9685 1 20.9149C1 18.8613 3.64037 17.1011 4.22712 15.1941C4.81387 13.1405 3.78706 10.3534 4.96056 8.59319C6.13406 6.97963 9.36118 7.12631 10.9747 5.95282C12.5883 4.77932 13.4684 1.69888 15.3754 1.11213C17.2823 0.525385 19.776 2.43232 21.8296 2.43232C23.8832 2.43232 26.3769 0.525385 28.2838 1.11213C30.3375 1.69888 31.0709 4.77932 32.6845 5.95282C34.298 7.12631 37.5251 6.97963 38.6986 8.59319C39.8721 10.2067 38.8453 13.1405 39.4321 15.1941C40.0188 17.1011 42.6592 18.8613 42.6592 20.9149Z" stroke="#008858" stroke-width="2" stroke-linecap="round" stroke-linejoin="round"/>
<path id="Path_2" d="M30.9366 38.1266L32.5378 57L24.1766 52.0127L15.8154 57V41.4512" stroke="#008858" stroke-width="2" stroke-linecap="round" stroke-linejoin="round"/>
<g id="Group">
<path id="Path_3" fill-rule="evenodd" clip-rule="evenodd" d="M27.1103 22.5285C25.7901 26.489 22.4163 28.9827 19.9226 28.1026C17.2822 27.2225 16.2554 23.2619 17.7223 19.3013C19.0425 15.3408 22.4163 12.8471 24.91 13.7272C25.4967 14.0206 26.0834 14.314 26.5235 14.9007C27.8437 16.661 28.1371 19.5947 27.1103 22.5285Z" stroke="#D4AE5E" stroke-width="2" stroke-linecap="round" stroke-linejoin="round"/>
<path id="Path_4" d="M26.8172 15.6342C26.8172 15.6342 22.5633 17.8345 21.8299 22.5285C21.2431 27.2225 18.4561 27.3691 18.4561 27.3691" stroke="#D4AE5E" stroke-width="2" stroke-linecap="round" stroke-linejoin="round"/>
</g>
<g id="Group_2">
<path id="Path_5" d="M11.415 13.7272C13.762 10.06 17.8693 7.71301 22.5633 7.71301C26.6705 7.71301 30.4844 9.61995 32.8314 12.7004" stroke="#D4AE5E" stroke-width="2" stroke-linecap="round" stroke-linejoin="round"/>
<path id="Path_6" d="M33.7114 9.62V13.7272L29.1641 12.5537" stroke="#D4AE5E" stroke-width="2" stroke-linecap="round" stroke-linejoin="round"/>
</g>
<g id="Group_3">
<path id="Path_7" d="M33.1244 28.1027C30.7774 31.7698 26.6701 34.1168 21.9761 34.1168C17.8689 34.1168 14.055 32.2099 11.708 29.1295" stroke="#D4AE5E" stroke-width="2" stroke-linecap="round" stroke-linejoin="round"/>
<path id="Path_8" d="M10.6816 31.7698V27.9559L14.4955 28.9827" stroke="#D4AE5E" stroke-width="2" stroke-linecap="round" stroke-linejoin="round"/>
</g>
<path id="Path_9" d="M10.6809 15.6342C10.6809 15.6342 10.3875 16.2209 10.3875 16.5143" stroke="#D4AE5E" stroke-width="2" stroke-linecap="round" stroke-linejoin="round"/>
</g>
</svg>
