<svg width="45" height="43" viewBox="0 0 45 43" fill="none" xmlns="http://www.w3.org/2000/svg">
<g id="Sewn Icon_price system multiple opportunities for farmers">
<rect id="Rectangle" x="24.9805" y="16.7937" width="4.73" height="22.33" stroke="#D4AE5E" stroke-width="2" stroke-linecap="round" stroke-linejoin="round"/>
<path id="Path" d="M37.9605 39.1237H33.2305V25.8137H37.9605V35.8237" stroke="#D4AE5E" stroke-width="2" stroke-linecap="round" stroke-linejoin="round"/>
<g id="Group">
<path id="Path_2" fill-rule="evenodd" clip-rule="evenodd" d="M14.8604 25.8137H17.6104C20.1404 25.8137 22.3404 23.7237 22.3404 21.0837V21.0837H19.5904C16.9504 21.1937 14.8604 23.2837 14.8604 25.8137V25.8137Z" stroke="#008858" stroke-width="2" stroke-linecap="round" stroke-linejoin="round"/>
<g id="Group_2">
<path id="Path_3" fill-rule="evenodd" clip-rule="evenodd" d="M17.7285 14.7037C16.7385 14.2637 15.5201 13.2737 15.4101 12.3937C15.0801 10.6337 16.7301 8.87369 19.1501 8.43369C21.5701 7.99369 23.6601 9.09369 23.9901 10.8537C24.3201 12.5037 22.8901 14.1537 20.6901 14.7037H17.7285Z" stroke="#008858" stroke-width="2" stroke-linecap="round" stroke-linejoin="round"/>
<ellipse id="Oval" cx="14.4138" cy="5.56705" rx="3.19012" ry="4.07015" transform="rotate(-10.1132 14.4138 5.56705)" stroke="#008858" stroke-width="2" stroke-linecap="round" stroke-linejoin="round"/>
<ellipse id="Oval_2" cx="10.2487" cy="12.2873" rx="4.07015" ry="3.19012" transform="rotate(-10.1132 10.2487 12.2873)" stroke="#008858" stroke-width="2" stroke-linecap="round" stroke-linejoin="round"/>
</g>
<path id="Path_4" fill-rule="evenodd" clip-rule="evenodd" d="M14.8599 33.4037H11.0099C8.25992 33.4037 6.16992 31.2037 6.16992 28.5637V28.5637H10.0199C12.6599 28.4537 14.8599 30.6537 14.8599 33.4037V33.4037Z" stroke="#008858" stroke-width="2" stroke-linecap="round" stroke-linejoin="round"/>
<path id="Path_5" d="M14.8605 11.4037V38.6837" stroke="#008858" stroke-width="2" stroke-linecap="round" stroke-linejoin="round"/>
</g>
<path id="Path_6" d="M3.63965 2.27368V38.9037L43.7896 39.1237" stroke="#008858" stroke-width="2" stroke-linecap="round" stroke-linejoin="round"/>
<path id="Path_7" d="M1 3.92371L3.53 1.17371L6.17 3.92371" stroke="#008858" stroke-width="2" stroke-linecap="round" stroke-linejoin="round"/>
<path id="Path_8" d="M40.2698 36.3737L43.7898 39.1237L40.0498 41.1037" stroke="#008858" stroke-width="2" stroke-linecap="round" stroke-linejoin="round"/>
<path id="Path_9" d="M37.9602 37.3637V37.8037" stroke="#D4AE5E" stroke-linecap="round" stroke-linejoin="round"/>
</g>
</svg>
